<?xml version="1.0" encoding="UTF-8" standalone="no"?>
<!DOCTYPE svg PUBLIC "-//W3C//DTD SVG 1.1//EN"
 "http://www.w3.org/Graphics/SVG/1.1/DTD/svg11.dtd">
<!-- Generated by graphviz version 14.1.0 (20251206.1807)
 -->
<!-- Title: src/main/java/it/unisa/biblioteca/gruppo21/App.java Pages: 1 -->
<svg width="1947pt" height="96pt"
 viewBox="0.00 0.00 1947.00 96.00" xmlns="http://www.w3.org/2000/svg" xmlns:xlink="http://www.w3.org/1999/xlink">
<g id="graph0" class="graph" transform="scale(1 1) rotate(0) translate(4 92)">
<title>src/main/java/it/unisa/biblioteca/gruppo21/App.java</title>
<!-- Node1 -->
<g id="Node000001" class="node">
<title>Node1</title>
<g id="a_Node000001"><a xlink:title="Punto di ingresso (Entry Point) dell&#39;applicazione JavaFX.">
<polygon fill="#999999" stroke="#666666" points="1139.62,-88 995.38,-88 995.38,-56 1139.62,-56 1139.62,-88"/>
<text xml:space="preserve" text-anchor="start" x="1003.38" y="-74.5" font-family="Helvetica,sans-Serif" font-size="10.00">src/main/java/it/unisa</text>
<text xml:space="preserve" text-anchor="middle" x="1067.5" y="-62.5" font-family="Helvetica,sans-Serif" font-size="10.00">/biblioteca/gruppo21/App.java</text>
</a>
</g>
</g>
<!-- Node2 -->
<g id="Node000002" class="node">
<title>Node2</title>
<g id="a_Node000002"><a xlink:title=" ">
<polygon fill="#e0e0e0" stroke="#999999" points="157,-20 0,-20 0,0 157,0 157,-20"/>
<text xml:space="preserve" text-anchor="middle" x="78.5" y="-6.5" font-family="Helvetica,sans-Serif" font-size="10.00">it.unisa.biblioteca.gruppo21.gui.*</text>
</a>
</g>
</g>
<!-- Node1&#45;&gt;Node2 -->
<g id="edge1_Node000001_Node000002" class="edge">
<title>Node1&#45;&gt;Node2</title>
<g id="a_edge1_Node000001_Node000002"><a xlink:title=" ">
<path fill="none" stroke="#63b8ff" d="M994.93,-68.05C843.41,-61.63 482.1,-45.02 168.35,-20.19"/>
<polygon fill="#63b8ff" stroke="#63b8ff" points="168.96,-16.73 158.71,-19.43 168.41,-23.71 168.96,-16.73"/>
</a>
</g>
</g>
<!-- Node3 -->
<g id="Node000003" class="node">
<title>Node3</title>
<g id="a_Node000003"><a xlink:title=" ">
<polygon fill="#e0e0e0" stroke="#999999" points="350.38,-20 174.62,-20 174.62,0 350.38,0 350.38,-20"/>
<text xml:space="preserve" text-anchor="middle" x="262.5" y="-6.5" font-family="Helvetica,sans-Serif" font-size="10.00">it.unisa.biblioteca.gruppo21.archive.*</text>
</a>
</g>
</g>
<!-- Node1&#45;&gt;Node3 -->
<g id="edge2_Node000001_Node000003" class="edge">
<title>Node1&#45;&gt;Node3</title>
<g id="a_edge2_Node000001_Node000003"><a xlink:title=" ">
<path fill="none" stroke="#63b8ff" d="M995.1,-66.28C868.91,-57.94 600.19,-39.71 362.1,-20.2"/>
<polygon fill="#63b8ff" stroke="#63b8ff" points="362.54,-16.72 352.29,-19.39 361.97,-23.7 362.54,-16.72"/>
</a>
</g>
</g>
<!-- Node4 -->
<g id="Node000004" class="node">
<title>Node4</title>
<g id="a_Node000004"><a xlink:title=" ">
<polygon fill="#e0e0e0" stroke="#999999" points="544.38,-20 368.62,-20 368.62,0 544.38,0 544.38,-20"/>
<text xml:space="preserve" text-anchor="middle" x="456.5" y="-6.5" font-family="Helvetica,sans-Serif" font-size="10.00">it.unisa.biblioteca.gruppo21.service.*</text>
</a>
</g>
</g>
<!-- Node1&#45;&gt;Node4 -->
<g id="edge3_Node000001_Node000004" class="edge">
<title>Node1&#45;&gt;Node4</title>
<g id="a_edge3_Node000001_Node000004"><a xlink:title=" ">
<path fill="none" stroke="#63b8ff" d="M995.01,-63.88C885.88,-53.17 679.09,-32.86 555.95,-20.77"/>
<polygon fill="#63b8ff" stroke="#63b8ff" points="556.47,-17.3 546.18,-19.81 555.79,-24.27 556.47,-17.3"/>
</a>
</g>
</g>
<!-- Node5 -->
<g id="Node000005" class="node">
<title>Node5</title>
<g id="a_Node000005"><a xlink:title=" ">
<polygon fill="#e0e0e0" stroke="#999999" points="704.88,-20 562.12,-20 562.12,0 704.88,0 704.88,-20"/>
<text xml:space="preserve" text-anchor="middle" x="633.5" y="-6.5" font-family="Helvetica,sans-Serif" font-size="10.00">javafx.application.Application</text>
</a>
</g>
</g>
<!-- Node1&#45;&gt;Node5 -->
<g id="edge4_Node000001_Node000005" class="edge">
<title>Node1&#45;&gt;Node5</title>
<g id="a_edge4_Node000001_Node000005"><a xlink:title=" ">
<path fill="none" stroke="#63b8ff" d="M995.35,-61.02C917.42,-50.25 793.63,-33.14 712.97,-21.99"/>
<polygon fill="#63b8ff" stroke="#63b8ff" points="713.77,-18.56 703.38,-20.66 712.81,-25.5 713.77,-18.56"/>
</a>
</g>
</g>
<!-- Node6 -->
<g id="Node000006" class="node">
<title>Node6</title>
<g id="a_Node000006"><a xlink:title=" ">
<polygon fill="#e0e0e0" stroke="#999999" points="848.25,-20 722.75,-20 722.75,0 848.25,0 848.25,-20"/>
<text xml:space="preserve" text-anchor="middle" x="785.5" y="-6.5" font-family="Helvetica,sans-Serif" font-size="10.00">javafx.event.ActionEvent</text>
</a>
</g>
</g>
<!-- Node1&#45;&gt;Node6 -->
<g id="edge5_Node000001_Node000006" class="edge">
<title>Node1&#45;&gt;Node6</title>
<g id="a_edge5_Node000001_Node000006"><a xlink:title=" ">
<path fill="none" stroke="#63b8ff" d="M994.88,-55.55C946.99,-45.36 885.21,-32.22 841.2,-22.85"/>
<polygon fill="#63b8ff" stroke="#63b8ff" points="842.12,-19.47 831.61,-20.81 840.67,-26.32 842.12,-19.47"/>
</a>
</g>
</g>
<!-- Node7 -->
<g id="Node000007" class="node">
<title>Node7</title>
<g id="a_Node000007"><a xlink:title=" ">
<polygon fill="#e0e0e0" stroke="#999999" points="998.25,-20 866.75,-20 866.75,0 998.25,0 998.25,-20"/>
<text xml:space="preserve" text-anchor="middle" x="932.5" y="-6.5" font-family="Helvetica,sans-Serif" font-size="10.00">javafx.event.EventHandler</text>
</a>
</g>
</g>
<!-- Node1&#45;&gt;Node7 -->
<g id="edge6_Node000001_Node000007" class="edge">
<title>Node1&#45;&gt;Node7</title>
<g id="a_edge6_Node000001_Node000007"><a xlink:title=" ">
<path fill="none" stroke="#63b8ff" d="M1032.73,-55.55C1011.54,-46.13 984.67,-34.19 964.09,-25.04"/>
<polygon fill="#63b8ff" stroke="#63b8ff" points="965.61,-21.89 955.05,-21.02 962.77,-28.28 965.61,-21.89"/>
</a>
</g>
</g>
<!-- Node8 -->
<g id="Node000008" class="node">
<title>Node8</title>
<g id="a_Node000008"><a xlink:title=" ">
<polygon fill="#e0e0e0" stroke="#999999" points="1118.62,-20 1016.38,-20 1016.38,0 1118.62,0 1118.62,-20"/>
<text xml:space="preserve" text-anchor="middle" x="1067.5" y="-6.5" font-family="Helvetica,sans-Serif" font-size="10.00">javafx.scene.Scene</text>
</a>
</g>
</g>
<!-- Node1&#45;&gt;Node8 -->
<g id="edge7_Node000001_Node000008" class="edge">
<title>Node1&#45;&gt;Node8</title>
<g id="a_edge7_Node000001_Node000008"><a xlink:title=" ">
<path fill="none" stroke="#63b8ff" d="M1067.5,-55.55C1067.5,-48.34 1067.5,-39.66 1067.5,-31.88"/>
<polygon fill="#63b8ff" stroke="#63b8ff" points="1071,-31.92 1067.5,-21.92 1064,-31.92 1071,-31.92"/>
</a>
</g>
</g>
<!-- Node9 -->
<g id="Node000009" class="node">
<title>Node9</title>
<g id="a_Node000009"><a xlink:title=" ">
<polygon fill="#e0e0e0" stroke="#999999" points="1240,-20 1137,-20 1137,0 1240,0 1240,-20"/>
<text xml:space="preserve" text-anchor="middle" x="1188.5" y="-6.5" font-family="Helvetica,sans-Serif" font-size="10.00">javafx.scene.Parent</text>
</a>
</g>
</g>
<!-- Node1&#45;&gt;Node9 -->
<g id="edge8_Node000001_Node000009" class="edge">
<title>Node1&#45;&gt;Node9</title>
<g id="a_edge8_Node000001_Node000009"><a xlink:title=" ">
<path fill="none" stroke="#63b8ff" d="M1098.66,-55.55C1117.39,-46.26 1141.07,-34.52 1159.42,-25.42"/>
<polygon fill="#63b8ff" stroke="#63b8ff" points="1160.77,-28.66 1168.17,-21.08 1157.66,-22.39 1160.77,-28.66"/>
</a>
</g>
</g>
<!-- Node10 -->
<g id="Node000010" class="node">
<title>Node10</title>
<g id="a_Node000010"><a xlink:title=" ">
<polygon fill="#e0e0e0" stroke="#999999" points="1393.12,-20 1257.88,-20 1257.88,0 1393.12,0 1393.12,-20"/>
<text xml:space="preserve" text-anchor="middle" x="1325.5" y="-6.5" font-family="Helvetica,sans-Serif" font-size="10.00">javafx.scene.control.Button</text>
</a>
</g>
</g>
<!-- Node1&#45;&gt;Node10 -->
<g id="edge9_Node000001_Node000010" class="edge">
<title>Node1&#45;&gt;Node10</title>
<g id="a_edge9_Node000001_Node000010"><a xlink:title=" ">
<path fill="none" stroke="#63b8ff" d="M1133.94,-55.55C1177.38,-45.45 1233.31,-32.44 1273.51,-23.09"/>
<polygon fill="#63b8ff" stroke="#63b8ff" points="1274.24,-26.51 1283.19,-20.84 1272.66,-19.7 1274.24,-26.51"/>
</a>
</g>
</g>
<!-- Node11 -->
<g id="Node000011" class="node">
<title>Node11</title>
<g id="a_Node000011"><a xlink:title=" ">
<polygon fill="#e0e0e0" stroke="#999999" points="1563.38,-20 1411.62,-20 1411.62,0 1563.38,0 1563.38,-20"/>
<text xml:space="preserve" text-anchor="middle" x="1487.5" y="-6.5" font-family="Helvetica,sans-Serif" font-size="10.00">javafx.scene.layout.StackPane</text>
</a>
</g>
</g>
<!-- Node1&#45;&gt;Node11 -->
<g id="edge10_Node000001_Node000011" class="edge">
<title>Node1&#45;&gt;Node11</title>
<g id="a_edge10_Node000001_Node000011"><a xlink:title=" ">
<path fill="none" stroke="#63b8ff" d="M1139.7,-60.69C1215.04,-49.92 1332.73,-33.11 1409.99,-22.07"/>
<polygon fill="#63b8ff" stroke="#63b8ff" points="1410.18,-25.58 1419.58,-20.7 1409.19,-18.65 1410.18,-25.58"/>
</a>
</g>
</g>
<!-- Node12 -->
<g id="Node000012" class="node">
<title>Node12</title>
<g id="a_Node000012"><a xlink:title=" ">
<polygon fill="#e0e0e0" stroke="#999999" points="1679.38,-20 1581.62,-20 1581.62,0 1679.38,0 1679.38,-20"/>
<text xml:space="preserve" text-anchor="middle" x="1630.5" y="-6.5" font-family="Helvetica,sans-Serif" font-size="10.00">javafx.stage.Stage</text>
</a>
</g>
</g>
<!-- Node1&#45;&gt;Node12 -->
<g id="edge11_Node000001_Node000012" class="edge">
<title>Node1&#45;&gt;Node12</title>
<g id="a_edge11_Node000001_Node000012"><a xlink:title=" ">
<path fill="none" stroke="#63b8ff" d="M1139.98,-64.9C1235.97,-56.56 1410.81,-40.41 1570.2,-20.24"/>
<polygon fill="#63b8ff" stroke="#63b8ff" points="1570.19,-23.77 1579.66,-19.03 1569.3,-16.82 1570.19,-23.77"/>
</a>
</g>
</g>
<!-- Node13 -->
<g id="Node000013" class="node">
<title>Node13</title>
<g id="a_Node000013"><a xlink:title=" ">
<polygon fill="#e0e0e0" stroke="#999999" points="1819.75,-20 1697.25,-20 1697.25,0 1819.75,0 1819.75,-20"/>
<text xml:space="preserve" text-anchor="middle" x="1758.5" y="-6.5" font-family="Helvetica,sans-Serif" font-size="10.00">javafx.fxml.FXMLLoader</text>
</a>
</g>
</g>
<!-- Node1&#45;&gt;Node13 -->
<g id="edge12_Node000001_Node000013" class="edge">
<title>Node1&#45;&gt;Node13</title>
<g id="a_edge12_Node000001_Node000013"><a xlink:title=" ">
<path fill="none" stroke="#63b8ff" d="M1139.79,-66.15C1253.61,-58.26 1481.85,-41.49 1685.83,-20.24"/>
<polygon fill="#63b8ff" stroke="#63b8ff" points="1685.97,-23.74 1695.55,-19.22 1685.24,-16.78 1685.97,-23.74"/>
</a>
</g>
</g>
<!-- Node14 -->
<g id="Node000014" class="node">
<title>Node14</title>
<g id="a_Node000014"><a xlink:title=" ">
<polygon fill="#e0e0e0" stroke="#999999" points="1939.25,-20 1837.75,-20 1837.75,0 1939.25,0 1939.25,-20"/>
<text xml:space="preserve" text-anchor="middle" x="1888.5" y="-6.5" font-family="Helvetica,sans-Serif" font-size="10.00">java.io.IOException</text>
</a>
</g>
</g>
<!-- Node1&#45;&gt;Node14 -->
<g id="edge13_Node000001_Node000014" class="edge">
<title>Node1&#45;&gt;Node14</title>
<g id="a_edge13_Node000001_Node000014"><a xlink:title=" ">
<path fill="none" stroke="#63b8ff" d="M1140.07,-68.12C1273.71,-62.38 1567.92,-47.73 1826.36,-20.14"/>
<polygon fill="#63b8ff" stroke="#63b8ff" points="1826.4,-23.66 1835.97,-19.11 1825.65,-16.7 1826.4,-23.66"/>
</a>
</g>
</g>
</g>
</svg>
