<?xml version="1.0" encoding="UTF-8" standalone="no"?>
<!DOCTYPE svg PUBLIC "-//W3C//DTD SVG 1.1//EN"
 "http://www.w3.org/Graphics/SVG/1.1/DTD/svg11.dtd">
<!-- Generated by graphviz version 14.1.0 (20251206.1807)
 -->
<!-- Title: src/main/java/it/unisa/biblioteca/gruppo21/App.java Pages: 1 -->
<svg width="1179pt" height="96pt"
 viewBox="0.00 0.00 1179.00 96.00" xmlns="http://www.w3.org/2000/svg" xmlns:xlink="http://www.w3.org/1999/xlink">
<g id="graph0" class="graph" transform="scale(1 1) rotate(0) translate(4 92)">
<title>src/main/java/it/unisa/biblioteca/gruppo21/App.java</title>
<!-- Node1 -->
<g id="Node000001" class="node">
<title>Node1</title>
<g id="a_Node000001"><a xlink:title="Punto di ingresso (Entry Point) dell&#39;applicazione JavaFX.">
<polygon fill="#999999" stroke="#666666" points="684.62,-88 540.38,-88 540.38,-56 684.62,-56 684.62,-88"/>
<text xml:space="preserve" text-anchor="start" x="548.38" y="-74.5" font-family="Helvetica,sans-Serif" font-size="10.00">src/main/java/it/unisa</text>
<text xml:space="preserve" text-anchor="middle" x="612.5" y="-62.5" font-family="Helvetica,sans-Serif" font-size="10.00">/biblioteca/gruppo21/App.java</text>
</a>
</g>
</g>
<!-- Node2 -->
<g id="Node000002" class="node">
<title>Node2</title>
<g id="a_Node000002"><a xlink:title=" ">
<polygon fill="#e0e0e0" stroke="#999999" points="157,-20 0,-20 0,0 157,0 157,-20"/>
<text xml:space="preserve" text-anchor="middle" x="78.5" y="-6.5" font-family="Helvetica,sans-Serif" font-size="10.00">it.unisa.biblioteca.gruppo21.gui.*</text>
</a>
</g>
</g>
<!-- Node1&#45;&gt;Node2 -->
<g id="edge1_Node000001_Node000002" class="edge">
<title>Node1&#45;&gt;Node2</title>
<g id="a_edge1_Node000001_Node000002"><a xlink:title=" ">
<path fill="none" stroke="#63b8ff" d="M539.93,-62.85C443.49,-52.01 273.14,-32.87 168.59,-21.12"/>
<polygon fill="#63b8ff" stroke="#63b8ff" points="169.27,-17.68 158.94,-20.04 168.48,-24.63 169.27,-17.68"/>
</a>
</g>
</g>
<!-- Node3 -->
<g id="Node000003" class="node">
<title>Node3</title>
<g id="a_Node000003"><a xlink:title=" ">
<polygon fill="#e0e0e0" stroke="#999999" points="317.88,-20 175.12,-20 175.12,0 317.88,0 317.88,-20"/>
<text xml:space="preserve" text-anchor="middle" x="246.5" y="-6.5" font-family="Helvetica,sans-Serif" font-size="10.00">javafx.application.Application</text>
</a>
</g>
</g>
<!-- Node1&#45;&gt;Node3 -->
<g id="edge2_Node000001_Node000003" class="edge">
<title>Node1&#45;&gt;Node3</title>
<g id="a_edge2_Node000001_Node000003"><a xlink:title=" ">
<path fill="none" stroke="#63b8ff" d="M540.19,-59.15C474.94,-48.45 379.62,-32.82 315.44,-22.3"/>
<polygon fill="#63b8ff" stroke="#63b8ff" points="316.16,-18.87 305.72,-20.71 315.02,-25.78 316.16,-18.87"/>
</a>
</g>
</g>
<!-- Node4 -->
<g id="Node000004" class="node">
<title>Node4</title>
<g id="a_Node000004"><a xlink:title=" ">
<polygon fill="#e0e0e0" stroke="#999999" points="461.25,-20 335.75,-20 335.75,0 461.25,0 461.25,-20"/>
<text xml:space="preserve" text-anchor="middle" x="398.5" y="-6.5" font-family="Helvetica,sans-Serif" font-size="10.00">javafx.event.ActionEvent</text>
</a>
</g>
</g>
<!-- Node1&#45;&gt;Node4 -->
<g id="edge3_Node000001_Node000004" class="edge">
<title>Node1&#45;&gt;Node4</title>
<g id="a_edge3_Node000001_Node000004"><a xlink:title=" ">
<path fill="none" stroke="#63b8ff" d="M557.39,-55.55C521.9,-45.6 476.35,-32.83 443.13,-23.51"/>
<polygon fill="#63b8ff" stroke="#63b8ff" points="444.4,-20.23 433.83,-20.9 442.51,-26.97 444.4,-20.23"/>
</a>
</g>
</g>
<!-- Node5 -->
<g id="Node000005" class="node">
<title>Node5</title>
<g id="a_Node000005"><a xlink:title=" ">
<polygon fill="#e0e0e0" stroke="#999999" points="611.25,-20 479.75,-20 479.75,0 611.25,0 611.25,-20"/>
<text xml:space="preserve" text-anchor="middle" x="545.5" y="-6.5" font-family="Helvetica,sans-Serif" font-size="10.00">javafx.event.EventHandler</text>
</a>
</g>
</g>
<!-- Node1&#45;&gt;Node5 -->
<g id="edge4_Node000001_Node000005" class="edge">
<title>Node1&#45;&gt;Node5</title>
<g id="a_edge4_Node000001_Node000005"><a xlink:title=" ">
<path fill="none" stroke="#63b8ff" d="M595.25,-55.55C585.84,-47.13 574.19,-36.69 564.52,-28.04"/>
<polygon fill="#63b8ff" stroke="#63b8ff" points="566.92,-25.48 557.13,-21.42 562.25,-30.7 566.92,-25.48"/>
</a>
</g>
</g>
<!-- Node6 -->
<g id="Node000006" class="node">
<title>Node6</title>
<g id="a_Node000006"><a xlink:title=" ">
<polygon fill="#e0e0e0" stroke="#999999" points="731.62,-20 629.38,-20 629.38,0 731.62,0 731.62,-20"/>
<text xml:space="preserve" text-anchor="middle" x="680.5" y="-6.5" font-family="Helvetica,sans-Serif" font-size="10.00">javafx.scene.Scene</text>
</a>
</g>
</g>
<!-- Node1&#45;&gt;Node6 -->
<g id="edge5_Node000001_Node000006" class="edge">
<title>Node1&#45;&gt;Node6</title>
<g id="a_edge5_Node000001_Node000006"><a xlink:title=" ">
<path fill="none" stroke="#63b8ff" d="M630.01,-55.55C639.65,-47.04 651.63,-36.48 661.5,-27.77"/>
<polygon fill="#63b8ff" stroke="#63b8ff" points="663.52,-30.65 668.7,-21.41 658.89,-25.4 663.52,-30.65"/>
</a>
</g>
</g>
<!-- Node7 -->
<g id="Node000007" class="node">
<title>Node7</title>
<g id="a_Node000007"><a xlink:title=" ">
<polygon fill="#e0e0e0" stroke="#999999" points="885.12,-20 749.88,-20 749.88,0 885.12,0 885.12,-20"/>
<text xml:space="preserve" text-anchor="middle" x="817.5" y="-6.5" font-family="Helvetica,sans-Serif" font-size="10.00">javafx.scene.control.Button</text>
</a>
</g>
</g>
<!-- Node1&#45;&gt;Node7 -->
<g id="edge6_Node000001_Node000007" class="edge">
<title>Node1&#45;&gt;Node7</title>
<g id="a_edge6_Node000001_Node000007"><a xlink:title=" ">
<path fill="none" stroke="#63b8ff" d="M665.29,-55.55C699.15,-45.64 742.54,-32.94 774.33,-23.64"/>
<polygon fill="#63b8ff" stroke="#63b8ff" points="774.99,-27.09 783.6,-20.92 773.02,-20.37 774.99,-27.09"/>
</a>
</g>
</g>
<!-- Node8 -->
<g id="Node000008" class="node">
<title>Node8</title>
<g id="a_Node000008"><a xlink:title=" ">
<polygon fill="#e0e0e0" stroke="#999999" points="1055.38,-20 903.62,-20 903.62,0 1055.38,0 1055.38,-20"/>
<text xml:space="preserve" text-anchor="middle" x="979.5" y="-6.5" font-family="Helvetica,sans-Serif" font-size="10.00">javafx.scene.layout.StackPane</text>
</a>
</g>
</g>
<!-- Node1&#45;&gt;Node8 -->
<g id="edge7_Node000001_Node000008" class="edge">
<title>Node1&#45;&gt;Node8</title>
<g id="a_edge7_Node000001_Node000008"><a xlink:title=" ">
<path fill="none" stroke="#63b8ff" d="M685.01,-59.15C750.43,-48.45 846.01,-32.82 910.37,-22.3"/>
<polygon fill="#63b8ff" stroke="#63b8ff" points="910.82,-25.78 920.12,-20.71 909.69,-18.87 910.82,-25.78"/>
</a>
</g>
</g>
<!-- Node9 -->
<g id="Node000009" class="node">
<title>Node9</title>
<g id="a_Node000009"><a xlink:title=" ">
<polygon fill="#e0e0e0" stroke="#999999" points="1171.38,-20 1073.62,-20 1073.62,0 1171.38,0 1171.38,-20"/>
<text xml:space="preserve" text-anchor="middle" x="1122.5" y="-6.5" font-family="Helvetica,sans-Serif" font-size="10.00">javafx.stage.Stage</text>
</a>
</g>
</g>
<!-- Node1&#45;&gt;Node9 -->
<g id="edge8_Node000001_Node000009" class="edge">
<title>Node1&#45;&gt;Node9</title>
<g id="a_edge8_Node000001_Node000009"><a xlink:title=" ">
<path fill="none" stroke="#63b8ff" d="M685.03,-63.76C772.05,-54.85 922.65,-38.78 1061.87,-20.31"/>
<polygon fill="#63b8ff" stroke="#63b8ff" points="1062.21,-23.79 1071.66,-19 1061.28,-16.85 1062.21,-23.79"/>
</a>
</g>
</g>
</g>
</svg>
