<?xml version="1.0" encoding="UTF-8" standalone="no"?>
<!DOCTYPE svg PUBLIC "-//W3C//DTD SVG 1.1//EN"
 "http://www.w3.org/Graphics/SVG/1.1/DTD/svg11.dtd">
<!-- Generated by graphviz version 14.1.0 (20251206.1807)
 -->
<!-- Title: src/main/java/it/unisa/biblioteca/gruppo21/archive/ArchivePrestiti.java Pages: 1 -->
<svg width="447pt" height="120pt"
 viewBox="0.00 0.00 447.00 120.00" xmlns="http://www.w3.org/2000/svg" xmlns:xlink="http://www.w3.org/1999/xlink">
<g id="graph0" class="graph" transform="scale(1 1) rotate(0) translate(4 116)">
<title>src/main/java/it/unisa/biblioteca/gruppo21/archive/ArchivePrestiti.java</title>
<!-- Node1 -->
<g id="Node000001" class="node">
<title>Node1</title>
<g id="a_Node000001"><a xlink:title="Implementazione concreta dell&#39;archivio per la gestione dei prestiti.">
<polygon fill="#999999" stroke="#666666" points="305.5,-112 168,-112 168,-68 305.5,-68 305.5,-112"/>
<text xml:space="preserve" text-anchor="start" x="176" y="-98.5" font-family="Helvetica,sans-Serif" font-size="10.00">src/main/java/it/unisa</text>
<text xml:space="preserve" text-anchor="start" x="176" y="-86.5" font-family="Helvetica,sans-Serif" font-size="10.00">/biblioteca/gruppo21/archive</text>
<text xml:space="preserve" text-anchor="middle" x="236.75" y="-74.5" font-family="Helvetica,sans-Serif" font-size="10.00">/ArchivePrestiti.java</text>
</a>
</g>
</g>
<!-- Node2 -->
<g id="Node000002" class="node">
<title>Node2</title>
<g id="a_Node000002"><a xlink:title=" ">
<polygon fill="#e0e0e0" stroke="#999999" points="167.5,-26 0,-26 0,-6 167.5,-6 167.5,-26"/>
<text xml:space="preserve" text-anchor="middle" x="83.75" y="-12.5" font-family="Helvetica,sans-Serif" font-size="10.00">it.unisa.biblioteca.gruppo21.entity.*</text>
</a>
</g>
</g>
<!-- Node1&#45;&gt;Node2 -->
<g id="edge1_Node000001_Node000002" class="edge">
<title>Node1&#45;&gt;Node2</title>
<g id="a_edge1_Node000001_Node000002"><a xlink:title=" ">
<path fill="none" stroke="#63b8ff" d="M191.26,-67.59C166.39,-55.89 136.26,-41.71 114.23,-31.35"/>
<polygon fill="#63b8ff" stroke="#63b8ff" points="115.73,-28.18 105.2,-27.09 112.75,-34.52 115.73,-28.18"/>
</a>
</g>
</g>
<!-- Node3 -->
<g id="Node000003" class="node">
<title>Node3</title>
<g id="a_Node000003"><a xlink:title=" ">
<polygon fill="#e0e0e0" stroke="#999999" points="288.25,-26 185.25,-26 185.25,-6 288.25,-6 288.25,-26"/>
<text xml:space="preserve" text-anchor="middle" x="236.75" y="-12.5" font-family="Helvetica,sans-Serif" font-size="10.00">java.time.LocalDate</text>
</a>
</g>
</g>
<!-- Node1&#45;&gt;Node3 -->
<g id="edge2_Node000001_Node000003" class="edge">
<title>Node1&#45;&gt;Node3</title>
<g id="a_edge2_Node000001_Node000003"><a xlink:title=" ">
<path fill="none" stroke="#63b8ff" d="M236.75,-67.79C236.75,-58.32 236.75,-47.2 236.75,-37.78"/>
<polygon fill="#63b8ff" stroke="#63b8ff" points="240.25,-37.82 236.75,-27.82 233.25,-37.82 240.25,-37.82"/>
</a>
</g>
</g>
<!-- Node4 -->
<g id="Node000004" class="node">
<title>Node4</title>
<g id="a_Node000004"><a xlink:title=" ">
<polygon fill="#e0e0e0" stroke="#999999" points="438.88,-32 306.62,-32 306.62,0 438.88,0 438.88,-32"/>
<text xml:space="preserve" text-anchor="start" x="314.62" y="-18.5" font-family="Helvetica,sans-Serif" font-size="10.00">java.time.format.DateTime</text>
<text xml:space="preserve" text-anchor="middle" x="372.75" y="-6.5" font-family="Helvetica,sans-Serif" font-size="10.00">ParseException</text>
</a>
</g>
</g>
<!-- Node1&#45;&gt;Node4 -->
<g id="edge3_Node000001_Node000004" class="edge">
<title>Node1&#45;&gt;Node4</title>
<g id="a_edge3_Node000001_Node000004"><a xlink:title=" ">
<path fill="none" stroke="#63b8ff" d="M277.19,-67.59C294.99,-58.17 315.83,-47.14 333.49,-37.78"/>
<polygon fill="#63b8ff" stroke="#63b8ff" points="334.94,-40.98 342.14,-33.2 331.67,-34.79 334.94,-40.98"/>
</a>
</g>
</g>
</g>
</svg>
