<?xml version="1.0" encoding="UTF-8" standalone="no"?>
<!DOCTYPE svg PUBLIC "-//W3C//DTD SVG 1.1//EN"
 "http://www.w3.org/Graphics/SVG/1.1/DTD/svg11.dtd">
<!-- Generated by graphviz version 14.1.0 (20251206.1807)
 -->
<!-- Title: src/main/java/it/unisa/biblioteca/gruppo21/archive/ArchiveAstratto.java Pages: 1 -->
<svg width="277pt" height="108pt"
 viewBox="0.00 0.00 277.00 108.00" xmlns="http://www.w3.org/2000/svg" xmlns:xlink="http://www.w3.org/1999/xlink">
<g id="graph0" class="graph" transform="scale(1 1) rotate(0) translate(4 104)">
<title>src/main/java/it/unisa/biblioteca/gruppo21/archive/ArchiveAstratto.java</title>
<!-- Node1 -->
<g id="Node000001" class="node">
<title>Node1</title>
<g id="a_Node000001"><a xlink:title="Implementazione base astratta per la gestione di archivi su file di testo.">
<polygon fill="#999999" stroke="#666666" points="200.38,-100 62.88,-100 62.88,-56 200.38,-56 200.38,-100"/>
<text xml:space="preserve" text-anchor="start" x="70.88" y="-86.5" font-family="Helvetica,sans-Serif" font-size="10.00">src/main/java/it/unisa</text>
<text xml:space="preserve" text-anchor="start" x="70.88" y="-74.5" font-family="Helvetica,sans-Serif" font-size="10.00">/biblioteca/gruppo21/archive</text>
<text xml:space="preserve" text-anchor="middle" x="131.62" y="-62.5" font-family="Helvetica,sans-Serif" font-size="10.00">/ArchiveAstratto.java</text>
</a>
</g>
</g>
<!-- Node2 -->
<g id="Node000002" class="node">
<title>Node2</title>
<g id="a_Node000002"><a xlink:title=" ">
<polygon fill="#e0e0e0" stroke="#999999" points="63.25,-20 0,-20 0,0 63.25,0 63.25,-20"/>
<text xml:space="preserve" text-anchor="middle" x="31.62" y="-6.5" font-family="Helvetica,sans-Serif" font-size="10.00">java.io.File</text>
</a>
</g>
</g>
<!-- Node1&#45;&gt;Node2 -->
<g id="edge1_Node000001_Node000002" class="edge">
<title>Node1&#45;&gt;Node2</title>
<g id="a_edge1_Node000001_Node000002"><a xlink:title=" ">
<path fill="none" stroke="#63b8ff" d="M99.16,-55.57C84.8,-46.09 68.23,-35.16 55.09,-26.49"/>
<polygon fill="#63b8ff" stroke="#63b8ff" points="57.35,-23.79 47.08,-21.2 53.5,-29.63 57.35,-23.79"/>
</a>
</g>
</g>
<!-- Node3 -->
<g id="Node000003" class="node">
<title>Node3</title>
<g id="a_Node000003"><a xlink:title=" ">
<polygon fill="#e0e0e0" stroke="#999999" points="182.38,-20 80.88,-20 80.88,0 182.38,0 182.38,-20"/>
<text xml:space="preserve" text-anchor="middle" x="131.62" y="-6.5" font-family="Helvetica,sans-Serif" font-size="10.00">java.io.IOException</text>
</a>
</g>
</g>
<!-- Node1&#45;&gt;Node3 -->
<g id="edge2_Node000001_Node000003" class="edge">
<title>Node1&#45;&gt;Node3</title>
<g id="a_edge2_Node000001_Node000003"><a xlink:title=" ">
<path fill="none" stroke="#63b8ff" d="M131.62,-55.75C131.62,-48.13 131.62,-39.53 131.62,-31.93"/>
<polygon fill="#63b8ff" stroke="#63b8ff" points="135.13,-31.93 131.63,-21.93 128.13,-31.93 135.13,-31.93"/>
</a>
</g>
</g>
<!-- Node4 -->
<g id="Node000004" class="node">
<title>Node4</title>
<g id="a_Node000004"><a xlink:title=" ">
<polygon fill="#e0e0e0" stroke="#999999" points="268.88,-20 200.38,-20 200.38,0 268.88,0 268.88,-20"/>
<text xml:space="preserve" text-anchor="middle" x="234.62" y="-6.5" font-family="Helvetica,sans-Serif" font-size="10.00">java.util.List</text>
</a>
</g>
</g>
<!-- Node1&#45;&gt;Node4 -->
<g id="edge3_Node000001_Node000004" class="edge">
<title>Node1&#45;&gt;Node4</title>
<g id="a_edge3_Node000001_Node000004"><a xlink:title=" ">
<path fill="none" stroke="#63b8ff" d="M165.07,-55.57C179.86,-46.09 196.93,-35.16 210.45,-26.49"/>
<polygon fill="#63b8ff" stroke="#63b8ff" points="212.2,-29.52 218.74,-21.18 208.43,-23.63 212.2,-29.52"/>
</a>
</g>
</g>
</g>
</svg>
