<?xml version="1.0" encoding="UTF-8" standalone="no"?>
<!DOCTYPE svg PUBLIC "-//W3C//DTD SVG 1.1//EN"
 "http://www.w3.org/Graphics/SVG/1.1/DTD/svg11.dtd">
<!-- Generated by graphviz version 14.1.0 (20251206.1807)
 -->
<!-- Title: src/main/java/it/unisa/biblioteca/gruppo21/archive/ArchiveAstratto.java Pages: 1 -->
<svg width="256pt" height="108pt"
 viewBox="0.00 0.00 256.00 108.00" xmlns="http://www.w3.org/2000/svg" xmlns:xlink="http://www.w3.org/1999/xlink">
<g id="graph0" class="graph" transform="scale(1 1) rotate(0) translate(4 104)">
<title>src/main/java/it/unisa/biblioteca/gruppo21/archive/ArchiveAstratto.java</title>
<!-- Node1 -->
<g id="Node000001" class="node">
<title>Node1</title>
<g id="a_Node000001"><a xlink:title="Implementazione base astratta per la gestione di archivi su file di testo.">
<polygon fill="#999999" stroke="#666666" points="172.38,-100 34.88,-100 34.88,-56 172.38,-56 172.38,-100"/>
<text xml:space="preserve" text-anchor="start" x="42.88" y="-86.5" font-family="Helvetica,sans-Serif" font-size="10.00">src/main/java/it/unisa</text>
<text xml:space="preserve" text-anchor="start" x="42.88" y="-74.5" font-family="Helvetica,sans-Serif" font-size="10.00">/biblioteca/gruppo21/archive</text>
<text xml:space="preserve" text-anchor="middle" x="103.62" y="-62.5" font-family="Helvetica,sans-Serif" font-size="10.00">/ArchiveAstratto.java</text>
</a>
</g>
</g>
<!-- Node2 -->
<g id="Node000002" class="node">
<title>Node2</title>
<g id="a_Node000002"><a xlink:title=" ">
<polygon fill="#e0e0e0" stroke="#999999" points="51.25,-20 0,-20 0,0 51.25,0 51.25,-20"/>
<text xml:space="preserve" text-anchor="middle" x="25.62" y="-6.5" font-family="Helvetica,sans-Serif" font-size="10.00">java.io.*</text>
</a>
</g>
</g>
<!-- Node1&#45;&gt;Node2 -->
<g id="edge1_Node000001_Node000002" class="edge">
<title>Node1&#45;&gt;Node2</title>
<g id="a_edge1_Node000001_Node000002"><a xlink:title=" ">
<path fill="none" stroke="#63b8ff" d="M78.52,-55.75C67.74,-46.64 55.34,-36.14 45.25,-27.61"/>
<polygon fill="#63b8ff" stroke="#63b8ff" points="47.81,-25.18 37.91,-21.4 43.28,-30.53 47.81,-25.18"/>
</a>
</g>
</g>
<!-- Node3 -->
<g id="Node000003" class="node">
<title>Node3</title>
<g id="a_Node000003"><a xlink:title=" ">
<polygon fill="#e0e0e0" stroke="#999999" points="137.88,-20 69.38,-20 69.38,0 137.88,0 137.88,-20"/>
<text xml:space="preserve" text-anchor="middle" x="103.62" y="-6.5" font-family="Helvetica,sans-Serif" font-size="10.00">java.util.List</text>
</a>
</g>
</g>
<!-- Node1&#45;&gt;Node3 -->
<g id="edge2_Node000001_Node000003" class="edge">
<title>Node1&#45;&gt;Node3</title>
<g id="a_edge2_Node000001_Node000003"><a xlink:title=" ">
<path fill="none" stroke="#63b8ff" d="M103.62,-55.75C103.62,-48.13 103.62,-39.53 103.62,-31.93"/>
<polygon fill="#63b8ff" stroke="#63b8ff" points="107.13,-31.93 103.63,-21.93 100.13,-31.93 107.13,-31.93"/>
</a>
</g>
</g>
<!-- Node4 -->
<g id="Node000004" class="node">
<title>Node4</title>
<g id="a_Node000004"><a xlink:title=" ">
<polygon fill="#e0e0e0" stroke="#999999" points="247.5,-20 155.75,-20 155.75,0 247.5,0 247.5,-20"/>
<text xml:space="preserve" text-anchor="middle" x="201.62" y="-6.5" font-family="Helvetica,sans-Serif" font-size="10.00">java.util.ArrayList</text>
</a>
</g>
</g>
<!-- Node1&#45;&gt;Node4 -->
<g id="edge3_Node000001_Node000004" class="edge">
<title>Node1&#45;&gt;Node4</title>
<g id="a_edge3_Node000001_Node000004"><a xlink:title=" ">
<path fill="none" stroke="#63b8ff" d="M135.44,-55.57C149.38,-46.19 165.44,-35.37 178.25,-26.75"/>
<polygon fill="#63b8ff" stroke="#63b8ff" points="180.12,-29.7 186.46,-21.21 176.21,-23.89 180.12,-29.7"/>
</a>
</g>
</g>
</g>
</svg>
