<?xml version="1.0" encoding="UTF-8" standalone="no"?>
<!DOCTYPE svg PUBLIC "-//W3C//DTD SVG 1.1//EN"
 "http://www.w3.org/Graphics/SVG/1.1/DTD/svg11.dtd">
<!-- Generated by graphviz version 14.1.0 (20251206.1807)
 -->
<!-- Title: src/main/java/it/unisa/biblioteca/gruppo21/archive/ArchiveInterfaccia.java Pages: 1 -->
<svg width="196pt" height="108pt"
 viewBox="0.00 0.00 196.00 108.00" xmlns="http://www.w3.org/2000/svg" xmlns:xlink="http://www.w3.org/1999/xlink">
<g id="graph0" class="graph" transform="scale(1 1) rotate(0) translate(4 104)">
<title>src/main/java/it/unisa/biblioteca/gruppo21/archive/ArchiveInterfaccia.java</title>
<!-- Node1 -->
<g id="Node000001" class="node">
<title>Node1</title>
<g id="a_Node000001"><a xlink:title="Interfaccia generica per la gestione della persistenza dei dati.">
<polygon fill="#999999" stroke="#666666" points="170.5,-100 33,-100 33,-56 170.5,-56 170.5,-100"/>
<text xml:space="preserve" text-anchor="start" x="41" y="-86.5" font-family="Helvetica,sans-Serif" font-size="10.00">src/main/java/it/unisa</text>
<text xml:space="preserve" text-anchor="start" x="41" y="-74.5" font-family="Helvetica,sans-Serif" font-size="10.00">/biblioteca/gruppo21/archive</text>
<text xml:space="preserve" text-anchor="middle" x="101.75" y="-62.5" font-family="Helvetica,sans-Serif" font-size="10.00">/ArchiveInterfaccia.java</text>
</a>
</g>
</g>
<!-- Node2 -->
<g id="Node000002" class="node">
<title>Node2</title>
<g id="a_Node000002"><a xlink:title=" ">
<polygon fill="#e0e0e0" stroke="#999999" points="101.5,-20 0,-20 0,0 101.5,0 101.5,-20"/>
<text xml:space="preserve" text-anchor="middle" x="50.75" y="-6.5" font-family="Helvetica,sans-Serif" font-size="10.00">java.io.IOException</text>
</a>
</g>
</g>
<!-- Node1&#45;&gt;Node2 -->
<g id="edge1_Node000001_Node000002" class="edge">
<title>Node1&#45;&gt;Node2</title>
<g id="a_edge1_Node000001_Node000002"><a xlink:title=" ">
<path fill="none" stroke="#63b8ff" d="M85.33,-55.75C78.79,-47.29 71.33,-37.64 65.02,-29.47"/>
<polygon fill="#63b8ff" stroke="#63b8ff" points="67.84,-27.39 58.95,-21.62 62.3,-31.67 67.84,-27.39"/>
</a>
</g>
</g>
<!-- Node3 -->
<g id="Node000003" class="node">
<title>Node3</title>
<g id="a_Node000003"><a xlink:title=" ">
<polygon fill="#e0e0e0" stroke="#999999" points="188,-20 119.5,-20 119.5,0 188,0 188,-20"/>
<text xml:space="preserve" text-anchor="middle" x="153.75" y="-6.5" font-family="Helvetica,sans-Serif" font-size="10.00">java.util.List</text>
</a>
</g>
</g>
<!-- Node1&#45;&gt;Node3 -->
<g id="edge2_Node000001_Node000003" class="edge">
<title>Node1&#45;&gt;Node3</title>
<g id="a_edge2_Node000001_Node000003"><a xlink:title=" ">
<path fill="none" stroke="#63b8ff" d="M118.49,-55.75C125.23,-47.2 132.93,-37.42 139.41,-29.2"/>
<polygon fill="#63b8ff" stroke="#63b8ff" points="141.95,-31.63 145.39,-21.61 136.45,-27.3 141.95,-31.63"/>
</a>
</g>
</g>
</g>
</svg>
