<?xml version="1.0" encoding="UTF-8" standalone="no"?>
<!DOCTYPE svg PUBLIC "-//W3C//DTD SVG 1.1//EN"
 "http://www.w3.org/Graphics/SVG/1.1/DTD/svg11.dtd">
<!-- Generated by graphviz version 14.1.0 (20251206.1807)
 -->
<!-- Title: src/main/java/it/unisa/biblioteca/gruppo21/service/Biblioteca.java Pages: 1 -->
<svg width="1313pt" height="120pt"
 viewBox="0.00 0.00 1313.00 120.00" xmlns="http://www.w3.org/2000/svg" xmlns:xlink="http://www.w3.org/1999/xlink">
<g id="graph0" class="graph" transform="scale(1 1) rotate(0) translate(4 116)">
<title>src/main/java/it/unisa/biblioteca/gruppo21/service/Biblioteca.java</title>
<!-- Node1 -->
<g id="Node000001" class="node">
<title>Node1</title>
<g id="a_Node000001"><a xlink:title="Classe Facade che espone le funzionalità principali del sistema.">
<polygon fill="#999999" stroke="#666666" points="811.75,-112 674.25,-112 674.25,-68 811.75,-68 811.75,-112"/>
<text xml:space="preserve" text-anchor="start" x="682.25" y="-98.5" font-family="Helvetica,sans-Serif" font-size="10.00">src/main/java/it/unisa</text>
<text xml:space="preserve" text-anchor="start" x="682.25" y="-86.5" font-family="Helvetica,sans-Serif" font-size="10.00">/biblioteca/gruppo21/service</text>
<text xml:space="preserve" text-anchor="middle" x="743" y="-74.5" font-family="Helvetica,sans-Serif" font-size="10.00">/Biblioteca.java</text>
</a>
</g>
</g>
<!-- Node2 -->
<g id="Node000002" class="node">
<title>Node2</title>
<g id="a_Node000002"><a xlink:title=" ">
<polygon fill="#e0e0e0" stroke="#999999" points="172,-32 0,-32 0,0 172,0 172,-32"/>
<text xml:space="preserve" text-anchor="start" x="8" y="-18.5" font-family="Helvetica,sans-Serif" font-size="10.00">it.unisa.biblioteca.gruppo21.archive.</text>
<text xml:space="preserve" text-anchor="middle" x="86" y="-6.5" font-family="Helvetica,sans-Serif" font-size="10.00">ArchiveLibri</text>
</a>
</g>
</g>
<!-- Node1&#45;&gt;Node2 -->
<g id="edge1_Node000001_Node000002" class="edge">
<title>Node1&#45;&gt;Node2</title>
<g id="a_edge1_Node000001_Node000002"><a xlink:title=" ">
<path fill="none" stroke="#63b8ff" d="M674.08,-83.25C570.09,-74.3 366.61,-55.73 183.63,-32.3"/>
<polygon fill="#63b8ff" stroke="#63b8ff" points="184.3,-28.86 173.94,-31.05 183.41,-35.8 184.3,-28.86"/>
</a>
</g>
</g>
<!-- Node3 -->
<g id="Node000003" class="node">
<title>Node3</title>
<g id="a_Node000003"><a xlink:title=" ">
<polygon fill="#e0e0e0" stroke="#999999" points="362,-32 190,-32 190,0 362,0 362,-32"/>
<text xml:space="preserve" text-anchor="start" x="198" y="-18.5" font-family="Helvetica,sans-Serif" font-size="10.00">it.unisa.biblioteca.gruppo21.archive.</text>
<text xml:space="preserve" text-anchor="middle" x="276" y="-6.5" font-family="Helvetica,sans-Serif" font-size="10.00">ArchivePrestiti</text>
</a>
</g>
</g>
<!-- Node1&#45;&gt;Node3 -->
<g id="edge2_Node000001_Node000003" class="edge">
<title>Node1&#45;&gt;Node3</title>
<g id="a_edge2_Node000001_Node000003"><a xlink:title=" ">
<path fill="none" stroke="#63b8ff" d="M674.08,-78.54C601.8,-67.54 484.58,-49.64 373.54,-32.39"/>
<polygon fill="#63b8ff" stroke="#63b8ff" points="374.38,-28.98 363.96,-30.9 373.3,-35.9 374.38,-28.98"/>
</a>
</g>
</g>
<!-- Node4 -->
<g id="Node000004" class="node">
<title>Node4</title>
<g id="a_Node000004"><a xlink:title=" ">
<polygon fill="#e0e0e0" stroke="#999999" points="552,-32 380,-32 380,0 552,0 552,-32"/>
<text xml:space="preserve" text-anchor="start" x="388" y="-18.5" font-family="Helvetica,sans-Serif" font-size="10.00">it.unisa.biblioteca.gruppo21.archive.</text>
<text xml:space="preserve" text-anchor="middle" x="466" y="-6.5" font-family="Helvetica,sans-Serif" font-size="10.00">ArchiveUtenti</text>
</a>
</g>
</g>
<!-- Node1&#45;&gt;Node4 -->
<g id="edge3_Node000001_Node000004" class="edge">
<title>Node1&#45;&gt;Node4</title>
<g id="a_edge3_Node000001_Node000004"><a xlink:title=" ">
<path fill="none" stroke="#63b8ff" d="M673.82,-71.02C631.89,-60.12 578.55,-46.26 536.41,-35.3"/>
<polygon fill="#63b8ff" stroke="#63b8ff" points="537.42,-31.95 526.86,-32.82 535.66,-38.72 537.42,-31.95"/>
</a>
</g>
</g>
<!-- Node5 -->
<g id="Node000005" class="node">
<title>Node5</title>
<g id="a_Node000005"><a xlink:title=" ">
<polygon fill="#e0e0e0" stroke="#999999" points="733.88,-32 570.12,-32 570.12,0 733.88,0 733.88,-32"/>
<text xml:space="preserve" text-anchor="start" x="578.12" y="-18.5" font-family="Helvetica,sans-Serif" font-size="10.00">it.unisa.biblioteca.gruppo21.entity.</text>
<text xml:space="preserve" text-anchor="middle" x="652" y="-6.5" font-family="Helvetica,sans-Serif" font-size="10.00">Libro</text>
</a>
</g>
</g>
<!-- Node1&#45;&gt;Node5 -->
<g id="edge4_Node000001_Node000005" class="edge">
<title>Node1&#45;&gt;Node5</title>
<g id="a_edge4_Node000001_Node000005"><a xlink:title=" ">
<path fill="none" stroke="#63b8ff" d="M716.19,-67.79C704.85,-58.82 691.65,-48.37 680.17,-39.29"/>
<polygon fill="#63b8ff" stroke="#63b8ff" points="682.6,-36.75 672.59,-33.29 678.26,-42.24 682.6,-36.75"/>
</a>
</g>
</g>
<!-- Node6 -->
<g id="Node000006" class="node">
<title>Node6</title>
<g id="a_Node000006"><a xlink:title=" ">
<polygon fill="#e0e0e0" stroke="#999999" points="915.88,-32 752.12,-32 752.12,0 915.88,0 915.88,-32"/>
<text xml:space="preserve" text-anchor="start" x="760.12" y="-18.5" font-family="Helvetica,sans-Serif" font-size="10.00">it.unisa.biblioteca.gruppo21.entity.</text>
<text xml:space="preserve" text-anchor="middle" x="834" y="-6.5" font-family="Helvetica,sans-Serif" font-size="10.00">Prestito</text>
</a>
</g>
</g>
<!-- Node1&#45;&gt;Node6 -->
<g id="edge5_Node000001_Node000006" class="edge">
<title>Node1&#45;&gt;Node6</title>
<g id="a_edge5_Node000001_Node000006"><a xlink:title=" ">
<path fill="none" stroke="#63b8ff" d="M769.81,-67.79C781.15,-58.82 794.35,-48.37 805.83,-39.29"/>
<polygon fill="#63b8ff" stroke="#63b8ff" points="807.74,-42.24 813.41,-33.29 803.4,-36.75 807.74,-42.24"/>
</a>
</g>
</g>
<!-- Node7 -->
<g id="Node000007" class="node">
<title>Node7</title>
<g id="a_Node000007"><a xlink:title=" ">
<polygon fill="#e0e0e0" stroke="#999999" points="1097.88,-32 934.12,-32 934.12,0 1097.88,0 1097.88,-32"/>
<text xml:space="preserve" text-anchor="start" x="942.12" y="-18.5" font-family="Helvetica,sans-Serif" font-size="10.00">it.unisa.biblioteca.gruppo21.entity.</text>
<text xml:space="preserve" text-anchor="middle" x="1016" y="-6.5" font-family="Helvetica,sans-Serif" font-size="10.00">Utente</text>
</a>
</g>
</g>
<!-- Node1&#45;&gt;Node7 -->
<g id="edge6_Node000001_Node000007" class="edge">
<title>Node1&#45;&gt;Node7</title>
<g id="a_edge6_Node000001_Node000007"><a xlink:title=" ">
<path fill="none" stroke="#63b8ff" d="M812.24,-70.74C853.34,-59.9 905.27,-46.2 946.43,-35.35"/>
<polygon fill="#63b8ff" stroke="#63b8ff" points="947.22,-38.76 955.99,-32.83 945.43,-31.99 947.22,-38.76"/>
</a>
</g>
</g>
<!-- Node8 -->
<g id="Node000008" class="node">
<title>Node8</title>
<g id="a_Node000008"><a xlink:title=" ">
<polygon fill="#e0e0e0" stroke="#999999" points="1218.5,-26 1115.5,-26 1115.5,-6 1218.5,-6 1218.5,-26"/>
<text xml:space="preserve" text-anchor="middle" x="1167" y="-12.5" font-family="Helvetica,sans-Serif" font-size="10.00">java.time.LocalDate</text>
</a>
</g>
</g>
<!-- Node1&#45;&gt;Node8 -->
<g id="edge7_Node000001_Node000008" class="edge">
<title>Node1&#45;&gt;Node8</title>
<g id="a_edge7_Node000001_Node000008"><a xlink:title=" ">
<path fill="none" stroke="#63b8ff" d="M812.09,-80.06C885.56,-70.12 1004.98,-52.7 1107,-32 1111.32,-31.12 1115.79,-30.14 1120.26,-29.12"/>
<polygon fill="#63b8ff" stroke="#63b8ff" points="1120.88,-32.57 1129.8,-26.84 1119.26,-25.76 1120.88,-32.57"/>
</a>
</g>
</g>
<!-- Node9 -->
<g id="Node000009" class="node">
<title>Node9</title>
<g id="a_Node000009"><a xlink:title=" ">
<polygon fill="#e0e0e0" stroke="#999999" points="1305.25,-26 1236.75,-26 1236.75,-6 1305.25,-6 1305.25,-26"/>
<text xml:space="preserve" text-anchor="middle" x="1271" y="-12.5" font-family="Helvetica,sans-Serif" font-size="10.00">java.util.List</text>
</a>
</g>
</g>
<!-- Node1&#45;&gt;Node9 -->
<g id="edge8_Node000001_Node000009" class="edge">
<title>Node1&#45;&gt;Node9</title>
<g id="a_edge8_Node000001_Node000009"><a xlink:title=" ">
<path fill="none" stroke="#63b8ff" d="M812.08,-85.64C906.89,-79.95 1082.18,-65.58 1228,-32 1230.76,-31.36 1233.6,-30.61 1236.43,-29.79"/>
<polygon fill="#63b8ff" stroke="#63b8ff" points="1237.27,-33.19 1245.72,-26.81 1235.13,-26.53 1237.27,-33.19"/>
</a>
</g>
</g>
</g>
</svg>
