<?xml version="1.0" encoding="UTF-8" standalone="no"?>
<!DOCTYPE svg PUBLIC "-//W3C//DTD SVG 1.1//EN"
 "http://www.w3.org/Graphics/SVG/1.1/DTD/svg11.dtd">
<!-- Generated by graphviz version 14.1.0 (20251206.1807)
 -->
<!-- Title: src/main/java/it/unisa/biblioteca/gruppo21/service/Biblioteca.java Pages: 1 -->
<svg width="1192pt" height="120pt"
 viewBox="0.00 0.00 1192.00 120.00" xmlns="http://www.w3.org/2000/svg" xmlns:xlink="http://www.w3.org/1999/xlink">
<g id="graph0" class="graph" transform="scale(1 1) rotate(0) translate(4 116)">
<title>src/main/java/it/unisa/biblioteca/gruppo21/service/Biblioteca.java</title>
<!-- Node1 -->
<g id="Node000001" class="node">
<title>Node1</title>
<g id="a_Node000001"><a xlink:title="Classe Facade che espone le funzionalità principali del sistema.">
<polygon fill="#999999" stroke="#666666" points="720.75,-112 583.25,-112 583.25,-68 720.75,-68 720.75,-112"/>
<text xml:space="preserve" text-anchor="start" x="591.25" y="-98.5" font-family="Helvetica,sans-Serif" font-size="10.00">src/main/java/it/unisa</text>
<text xml:space="preserve" text-anchor="start" x="591.25" y="-86.5" font-family="Helvetica,sans-Serif" font-size="10.00">/biblioteca/gruppo21/service</text>
<text xml:space="preserve" text-anchor="middle" x="652" y="-74.5" font-family="Helvetica,sans-Serif" font-size="10.00">/Biblioteca.java</text>
</a>
</g>
</g>
<!-- Node2 -->
<g id="Node000002" class="node">
<title>Node2</title>
<g id="a_Node000002"><a xlink:title=" ">
<polygon fill="#e0e0e0" stroke="#999999" points="172,-32 0,-32 0,0 172,0 172,-32"/>
<text xml:space="preserve" text-anchor="start" x="8" y="-18.5" font-family="Helvetica,sans-Serif" font-size="10.00">it.unisa.biblioteca.gruppo21.archive.</text>
<text xml:space="preserve" text-anchor="middle" x="86" y="-6.5" font-family="Helvetica,sans-Serif" font-size="10.00">ArchiveLibri</text>
</a>
</g>
</g>
<!-- Node1&#45;&gt;Node2 -->
<g id="edge1_Node000001_Node000002" class="edge">
<title>Node1&#45;&gt;Node2</title>
<g id="a_edge1_Node000001_Node000002"><a xlink:title=" ">
<path fill="none" stroke="#63b8ff" d="M582.86,-81.43C493.2,-71.43 331.69,-52.81 183.54,-32.33"/>
<polygon fill="#63b8ff" stroke="#63b8ff" points="184.33,-28.9 173.95,-30.99 183.37,-35.84 184.33,-28.9"/>
</a>
</g>
</g>
<!-- Node3 -->
<g id="Node000003" class="node">
<title>Node3</title>
<g id="a_Node000003"><a xlink:title=" ">
<polygon fill="#e0e0e0" stroke="#999999" points="362,-32 190,-32 190,0 362,0 362,-32"/>
<text xml:space="preserve" text-anchor="start" x="198" y="-18.5" font-family="Helvetica,sans-Serif" font-size="10.00">it.unisa.biblioteca.gruppo21.archive.</text>
<text xml:space="preserve" text-anchor="middle" x="276" y="-6.5" font-family="Helvetica,sans-Serif" font-size="10.00">ArchivePrestiti</text>
</a>
</g>
</g>
<!-- Node1&#45;&gt;Node3 -->
<g id="edge2_Node000001_Node000003" class="edge">
<title>Node1&#45;&gt;Node3</title>
<g id="a_edge2_Node000001_Node000003"><a xlink:title=" ">
<path fill="none" stroke="#63b8ff" d="M583.04,-75.79C522.71,-64.24 434.61,-47.37 368.23,-34.66"/>
<polygon fill="#63b8ff" stroke="#63b8ff" points="368.91,-31.23 358.43,-32.78 367.59,-38.1 368.91,-31.23"/>
</a>
</g>
</g>
<!-- Node4 -->
<g id="Node000004" class="node">
<title>Node4</title>
<g id="a_Node000004"><a xlink:title=" ">
<polygon fill="#e0e0e0" stroke="#999999" points="552,-32 380,-32 380,0 552,0 552,-32"/>
<text xml:space="preserve" text-anchor="start" x="388" y="-18.5" font-family="Helvetica,sans-Serif" font-size="10.00">it.unisa.biblioteca.gruppo21.archive.</text>
<text xml:space="preserve" text-anchor="middle" x="466" y="-6.5" font-family="Helvetica,sans-Serif" font-size="10.00">ArchiveUtenti</text>
</a>
</g>
</g>
<!-- Node1&#45;&gt;Node4 -->
<g id="edge3_Node000001_Node000004" class="edge">
<title>Node1&#45;&gt;Node4</title>
<g id="a_edge3_Node000001_Node000004"><a xlink:title=" ">
<path fill="none" stroke="#63b8ff" d="M596.7,-67.59C571.32,-57.77 541.45,-46.2 516.67,-36.61"/>
<polygon fill="#63b8ff" stroke="#63b8ff" points="518.03,-33.39 507.44,-33.04 515.5,-39.92 518.03,-33.39"/>
</a>
</g>
</g>
<!-- Node5 -->
<g id="Node000005" class="node">
<title>Node5</title>
<g id="a_Node000005"><a xlink:title=" ">
<polygon fill="#e0e0e0" stroke="#999999" points="733.88,-32 570.12,-32 570.12,0 733.88,0 733.88,-32"/>
<text xml:space="preserve" text-anchor="start" x="578.12" y="-18.5" font-family="Helvetica,sans-Serif" font-size="10.00">it.unisa.biblioteca.gruppo21.entity.</text>
<text xml:space="preserve" text-anchor="middle" x="652" y="-6.5" font-family="Helvetica,sans-Serif" font-size="10.00">Libro</text>
</a>
</g>
</g>
<!-- Node1&#45;&gt;Node5 -->
<g id="edge4_Node000001_Node000005" class="edge">
<title>Node1&#45;&gt;Node5</title>
<g id="a_edge4_Node000001_Node000005"><a xlink:title=" ">
<path fill="none" stroke="#63b8ff" d="M652,-67.79C652,-60.18 652,-51.52 652,-43.52"/>
<polygon fill="#63b8ff" stroke="#63b8ff" points="655.5,-43.64 652,-33.64 648.5,-43.64 655.5,-43.64"/>
</a>
</g>
</g>
<!-- Node6 -->
<g id="Node000006" class="node">
<title>Node6</title>
<g id="a_Node000006"><a xlink:title=" ">
<polygon fill="#e0e0e0" stroke="#999999" points="915.88,-32 752.12,-32 752.12,0 915.88,0 915.88,-32"/>
<text xml:space="preserve" text-anchor="start" x="760.12" y="-18.5" font-family="Helvetica,sans-Serif" font-size="10.00">it.unisa.biblioteca.gruppo21.entity.</text>
<text xml:space="preserve" text-anchor="middle" x="834" y="-6.5" font-family="Helvetica,sans-Serif" font-size="10.00">Prestito</text>
</a>
</g>
</g>
<!-- Node1&#45;&gt;Node6 -->
<g id="edge5_Node000001_Node000006" class="edge">
<title>Node1&#45;&gt;Node6</title>
<g id="a_edge5_Node000001_Node000006"><a xlink:title=" ">
<path fill="none" stroke="#63b8ff" d="M706.11,-67.59C730.94,-57.77 760.18,-46.2 784.42,-36.61"/>
<polygon fill="#63b8ff" stroke="#63b8ff" points="785.41,-39.99 793.42,-33.05 782.84,-33.48 785.41,-39.99"/>
</a>
</g>
</g>
<!-- Node7 -->
<g id="Node000007" class="node">
<title>Node7</title>
<g id="a_Node000007"><a xlink:title=" ">
<polygon fill="#e0e0e0" stroke="#999999" points="1097.88,-32 934.12,-32 934.12,0 1097.88,0 1097.88,-32"/>
<text xml:space="preserve" text-anchor="start" x="942.12" y="-18.5" font-family="Helvetica,sans-Serif" font-size="10.00">it.unisa.biblioteca.gruppo21.entity.</text>
<text xml:space="preserve" text-anchor="middle" x="1016" y="-6.5" font-family="Helvetica,sans-Serif" font-size="10.00">Utente</text>
</a>
</g>
</g>
<!-- Node1&#45;&gt;Node7 -->
<g id="edge6_Node000001_Node000007" class="edge">
<title>Node1&#45;&gt;Node7</title>
<g id="a_edge6_Node000001_Node000007"><a xlink:title=" ">
<path fill="none" stroke="#63b8ff" d="M720.89,-75.37C779.22,-63.83 863.23,-47.22 926.71,-34.66"/>
<polygon fill="#63b8ff" stroke="#63b8ff" points="927.3,-38.11 936.43,-32.74 925.94,-31.25 927.3,-38.11"/>
</a>
</g>
</g>
<!-- Node8 -->
<g id="Node000008" class="node">
<title>Node8</title>
<g id="a_Node000008"><a xlink:title=" ">
<polygon fill="#e0e0e0" stroke="#999999" points="1184.25,-26 1115.75,-26 1115.75,-6 1184.25,-6 1184.25,-26"/>
<text xml:space="preserve" text-anchor="middle" x="1150" y="-12.5" font-family="Helvetica,sans-Serif" font-size="10.00">java.util.List</text>
</a>
</g>
</g>
<!-- Node1&#45;&gt;Node8 -->
<g id="edge7_Node000001_Node000008" class="edge">
<title>Node1&#45;&gt;Node8</title>
<g id="a_edge7_Node000001_Node000008"><a xlink:title=" ">
<path fill="none" stroke="#63b8ff" d="M721.02,-84.9C810.86,-78.53 972.32,-63.55 1107,-32 1109.6,-31.39 1112.26,-30.68 1114.92,-29.91"/>
<polygon fill="#63b8ff" stroke="#63b8ff" points="1115.8,-33.3 1124.26,-26.93 1113.67,-26.63 1115.8,-33.3"/>
</a>
</g>
</g>
</g>
</svg>
