<?xml version="1.0" encoding="UTF-8" standalone="no"?>
<!DOCTYPE svg PUBLIC "-//W3C//DTD SVG 1.1//EN"
 "http://www.w3.org/Graphics/SVG/1.1/DTD/svg11.dtd">
<!-- Generated by graphviz version 14.1.0 (20251206.1807)
 -->
<!-- Title: src/main/java/it/unisa/biblioteca/gruppo21/gui/Controller.java Pages: 1 -->
<svg width="812pt" height="120pt"
 viewBox="0.00 0.00 812.00 120.00" xmlns="http://www.w3.org/2000/svg" xmlns:xlink="http://www.w3.org/1999/xlink">
<g id="graph0" class="graph" transform="scale(1 1) rotate(0) translate(4 116)">
<title>src/main/java/it/unisa/biblioteca/gruppo21/gui/Controller.java</title>
<!-- Node1 -->
<g id="Node000001" class="node">
<title>Node1</title>
<g id="a_Node000001"><a xlink:title="Gestore delle interazioni tra l&#39;Interfaccia Utente e il sistema Biblioteca.">
<polygon fill="#999999" stroke="#666666" points="505.25,-112 386.5,-112 386.5,-68 505.25,-68 505.25,-112"/>
<text xml:space="preserve" text-anchor="start" x="394.5" y="-98.5" font-family="Helvetica,sans-Serif" font-size="10.00">src/main/java/it/unisa</text>
<text xml:space="preserve" text-anchor="start" x="394.5" y="-86.5" font-family="Helvetica,sans-Serif" font-size="10.00">/biblioteca/gruppo21/gui</text>
<text xml:space="preserve" text-anchor="middle" x="445.88" y="-74.5" font-family="Helvetica,sans-Serif" font-size="10.00">/Controller.java</text>
</a>
</g>
</g>
<!-- Node2 -->
<g id="Node000002" class="node">
<title>Node2</title>
<g id="a_Node000002"><a xlink:title=" ">
<polygon fill="#e0e0e0" stroke="#999999" points="163.75,-32 0,-32 0,0 163.75,0 163.75,-32"/>
<text xml:space="preserve" text-anchor="start" x="8" y="-18.5" font-family="Helvetica,sans-Serif" font-size="10.00">it.unisa.biblioteca.gruppo21.entity.</text>
<text xml:space="preserve" text-anchor="middle" x="81.88" y="-6.5" font-family="Helvetica,sans-Serif" font-size="10.00">Libro</text>
</a>
</g>
</g>
<!-- Node1&#45;&gt;Node2 -->
<g id="edge1_Node000001_Node000002" class="edge">
<title>Node1&#45;&gt;Node2</title>
<g id="a_edge1_Node000001_Node000002"><a xlink:title=" ">
<path fill="none" stroke="#63b8ff" d="M386.18,-77.19C327.71,-65.63 237.91,-47.86 171,-34.63"/>
<polygon fill="#63b8ff" stroke="#63b8ff" points="172.02,-31.26 161.53,-32.76 170.66,-38.13 172.02,-31.26"/>
</a>
</g>
</g>
<!-- Node3 -->
<g id="Node000003" class="node">
<title>Node3</title>
<g id="a_Node000003"><a xlink:title=" ">
<polygon fill="#e0e0e0" stroke="#999999" points="345.75,-32 182,-32 182,0 345.75,0 345.75,-32"/>
<text xml:space="preserve" text-anchor="start" x="190" y="-18.5" font-family="Helvetica,sans-Serif" font-size="10.00">it.unisa.biblioteca.gruppo21.entity.</text>
<text xml:space="preserve" text-anchor="middle" x="263.88" y="-6.5" font-family="Helvetica,sans-Serif" font-size="10.00">Prestito</text>
</a>
</g>
</g>
<!-- Node1&#45;&gt;Node3 -->
<g id="edge2_Node000001_Node000003" class="edge">
<title>Node1&#45;&gt;Node3</title>
<g id="a_edge2_Node000001_Node000003"><a xlink:title=" ">
<path fill="none" stroke="#63b8ff" d="M391.76,-67.59C366.93,-57.77 337.7,-46.2 313.45,-36.61"/>
<polygon fill="#63b8ff" stroke="#63b8ff" points="315.04,-33.48 304.45,-33.05 312.46,-39.99 315.04,-33.48"/>
</a>
</g>
</g>
<!-- Node4 -->
<g id="Node000004" class="node">
<title>Node4</title>
<g id="a_Node000004"><a xlink:title=" ">
<polygon fill="#e0e0e0" stroke="#999999" points="527.75,-32 364,-32 364,0 527.75,0 527.75,-32"/>
<text xml:space="preserve" text-anchor="start" x="372" y="-18.5" font-family="Helvetica,sans-Serif" font-size="10.00">it.unisa.biblioteca.gruppo21.entity.</text>
<text xml:space="preserve" text-anchor="middle" x="445.88" y="-6.5" font-family="Helvetica,sans-Serif" font-size="10.00">Utente</text>
</a>
</g>
</g>
<!-- Node1&#45;&gt;Node4 -->
<g id="edge3_Node000001_Node000004" class="edge">
<title>Node1&#45;&gt;Node4</title>
<g id="a_edge3_Node000001_Node000004"><a xlink:title=" ">
<path fill="none" stroke="#63b8ff" d="M445.88,-67.79C445.88,-60.18 445.88,-51.52 445.88,-43.52"/>
<polygon fill="#63b8ff" stroke="#63b8ff" points="449.38,-43.64 445.88,-33.64 442.38,-43.64 449.38,-43.64"/>
</a>
</g>
</g>
<!-- Node5 -->
<g id="Node000005" class="node">
<title>Node5</title>
<g id="a_Node000005"><a xlink:title=" ">
<polygon fill="#e0e0e0" stroke="#999999" points="717.88,-32 545.88,-32 545.88,0 717.88,0 717.88,-32"/>
<text xml:space="preserve" text-anchor="start" x="553.88" y="-18.5" font-family="Helvetica,sans-Serif" font-size="10.00">it.unisa.biblioteca.gruppo21.service.</text>
<text xml:space="preserve" text-anchor="middle" x="631.88" y="-6.5" font-family="Helvetica,sans-Serif" font-size="10.00">Biblioteca</text>
</a>
</g>
</g>
<!-- Node1&#45;&gt;Node5 -->
<g id="edge4_Node000001_Node000005" class="edge">
<title>Node1&#45;&gt;Node5</title>
<g id="a_edge4_Node000001_Node000005"><a xlink:title=" ">
<path fill="none" stroke="#63b8ff" d="M501.18,-67.59C526.55,-57.77 556.43,-46.2 581.21,-36.61"/>
<polygon fill="#63b8ff" stroke="#63b8ff" points="582.37,-39.92 590.43,-33.04 579.84,-33.39 582.37,-39.92"/>
</a>
</g>
</g>
<!-- Node6 -->
<g id="Node000006" class="node">
<title>Node6</title>
<g id="a_Node000006"><a xlink:title=" ">
<polygon fill="#e0e0e0" stroke="#999999" points="804.12,-26 735.62,-26 735.62,-6 804.12,-6 804.12,-26"/>
<text xml:space="preserve" text-anchor="middle" x="769.88" y="-12.5" font-family="Helvetica,sans-Serif" font-size="10.00">java.util.List</text>
</a>
</g>
</g>
<!-- Node1&#45;&gt;Node6 -->
<g id="edge5_Node000001_Node000006" class="edge">
<title>Node1&#45;&gt;Node6</title>
<g id="a_edge5_Node000001_Node000006"><a xlink:title=" ">
<path fill="none" stroke="#63b8ff" d="M505.63,-79.3C562.9,-69.44 651.51,-52.69 726.88,-32 729.14,-31.38 731.46,-30.7 733.78,-29.98"/>
<polygon fill="#63b8ff" stroke="#63b8ff" points="734.73,-33.36 743.15,-26.93 732.56,-26.7 734.73,-33.36"/>
</a>
</g>
</g>
</g>
</svg>
