<?xml version="1.0" encoding="UTF-8" standalone="no"?>
<!DOCTYPE svg PUBLIC "-//W3C//DTD SVG 1.1//EN"
 "http://www.w3.org/Graphics/SVG/1.1/DTD/svg11.dtd">
<!-- Generated by graphviz version 14.1.0 (20251206.1807)
 -->
<!-- Title: src/main/java/it/unisa/biblioteca/gruppo21/gui/Controller.java Pages: 1 -->
<svg width="1868pt" height="120pt"
 viewBox="0.00 0.00 1868.00 120.00" xmlns="http://www.w3.org/2000/svg" xmlns:xlink="http://www.w3.org/1999/xlink">
<g id="graph0" class="graph" transform="scale(1 1) rotate(0) translate(4 116)">
<title>src/main/java/it/unisa/biblioteca/gruppo21/gui/Controller.java</title>
<!-- Node1 -->
<g id="Node000001" class="node">
<title>Node1</title>
<g id="a_Node000001"><a xlink:title="Gestore delle interazioni tra l&#39;Interfaccia Utente e il sistema Biblioteca.">
<polygon fill="#999999" stroke="#666666" points="1056.25,-112 937.5,-112 937.5,-68 1056.25,-68 1056.25,-112"/>
<text xml:space="preserve" text-anchor="start" x="945.5" y="-98.5" font-family="Helvetica,sans-Serif" font-size="10.00">src/main/java/it/unisa</text>
<text xml:space="preserve" text-anchor="start" x="945.5" y="-86.5" font-family="Helvetica,sans-Serif" font-size="10.00">/biblioteca/gruppo21/gui</text>
<text xml:space="preserve" text-anchor="middle" x="996.88" y="-74.5" font-family="Helvetica,sans-Serif" font-size="10.00">/Controller.java</text>
</a>
</g>
</g>
<!-- Node2 -->
<g id="Node000002" class="node">
<title>Node2</title>
<g id="a_Node000002"><a xlink:title=" ">
<polygon fill="#e0e0e0" stroke="#999999" points="163.75,-32 0,-32 0,0 163.75,0 163.75,-32"/>
<text xml:space="preserve" text-anchor="start" x="8" y="-18.5" font-family="Helvetica,sans-Serif" font-size="10.00">it.unisa.biblioteca.gruppo21.entity.</text>
<text xml:space="preserve" text-anchor="middle" x="81.88" y="-6.5" font-family="Helvetica,sans-Serif" font-size="10.00">Libro</text>
</a>
</g>
</g>
<!-- Node1&#45;&gt;Node2 -->
<g id="edge1_Node000001_Node000002" class="edge">
<title>Node1&#45;&gt;Node2</title>
<g id="a_edge1_Node000001_Node000002"><a xlink:title=" ">
<path fill="none" stroke="#63b8ff" d="M937.24,-86.8C803.01,-81.45 466.77,-65.7 175.38,-32.22"/>
<polygon fill="#63b8ff" stroke="#63b8ff" points="176.01,-28.77 165.67,-31.1 175.2,-35.72 176.01,-28.77"/>
</a>
</g>
</g>
<!-- Node3 -->
<g id="Node000003" class="node">
<title>Node3</title>
<g id="a_Node000003"><a xlink:title=" ">
<polygon fill="#e0e0e0" stroke="#999999" points="345.75,-32 182,-32 182,0 345.75,0 345.75,-32"/>
<text xml:space="preserve" text-anchor="start" x="190" y="-18.5" font-family="Helvetica,sans-Serif" font-size="10.00">it.unisa.biblioteca.gruppo21.entity.</text>
<text xml:space="preserve" text-anchor="middle" x="263.88" y="-6.5" font-family="Helvetica,sans-Serif" font-size="10.00">Prestito</text>
</a>
</g>
</g>
<!-- Node1&#45;&gt;Node3 -->
<g id="edge2_Node000001_Node000003" class="edge">
<title>Node1&#45;&gt;Node3</title>
<g id="a_edge2_Node000001_Node000003"><a xlink:title=" ">
<path fill="none" stroke="#63b8ff" d="M937.41,-85.21C825.78,-77.78 577.01,-59.67 357.28,-32.25"/>
<polygon fill="#63b8ff" stroke="#63b8ff" points="358.04,-28.81 347.68,-31.04 357.16,-35.76 358.04,-28.81"/>
</a>
</g>
</g>
<!-- Node4 -->
<g id="Node000004" class="node">
<title>Node4</title>
<g id="a_Node000004"><a xlink:title=" ">
<polygon fill="#e0e0e0" stroke="#999999" points="527.75,-32 364,-32 364,0 527.75,0 527.75,-32"/>
<text xml:space="preserve" text-anchor="start" x="372" y="-18.5" font-family="Helvetica,sans-Serif" font-size="10.00">it.unisa.biblioteca.gruppo21.entity.</text>
<text xml:space="preserve" text-anchor="middle" x="445.88" y="-6.5" font-family="Helvetica,sans-Serif" font-size="10.00">Utente</text>
</a>
</g>
</g>
<!-- Node1&#45;&gt;Node4 -->
<g id="edge3_Node000001_Node000004" class="edge">
<title>Node1&#45;&gt;Node4</title>
<g id="a_edge3_Node000001_Node000004"><a xlink:title=" ">
<path fill="none" stroke="#63b8ff" d="M937.23,-82.38C851.56,-72.71 688.45,-53.65 539.36,-32.33"/>
<polygon fill="#63b8ff" stroke="#63b8ff" points="540.09,-28.89 529.69,-30.94 539.09,-35.82 540.09,-28.89"/>
</a>
</g>
</g>
<!-- Node5 -->
<g id="Node000005" class="node">
<title>Node5</title>
<g id="a_Node000005"><a xlink:title=" ">
<polygon fill="#e0e0e0" stroke="#999999" points="717.88,-32 545.88,-32 545.88,0 717.88,0 717.88,-32"/>
<text xml:space="preserve" text-anchor="start" x="553.88" y="-18.5" font-family="Helvetica,sans-Serif" font-size="10.00">it.unisa.biblioteca.gruppo21.service.</text>
<text xml:space="preserve" text-anchor="middle" x="631.88" y="-6.5" font-family="Helvetica,sans-Serif" font-size="10.00">Biblioteca</text>
</a>
</g>
</g>
<!-- Node1&#45;&gt;Node5 -->
<g id="edge4_Node000001_Node000005" class="edge">
<title>Node1&#45;&gt;Node5</title>
<g id="a_edge4_Node000001_Node000005"><a xlink:title=" ">
<path fill="none" stroke="#63b8ff" d="M937.01,-77.19C878.39,-65.63 788.34,-47.86 721.24,-34.63"/>
<polygon fill="#63b8ff" stroke="#63b8ff" points="722.23,-31.26 711.74,-32.75 720.88,-38.12 722.23,-31.26"/>
</a>
</g>
</g>
<!-- Node6 -->
<g id="Node000006" class="node">
<title>Node6</title>
<g id="a_Node000006"><a xlink:title=" ">
<polygon fill="#e0e0e0" stroke="#999999" points="839.38,-26 736.38,-26 736.38,-6 839.38,-6 839.38,-26"/>
<text xml:space="preserve" text-anchor="middle" x="787.88" y="-12.5" font-family="Helvetica,sans-Serif" font-size="10.00">java.time.LocalDate</text>
</a>
</g>
</g>
<!-- Node1&#45;&gt;Node6 -->
<g id="edge5_Node000001_Node000006" class="edge">
<title>Node1&#45;&gt;Node6</title>
<g id="a_edge5_Node000001_Node000006"><a xlink:title=" ">
<path fill="none" stroke="#63b8ff" d="M937.26,-68.46C901.59,-56.17 857.29,-40.91 826.24,-30.21"/>
<polygon fill="#63b8ff" stroke="#63b8ff" points="827.46,-26.93 816.86,-26.99 825.18,-33.55 827.46,-26.93"/>
</a>
</g>
</g>
<!-- Node7 -->
<g id="Node000007" class="node">
<title>Node7</title>
<g id="a_Node000007"><a xlink:title=" ">
<polygon fill="#e0e0e0" stroke="#999999" points="926.12,-26 857.62,-26 857.62,-6 926.12,-6 926.12,-26"/>
<text xml:space="preserve" text-anchor="middle" x="891.88" y="-12.5" font-family="Helvetica,sans-Serif" font-size="10.00">java.util.List</text>
</a>
</g>
</g>
<!-- Node1&#45;&gt;Node7 -->
<g id="edge6_Node000001_Node000007" class="edge">
<title>Node1&#45;&gt;Node7</title>
<g id="a_edge6_Node000001_Node000007"><a xlink:title=" ">
<path fill="none" stroke="#63b8ff" d="M965.66,-67.59C949.45,-56.48 929.98,-43.13 915.11,-32.94"/>
<polygon fill="#63b8ff" stroke="#63b8ff" points="917.13,-30.07 906.9,-27.3 913.17,-35.85 917.13,-30.07"/>
</a>
</g>
</g>
<!-- Node8 -->
<g id="Node000008" class="node">
<title>Node8</title>
<g id="a_Node000008"><a xlink:title=" ">
<polygon fill="#e0e0e0" stroke="#999999" points="1049.5,-26 944.25,-26 944.25,-6 1049.5,-6 1049.5,-26"/>
<text xml:space="preserve" text-anchor="middle" x="996.88" y="-12.5" font-family="Helvetica,sans-Serif" font-size="10.00">javafx.geometry.Pos</text>
</a>
</g>
</g>
<!-- Node1&#45;&gt;Node8 -->
<g id="edge7_Node000001_Node000008" class="edge">
<title>Node1&#45;&gt;Node8</title>
<g id="a_edge7_Node000001_Node000008"><a xlink:title=" ">
<path fill="none" stroke="#63b8ff" d="M996.88,-67.79C996.88,-58.32 996.88,-47.2 996.88,-37.78"/>
<polygon fill="#63b8ff" stroke="#63b8ff" points="1000.38,-37.82 996.88,-27.82 993.38,-37.82 1000.38,-37.82"/>
</a>
</g>
</g>
<!-- Node9 -->
<g id="Node000009" class="node">
<title>Node9</title>
<g id="a_Node000009"><a xlink:title=" ">
<polygon fill="#e0e0e0" stroke="#999999" points="1170,-26 1067.75,-26 1067.75,-6 1170,-6 1170,-26"/>
<text xml:space="preserve" text-anchor="middle" x="1118.88" y="-12.5" font-family="Helvetica,sans-Serif" font-size="10.00">javafx.scene.Scene</text>
</a>
</g>
</g>
<!-- Node1&#45;&gt;Node9 -->
<g id="edge8_Node000001_Node000009" class="edge">
<title>Node1&#45;&gt;Node9</title>
<g id="a_edge8_Node000001_Node000009"><a xlink:title=" ">
<path fill="none" stroke="#63b8ff" d="M1033.15,-67.59C1052.52,-56.16 1075.91,-42.36 1093.35,-32.06"/>
<polygon fill="#63b8ff" stroke="#63b8ff" points="1094.73,-35.31 1101.56,-27.22 1091.17,-29.29 1094.73,-35.31"/>
</a>
</g>
</g>
<!-- Node10 -->
<g id="Node000010" class="node">
<title>Node10</title>
<g id="a_Node000010"><a xlink:title=" ">
<polygon fill="#e0e0e0" stroke="#999999" points="1323.5,-26 1188.25,-26 1188.25,-6 1323.5,-6 1323.5,-26"/>
<text xml:space="preserve" text-anchor="middle" x="1255.88" y="-12.5" font-family="Helvetica,sans-Serif" font-size="10.00">javafx.scene.control.Button</text>
</a>
</g>
</g>
<!-- Node1&#45;&gt;Node10 -->
<g id="edge9_Node000001_Node000010" class="edge">
<title>Node1&#45;&gt;Node10</title>
<g id="a_edge9_Node000001_Node000010"><a xlink:title=" ">
<path fill="none" stroke="#63b8ff" d="M1056.62,-72.39C1103.66,-59.32 1168.2,-41.37 1210.92,-29.5"/>
<polygon fill="#63b8ff" stroke="#63b8ff" points="1211.67,-32.92 1220.37,-26.87 1209.8,-26.18 1211.67,-32.92"/>
</a>
</g>
</g>
<!-- Node11 -->
<g id="Node000011" class="node">
<title>Node11</title>
<g id="a_Node000011"><a xlink:title=" ">
<polygon fill="#e0e0e0" stroke="#999999" points="1471.88,-26 1341.88,-26 1341.88,-6 1471.88,-6 1471.88,-26"/>
<text xml:space="preserve" text-anchor="middle" x="1406.88" y="-12.5" font-family="Helvetica,sans-Serif" font-size="10.00">javafx.scene.control.Label</text>
</a>
</g>
</g>
<!-- Node1&#45;&gt;Node11 -->
<g id="edge10_Node000001_Node000011" class="edge">
<title>Node1&#45;&gt;Node11</title>
<g id="a_edge10_Node000001_Node000011"><a xlink:title=" ">
<path fill="none" stroke="#63b8ff" d="M1056.46,-79.48C1123.7,-68.6 1236.32,-49.97 1332.88,-32 1338.53,-30.95 1344.42,-29.82 1350.3,-28.66"/>
<polygon fill="#63b8ff" stroke="#63b8ff" points="1350.91,-32.11 1360.04,-26.73 1349.55,-25.24 1350.91,-32.11"/>
</a>
</g>
</g>
<!-- Node12 -->
<g id="Node000012" class="node">
<title>Node12</title>
<g id="a_Node000012"><a xlink:title=" ">
<polygon fill="#e0e0e0" stroke="#999999" points="1617.75,-26 1490,-26 1490,-6 1617.75,-6 1617.75,-26"/>
<text xml:space="preserve" text-anchor="middle" x="1553.88" y="-12.5" font-family="Helvetica,sans-Serif" font-size="10.00">javafx.scene.layout.VBox</text>
</a>
</g>
</g>
<!-- Node1&#45;&gt;Node12 -->
<g id="edge11_Node000001_Node000012" class="edge">
<title>Node1&#45;&gt;Node12</title>
<g id="a_edge11_Node000001_Node000012"><a xlink:title=" ">
<path fill="none" stroke="#63b8ff" d="M1056.71,-83.61C1148.36,-74.99 1328.85,-56.52 1480.88,-32 1486.94,-31.02 1493.27,-29.89 1499.56,-28.69"/>
<polygon fill="#63b8ff" stroke="#63b8ff" points="1500.13,-32.15 1509.27,-26.79 1498.78,-25.28 1500.13,-32.15"/>
</a>
</g>
</g>
<!-- Node13 -->
<g id="Node000013" class="node">
<title>Node13</title>
<g id="a_Node000013"><a xlink:title=" ">
<polygon fill="#e0e0e0" stroke="#999999" points="1744.38,-26 1635.38,-26 1635.38,-6 1744.38,-6 1744.38,-26"/>
<text xml:space="preserve" text-anchor="middle" x="1689.88" y="-12.5" font-family="Helvetica,sans-Serif" font-size="10.00">javafx.stage.Modality</text>
</a>
</g>
</g>
<!-- Node1&#45;&gt;Node13 -->
<g id="edge12_Node000001_Node000013" class="edge">
<title>Node1&#45;&gt;Node13</title>
<g id="a_edge12_Node000001_Node000013"><a xlink:title=" ">
<path fill="none" stroke="#63b8ff" d="M1056.73,-86.45C1169.1,-81.03 1419.05,-65.96 1626.88,-32 1632.15,-31.14 1637.63,-30.08 1643.07,-28.93"/>
<polygon fill="#63b8ff" stroke="#63b8ff" points="1643.6,-32.39 1652.6,-26.79 1642.07,-25.56 1643.6,-32.39"/>
</a>
</g>
</g>
<!-- Node14 -->
<g id="Node000014" class="node">
<title>Node14</title>
<g id="a_Node000014"><a xlink:title=" ">
<polygon fill="#e0e0e0" stroke="#999999" points="1859.75,-26 1762,-26 1762,-6 1859.75,-6 1859.75,-26"/>
<text xml:space="preserve" text-anchor="middle" x="1810.88" y="-12.5" font-family="Helvetica,sans-Serif" font-size="10.00">javafx.stage.Stage</text>
</a>
</g>
</g>
<!-- Node1&#45;&gt;Node14 -->
<g id="edge13_Node000001_Node000014" class="edge">
<title>Node1&#45;&gt;Node14</title>
<g id="a_edge13_Node000001_Node000014"><a xlink:title=" ">
<path fill="none" stroke="#63b8ff" d="M1056.7,-88.19C1185.21,-85.64 1496.84,-75.13 1753.88,-32 1758.53,-31.22 1763.36,-30.23 1768.15,-29.14"/>
<polygon fill="#63b8ff" stroke="#63b8ff" points="1768.79,-32.58 1777.67,-26.8 1767.13,-25.79 1768.79,-32.58"/>
</a>
</g>
</g>
</g>
</svg>
