<?xml version="1.0" encoding="UTF-8" standalone="no"?>
<!DOCTYPE svg PUBLIC "-//W3C//DTD SVG 1.1//EN"
 "http://www.w3.org/Graphics/SVG/1.1/DTD/svg11.dtd">
<!-- Generated by graphviz version 14.1.0 (20251206.1807)
 -->
<!-- Title: src/main/java/it/unisa/biblioteca/gruppo21/service/ServicePrestiti.java Pages: 1 -->
<svg width="1662pt" height="120pt"
 viewBox="0.00 0.00 1662.00 120.00" xmlns="http://www.w3.org/2000/svg" xmlns:xlink="http://www.w3.org/1999/xlink">
<g id="graph0" class="graph" transform="scale(1 1) rotate(0) translate(4 116)">
<title>src/main/java/it/unisa/biblioteca/gruppo21/service/ServicePrestiti.java</title>
<!-- Node1 -->
<g id="Node000001" class="node">
<title>Node1</title>
<g id="a_Node000001"><a xlink:title="Gestore della logica di business per la circolazione dei libri (Prestiti e Restituzioni).">
<polygon fill="#999999" stroke="#666666" points="1084.75,-112 947.25,-112 947.25,-68 1084.75,-68 1084.75,-112"/>
<text xml:space="preserve" text-anchor="start" x="955.25" y="-98.5" font-family="Helvetica,sans-Serif" font-size="10.00">src/main/java/it/unisa</text>
<text xml:space="preserve" text-anchor="start" x="955.25" y="-86.5" font-family="Helvetica,sans-Serif" font-size="10.00">/biblioteca/gruppo21/service</text>
<text xml:space="preserve" text-anchor="middle" x="1016" y="-74.5" font-family="Helvetica,sans-Serif" font-size="10.00">/ServicePrestiti.java</text>
</a>
</g>
</g>
<!-- Node2 -->
<g id="Node000002" class="node">
<title>Node2</title>
<g id="a_Node000002"><a xlink:title=" ">
<polygon fill="#e0e0e0" stroke="#999999" points="172,-32 0,-32 0,0 172,0 172,-32"/>
<text xml:space="preserve" text-anchor="start" x="8" y="-18.5" font-family="Helvetica,sans-Serif" font-size="10.00">it.unisa.biblioteca.gruppo21.archive.</text>
<text xml:space="preserve" text-anchor="middle" x="86" y="-6.5" font-family="Helvetica,sans-Serif" font-size="10.00">ArchiveLibri</text>
</a>
</g>
</g>
<!-- Node1&#45;&gt;Node2 -->
<g id="edge1_Node000001_Node000002" class="edge">
<title>Node1&#45;&gt;Node2</title>
<g id="a_edge1_Node000001_Node000002"><a xlink:title=" ">
<path fill="none" stroke="#63b8ff" d="M946.81,-86.35C805.37,-80.48 472.76,-64.37 183.56,-32.23"/>
<polygon fill="#63b8ff" stroke="#63b8ff" points="184.26,-28.78 173.93,-31.15 183.48,-35.74 184.26,-28.78"/>
</a>
</g>
</g>
<!-- Node3 -->
<g id="Node000003" class="node">
<title>Node3</title>
<g id="a_Node000003"><a xlink:title=" ">
<polygon fill="#e0e0e0" stroke="#999999" points="362,-32 190,-32 190,0 362,0 362,-32"/>
<text xml:space="preserve" text-anchor="start" x="198" y="-18.5" font-family="Helvetica,sans-Serif" font-size="10.00">it.unisa.biblioteca.gruppo21.archive.</text>
<text xml:space="preserve" text-anchor="middle" x="276" y="-6.5" font-family="Helvetica,sans-Serif" font-size="10.00">ArchivePrestiti</text>
</a>
</g>
</g>
<!-- Node1&#45;&gt;Node3 -->
<g id="edge2_Node000001_Node000003" class="edge">
<title>Node1&#45;&gt;Node3</title>
<g id="a_edge2_Node000001_Node000003"><a xlink:title=" ">
<path fill="none" stroke="#63b8ff" d="M947.11,-84.47C830.98,-76.49 588.67,-58.36 373.62,-32.27"/>
<polygon fill="#63b8ff" stroke="#63b8ff" points="374.29,-28.83 363.93,-31.09 373.44,-35.78 374.29,-28.83"/>
</a>
</g>
</g>
<!-- Node4 -->
<g id="Node000004" class="node">
<title>Node4</title>
<g id="a_Node000004"><a xlink:title=" ">
<polygon fill="#e0e0e0" stroke="#999999" points="552,-32 380,-32 380,0 552,0 552,-32"/>
<text xml:space="preserve" text-anchor="start" x="388" y="-18.5" font-family="Helvetica,sans-Serif" font-size="10.00">it.unisa.biblioteca.gruppo21.archive.</text>
<text xml:space="preserve" text-anchor="middle" x="466" y="-6.5" font-family="Helvetica,sans-Serif" font-size="10.00">ArchiveUtenti</text>
</a>
</g>
</g>
<!-- Node1&#45;&gt;Node4 -->
<g id="edge3_Node000001_Node000004" class="edge">
<title>Node1&#45;&gt;Node4</title>
<g id="a_edge3_Node000001_Node000004"><a xlink:title=" ">
<path fill="none" stroke="#63b8ff" d="M946.92,-81.04C859.94,-70.87 705.65,-52.3 563.53,-32.33"/>
<polygon fill="#63b8ff" stroke="#63b8ff" points="564.34,-28.91 553.95,-30.98 563.36,-35.84 564.34,-28.91"/>
</a>
</g>
</g>
<!-- Node5 -->
<g id="Node000005" class="node">
<title>Node5</title>
<g id="a_Node000005"><a xlink:title=" ">
<polygon fill="#e0e0e0" stroke="#999999" points="733.88,-32 570.12,-32 570.12,0 733.88,0 733.88,-32"/>
<text xml:space="preserve" text-anchor="start" x="578.12" y="-18.5" font-family="Helvetica,sans-Serif" font-size="10.00">it.unisa.biblioteca.gruppo21.entity.</text>
<text xml:space="preserve" text-anchor="middle" x="652" y="-6.5" font-family="Helvetica,sans-Serif" font-size="10.00">Libro</text>
</a>
</g>
</g>
<!-- Node1&#45;&gt;Node5 -->
<g id="edge4_Node000001_Node000005" class="edge">
<title>Node1&#45;&gt;Node5</title>
<g id="a_edge4_Node000001_Node000005"><a xlink:title=" ">
<path fill="none" stroke="#63b8ff" d="M947.11,-75.37C888.78,-63.83 804.77,-47.22 741.29,-34.66"/>
<polygon fill="#63b8ff" stroke="#63b8ff" points="742.06,-31.25 731.57,-32.74 740.7,-38.11 742.06,-31.25"/>
</a>
</g>
</g>
<!-- Node6 -->
<g id="Node000006" class="node">
<title>Node6</title>
<g id="a_Node000006"><a xlink:title=" ">
<polygon fill="#e0e0e0" stroke="#999999" points="915.88,-32 752.12,-32 752.12,0 915.88,0 915.88,-32"/>
<text xml:space="preserve" text-anchor="start" x="760.12" y="-18.5" font-family="Helvetica,sans-Serif" font-size="10.00">it.unisa.biblioteca.gruppo21.entity.</text>
<text xml:space="preserve" text-anchor="middle" x="834" y="-6.5" font-family="Helvetica,sans-Serif" font-size="10.00">Prestito</text>
</a>
</g>
</g>
<!-- Node1&#45;&gt;Node6 -->
<g id="edge5_Node000001_Node000006" class="edge">
<title>Node1&#45;&gt;Node6</title>
<g id="a_edge5_Node000001_Node000006"><a xlink:title=" ">
<path fill="none" stroke="#63b8ff" d="M961.89,-67.59C937.06,-57.77 907.82,-46.2 883.58,-36.61"/>
<polygon fill="#63b8ff" stroke="#63b8ff" points="885.16,-33.48 874.58,-33.05 882.59,-39.99 885.16,-33.48"/>
</a>
</g>
</g>
<!-- Node7 -->
<g id="Node000007" class="node">
<title>Node7</title>
<g id="a_Node000007"><a xlink:title=" ">
<polygon fill="#e0e0e0" stroke="#999999" points="1097.88,-32 934.12,-32 934.12,0 1097.88,0 1097.88,-32"/>
<text xml:space="preserve" text-anchor="start" x="942.12" y="-18.5" font-family="Helvetica,sans-Serif" font-size="10.00">it.unisa.biblioteca.gruppo21.entity.</text>
<text xml:space="preserve" text-anchor="middle" x="1016" y="-6.5" font-family="Helvetica,sans-Serif" font-size="10.00">Utente</text>
</a>
</g>
</g>
<!-- Node1&#45;&gt;Node7 -->
<g id="edge6_Node000001_Node000007" class="edge">
<title>Node1&#45;&gt;Node7</title>
<g id="a_edge6_Node000001_Node000007"><a xlink:title=" ">
<path fill="none" stroke="#63b8ff" d="M1016,-67.79C1016,-60.18 1016,-51.52 1016,-43.52"/>
<polygon fill="#63b8ff" stroke="#63b8ff" points="1019.5,-43.64 1016,-33.64 1012.5,-43.64 1019.5,-43.64"/>
</a>
</g>
</g>
<!-- Node8 -->
<g id="Node000008" class="node">
<title>Node8</title>
<g id="a_Node000008"><a xlink:title=" ">
<polygon fill="#e0e0e0" stroke="#999999" points="1217.75,-26 1116.25,-26 1116.25,-6 1217.75,-6 1217.75,-26"/>
<text xml:space="preserve" text-anchor="middle" x="1167" y="-12.5" font-family="Helvetica,sans-Serif" font-size="10.00">java.io.IOException</text>
</a>
</g>
</g>
<!-- Node1&#45;&gt;Node8 -->
<g id="edge7_Node000001_Node000008" class="edge">
<title>Node1&#45;&gt;Node8</title>
<g id="a_edge7_Node000001_Node000008"><a xlink:title=" ">
<path fill="none" stroke="#63b8ff" d="M1060.9,-67.59C1085.44,-55.89 1115.17,-41.71 1136.91,-31.35"/>
<polygon fill="#63b8ff" stroke="#63b8ff" points="1138.3,-34.56 1145.82,-27.1 1135.29,-28.24 1138.3,-34.56"/>
</a>
</g>
</g>
<!-- Node9 -->
<g id="Node000009" class="node">
<title>Node9</title>
<g id="a_Node000009"><a xlink:title=" ">
<polygon fill="#e0e0e0" stroke="#999999" points="1338.5,-26 1235.5,-26 1235.5,-6 1338.5,-6 1338.5,-26"/>
<text xml:space="preserve" text-anchor="middle" x="1287" y="-12.5" font-family="Helvetica,sans-Serif" font-size="10.00">java.time.LocalDate</text>
</a>
</g>
</g>
<!-- Node1&#45;&gt;Node9 -->
<g id="edge8_Node000001_Node000009" class="edge">
<title>Node1&#45;&gt;Node9</title>
<g id="a_edge8_Node000001_Node000009"><a xlink:title=" ">
<path fill="none" stroke="#63b8ff" d="M1085.09,-70.65C1133.74,-57.72 1197.58,-40.76 1240.33,-29.4"/>
<polygon fill="#63b8ff" stroke="#63b8ff" points="1241.03,-32.84 1249.79,-26.89 1239.23,-26.07 1241.03,-32.84"/>
</a>
</g>
</g>
<!-- Node10 -->
<g id="Node000010" class="node">
<title>Node10</title>
<g id="a_Node000010"><a xlink:title=" ">
<polygon fill="#e0e0e0" stroke="#999999" points="1447.88,-26 1356.12,-26 1356.12,-6 1447.88,-6 1447.88,-26"/>
<text xml:space="preserve" text-anchor="middle" x="1402" y="-12.5" font-family="Helvetica,sans-Serif" font-size="10.00">java.util.ArrayList</text>
</a>
</g>
</g>
<!-- Node1&#45;&gt;Node10 -->
<g id="edge9_Node000001_Node000010" class="edge">
<title>Node1&#45;&gt;Node10</title>
<g id="a_edge9_Node000001_Node000010"><a xlink:title=" ">
<path fill="none" stroke="#63b8ff" d="M1085.07,-79.22C1152.5,-69.18 1257.84,-52.21 1348,-32 1351.56,-31.2 1355.24,-30.32 1358.92,-29.38"/>
<polygon fill="#63b8ff" stroke="#63b8ff" points="1359.63,-32.82 1368.4,-26.88 1357.84,-26.05 1359.63,-32.82"/>
</a>
</g>
</g>
<!-- Node11 -->
<g id="Node000011" class="node">
<title>Node11</title>
<g id="a_Node000011"><a xlink:title=" ">
<polygon fill="#e0e0e0" stroke="#999999" points="1567.75,-26 1466.25,-26 1466.25,-6 1567.75,-6 1567.75,-26"/>
<text xml:space="preserve" text-anchor="middle" x="1517" y="-12.5" font-family="Helvetica,sans-Serif" font-size="10.00">java.util.Collections</text>
</a>
</g>
</g>
<!-- Node1&#45;&gt;Node11 -->
<g id="edge10_Node000001_Node000011" class="edge">
<title>Node1&#45;&gt;Node11</title>
<g id="a_edge10_Node000001_Node000011"><a xlink:title=" ">
<path fill="none" stroke="#63b8ff" d="M1085.14,-82.58C1172.3,-73.91 1326.53,-56.65 1457,-32 1461.57,-31.14 1466.31,-30.14 1471.03,-29.07"/>
<polygon fill="#63b8ff" stroke="#63b8ff" points="1471.53,-32.55 1480.46,-26.84 1469.92,-25.73 1471.53,-32.55"/>
</a>
</g>
</g>
<!-- Node12 -->
<g id="Node000012" class="node">
<title>Node12</title>
<g id="a_Node000012"><a xlink:title=" ">
<polygon fill="#e0e0e0" stroke="#999999" points="1654.25,-26 1585.75,-26 1585.75,-6 1654.25,-6 1654.25,-26"/>
<text xml:space="preserve" text-anchor="middle" x="1620" y="-12.5" font-family="Helvetica,sans-Serif" font-size="10.00">java.util.List</text>
</a>
</g>
</g>
<!-- Node1&#45;&gt;Node12 -->
<g id="edge11_Node000001_Node000012" class="edge">
<title>Node1&#45;&gt;Node12</title>
<g id="a_edge11_Node000001_Node000012"><a xlink:title=" ">
<path fill="none" stroke="#63b8ff" d="M1085.05,-87.18C1191.74,-83.2 1402.58,-70.72 1577,-32 1579.77,-31.39 1582.61,-30.65 1585.44,-29.84"/>
<polygon fill="#63b8ff" stroke="#63b8ff" points="1586.27,-33.24 1594.74,-26.88 1584.15,-26.57 1586.27,-33.24"/>
</a>
</g>
</g>
</g>
</svg>
