<?xml version="1.0" encoding="UTF-8" standalone="no"?>
<!DOCTYPE svg PUBLIC "-//W3C//DTD SVG 1.1//EN"
 "http://www.w3.org/Graphics/SVG/1.1/DTD/svg11.dtd">
<!-- Generated by graphviz version 14.1.0 (20251206.1807)
 -->
<!-- Title: src/main/java/it/unisa/biblioteca/gruppo21/service/ServiceUtenti.java Pages: 1 -->
<svg width="452pt" height="120pt"
 viewBox="0.00 0.00 452.00 120.00" xmlns="http://www.w3.org/2000/svg" xmlns:xlink="http://www.w3.org/1999/xlink">
<g id="graph0" class="graph" transform="scale(1 1) rotate(0) translate(4 116)">
<title>src/main/java/it/unisa/biblioteca/gruppo21/service/ServiceUtenti.java</title>
<!-- Node1 -->
<g id="Node000001" class="node">
<title>Node1</title>
<g id="a_Node000001"><a xlink:title="Gestisce tutte le operazioni relative agli utenti (Studenti/Docenti).">
<polygon fill="#999999" stroke="#666666" points="344.62,-112 207.12,-112 207.12,-68 344.62,-68 344.62,-112"/>
<text xml:space="preserve" text-anchor="start" x="215.12" y="-98.5" font-family="Helvetica,sans-Serif" font-size="10.00">src/main/java/it/unisa</text>
<text xml:space="preserve" text-anchor="start" x="215.12" y="-86.5" font-family="Helvetica,sans-Serif" font-size="10.00">/biblioteca/gruppo21/service</text>
<text xml:space="preserve" text-anchor="middle" x="275.88" y="-74.5" font-family="Helvetica,sans-Serif" font-size="10.00">/ServiceUtenti.java</text>
</a>
</g>
</g>
<!-- Node2 -->
<g id="Node000002" class="node">
<title>Node2</title>
<g id="a_Node000002"><a xlink:title=" ">
<polygon fill="#e0e0e0" stroke="#999999" points="175.75,-26 0,-26 0,-6 175.75,-6 175.75,-26"/>
<text xml:space="preserve" text-anchor="middle" x="87.88" y="-12.5" font-family="Helvetica,sans-Serif" font-size="10.00">it.unisa.biblioteca.gruppo21.archive.*</text>
</a>
</g>
</g>
<!-- Node1&#45;&gt;Node2 -->
<g id="edge1_Node000001_Node000002" class="edge">
<title>Node1&#45;&gt;Node2</title>
<g id="a_edge1_Node000001_Node000002"><a xlink:title=" ">
<path fill="none" stroke="#63b8ff" d="M219.98,-67.59C188.58,-55.57 150.37,-40.93 123.13,-30.5"/>
<polygon fill="#63b8ff" stroke="#63b8ff" points="124.55,-27.3 113.96,-26.99 122.04,-33.83 124.55,-27.3"/>
</a>
</g>
</g>
<!-- Node3 -->
<g id="Node000003" class="node">
<title>Node3</title>
<g id="a_Node000003"><a xlink:title=" ">
<polygon fill="#e0e0e0" stroke="#999999" points="357.75,-32 194,-32 194,0 357.75,0 357.75,-32"/>
<text xml:space="preserve" text-anchor="start" x="202" y="-18.5" font-family="Helvetica,sans-Serif" font-size="10.00">it.unisa.biblioteca.gruppo21.entity.</text>
<text xml:space="preserve" text-anchor="middle" x="275.88" y="-6.5" font-family="Helvetica,sans-Serif" font-size="10.00">Utente</text>
</a>
</g>
</g>
<!-- Node1&#45;&gt;Node3 -->
<g id="edge2_Node000001_Node000003" class="edge">
<title>Node1&#45;&gt;Node3</title>
<g id="a_edge2_Node000001_Node000003"><a xlink:title=" ">
<path fill="none" stroke="#63b8ff" d="M275.88,-67.79C275.88,-60.18 275.88,-51.52 275.88,-43.52"/>
<polygon fill="#63b8ff" stroke="#63b8ff" points="279.38,-43.64 275.88,-33.64 272.38,-43.64 279.38,-43.64"/>
</a>
</g>
</g>
<!-- Node4 -->
<g id="Node000004" class="node">
<title>Node4</title>
<g id="a_Node000004"><a xlink:title=" ">
<polygon fill="#e0e0e0" stroke="#999999" points="444.12,-26 375.62,-26 375.62,-6 444.12,-6 444.12,-26"/>
<text xml:space="preserve" text-anchor="middle" x="409.88" y="-12.5" font-family="Helvetica,sans-Serif" font-size="10.00">java.util.List</text>
</a>
</g>
</g>
<!-- Node1&#45;&gt;Node4 -->
<g id="edge3_Node000001_Node000004" class="edge">
<title>Node1&#45;&gt;Node4</title>
<g id="a_edge3_Node000001_Node000004"><a xlink:title=" ">
<path fill="none" stroke="#63b8ff" d="M315.72,-67.59C337.2,-56.05 363.16,-42.1 382.38,-31.77"/>
<polygon fill="#63b8ff" stroke="#63b8ff" points="383.81,-34.98 390.96,-27.16 380.49,-28.81 383.81,-34.98"/>
</a>
</g>
</g>
</g>
</svg>
