<?xml version="1.0" encoding="UTF-8" standalone="no"?>
<!DOCTYPE svg PUBLIC "-//W3C//DTD SVG 1.1//EN"
 "http://www.w3.org/Graphics/SVG/1.1/DTD/svg11.dtd">
<!-- Generated by graphviz version 14.1.0 (20251206.1807)
 -->
<!-- Title: src/main/java/it/unisa/biblioteca/gruppo21/service/ServiceUtenti.java Pages: 1 -->
<svg width="802pt" height="120pt"
 viewBox="0.00 0.00 802.00 120.00" xmlns="http://www.w3.org/2000/svg" xmlns:xlink="http://www.w3.org/1999/xlink">
<g id="graph0" class="graph" transform="scale(1 1) rotate(0) translate(4 116)">
<title>src/main/java/it/unisa/biblioteca/gruppo21/service/ServiceUtenti.java</title>
<!-- Node1 -->
<g id="Node000001" class="node">
<title>Node1</title>
<g id="a_Node000001"><a xlink:title="Gestisce tutte le operazioni relative agli utenti (Studenti/Docenti).">
<polygon fill="#999999" stroke="#666666" points="552.62,-112 415.12,-112 415.12,-68 552.62,-68 552.62,-112"/>
<text xml:space="preserve" text-anchor="start" x="423.12" y="-98.5" font-family="Helvetica,sans-Serif" font-size="10.00">src/main/java/it/unisa</text>
<text xml:space="preserve" text-anchor="start" x="423.12" y="-86.5" font-family="Helvetica,sans-Serif" font-size="10.00">/biblioteca/gruppo21/service</text>
<text xml:space="preserve" text-anchor="middle" x="483.88" y="-74.5" font-family="Helvetica,sans-Serif" font-size="10.00">/ServiceUtenti.java</text>
</a>
</g>
</g>
<!-- Node2 -->
<g id="Node000002" class="node">
<title>Node2</title>
<g id="a_Node000002"><a xlink:title=" ">
<polygon fill="#e0e0e0" stroke="#999999" points="175.75,-26 0,-26 0,-6 175.75,-6 175.75,-26"/>
<text xml:space="preserve" text-anchor="middle" x="87.88" y="-12.5" font-family="Helvetica,sans-Serif" font-size="10.00">it.unisa.biblioteca.gruppo21.archive.*</text>
</a>
</g>
</g>
<!-- Node1&#45;&gt;Node2 -->
<g id="edge1_Node000001_Node000002" class="edge">
<title>Node1&#45;&gt;Node2</title>
<g id="a_edge1_Node000001_Node000002"><a xlink:title=" ">
<path fill="none" stroke="#63b8ff" d="M414.9,-76.46C340.54,-62.94 223.19,-41.6 151.13,-28.5"/>
<polygon fill="#63b8ff" stroke="#63b8ff" points="151.92,-25.09 141.46,-26.74 150.67,-31.97 151.92,-25.09"/>
</a>
</g>
</g>
<!-- Node3 -->
<g id="Node000003" class="node">
<title>Node3</title>
<g id="a_Node000003"><a xlink:title=" ">
<polygon fill="#e0e0e0" stroke="#999999" points="357.75,-32 194,-32 194,0 357.75,0 357.75,-32"/>
<text xml:space="preserve" text-anchor="start" x="202" y="-18.5" font-family="Helvetica,sans-Serif" font-size="10.00">it.unisa.biblioteca.gruppo21.entity.</text>
<text xml:space="preserve" text-anchor="middle" x="275.88" y="-6.5" font-family="Helvetica,sans-Serif" font-size="10.00">Utente</text>
</a>
</g>
</g>
<!-- Node1&#45;&gt;Node3 -->
<g id="edge2_Node000001_Node000003" class="edge">
<title>Node1&#45;&gt;Node3</title>
<g id="a_edge2_Node000001_Node000003"><a xlink:title=" ">
<path fill="none" stroke="#63b8ff" d="M422.03,-67.59C393.28,-57.64 359.34,-45.89 331.42,-36.23"/>
<polygon fill="#63b8ff" stroke="#63b8ff" points="332.66,-32.95 322.07,-32.99 330.38,-39.57 332.66,-32.95"/>
</a>
</g>
</g>
<!-- Node4 -->
<g id="Node000004" class="node">
<title>Node4</title>
<g id="a_Node000004"><a xlink:title=" ">
<polygon fill="#e0e0e0" stroke="#999999" points="477.62,-26 376.12,-26 376.12,-6 477.62,-6 477.62,-26"/>
<text xml:space="preserve" text-anchor="middle" x="426.88" y="-12.5" font-family="Helvetica,sans-Serif" font-size="10.00">java.io.IOException</text>
</a>
</g>
</g>
<!-- Node1&#45;&gt;Node4 -->
<g id="edge3_Node000001_Node000004" class="edge">
<title>Node1&#45;&gt;Node4</title>
<g id="a_edge3_Node000001_Node000004"><a xlink:title=" ">
<path fill="none" stroke="#63b8ff" d="M467.08,-67.79C458.9,-57.46 449.17,-45.16 441.33,-35.26"/>
<polygon fill="#63b8ff" stroke="#63b8ff" points="444.14,-33.17 435.19,-27.5 438.65,-37.51 444.14,-33.17"/>
</a>
</g>
</g>
<!-- Node5 -->
<g id="Node000005" class="node">
<title>Node5</title>
<g id="a_Node000005"><a xlink:title=" ">
<polygon fill="#e0e0e0" stroke="#999999" points="587.75,-26 496,-26 496,-6 587.75,-6 587.75,-26"/>
<text xml:space="preserve" text-anchor="middle" x="541.88" y="-12.5" font-family="Helvetica,sans-Serif" font-size="10.00">java.util.ArrayList</text>
</a>
</g>
</g>
<!-- Node1&#45;&gt;Node5 -->
<g id="edge4_Node000001_Node000005" class="edge">
<title>Node1&#45;&gt;Node5</title>
<g id="a_edge4_Node000001_Node000005"><a xlink:title=" ">
<path fill="none" stroke="#63b8ff" d="M500.96,-67.79C509.28,-57.46 519.19,-45.16 527.17,-35.26"/>
<polygon fill="#63b8ff" stroke="#63b8ff" points="529.88,-37.47 533.42,-27.49 524.43,-33.08 529.88,-37.47"/>
</a>
</g>
</g>
<!-- Node6 -->
<g id="Node000006" class="node">
<title>Node6</title>
<g id="a_Node000006"><a xlink:title=" ">
<polygon fill="#e0e0e0" stroke="#999999" points="707.62,-26 606.12,-26 606.12,-6 707.62,-6 707.62,-26"/>
<text xml:space="preserve" text-anchor="middle" x="656.88" y="-12.5" font-family="Helvetica,sans-Serif" font-size="10.00">java.util.Collections</text>
</a>
</g>
</g>
<!-- Node1&#45;&gt;Node6 -->
<g id="edge5_Node000001_Node000006" class="edge">
<title>Node1&#45;&gt;Node6</title>
<g id="a_edge5_Node000001_Node000006"><a xlink:title=" ">
<path fill="none" stroke="#63b8ff" d="M535.31,-67.59C563.94,-55.68 598.74,-41.19 623.76,-30.78"/>
<polygon fill="#63b8ff" stroke="#63b8ff" points="624.89,-34.1 632.78,-27.03 622.2,-27.64 624.89,-34.1"/>
</a>
</g>
</g>
<!-- Node7 -->
<g id="Node000007" class="node">
<title>Node7</title>
<g id="a_Node000007"><a xlink:title=" ">
<polygon fill="#e0e0e0" stroke="#999999" points="794.12,-26 725.62,-26 725.62,-6 794.12,-6 794.12,-26"/>
<text xml:space="preserve" text-anchor="middle" x="759.88" y="-12.5" font-family="Helvetica,sans-Serif" font-size="10.00">java.util.List</text>
</a>
</g>
</g>
<!-- Node1&#45;&gt;Node7 -->
<g id="edge6_Node000001_Node000007" class="edge">
<title>Node1&#45;&gt;Node7</title>
<g id="a_edge6_Node000001_Node000007"><a xlink:title=" ">
<path fill="none" stroke="#63b8ff" d="M552.9,-73.94C599.52,-63.32 662.27,-48.16 716.88,-32 718.98,-31.38 721.13,-30.71 723.3,-30.02"/>
<polygon fill="#63b8ff" stroke="#63b8ff" points="724.26,-33.39 732.65,-26.92 722.05,-26.75 724.26,-33.39"/>
</a>
</g>
</g>
</g>
</svg>
