<?xml version="1.0" encoding="UTF-8" standalone="no"?>
<!DOCTYPE svg PUBLIC "-//W3C//DTD SVG 1.1//EN"
 "http://www.w3.org/Graphics/SVG/1.1/DTD/svg11.dtd">
<!-- Generated by graphviz version 14.1.0 (20251206.1807)
 -->
<!-- Title: src/main/java/it/unisa/biblioteca/gruppo21/service/ServicePrestiti.java Pages: 1 -->
<svg width="828pt" height="120pt"
 viewBox="0.00 0.00 828.00 120.00" xmlns="http://www.w3.org/2000/svg" xmlns:xlink="http://www.w3.org/1999/xlink">
<g id="graph0" class="graph" transform="scale(1 1) rotate(0) translate(4 116)">
<title>src/main/java/it/unisa/biblioteca/gruppo21/service/ServicePrestiti.java</title>
<!-- Node1 -->
<g id="Node000001" class="node">
<title>Node1</title>
<g id="a_Node000001"><a xlink:title="Gestore della logica di business per la circolazione dei libri (Prestiti e Restituzioni).">
<polygon fill="#999999" stroke="#666666" points="534.75,-112 397.25,-112 397.25,-68 534.75,-68 534.75,-112"/>
<text xml:space="preserve" text-anchor="start" x="405.25" y="-98.5" font-family="Helvetica,sans-Serif" font-size="10.00">src/main/java/it/unisa</text>
<text xml:space="preserve" text-anchor="start" x="405.25" y="-86.5" font-family="Helvetica,sans-Serif" font-size="10.00">/biblioteca/gruppo21/service</text>
<text xml:space="preserve" text-anchor="middle" x="466" y="-74.5" font-family="Helvetica,sans-Serif" font-size="10.00">/ServicePrestiti.java</text>
</a>
</g>
</g>
<!-- Node2 -->
<g id="Node000002" class="node">
<title>Node2</title>
<g id="a_Node000002"><a xlink:title=" ">
<polygon fill="#e0e0e0" stroke="#999999" points="172,-32 0,-32 0,0 172,0 172,-32"/>
<text xml:space="preserve" text-anchor="start" x="8" y="-18.5" font-family="Helvetica,sans-Serif" font-size="10.00">it.unisa.biblioteca.gruppo21.archive.</text>
<text xml:space="preserve" text-anchor="middle" x="86" y="-6.5" font-family="Helvetica,sans-Serif" font-size="10.00">ArchiveLibri</text>
</a>
</g>
</g>
<!-- Node1&#45;&gt;Node2 -->
<g id="edge1_Node000001_Node000002" class="edge">
<title>Node1&#45;&gt;Node2</title>
<g id="a_edge1_Node000001_Node000002"><a xlink:title=" ">
<path fill="none" stroke="#63b8ff" d="M397.18,-75.96C336,-64.37 246.04,-47.32 178.56,-34.54"/>
<polygon fill="#63b8ff" stroke="#63b8ff" points="179.47,-31.15 169,-32.73 178.17,-38.03 179.47,-31.15"/>
</a>
</g>
</g>
<!-- Node3 -->
<g id="Node000003" class="node">
<title>Node3</title>
<g id="a_Node000003"><a xlink:title=" ">
<polygon fill="#e0e0e0" stroke="#999999" points="362,-32 190,-32 190,0 362,0 362,-32"/>
<text xml:space="preserve" text-anchor="start" x="198" y="-18.5" font-family="Helvetica,sans-Serif" font-size="10.00">it.unisa.biblioteca.gruppo21.archive.</text>
<text xml:space="preserve" text-anchor="middle" x="276" y="-6.5" font-family="Helvetica,sans-Serif" font-size="10.00">ArchivePrestiti</text>
</a>
</g>
</g>
<!-- Node1&#45;&gt;Node3 -->
<g id="edge2_Node000001_Node000003" class="edge">
<title>Node1&#45;&gt;Node3</title>
<g id="a_edge2_Node000001_Node000003"><a xlink:title=" ">
<path fill="none" stroke="#63b8ff" d="M409.51,-67.59C383.47,-57.73 352.79,-46.1 327.41,-36.48"/>
<polygon fill="#63b8ff" stroke="#63b8ff" points="328.9,-33.3 318.31,-33.03 326.42,-39.85 328.9,-33.3"/>
</a>
</g>
</g>
<!-- Node4 -->
<g id="Node000004" class="node">
<title>Node4</title>
<g id="a_Node000004"><a xlink:title=" ">
<polygon fill="#e0e0e0" stroke="#999999" points="552,-32 380,-32 380,0 552,0 552,-32"/>
<text xml:space="preserve" text-anchor="start" x="388" y="-18.5" font-family="Helvetica,sans-Serif" font-size="10.00">it.unisa.biblioteca.gruppo21.archive.</text>
<text xml:space="preserve" text-anchor="middle" x="466" y="-6.5" font-family="Helvetica,sans-Serif" font-size="10.00">ArchiveUtenti</text>
</a>
</g>
</g>
<!-- Node1&#45;&gt;Node4 -->
<g id="edge3_Node000001_Node000004" class="edge">
<title>Node1&#45;&gt;Node4</title>
<g id="a_edge3_Node000001_Node000004"><a xlink:title=" ">
<path fill="none" stroke="#63b8ff" d="M466,-67.79C466,-60.18 466,-51.52 466,-43.52"/>
<polygon fill="#63b8ff" stroke="#63b8ff" points="469.5,-43.64 466,-33.64 462.5,-43.64 469.5,-43.64"/>
</a>
</g>
</g>
<!-- Node5 -->
<g id="Node000005" class="node">
<title>Node5</title>
<g id="a_Node000005"><a xlink:title=" ">
<polygon fill="#e0e0e0" stroke="#999999" points="733.88,-32 570.12,-32 570.12,0 733.88,0 733.88,-32"/>
<text xml:space="preserve" text-anchor="start" x="578.12" y="-18.5" font-family="Helvetica,sans-Serif" font-size="10.00">it.unisa.biblioteca.gruppo21.entity.</text>
<text xml:space="preserve" text-anchor="middle" x="652" y="-6.5" font-family="Helvetica,sans-Serif" font-size="10.00">Prestito</text>
</a>
</g>
</g>
<!-- Node1&#45;&gt;Node5 -->
<g id="edge4_Node000001_Node000005" class="edge">
<title>Node1&#45;&gt;Node5</title>
<g id="a_edge4_Node000001_Node000005"><a xlink:title=" ">
<path fill="none" stroke="#63b8ff" d="M521.3,-67.59C546.68,-57.77 576.55,-46.2 601.33,-36.61"/>
<polygon fill="#63b8ff" stroke="#63b8ff" points="602.5,-39.92 610.56,-33.04 599.97,-33.39 602.5,-39.92"/>
</a>
</g>
</g>
<!-- Node6 -->
<g id="Node000006" class="node">
<title>Node6</title>
<g id="a_Node000006"><a xlink:title=" ">
<polygon fill="#e0e0e0" stroke="#999999" points="820.25,-26 751.75,-26 751.75,-6 820.25,-6 820.25,-26"/>
<text xml:space="preserve" text-anchor="middle" x="786" y="-12.5" font-family="Helvetica,sans-Serif" font-size="10.00">java.util.List</text>
</a>
</g>
</g>
<!-- Node1&#45;&gt;Node6 -->
<g id="edge5_Node000001_Node000006" class="edge">
<title>Node1&#45;&gt;Node6</title>
<g id="a_edge5_Node000001_Node000006"><a xlink:title=" ">
<path fill="none" stroke="#63b8ff" d="M535.19,-77.4C591.59,-67.31 673.07,-51.3 743,-32 745.26,-31.38 747.58,-30.69 749.91,-29.98"/>
<polygon fill="#63b8ff" stroke="#63b8ff" points="750.85,-33.35 759.27,-26.92 748.68,-26.7 750.85,-33.35"/>
</a>
</g>
</g>
</g>
</svg>
