<?xml version="1.0" encoding="UTF-8" standalone="no"?>
<!DOCTYPE svg PUBLIC "-//W3C//DTD SVG 1.1//EN"
 "http://www.w3.org/Graphics/SVG/1.1/DTD/svg11.dtd">
<!-- Generated by graphviz version 14.1.0 (20251206.1807)
 -->
<!-- Title: src/main/java/it/unisa/biblioteca/gruppo21/entity/Utente.java Pages: 1 -->
<svg width="186pt" height="108pt"
 viewBox="0.00 0.00 186.00 108.00" xmlns="http://www.w3.org/2000/svg" xmlns:xlink="http://www.w3.org/1999/xlink">
<g id="graph0" class="graph" transform="scale(1 1) rotate(0) translate(4 104)">
<title>src/main/java/it/unisa/biblioteca/gruppo21/entity/Utente.java</title>
<!-- Node1 -->
<g id="Node000001" class="node">
<title>Node1</title>
<g id="a_Node000001"><a xlink:title="Rappresenta un utente registrato nella biblioteca.">
<polygon fill="#999999" stroke="#666666" points="159.88,-100 29.88,-100 29.88,-56 159.88,-56 159.88,-100"/>
<text xml:space="preserve" text-anchor="start" x="37.88" y="-86.5" font-family="Helvetica,sans-Serif" font-size="10.00">src/main/java/it/unisa</text>
<text xml:space="preserve" text-anchor="start" x="37.88" y="-74.5" font-family="Helvetica,sans-Serif" font-size="10.00">/biblioteca/gruppo21/entity</text>
<text xml:space="preserve" text-anchor="middle" x="94.88" y="-62.5" font-family="Helvetica,sans-Serif" font-size="10.00">/Utente.java</text>
</a>
</g>
</g>
<!-- Node2 -->
<g id="Node000002" class="node">
<title>Node2</title>
<g id="a_Node000002"><a xlink:title=" ">
<polygon fill="#e0e0e0" stroke="#999999" points="91.75,-20 0,-20 0,0 91.75,0 91.75,-20"/>
<text xml:space="preserve" text-anchor="middle" x="45.88" y="-6.5" font-family="Helvetica,sans-Serif" font-size="10.00">java.util.ArrayList</text>
</a>
</g>
</g>
<!-- Node1&#45;&gt;Node2 -->
<g id="edge1_Node000001_Node000002" class="edge">
<title>Node1&#45;&gt;Node2</title>
<g id="a_edge1_Node000001_Node000002"><a xlink:title=" ">
<path fill="none" stroke="#63b8ff" d="M79.1,-55.75C72.82,-47.29 65.65,-37.64 59.59,-29.47"/>
<polygon fill="#63b8ff" stroke="#63b8ff" points="62.54,-27.58 53.77,-21.63 56.92,-31.75 62.54,-27.58"/>
</a>
</g>
</g>
<!-- Node3 -->
<g id="Node000003" class="node">
<title>Node3</title>
<g id="a_Node000003"><a xlink:title=" ">
<polygon fill="#e0e0e0" stroke="#999999" points="178.12,-20 109.62,-20 109.62,0 178.12,0 178.12,-20"/>
<text xml:space="preserve" text-anchor="middle" x="143.88" y="-6.5" font-family="Helvetica,sans-Serif" font-size="10.00">java.util.List</text>
</a>
</g>
</g>
<!-- Node1&#45;&gt;Node3 -->
<g id="edge2_Node000001_Node000003" class="edge">
<title>Node1&#45;&gt;Node3</title>
<g id="a_edge2_Node000001_Node000003"><a xlink:title=" ">
<path fill="none" stroke="#63b8ff" d="M110.65,-55.75C116.93,-47.29 124.1,-37.64 130.16,-29.47"/>
<polygon fill="#63b8ff" stroke="#63b8ff" points="132.83,-31.75 135.98,-21.63 127.21,-27.58 132.83,-31.75"/>
</a>
</g>
</g>
</g>
</svg>
