<?xml version="1.0" encoding="UTF-8" standalone="no"?>
<!DOCTYPE svg PUBLIC "-//W3C//DTD SVG 1.1//EN"
 "http://www.w3.org/Graphics/SVG/1.1/DTD/svg11.dtd">
<!-- Generated by graphviz version 14.1.0 (20251206.1807)
 -->
<!-- Title: src/main/java/it/unisa/biblioteca/gruppo21/gui/ViewLibriController.java Pages: 1 -->
<svg width="1735pt" height="120pt"
 viewBox="0.00 0.00 1735.00 120.00" xmlns="http://www.w3.org/2000/svg" xmlns:xlink="http://www.w3.org/1999/xlink">
<g id="graph0" class="graph" transform="scale(1 1) rotate(0) translate(4 116)">
<title>src/main/java/it/unisa/biblioteca/gruppo21/gui/ViewLibriController.java</title>
<!-- Node1 -->
<g id="Node000001" class="node">
<title>Node1</title>
<g id="a_Node000001"><a xlink:title="Gestisce la schermata del Catalogo Libri.">
<polygon fill="#999999" stroke="#666666" points="903.75,-112 782,-112 782,-68 903.75,-68 903.75,-112"/>
<text xml:space="preserve" text-anchor="start" x="790" y="-98.5" font-family="Helvetica,sans-Serif" font-size="10.00">src/main/java/it/unisa</text>
<text xml:space="preserve" text-anchor="start" x="790" y="-86.5" font-family="Helvetica,sans-Serif" font-size="10.00">/biblioteca/gruppo21/gui</text>
<text xml:space="preserve" text-anchor="middle" x="842.88" y="-74.5" font-family="Helvetica,sans-Serif" font-size="10.00">/ViewLibriController.java</text>
</a>
</g>
</g>
<!-- Node2 -->
<g id="Node000002" class="node">
<title>Node2</title>
<g id="a_Node000002"><a xlink:title=" ">
<polygon fill="#e0e0e0" stroke="#999999" points="163.75,-32 0,-32 0,0 163.75,0 163.75,-32"/>
<text xml:space="preserve" text-anchor="start" x="8" y="-18.5" font-family="Helvetica,sans-Serif" font-size="10.00">it.unisa.biblioteca.gruppo21.entity.</text>
<text xml:space="preserve" text-anchor="middle" x="81.88" y="-6.5" font-family="Helvetica,sans-Serif" font-size="10.00">Libro</text>
</a>
</g>
</g>
<!-- Node1&#45;&gt;Node2 -->
<g id="edge1_Node000001_Node000002" class="edge">
<title>Node1&#45;&gt;Node2</title>
<g id="a_edge1_Node000001_Node000002"><a xlink:title=" ">
<path fill="none" stroke="#63b8ff" d="M781.74,-85.41C665.63,-78.24 405.02,-60.48 175.43,-32.26"/>
<polygon fill="#63b8ff" stroke="#63b8ff" points="176.03,-28.81 165.67,-31.05 175.17,-35.75 176.03,-28.81"/>
</a>
</g>
</g>
<!-- Node3 -->
<g id="Node000003" class="node">
<title>Node3</title>
<g id="a_Node000003"><a xlink:title=" ">
<polygon fill="#e0e0e0" stroke="#999999" points="273.75,-26 182,-26 182,-6 273.75,-6 273.75,-26"/>
<text xml:space="preserve" text-anchor="middle" x="227.88" y="-12.5" font-family="Helvetica,sans-Serif" font-size="10.00">java.util.ArrayList</text>
</a>
</g>
</g>
<!-- Node1&#45;&gt;Node3 -->
<g id="edge2_Node000001_Node000003" class="edge">
<title>Node1&#45;&gt;Node3</title>
<g id="a_edge2_Node000001_Node000003"><a xlink:title=" ">
<path fill="none" stroke="#63b8ff" d="M781.91,-86.09C678.53,-80.42 462.54,-65.41 282.88,-32 278.74,-31.23 274.46,-30.3 270.2,-29.29"/>
<polygon fill="#63b8ff" stroke="#63b8ff" points="271.1,-25.91 260.55,-26.84 269.38,-32.69 271.1,-25.91"/>
</a>
</g>
</g>
<!-- Node4 -->
<g id="Node000004" class="node">
<title>Node4</title>
<g id="a_Node000004"><a xlink:title=" ">
<polygon fill="#e0e0e0" stroke="#999999" points="360.12,-26 291.62,-26 291.62,-6 360.12,-6 360.12,-26"/>
<text xml:space="preserve" text-anchor="middle" x="325.88" y="-12.5" font-family="Helvetica,sans-Serif" font-size="10.00">java.util.List</text>
</a>
</g>
</g>
<!-- Node1&#45;&gt;Node4 -->
<g id="edge3_Node000001_Node000004" class="edge">
<title>Node1&#45;&gt;Node4</title>
<g id="a_edge3_Node000001_Node000004"><a xlink:title=" ">
<path fill="none" stroke="#63b8ff" d="M781.54,-85.86C690.48,-80.25 514.62,-65.77 368.88,-32 366.28,-31.4 363.61,-30.69 360.95,-29.92"/>
<polygon fill="#63b8ff" stroke="#63b8ff" points="362.2,-26.65 351.61,-26.96 360.08,-33.32 362.2,-26.65"/>
</a>
</g>
</g>
<!-- Node5 -->
<g id="Node000005" class="node">
<title>Node5</title>
<g id="a_Node000005"><a xlink:title=" ">
<polygon fill="#e0e0e0" stroke="#999999" points="534,-26 377.75,-26 377.75,-6 534,-6 534,-26"/>
<text xml:space="preserve" text-anchor="middle" x="455.88" y="-12.5" font-family="Helvetica,sans-Serif" font-size="10.00">javafx.collections.FXCollections</text>
</a>
</g>
</g>
<!-- Node1&#45;&gt;Node5 -->
<g id="edge4_Node000001_Node000005" class="edge">
<title>Node1&#45;&gt;Node5</title>
<g id="a_edge4_Node000001_Node000005"><a xlink:title=" ">
<path fill="none" stroke="#63b8ff" d="M781.55,-77.59C709.43,-64.17 590.38,-42.02 517.94,-28.55"/>
<polygon fill="#63b8ff" stroke="#63b8ff" points="518.68,-25.13 508.21,-26.74 517.4,-32.01 518.68,-25.13"/>
</a>
</g>
</g>
<!-- Node6 -->
<g id="Node000006" class="node">
<title>Node6</title>
<g id="a_Node000006"><a xlink:title=" ">
<polygon fill="#e0e0e0" stroke="#999999" points="711.88,-26 551.88,-26 551.88,-6 711.88,-6 711.88,-26"/>
<text xml:space="preserve" text-anchor="middle" x="631.88" y="-12.5" font-family="Helvetica,sans-Serif" font-size="10.00">javafx.collections.ObservableList</text>
</a>
</g>
</g>
<!-- Node1&#45;&gt;Node6 -->
<g id="edge5_Node000001_Node000006" class="edge">
<title>Node1&#45;&gt;Node6</title>
<g id="a_edge5_Node000001_Node000006"><a xlink:title=" ">
<path fill="none" stroke="#63b8ff" d="M781.56,-68.08C745.69,-55.84 701.5,-40.76 670.47,-30.17"/>
<polygon fill="#63b8ff" stroke="#63b8ff" points="671.7,-26.89 661.1,-26.97 669.44,-33.52 671.7,-26.89"/>
</a>
</g>
</g>
<!-- Node7 -->
<g id="Node000007" class="node">
<title>Node7</title>
<g id="a_Node000007"><a xlink:title=" ">
<polygon fill="#e0e0e0" stroke="#999999" points="823.5,-26 730.25,-26 730.25,-6 823.5,-6 823.5,-26"/>
<text xml:space="preserve" text-anchor="middle" x="776.88" y="-12.5" font-family="Helvetica,sans-Serif" font-size="10.00">javafx.fxml.FXML</text>
</a>
</g>
</g>
<!-- Node1&#45;&gt;Node7 -->
<g id="edge6_Node000001_Node000007" class="edge">
<title>Node1&#45;&gt;Node7</title>
<g id="a_edge6_Node000001_Node000007"><a xlink:title=" ">
<path fill="none" stroke="#63b8ff" d="M823.43,-67.79C813.76,-57.24 802.22,-44.65 793.05,-34.64"/>
<polygon fill="#63b8ff" stroke="#63b8ff" points="795.77,-32.43 786.43,-27.43 790.61,-37.16 795.77,-32.43"/>
</a>
</g>
</g>
<!-- Node8 -->
<g id="Node000008" class="node">
<title>Node8</title>
<g id="a_Node000008"><a xlink:title=" ">
<polygon fill="#e0e0e0" stroke="#999999" points="976.5,-26 841.25,-26 841.25,-6 976.5,-6 976.5,-26"/>
<text xml:space="preserve" text-anchor="middle" x="908.88" y="-12.5" font-family="Helvetica,sans-Serif" font-size="10.00">javafx.scene.control.Button</text>
</a>
</g>
</g>
<!-- Node1&#45;&gt;Node8 -->
<g id="edge7_Node000001_Node000008" class="edge">
<title>Node1&#45;&gt;Node8</title>
<g id="a_edge7_Node000001_Node000008"><a xlink:title=" ">
<path fill="none" stroke="#63b8ff" d="M862.32,-67.79C871.99,-57.24 883.53,-44.65 892.7,-34.64"/>
<polygon fill="#63b8ff" stroke="#63b8ff" points="895.14,-37.16 899.32,-27.43 889.98,-32.43 895.14,-37.16"/>
</a>
</g>
</g>
<!-- Node9 -->
<g id="Node000009" class="node">
<title>Node9</title>
<g id="a_Node000009"><a xlink:title=" ">
<polygon fill="#e0e0e0" stroke="#999999" points="1124.88,-32 994.88,-32 994.88,0 1124.88,0 1124.88,-32"/>
<text xml:space="preserve" text-anchor="start" x="1002.88" y="-18.5" font-family="Helvetica,sans-Serif" font-size="10.00">javafx.scene.control.Table</text>
<text xml:space="preserve" text-anchor="middle" x="1059.88" y="-6.5" font-family="Helvetica,sans-Serif" font-size="10.00">Column</text>
</a>
</g>
</g>
<!-- Node1&#45;&gt;Node9 -->
<g id="edge8_Node000001_Node000009" class="edge">
<title>Node1&#45;&gt;Node9</title>
<g id="a_edge8_Node000001_Node000009"><a xlink:title=" ">
<path fill="none" stroke="#63b8ff" d="M904.19,-68.66C935,-58.43 972.11,-46.12 1002.37,-36.08"/>
<polygon fill="#63b8ff" stroke="#63b8ff" points="1003.36,-39.44 1011.75,-32.97 1001.15,-32.8 1003.36,-39.44"/>
</a>
</g>
</g>
<!-- Node10 -->
<g id="Node000010" class="node">
<title>Node10</title>
<g id="a_Node000010"><a xlink:title=" ">
<polygon fill="#e0e0e0" stroke="#999999" points="1294.75,-26 1143,-26 1143,-6 1294.75,-6 1294.75,-26"/>
<text xml:space="preserve" text-anchor="middle" x="1218.88" y="-12.5" font-family="Helvetica,sans-Serif" font-size="10.00">javafx.scene.control.TableView</text>
</a>
</g>
</g>
<!-- Node1&#45;&gt;Node10 -->
<g id="edge9_Node000001_Node000010" class="edge">
<title>Node1&#45;&gt;Node10</title>
<g id="a_edge9_Node000001_Node000010"><a xlink:title=" ">
<path fill="none" stroke="#63b8ff" d="M904.12,-77.27C974.2,-63.85 1088.25,-42.01 1158.12,-28.63"/>
<polygon fill="#63b8ff" stroke="#63b8ff" points="1158.72,-32.08 1167.88,-26.77 1157.4,-25.21 1158.72,-32.08"/>
</a>
</g>
</g>
<!-- Node11 -->
<g id="Node000011" class="node">
<title>Node11</title>
<g id="a_Node000011"><a xlink:title=" ">
<polygon fill="#e0e0e0" stroke="#999999" points="1438.62,-32 1313.12,-32 1313.12,0 1438.62,0 1438.62,-32"/>
<text xml:space="preserve" text-anchor="start" x="1321.12" y="-18.5" font-family="Helvetica,sans-Serif" font-size="10.00">javafx.scene.control.Text</text>
<text xml:space="preserve" text-anchor="middle" x="1375.88" y="-6.5" font-family="Helvetica,sans-Serif" font-size="10.00">Field</text>
</a>
</g>
</g>
<!-- Node1&#45;&gt;Node11 -->
<g id="edge10_Node000001_Node000011" class="edge">
<title>Node1&#45;&gt;Node11</title>
<g id="a_edge10_Node000001_Node000011"><a xlink:title=" ">
<path fill="none" stroke="#63b8ff" d="M903.88,-83.07C990.19,-74.33 1153.06,-56.53 1301.59,-32.3"/>
<polygon fill="#63b8ff" stroke="#63b8ff" points="1301.92,-35.79 1311.22,-30.71 1300.78,-28.88 1301.92,-35.79"/>
</a>
</g>
</g>
<!-- Node12 -->
<g id="Node000012" class="node">
<title>Node12</title>
<g id="a_Node000012"><a xlink:title=" ">
<polygon fill="#e0e0e0" stroke="#999999" points="1581.25,-32 1456.5,-32 1456.5,0 1581.25,0 1581.25,-32"/>
<text xml:space="preserve" text-anchor="start" x="1464.5" y="-18.5" font-family="Helvetica,sans-Serif" font-size="10.00">javafx.scene.control.cell.</text>
<text xml:space="preserve" text-anchor="middle" x="1518.88" y="-6.5" font-family="Helvetica,sans-Serif" font-size="10.00">PropertyValueFactory</text>
</a>
</g>
</g>
<!-- Node1&#45;&gt;Node12 -->
<g id="edge11_Node000001_Node000012" class="edge">
<title>Node1&#45;&gt;Node12</title>
<g id="a_edge11_Node000001_Node000012"><a xlink:title=" ">
<path fill="none" stroke="#63b8ff" d="M904.13,-85.55C1011.7,-78.99 1241.72,-62.69 1445.03,-32.33"/>
<polygon fill="#63b8ff" stroke="#63b8ff" points="1445.36,-35.82 1454.73,-30.87 1444.32,-28.9 1445.36,-35.82"/>
</a>
</g>
</g>
<!-- Node13 -->
<g id="Node000013" class="node">
<title>Node13</title>
<g id="a_Node000013"><a xlink:title=" ">
<polygon fill="#e0e0e0" stroke="#999999" points="1726.75,-32 1599,-32 1599,0 1726.75,0 1726.75,-32"/>
<text xml:space="preserve" text-anchor="start" x="1607" y="-18.5" font-family="Helvetica,sans-Serif" font-size="10.00">javafx.scene.input.Mouse</text>
<text xml:space="preserve" text-anchor="middle" x="1662.88" y="-6.5" font-family="Helvetica,sans-Serif" font-size="10.00">Event</text>
</a>
</g>
</g>
<!-- Node1&#45;&gt;Node13 -->
<g id="edge12_Node000001_Node000013" class="edge">
<title>Node1&#45;&gt;Node13</title>
<g id="a_edge12_Node000001_Node000013"><a xlink:title=" ">
<path fill="none" stroke="#63b8ff" d="M904.16,-86.95C1030.3,-82.16 1328.18,-67.93 1587.7,-32.18"/>
<polygon fill="#63b8ff" stroke="#63b8ff" points="1587.94,-35.69 1597.36,-30.84 1586.97,-28.75 1587.94,-35.69"/>
</a>
</g>
</g>
</g>
</svg>
