<?xml version="1.0" encoding="UTF-8" standalone="no"?>
<!DOCTYPE svg PUBLIC "-//W3C//DTD SVG 1.1//EN"
 "http://www.w3.org/Graphics/SVG/1.1/DTD/svg11.dtd">
<!-- Generated by graphviz version 14.1.0 (20251206.1807)
 -->
<!-- Title: src/main/java/it/unisa/biblioteca/gruppo21/gui/ViewMainController.java Pages: 1 -->
<svg width="1297pt" height="108pt"
 viewBox="0.00 0.00 1297.00 108.00" xmlns="http://www.w3.org/2000/svg" xmlns:xlink="http://www.w3.org/1999/xlink">
<g id="graph0" class="graph" transform="scale(1 1) rotate(0) translate(4 104)">
<title>src/main/java/it/unisa/biblioteca/gruppo21/gui/ViewMainController.java</title>
<!-- Node1 -->
<g id="Node000001" class="node">
<title>Node1</title>
<g id="a_Node000001"><a xlink:title="Controller del menu principale e della navigazione.">
<polygon fill="#999999" stroke="#666666" points="756.75,-100 632,-100 632,-56 756.75,-56 756.75,-100"/>
<text xml:space="preserve" text-anchor="start" x="640" y="-86.5" font-family="Helvetica,sans-Serif" font-size="10.00">src/main/java/it/unisa</text>
<text xml:space="preserve" text-anchor="start" x="640" y="-74.5" font-family="Helvetica,sans-Serif" font-size="10.00">/biblioteca/gruppo21/gui</text>
<text xml:space="preserve" text-anchor="middle" x="694.38" y="-62.5" font-family="Helvetica,sans-Serif" font-size="10.00">/ViewMainController.java</text>
</a>
</g>
</g>
<!-- Node2 -->
<g id="Node000002" class="node">
<title>Node2</title>
<g id="a_Node000002"><a xlink:title=" ">
<polygon fill="#e0e0e0" stroke="#999999" points="154.75,-20 0,-20 0,0 154.75,0 154.75,-20"/>
<text xml:space="preserve" text-anchor="middle" x="77.38" y="-6.5" font-family="Helvetica,sans-Serif" font-size="10.00">javafx.animation.FadeTransition</text>
</a>
</g>
</g>
<!-- Node1&#45;&gt;Node2 -->
<g id="edge1_Node000001_Node000002" class="edge">
<title>Node1&#45;&gt;Node2</title>
<g id="a_edge1_Node000001_Node000002"><a xlink:title=" ">
<path fill="none" stroke="#63b8ff" d="M631.53,-70.28C521.21,-58.48 292.45,-34.01 166.07,-20.49"/>
<polygon fill="#63b8ff" stroke="#63b8ff" points="166.74,-17.04 156.42,-19.46 165.99,-24 166.74,-17.04"/>
</a>
</g>
</g>
<!-- Node3 -->
<g id="Node000003" class="node">
<title>Node3</title>
<g id="a_Node000003"><a xlink:title=" ">
<polygon fill="#e0e0e0" stroke="#999999" points="266,-20 172.75,-20 172.75,0 266,0 266,-20"/>
<text xml:space="preserve" text-anchor="middle" x="219.38" y="-6.5" font-family="Helvetica,sans-Serif" font-size="10.00">javafx.fxml.FXML</text>
</a>
</g>
</g>
<!-- Node1&#45;&gt;Node3 -->
<g id="edge2_Node000001_Node000003" class="edge">
<title>Node1&#45;&gt;Node3</title>
<g id="a_edge2_Node000001_Node000003"><a xlink:title=" ">
<path fill="none" stroke="#63b8ff" d="M631.84,-68.97C552.13,-58.63 409.78,-39.81 277.54,-20.29"/>
<polygon fill="#63b8ff" stroke="#63b8ff" points="278.32,-16.87 267.91,-18.87 277.29,-23.79 278.32,-16.87"/>
</a>
</g>
</g>
<!-- Node4 -->
<g id="Node000004" class="node">
<title>Node4</title>
<g id="a_Node000004"><a xlink:title=" ">
<polygon fill="#e0e0e0" stroke="#999999" points="406.62,-20 284.12,-20 284.12,0 406.62,0 406.62,-20"/>
<text xml:space="preserve" text-anchor="middle" x="345.38" y="-6.5" font-family="Helvetica,sans-Serif" font-size="10.00">javafx.fxml.FXMLLoader</text>
</a>
</g>
</g>
<!-- Node1&#45;&gt;Node4 -->
<g id="edge3_Node000001_Node000004" class="edge">
<title>Node1&#45;&gt;Node4</title>
<g id="a_edge3_Node000001_Node000004"><a xlink:title=" ">
<path fill="none" stroke="#63b8ff" d="M631.58,-65.12C567.8,-53.06 469.68,-34.51 406.51,-22.56"/>
<polygon fill="#63b8ff" stroke="#63b8ff" points="407.48,-19.18 397.01,-20.76 406.18,-26.06 407.48,-19.18"/>
</a>
</g>
</g>
<!-- Node5 -->
<g id="Node000005" class="node">
<title>Node5</title>
<g id="a_Node000005"><a xlink:title=" ">
<polygon fill="#e0e0e0" stroke="#999999" points="527.88,-20 424.88,-20 424.88,0 527.88,0 527.88,-20"/>
<text xml:space="preserve" text-anchor="middle" x="476.38" y="-6.5" font-family="Helvetica,sans-Serif" font-size="10.00">javafx.scene.Parent</text>
</a>
</g>
</g>
<!-- Node1&#45;&gt;Node5 -->
<g id="edge4_Node000001_Node000005" class="edge">
<title>Node1&#45;&gt;Node5</title>
<g id="a_edge4_Node000001_Node000005"><a xlink:title=" ">
<path fill="none" stroke="#63b8ff" d="M631.61,-58C595.27,-47 550.51,-33.44 518.4,-23.72"/>
<polygon fill="#63b8ff" stroke="#63b8ff" points="519.64,-20.44 509.06,-20.89 517.61,-27.14 519.64,-20.44"/>
</a>
</g>
</g>
<!-- Node6 -->
<g id="Node000006" class="node">
<title>Node6</title>
<g id="a_Node000006"><a xlink:title=" ">
<polygon fill="#e0e0e0" stroke="#999999" points="681,-20 545.75,-20 545.75,0 681,0 681,-20"/>
<text xml:space="preserve" text-anchor="middle" x="613.38" y="-6.5" font-family="Helvetica,sans-Serif" font-size="10.00">javafx.scene.control.Button</text>
</a>
</g>
</g>
<!-- Node1&#45;&gt;Node6 -->
<g id="edge5_Node000001_Node000006" class="edge">
<title>Node1&#45;&gt;Node6</title>
<g id="a_edge5_Node000001_Node000006"><a xlink:title=" ">
<path fill="none" stroke="#63b8ff" d="M668.3,-55.75C657.11,-46.64 644.23,-36.14 633.76,-27.61"/>
<polygon fill="#63b8ff" stroke="#63b8ff" points="636.07,-24.98 626.11,-21.37 631.65,-30.41 636.07,-24.98"/>
</a>
</g>
</g>
<!-- Node7 -->
<g id="Node000007" class="node">
<title>Node7</title>
<g id="a_Node000007"><a xlink:title=" ">
<polygon fill="#e0e0e0" stroke="#999999" points="851.25,-20 699.5,-20 699.5,0 851.25,0 851.25,-20"/>
<text xml:space="preserve" text-anchor="middle" x="775.38" y="-6.5" font-family="Helvetica,sans-Serif" font-size="10.00">javafx.scene.layout.StackPane</text>
</a>
</g>
</g>
<!-- Node1&#45;&gt;Node7 -->
<g id="edge6_Node000001_Node000007" class="edge">
<title>Node1&#45;&gt;Node7</title>
<g id="a_edge6_Node000001_Node000007"><a xlink:title=" ">
<path fill="none" stroke="#63b8ff" d="M720.45,-55.75C731.64,-46.64 744.52,-36.14 754.99,-27.61"/>
<polygon fill="#63b8ff" stroke="#63b8ff" points="757.1,-30.41 762.64,-21.37 752.68,-24.98 757.1,-30.41"/>
</a>
</g>
</g>
<!-- Node8 -->
<g id="Node000008" class="node">
<title>Node8</title>
<g id="a_Node000008"><a xlink:title=" ">
<polygon fill="#e0e0e0" stroke="#999999" points="967.25,-20 869.5,-20 869.5,0 967.25,0 967.25,-20"/>
<text xml:space="preserve" text-anchor="middle" x="918.38" y="-6.5" font-family="Helvetica,sans-Serif" font-size="10.00">javafx.util.Duration</text>
</a>
</g>
</g>
<!-- Node1&#45;&gt;Node8 -->
<g id="edge7_Node000001_Node000008" class="edge">
<title>Node1&#45;&gt;Node8</title>
<g id="a_edge7_Node000001_Node000008"><a xlink:title=" ">
<path fill="none" stroke="#63b8ff" d="M757.07,-58.53C794.86,-47.39 842.01,-33.5 875.55,-23.62"/>
<polygon fill="#63b8ff" stroke="#63b8ff" points="876.32,-27.04 884.92,-20.86 874.34,-20.33 876.32,-27.04"/>
</a>
</g>
</g>
<!-- Node9 -->
<g id="Node000009" class="node">
<title>Node9</title>
<g id="a_Node000009"><a xlink:title=" ">
<polygon fill="#e0e0e0" stroke="#999999" points="1087.12,-20 985.62,-20 985.62,0 1087.12,0 1087.12,-20"/>
<text xml:space="preserve" text-anchor="middle" x="1036.38" y="-6.5" font-family="Helvetica,sans-Serif" font-size="10.00">java.io.IOException</text>
</a>
</g>
</g>
<!-- Node1&#45;&gt;Node9 -->
<g id="edge8_Node000001_Node000009" class="edge">
<title>Node1&#45;&gt;Node9</title>
<g id="a_edge8_Node000001_Node000009"><a xlink:title=" ">
<path fill="none" stroke="#63b8ff" d="M757.1,-64.89C819.55,-52.84 914.73,-34.48 976.25,-22.6"/>
<polygon fill="#63b8ff" stroke="#63b8ff" points="976.69,-26.08 985.84,-20.75 975.36,-19.21 976.69,-26.08"/>
</a>
</g>
</g>
<!-- Node10 -->
<g id="Node000010" class="node">
<title>Node10</title>
<g id="a_Node000010"><a xlink:title=" ">
<polygon fill="#e0e0e0" stroke="#999999" points="1199.75,-20 1105,-20 1105,0 1199.75,0 1199.75,-20"/>
<text xml:space="preserve" text-anchor="middle" x="1152.38" y="-6.5" font-family="Helvetica,sans-Serif" font-size="10.00">java.util.HashMap</text>
</a>
</g>
</g>
<!-- Node1&#45;&gt;Node10 -->
<g id="edge9_Node000001_Node000010" class="edge">
<title>Node1&#45;&gt;Node10</title>
<g id="a_edge9_Node000001_Node000010"><a xlink:title=" ">
<path fill="none" stroke="#63b8ff" d="M757.1,-68.47C833.92,-57.95 968.33,-39.27 1093.43,-20.43"/>
<polygon fill="#63b8ff" stroke="#63b8ff" points="1093.86,-23.9 1103.23,-18.95 1092.82,-16.98 1093.86,-23.9"/>
</a>
</g>
</g>
<!-- Node11 -->
<g id="Node000011" class="node">
<title>Node11</title>
<g id="a_Node000011"><a xlink:title=" ">
<polygon fill="#e0e0e0" stroke="#999999" points="1289.12,-20 1217.62,-20 1217.62,0 1289.12,0 1289.12,-20"/>
<text xml:space="preserve" text-anchor="middle" x="1253.38" y="-6.5" font-family="Helvetica,sans-Serif" font-size="10.00">java.util.Map</text>
</a>
</g>
</g>
<!-- Node1&#45;&gt;Node11 -->
<g id="edge10_Node000001_Node000011" class="edge">
<title>Node1&#45;&gt;Node11</title>
<g id="a_edge10_Node000001_Node000011"><a xlink:title=" ">
<path fill="none" stroke="#63b8ff" d="M757.11,-71.81C852.04,-63.58 1038.05,-45.92 1206.26,-20.2"/>
<polygon fill="#63b8ff" stroke="#63b8ff" points="1206.72,-23.67 1216.07,-18.69 1205.65,-16.75 1206.72,-23.67"/>
</a>
</g>
</g>
</g>
</svg>
