<?xml version="1.0" encoding="UTF-8" standalone="no"?>
<!DOCTYPE svg PUBLIC "-//W3C//DTD SVG 1.1//EN"
 "http://www.w3.org/Graphics/SVG/1.1/DTD/svg11.dtd">
<!-- Generated by graphviz version 14.1.0 (20251206.1807)
 -->
<!-- Title: src/main/java/it/unisa/biblioteca/gruppo21/gui/ViewPrestitiController.java Pages: 1 -->
<svg width="1413pt" height="120pt"
 viewBox="0.00 0.00 1413.00 120.00" xmlns="http://www.w3.org/2000/svg" xmlns:xlink="http://www.w3.org/1999/xlink">
<g id="graph0" class="graph" transform="scale(1 1) rotate(0) translate(4 116)">
<title>src/main/java/it/unisa/biblioteca/gruppo21/gui/ViewPrestitiController.java</title>
<!-- Node1 -->
<g id="Node000001" class="node">
<title>Node1</title>
<g id="a_Node000001"><a xlink:title="Controller delle operazioni di sportello.">
<polygon fill="#999999" stroke="#666666" points="790,-112 655.5,-112 655.5,-68 790,-68 790,-112"/>
<text xml:space="preserve" text-anchor="start" x="663.5" y="-98.5" font-family="Helvetica,sans-Serif" font-size="10.00">src/main/java/it/unisa</text>
<text xml:space="preserve" text-anchor="start" x="663.5" y="-86.5" font-family="Helvetica,sans-Serif" font-size="10.00">/biblioteca/gruppo21/gui</text>
<text xml:space="preserve" text-anchor="middle" x="722.75" y="-74.5" font-family="Helvetica,sans-Serif" font-size="10.00">/ViewPrestitiController.java</text>
</a>
</g>
</g>
<!-- Node2 -->
<g id="Node000002" class="node">
<title>Node2</title>
<g id="a_Node000002"><a xlink:title=" ">
<polygon fill="#e0e0e0" stroke="#999999" points="167.5,-26 0,-26 0,-6 167.5,-6 167.5,-26"/>
<text xml:space="preserve" text-anchor="middle" x="83.75" y="-12.5" font-family="Helvetica,sans-Serif" font-size="10.00">it.unisa.biblioteca.gruppo21.entity.*</text>
</a>
</g>
</g>
<!-- Node1&#45;&gt;Node2 -->
<g id="edge1_Node000001_Node000002" class="edge">
<title>Node1&#45;&gt;Node2</title>
<g id="a_edge1_Node000001_Node000002"><a xlink:title=" ">
<path fill="none" stroke="#63b8ff" d="M655.23,-83.23C551.8,-74.1 347.99,-55 175.75,-32 167.38,-30.88 158.61,-29.6 149.94,-28.26"/>
<polygon fill="#63b8ff" stroke="#63b8ff" points="150.56,-24.82 140.14,-26.72 149.47,-31.73 150.56,-24.82"/>
</a>
</g>
</g>
<!-- Node3 -->
<g id="Node000003" class="node">
<title>Node3</title>
<g id="a_Node000003"><a xlink:title=" ">
<polygon fill="#e0e0e0" stroke="#999999" points="288.25,-26 185.25,-26 185.25,-6 288.25,-6 288.25,-26"/>
<text xml:space="preserve" text-anchor="middle" x="236.75" y="-12.5" font-family="Helvetica,sans-Serif" font-size="10.00">java.time.LocalDate</text>
</a>
</g>
</g>
<!-- Node1&#45;&gt;Node3 -->
<g id="edge2_Node000001_Node000003" class="edge">
<title>Node1&#45;&gt;Node3</title>
<g id="a_edge2_Node000001_Node000003"><a xlink:title=" ">
<path fill="none" stroke="#63b8ff" d="M655.04,-82.2C570.87,-73.22 423.01,-55.73 297.75,-32 293.11,-31.12 288.29,-30.11 283.49,-29.04"/>
<polygon fill="#63b8ff" stroke="#63b8ff" points="284.42,-25.66 273.89,-26.8 282.83,-32.48 284.42,-25.66"/>
</a>
</g>
</g>
<!-- Node4 -->
<g id="Node000004" class="node">
<title>Node4</title>
<g id="a_Node000004"><a xlink:title=" ">
<polygon fill="#e0e0e0" stroke="#999999" points="448.75,-32 306.75,-32 306.75,0 448.75,0 448.75,-32"/>
<text xml:space="preserve" text-anchor="start" x="314.75" y="-18.5" font-family="Helvetica,sans-Serif" font-size="10.00">javafx.beans.property.Simple</text>
<text xml:space="preserve" text-anchor="middle" x="377.75" y="-6.5" font-family="Helvetica,sans-Serif" font-size="10.00">StringProperty</text>
</a>
</g>
</g>
<!-- Node1&#45;&gt;Node4 -->
<g id="edge3_Node000001_Node000004" class="edge">
<title>Node1&#45;&gt;Node4</title>
<g id="a_edge3_Node000001_Node000004"><a xlink:title=" ">
<path fill="none" stroke="#63b8ff" d="M655,-74.86C599.23,-63.22 519.96,-46.68 460.45,-34.26"/>
<polygon fill="#63b8ff" stroke="#63b8ff" points="461.19,-30.84 450.69,-32.22 459.76,-37.69 461.19,-30.84"/>
</a>
</g>
</g>
<!-- Node5 -->
<g id="Node000005" class="node">
<title>Node5</title>
<g id="a_Node000005"><a xlink:title=" ">
<polygon fill="#e0e0e0" stroke="#999999" points="560.38,-26 467.12,-26 467.12,-6 560.38,-6 560.38,-26"/>
<text xml:space="preserve" text-anchor="middle" x="513.75" y="-12.5" font-family="Helvetica,sans-Serif" font-size="10.00">javafx.fxml.FXML</text>
</a>
</g>
</g>
<!-- Node1&#45;&gt;Node5 -->
<g id="edge4_Node000001_Node000005" class="edge">
<title>Node1&#45;&gt;Node5</title>
<g id="a_edge4_Node000001_Node000005"><a xlink:title=" ">
<path fill="none" stroke="#63b8ff" d="M660.61,-67.59C625.24,-55.41 582.09,-40.54 551.74,-30.09"/>
<polygon fill="#63b8ff" stroke="#63b8ff" points="553.2,-26.89 542.61,-26.94 550.92,-33.51 553.2,-26.89"/>
</a>
</g>
</g>
<!-- Node6 -->
<g id="Node000006" class="node">
<title>Node6</title>
<g id="a_Node000006"><a xlink:title=" ">
<polygon fill="#e0e0e0" stroke="#999999" points="708.75,-32 578.75,-32 578.75,0 708.75,0 708.75,-32"/>
<text xml:space="preserve" text-anchor="start" x="586.75" y="-18.5" font-family="Helvetica,sans-Serif" font-size="10.00">javafx.scene.control.Table</text>
<text xml:space="preserve" text-anchor="middle" x="643.75" y="-6.5" font-family="Helvetica,sans-Serif" font-size="10.00">Column</text>
</a>
</g>
</g>
<!-- Node1&#45;&gt;Node6 -->
<g id="edge5_Node000001_Node000006" class="edge">
<title>Node1&#45;&gt;Node6</title>
<g id="a_edge5_Node000001_Node000006"><a xlink:title=" ">
<path fill="none" stroke="#63b8ff" d="M699.47,-67.79C689.76,-58.93 678.46,-48.63 668.58,-39.63"/>
<polygon fill="#63b8ff" stroke="#63b8ff" points="671.21,-37.3 661.47,-33.15 666.5,-42.47 671.21,-37.3"/>
</a>
</g>
</g>
<!-- Node7 -->
<g id="Node000007" class="node">
<title>Node7</title>
<g id="a_Node000007"><a xlink:title=" ">
<polygon fill="#e0e0e0" stroke="#999999" points="878.62,-26 726.88,-26 726.88,-6 878.62,-6 878.62,-26"/>
<text xml:space="preserve" text-anchor="middle" x="802.75" y="-12.5" font-family="Helvetica,sans-Serif" font-size="10.00">javafx.scene.control.TableView</text>
</a>
</g>
</g>
<!-- Node1&#45;&gt;Node7 -->
<g id="edge6_Node000001_Node000007" class="edge">
<title>Node1&#45;&gt;Node7</title>
<g id="a_edge6_Node000001_Node000007"><a xlink:title=" ">
<path fill="none" stroke="#63b8ff" d="M746.32,-67.79C758.39,-56.92 772.89,-43.88 784.16,-33.73"/>
<polygon fill="#63b8ff" stroke="#63b8ff" points="786.19,-36.62 791.28,-27.32 781.5,-31.41 786.19,-36.62"/>
</a>
</g>
</g>
<!-- Node8 -->
<g id="Node000008" class="node">
<title>Node8</title>
<g id="a_Node000008"><a xlink:title=" ">
<polygon fill="#e0e0e0" stroke="#999999" points="1022.5,-32 897,-32 897,0 1022.5,0 1022.5,-32"/>
<text xml:space="preserve" text-anchor="start" x="905" y="-18.5" font-family="Helvetica,sans-Serif" font-size="10.00">javafx.scene.control.Text</text>
<text xml:space="preserve" text-anchor="middle" x="959.75" y="-6.5" font-family="Helvetica,sans-Serif" font-size="10.00">Field</text>
</a>
</g>
</g>
<!-- Node1&#45;&gt;Node8 -->
<g id="edge7_Node000001_Node000008" class="edge">
<title>Node1&#45;&gt;Node8</title>
<g id="a_edge7_Node000001_Node000008"><a xlink:title=" ">
<path fill="none" stroke="#63b8ff" d="M790.35,-68.46C824.27,-58.16 865.07,-45.76 898.13,-35.72"/>
<polygon fill="#63b8ff" stroke="#63b8ff" points="899.02,-39.11 907.58,-32.85 896.99,-32.41 899.02,-39.11"/>
</a>
</g>
</g>
<!-- Node9 -->
<g id="Node000009" class="node">
<title>Node9</title>
<g id="a_Node000009"><a xlink:title=" ">
<polygon fill="#e0e0e0" stroke="#999999" points="1172.88,-32 1040.62,-32 1040.62,0 1172.88,0 1172.88,-32"/>
<text xml:space="preserve" text-anchor="start" x="1048.62" y="-18.5" font-family="Helvetica,sans-Serif" font-size="10.00">java.time.format.DateTime</text>
<text xml:space="preserve" text-anchor="middle" x="1106.75" y="-6.5" font-family="Helvetica,sans-Serif" font-size="10.00">Formatter</text>
</a>
</g>
</g>
<!-- Node1&#45;&gt;Node9 -->
<g id="edge8_Node000001_Node000009" class="edge">
<title>Node1&#45;&gt;Node9</title>
<g id="a_edge8_Node000001_Node000009"><a xlink:title=" ">
<path fill="none" stroke="#63b8ff" d="M790.32,-76.84C850.45,-65.94 941.1,-49.35 1029.46,-32.42"/>
<polygon fill="#63b8ff" stroke="#63b8ff" points="1029.86,-35.91 1039.02,-30.59 1028.54,-29.04 1029.86,-35.91"/>
</a>
</g>
</g>
<!-- Node10 -->
<g id="Node000010" class="node">
<title>Node10</title>
<g id="a_Node000010"><a xlink:title=" ">
<polygon fill="#e0e0e0" stroke="#999999" points="1259,-26 1190.5,-26 1190.5,-6 1259,-6 1259,-26"/>
<text xml:space="preserve" text-anchor="middle" x="1224.75" y="-12.5" font-family="Helvetica,sans-Serif" font-size="10.00">java.util.List</text>
</a>
</g>
</g>
<!-- Node1&#45;&gt;Node10 -->
<g id="edge9_Node000001_Node000010" class="edge">
<title>Node1&#45;&gt;Node10</title>
<g id="a_edge9_Node000001_Node000010"><a xlink:title=" ">
<path fill="none" stroke="#63b8ff" d="M790.43,-85.1C880.67,-78.87 1044.91,-63.98 1181.75,-32 1184.35,-31.39 1187.01,-30.68 1189.67,-29.91"/>
<polygon fill="#63b8ff" stroke="#63b8ff" points="1190.55,-33.31 1199.01,-26.94 1188.42,-26.64 1190.55,-33.31"/>
</a>
</g>
</g>
<!-- Node11 -->
<g id="Node000011" class="node">
<title>Node11</title>
<g id="a_Node000011"><a xlink:title=" ">
<polygon fill="#e0e0e0" stroke="#999999" points="1404.62,-32 1276.88,-32 1276.88,0 1404.62,0 1404.62,-32"/>
<text xml:space="preserve" text-anchor="start" x="1284.88" y="-18.5" font-family="Helvetica,sans-Serif" font-size="10.00">javafx.scene.control.Date</text>
<text xml:space="preserve" text-anchor="middle" x="1340.75" y="-6.5" font-family="Helvetica,sans-Serif" font-size="10.00">Picker</text>
</a>
</g>
</g>
<!-- Node1&#45;&gt;Node11 -->
<g id="edge10_Node000001_Node000011" class="edge">
<title>Node1&#45;&gt;Node11</title>
<g id="a_edge10_Node000001_Node000011"><a xlink:title=" ">
<path fill="none" stroke="#63b8ff" d="M790.15,-84.1C891.2,-76.28 1088.15,-59.2 1265.35,-32.27"/>
<polygon fill="#63b8ff" stroke="#63b8ff" points="1265.87,-35.73 1275.22,-30.76 1264.81,-28.82 1265.87,-35.73"/>
</a>
</g>
</g>
</g>
</svg>
