<?xml version="1.0" encoding="UTF-8" standalone="no"?>
<!DOCTYPE svg PUBLIC "-//W3C//DTD SVG 1.1//EN"
 "http://www.w3.org/Graphics/SVG/1.1/DTD/svg11.dtd">
<!-- Generated by graphviz version 14.1.0 (20251206.1807)
 -->
<!-- Title: src/main/java/it/unisa/biblioteca/gruppo21/gui/ViewLibreria.java Pages: 1 -->
<svg width="1280pt" height="120pt"
 viewBox="0.00 0.00 1280.00 120.00" xmlns="http://www.w3.org/2000/svg" xmlns:xlink="http://www.w3.org/1999/xlink">
<g id="graph0" class="graph" transform="scale(1 1) rotate(0) translate(4 116)">
<title>src/main/java/it/unisa/biblioteca/gruppo21/gui/ViewLibreria.java</title>
<!-- Node1 -->
<g id="Node000001" class="node">
<title>Node1</title>
<g id="a_Node000001"><a xlink:title="Classe principale per la gestione dell&#39;Interfaccia Grafica (GUI) JavaFX.">
<polygon fill="#999999" stroke="#666666" points="728.25,-112 609.5,-112 609.5,-68 728.25,-68 728.25,-112"/>
<text xml:space="preserve" text-anchor="start" x="617.5" y="-98.5" font-family="Helvetica,sans-Serif" font-size="10.00">src/main/java/it/unisa</text>
<text xml:space="preserve" text-anchor="start" x="617.5" y="-86.5" font-family="Helvetica,sans-Serif" font-size="10.00">/biblioteca/gruppo21/gui</text>
<text xml:space="preserve" text-anchor="middle" x="668.88" y="-74.5" font-family="Helvetica,sans-Serif" font-size="10.00">/ViewLibreria.java</text>
</a>
</g>
</g>
<!-- Node2 -->
<g id="Node000002" class="node">
<title>Node2</title>
<g id="a_Node000002"><a xlink:title=" ">
<polygon fill="#e0e0e0" stroke="#999999" points="163.75,-32 0,-32 0,0 163.75,0 163.75,-32"/>
<text xml:space="preserve" text-anchor="start" x="8" y="-18.5" font-family="Helvetica,sans-Serif" font-size="10.00">it.unisa.biblioteca.gruppo21.entity.</text>
<text xml:space="preserve" text-anchor="middle" x="81.88" y="-6.5" font-family="Helvetica,sans-Serif" font-size="10.00">Libro</text>
</a>
</g>
</g>
<!-- Node1&#45;&gt;Node2 -->
<g id="edge1_Node000001_Node000002" class="edge">
<title>Node1&#45;&gt;Node2</title>
<g id="a_edge1_Node000001_Node000002"><a xlink:title=" ">
<path fill="none" stroke="#63b8ff" d="M609.2,-83.1C518.02,-73.86 338.27,-54.84 175.39,-32.31"/>
<polygon fill="#63b8ff" stroke="#63b8ff" points="176.07,-28.87 165.69,-30.96 175.11,-35.81 176.07,-28.87"/>
</a>
</g>
</g>
<!-- Node3 -->
<g id="Node000003" class="node">
<title>Node3</title>
<g id="a_Node000003"><a xlink:title=" ">
<polygon fill="#e0e0e0" stroke="#999999" points="345.75,-32 182,-32 182,0 345.75,0 345.75,-32"/>
<text xml:space="preserve" text-anchor="start" x="190" y="-18.5" font-family="Helvetica,sans-Serif" font-size="10.00">it.unisa.biblioteca.gruppo21.entity.</text>
<text xml:space="preserve" text-anchor="middle" x="263.88" y="-6.5" font-family="Helvetica,sans-Serif" font-size="10.00">Prestito</text>
</a>
</g>
</g>
<!-- Node1&#45;&gt;Node3 -->
<g id="edge2_Node000001_Node000003" class="edge">
<title>Node1&#45;&gt;Node3</title>
<g id="a_edge2_Node000001_Node000003"><a xlink:title=" ">
<path fill="none" stroke="#63b8ff" d="M609.12,-78.38C542.74,-66.58 434.73,-47.37 357.19,-33.59"/>
<polygon fill="#63b8ff" stroke="#63b8ff" points="357.93,-30.17 347.47,-31.86 356.7,-37.06 357.93,-30.17"/>
</a>
</g>
</g>
<!-- Node4 -->
<g id="Node000004" class="node">
<title>Node4</title>
<g id="a_Node000004"><a xlink:title=" ">
<polygon fill="#e0e0e0" stroke="#999999" points="527.75,-32 364,-32 364,0 527.75,0 527.75,-32"/>
<text xml:space="preserve" text-anchor="start" x="372" y="-18.5" font-family="Helvetica,sans-Serif" font-size="10.00">it.unisa.biblioteca.gruppo21.entity.</text>
<text xml:space="preserve" text-anchor="middle" x="445.88" y="-6.5" font-family="Helvetica,sans-Serif" font-size="10.00">Utente</text>
</a>
</g>
</g>
<!-- Node1&#45;&gt;Node4 -->
<g id="edge3_Node000001_Node000004" class="edge">
<title>Node1&#45;&gt;Node4</title>
<g id="a_edge3_Node000001_Node000004"><a xlink:title=" ">
<path fill="none" stroke="#63b8ff" d="M609.12,-69.71C576.66,-59.23 536.69,-46.32 504.42,-35.9"/>
<polygon fill="#63b8ff" stroke="#63b8ff" points="505.83,-32.68 495.24,-32.94 503.68,-39.34 505.83,-32.68"/>
</a>
</g>
</g>
<!-- Node5 -->
<g id="Node000005" class="node">
<title>Node5</title>
<g id="a_Node000005"><a xlink:title=" ">
<polygon fill="#e0e0e0" stroke="#999999" points="648.38,-26 545.38,-26 545.38,-6 648.38,-6 648.38,-26"/>
<text xml:space="preserve" text-anchor="middle" x="596.88" y="-12.5" font-family="Helvetica,sans-Serif" font-size="10.00">javafx.scene.Parent</text>
</a>
</g>
</g>
<!-- Node1&#45;&gt;Node5 -->
<g id="edge4_Node000001_Node000005" class="edge">
<title>Node1&#45;&gt;Node5</title>
<g id="a_edge4_Node000001_Node000005"><a xlink:title=" ">
<path fill="none" stroke="#63b8ff" d="M647.66,-67.79C637.01,-57.14 624.27,-44.39 614.21,-34.34"/>
<polygon fill="#63b8ff" stroke="#63b8ff" points="616.8,-31.98 607.26,-27.38 611.85,-36.93 616.8,-31.98"/>
</a>
</g>
</g>
<!-- Node6 -->
<g id="Node000006" class="node">
<title>Node6</title>
<g id="a_Node000006"><a xlink:title=" ">
<polygon fill="#e0e0e0" stroke="#999999" points="817.75,-26 666,-26 666,-6 817.75,-6 817.75,-26"/>
<text xml:space="preserve" text-anchor="middle" x="741.88" y="-12.5" font-family="Helvetica,sans-Serif" font-size="10.00">javafx.scene.control.TableView</text>
</a>
</g>
</g>
<!-- Node1&#45;&gt;Node6 -->
<g id="edge5_Node000001_Node000006" class="edge">
<title>Node1&#45;&gt;Node6</title>
<g id="a_edge5_Node000001_Node000006"><a xlink:title=" ">
<path fill="none" stroke="#63b8ff" d="M690.38,-67.79C701.18,-57.14 714.1,-44.39 724.3,-34.34"/>
<polygon fill="#63b8ff" stroke="#63b8ff" points="726.69,-36.89 731.36,-27.37 721.78,-31.9 726.69,-36.89"/>
</a>
</g>
</g>
<!-- Node7 -->
<g id="Node000007" class="node">
<title>Node7</title>
<g id="a_Node000007"><a xlink:title=" ">
<polygon fill="#e0e0e0" stroke="#999999" points="980,-26 835.75,-26 835.75,-6 980,-6 980,-26"/>
<text xml:space="preserve" text-anchor="middle" x="907.88" y="-12.5" font-family="Helvetica,sans-Serif" font-size="10.00">javafx.scene.layout.GridPane</text>
</a>
</g>
</g>
<!-- Node1&#45;&gt;Node7 -->
<g id="edge6_Node000001_Node000007" class="edge">
<title>Node1&#45;&gt;Node7</title>
<g id="a_edge6_Node000001_Node000007"><a xlink:title=" ">
<path fill="none" stroke="#63b8ff" d="M728.57,-71.02C771.23,-58.17 827.59,-41.19 865.64,-29.72"/>
<polygon fill="#63b8ff" stroke="#63b8ff" points="866.33,-33.17 874.9,-26.93 864.31,-26.47 866.33,-33.17"/>
</a>
</g>
</g>
<!-- Node8 -->
<g id="Node000008" class="node">
<title>Node8</title>
<g id="a_Node000008"><a xlink:title=" ">
<polygon fill="#e0e0e0" stroke="#999999" points="1126.12,-26 997.62,-26 997.62,-6 1126.12,-6 1126.12,-26"/>
<text xml:space="preserve" text-anchor="middle" x="1061.88" y="-12.5" font-family="Helvetica,sans-Serif" font-size="10.00">javafx.scene.layout.HBox</text>
</a>
</g>
</g>
<!-- Node1&#45;&gt;Node8 -->
<g id="edge7_Node000001_Node000008" class="edge">
<title>Node1&#45;&gt;Node8</title>
<g id="a_edge7_Node000001_Node000008"><a xlink:title=" ">
<path fill="none" stroke="#63b8ff" d="M728.53,-78.86C792.87,-67.81 898.26,-49.38 988.88,-32 994.37,-30.95 1000.1,-29.82 1005.81,-28.68"/>
<polygon fill="#63b8ff" stroke="#63b8ff" points="1006.15,-32.18 1015.26,-26.77 1004.76,-25.32 1006.15,-32.18"/>
</a>
</g>
</g>
<!-- Node9 -->
<g id="Node000009" class="node">
<title>Node9</title>
<g id="a_Node000009"><a xlink:title=" ">
<polygon fill="#e0e0e0" stroke="#999999" points="1271.75,-26 1144,-26 1144,-6 1271.75,-6 1271.75,-26"/>
<text xml:space="preserve" text-anchor="middle" x="1207.88" y="-12.5" font-family="Helvetica,sans-Serif" font-size="10.00">javafx.scene.layout.VBox</text>
</a>
</g>
</g>
<!-- Node1&#45;&gt;Node9 -->
<g id="edge8_Node000001_Node000009" class="edge">
<title>Node1&#45;&gt;Node9</title>
<g id="a_edge8_Node000001_Node000009"><a xlink:title=" ">
<path fill="none" stroke="#63b8ff" d="M728.68,-83.25C817.57,-74.35 989.69,-55.76 1134.88,-32 1140.94,-31.01 1147.27,-29.87 1153.55,-28.67"/>
<polygon fill="#63b8ff" stroke="#63b8ff" points="1154.13,-32.12 1163.26,-26.76 1152.78,-25.25 1154.13,-32.12"/>
</a>
</g>
</g>
</g>
</svg>
