<?xml version="1.0" encoding="UTF-8" standalone="no"?>
<!DOCTYPE svg PUBLIC "-//W3C//DTD SVG 1.1//EN"
 "http://www.w3.org/Graphics/SVG/1.1/DTD/svg11.dtd">
<!-- Generated by graphviz version 14.1.0 (20251206.1807)
 -->
<!-- Title: src/main/java/it/unisa/biblioteca/gruppo21/gui/ViewUtentiController.java Pages: 1 -->
<svg width="2049pt" height="120pt"
 viewBox="0.00 0.00 2049.00 120.00" xmlns="http://www.w3.org/2000/svg" xmlns:xlink="http://www.w3.org/1999/xlink">
<g id="graph0" class="graph" transform="scale(1 1) rotate(0) translate(4 116)">
<title>src/main/java/it/unisa/biblioteca/gruppo21/gui/ViewUtentiController.java</title>
<!-- Node1 -->
<g id="Node000001" class="node">
<title>Node1</title>
<g id="a_Node000001"><a xlink:title="Gestisce la schermata degli Utenti.">
<polygon fill="#999999" stroke="#666666" points="1082.75,-112 952.75,-112 952.75,-68 1082.75,-68 1082.75,-112"/>
<text xml:space="preserve" text-anchor="start" x="960.75" y="-98.5" font-family="Helvetica,sans-Serif" font-size="10.00">src/main/java/it/unisa</text>
<text xml:space="preserve" text-anchor="start" x="960.75" y="-86.5" font-family="Helvetica,sans-Serif" font-size="10.00">/biblioteca/gruppo21/gui</text>
<text xml:space="preserve" text-anchor="middle" x="1017.75" y="-74.5" font-family="Helvetica,sans-Serif" font-size="10.00">/ViewUtentiController.java</text>
</a>
</g>
</g>
<!-- Node2 -->
<g id="Node000002" class="node">
<title>Node2</title>
<g id="a_Node000002"><a xlink:title=" ">
<polygon fill="#e0e0e0" stroke="#999999" points="167.5,-26 0,-26 0,-6 167.5,-6 167.5,-26"/>
<text xml:space="preserve" text-anchor="middle" x="83.75" y="-12.5" font-family="Helvetica,sans-Serif" font-size="10.00">it.unisa.biblioteca.gruppo21.entity.*</text>
</a>
</g>
</g>
<!-- Node1&#45;&gt;Node2 -->
<g id="edge1_Node000001_Node000002" class="edge">
<title>Node1&#45;&gt;Node2</title>
<g id="a_edge1_Node000001_Node000002"><a xlink:title=" ">
<path fill="none" stroke="#63b8ff" d="M952.4,-86.63C810.72,-81.03 464.81,-64.92 176.75,-32 167.62,-30.96 158.03,-29.65 148.6,-28.24"/>
<polygon fill="#63b8ff" stroke="#63b8ff" points="149.15,-24.79 138.73,-26.72 148.08,-31.71 149.15,-24.79"/>
</a>
</g>
</g>
<!-- Node3 -->
<g id="Node000003" class="node">
<title>Node3</title>
<g id="a_Node000003"><a xlink:title=" ">
<polygon fill="#e0e0e0" stroke="#999999" points="317.88,-32 185.62,-32 185.62,0 317.88,0 317.88,-32"/>
<text xml:space="preserve" text-anchor="start" x="193.62" y="-18.5" font-family="Helvetica,sans-Serif" font-size="10.00">java.time.format.DateTime</text>
<text xml:space="preserve" text-anchor="middle" x="251.75" y="-6.5" font-family="Helvetica,sans-Serif" font-size="10.00">Formatter</text>
</a>
</g>
</g>
<!-- Node1&#45;&gt;Node3 -->
<g id="edge2_Node000001_Node000003" class="edge">
<title>Node1&#45;&gt;Node3</title>
<g id="a_edge2_Node000001_Node000003"><a xlink:title=" ">
<path fill="none" stroke="#63b8ff" d="M952.69,-86.13C831.79,-80.26 564.14,-64.71 329.49,-32.29"/>
<polygon fill="#63b8ff" stroke="#63b8ff" points="330.23,-28.86 319.84,-30.94 329.26,-35.79 330.23,-28.86"/>
</a>
</g>
</g>
<!-- Node4 -->
<g id="Node000004" class="node">
<title>Node4</title>
<g id="a_Node000004"><a xlink:title=" ">
<polygon fill="#e0e0e0" stroke="#999999" points="427.62,-26 335.88,-26 335.88,-6 427.62,-6 427.62,-26"/>
<text xml:space="preserve" text-anchor="middle" x="381.75" y="-12.5" font-family="Helvetica,sans-Serif" font-size="10.00">java.util.ArrayList</text>
</a>
</g>
</g>
<!-- Node1&#45;&gt;Node4 -->
<g id="edge3_Node000001_Node000004" class="edge">
<title>Node1&#45;&gt;Node4</title>
<g id="a_edge3_Node000001_Node000004"><a xlink:title=" ">
<path fill="none" stroke="#63b8ff" d="M952.34,-86.18C844.25,-80.71 621.9,-66.08 436.75,-32 432.61,-31.24 428.33,-30.32 424.07,-29.31"/>
<polygon fill="#63b8ff" stroke="#63b8ff" points="424.97,-25.93 414.42,-26.86 423.25,-32.71 424.97,-25.93"/>
</a>
</g>
</g>
<!-- Node5 -->
<g id="Node000005" class="node">
<title>Node5</title>
<g id="a_Node000005"><a xlink:title=" ">
<polygon fill="#e0e0e0" stroke="#999999" points="514,-26 445.5,-26 445.5,-6 514,-6 514,-26"/>
<text xml:space="preserve" text-anchor="middle" x="479.75" y="-12.5" font-family="Helvetica,sans-Serif" font-size="10.00">java.util.List</text>
</a>
</g>
</g>
<!-- Node1&#45;&gt;Node5 -->
<g id="edge4_Node000001_Node000005" class="edge">
<title>Node1&#45;&gt;Node5</title>
<g id="a_edge4_Node000001_Node000005"><a xlink:title=" ">
<path fill="none" stroke="#63b8ff" d="M952.51,-86.08C857.08,-80.78 674.32,-66.71 522.75,-32 519.99,-31.37 517.15,-30.62 514.32,-29.79"/>
<polygon fill="#63b8ff" stroke="#63b8ff" points="515.61,-26.53 505.02,-26.82 513.48,-33.2 515.61,-26.53"/>
</a>
</g>
</g>
<!-- Node6 -->
<g id="Node000006" class="node">
<title>Node6</title>
<g id="a_Node000006"><a xlink:title=" ">
<polygon fill="#e0e0e0" stroke="#999999" points="673.75,-32 531.75,-32 531.75,0 673.75,0 673.75,-32"/>
<text xml:space="preserve" text-anchor="start" x="539.75" y="-18.5" font-family="Helvetica,sans-Serif" font-size="10.00">javafx.beans.property.Simple</text>
<text xml:space="preserve" text-anchor="middle" x="602.75" y="-6.5" font-family="Helvetica,sans-Serif" font-size="10.00">StringProperty</text>
</a>
</g>
</g>
<!-- Node1&#45;&gt;Node6 -->
<g id="edge5_Node000001_Node000006" class="edge">
<title>Node1&#45;&gt;Node6</title>
<g id="a_edge5_Node000001_Node000006"><a xlink:title=" ">
<path fill="none" stroke="#63b8ff" d="M952.53,-78.24C887.42,-67.42 784.19,-50.06 684.98,-32.38"/>
<polygon fill="#63b8ff" stroke="#63b8ff" points="685.79,-28.97 675.33,-30.66 684.56,-35.86 685.79,-28.97"/>
</a>
</g>
</g>
<!-- Node7 -->
<g id="Node000007" class="node">
<title>Node7</title>
<g id="a_Node000007"><a xlink:title=" ">
<polygon fill="#e0e0e0" stroke="#999999" points="847.88,-26 691.62,-26 691.62,-6 847.88,-6 847.88,-26"/>
<text xml:space="preserve" text-anchor="middle" x="769.75" y="-12.5" font-family="Helvetica,sans-Serif" font-size="10.00">javafx.collections.FXCollections</text>
</a>
</g>
</g>
<!-- Node1&#45;&gt;Node7 -->
<g id="edge6_Node000001_Node000007" class="edge">
<title>Node1&#45;&gt;Node7</title>
<g id="a_edge6_Node000001_Node000007"><a xlink:title=" ">
<path fill="none" stroke="#63b8ff" d="M952.27,-69.99C908.25,-57.21 851.47,-40.72 813.01,-29.56"/>
<polygon fill="#63b8ff" stroke="#63b8ff" points="814.22,-26.27 803.65,-26.84 812.27,-32.99 814.22,-26.27"/>
</a>
</g>
</g>
<!-- Node8 -->
<g id="Node000008" class="node">
<title>Node8</title>
<g id="a_Node000008"><a xlink:title=" ">
<polygon fill="#e0e0e0" stroke="#999999" points="1025.75,-26 865.75,-26 865.75,-6 1025.75,-6 1025.75,-26"/>
<text xml:space="preserve" text-anchor="middle" x="945.75" y="-12.5" font-family="Helvetica,sans-Serif" font-size="10.00">javafx.collections.ObservableList</text>
</a>
</g>
</g>
<!-- Node1&#45;&gt;Node8 -->
<g id="edge7_Node000001_Node000008" class="edge">
<title>Node1&#45;&gt;Node8</title>
<g id="a_edge7_Node000001_Node000008"><a xlink:title=" ">
<path fill="none" stroke="#63b8ff" d="M996.54,-67.79C985.89,-57.14 973.14,-44.39 963.09,-34.34"/>
<polygon fill="#63b8ff" stroke="#63b8ff" points="965.68,-31.98 956.13,-27.38 960.73,-36.93 965.68,-31.98"/>
</a>
</g>
</g>
<!-- Node9 -->
<g id="Node000009" class="node">
<title>Node9</title>
<g id="a_Node000009"><a xlink:title=" ">
<polygon fill="#e0e0e0" stroke="#999999" points="1137.38,-26 1044.12,-26 1044.12,-6 1137.38,-6 1137.38,-26"/>
<text xml:space="preserve" text-anchor="middle" x="1090.75" y="-12.5" font-family="Helvetica,sans-Serif" font-size="10.00">javafx.fxml.FXML</text>
</a>
</g>
</g>
<!-- Node1&#45;&gt;Node9 -->
<g id="edge8_Node000001_Node000009" class="edge">
<title>Node1&#45;&gt;Node9</title>
<g id="a_edge8_Node000001_Node000009"><a xlink:title=" ">
<path fill="none" stroke="#63b8ff" d="M1039.26,-67.79C1050.06,-57.14 1062.98,-44.39 1073.17,-34.34"/>
<polygon fill="#63b8ff" stroke="#63b8ff" points="1075.57,-36.89 1080.23,-27.37 1070.65,-31.9 1075.57,-36.89"/>
</a>
</g>
</g>
<!-- Node10 -->
<g id="Node000010" class="node">
<title>Node10</title>
<g id="a_Node000010"><a xlink:title=" ">
<polygon fill="#e0e0e0" stroke="#999999" points="1290.38,-26 1155.12,-26 1155.12,-6 1290.38,-6 1290.38,-26"/>
<text xml:space="preserve" text-anchor="middle" x="1222.75" y="-12.5" font-family="Helvetica,sans-Serif" font-size="10.00">javafx.scene.control.Button</text>
</a>
</g>
</g>
<!-- Node1&#45;&gt;Node10 -->
<g id="edge9_Node000001_Node000010" class="edge">
<title>Node1&#45;&gt;Node10</title>
<g id="a_edge9_Node000001_Node000010"><a xlink:title=" ">
<path fill="none" stroke="#63b8ff" d="M1078.7,-67.59C1113.24,-55.46 1155.35,-40.67 1185.1,-30.22"/>
<polygon fill="#63b8ff" stroke="#63b8ff" points="1186.15,-33.57 1194.42,-26.95 1183.83,-26.96 1186.15,-33.57"/>
</a>
</g>
</g>
<!-- Node11 -->
<g id="Node000011" class="node">
<title>Node11</title>
<g id="a_Node000011"><a xlink:title=" ">
<polygon fill="#e0e0e0" stroke="#999999" points="1438.75,-32 1308.75,-32 1308.75,0 1438.75,0 1438.75,-32"/>
<text xml:space="preserve" text-anchor="start" x="1316.75" y="-18.5" font-family="Helvetica,sans-Serif" font-size="10.00">javafx.scene.control.Table</text>
<text xml:space="preserve" text-anchor="middle" x="1373.75" y="-6.5" font-family="Helvetica,sans-Serif" font-size="10.00">Column</text>
</a>
</g>
</g>
<!-- Node1&#45;&gt;Node11 -->
<g id="edge10_Node000001_Node000011" class="edge">
<title>Node1&#45;&gt;Node11</title>
<g id="a_edge10_Node000001_Node000011"><a xlink:title=" ">
<path fill="none" stroke="#63b8ff" d="M1083,-75.82C1137.59,-64.79 1217.85,-48.57 1297.19,-32.52"/>
<polygon fill="#63b8ff" stroke="#63b8ff" points="1297.79,-35.97 1306.9,-30.55 1296.4,-29.11 1297.79,-35.97"/>
</a>
</g>
</g>
<!-- Node12 -->
<g id="Node000012" class="node">
<title>Node12</title>
<g id="a_Node000012"><a xlink:title=" ">
<polygon fill="#e0e0e0" stroke="#999999" points="1608.62,-26 1456.88,-26 1456.88,-6 1608.62,-6 1608.62,-26"/>
<text xml:space="preserve" text-anchor="middle" x="1532.75" y="-12.5" font-family="Helvetica,sans-Serif" font-size="10.00">javafx.scene.control.TableView</text>
</a>
</g>
</g>
<!-- Node1&#45;&gt;Node12 -->
<g id="edge11_Node000001_Node000012" class="edge">
<title>Node1&#45;&gt;Node12</title>
<g id="a_edge11_Node000001_Node000012"><a xlink:title=" ">
<path fill="none" stroke="#63b8ff" d="M1083.07,-81.23C1167.45,-70.98 1318.81,-51.91 1447.75,-32 1454.93,-30.89 1462.44,-29.66 1469.89,-28.4"/>
<polygon fill="#63b8ff" stroke="#63b8ff" points="1470.36,-31.88 1479.62,-26.73 1469.18,-24.98 1470.36,-31.88"/>
</a>
</g>
</g>
<!-- Node13 -->
<g id="Node000013" class="node">
<title>Node13</title>
<g id="a_Node000013"><a xlink:title=" ">
<polygon fill="#e0e0e0" stroke="#999999" points="1752.5,-32 1627,-32 1627,0 1752.5,0 1752.5,-32"/>
<text xml:space="preserve" text-anchor="start" x="1635" y="-18.5" font-family="Helvetica,sans-Serif" font-size="10.00">javafx.scene.control.Text</text>
<text xml:space="preserve" text-anchor="middle" x="1689.75" y="-6.5" font-family="Helvetica,sans-Serif" font-size="10.00">Field</text>
</a>
</g>
</g>
<!-- Node1&#45;&gt;Node13 -->
<g id="edge12_Node000001_Node000013" class="edge">
<title>Node1&#45;&gt;Node13</title>
<g id="a_edge12_Node000001_Node000013"><a xlink:title=" ">
<path fill="none" stroke="#63b8ff" d="M1082.85,-85.18C1191.26,-78.31 1415.75,-61.88 1615.31,-32.26"/>
<polygon fill="#63b8ff" stroke="#63b8ff" points="1615.74,-35.74 1625.11,-30.79 1614.7,-28.81 1615.74,-35.74"/>
</a>
</g>
</g>
<!-- Node14 -->
<g id="Node000014" class="node">
<title>Node14</title>
<g id="a_Node000014"><a xlink:title=" ">
<polygon fill="#e0e0e0" stroke="#999999" points="1895.12,-32 1770.38,-32 1770.38,0 1895.12,0 1895.12,-32"/>
<text xml:space="preserve" text-anchor="start" x="1778.38" y="-18.5" font-family="Helvetica,sans-Serif" font-size="10.00">javafx.scene.control.cell.</text>
<text xml:space="preserve" text-anchor="middle" x="1832.75" y="-6.5" font-family="Helvetica,sans-Serif" font-size="10.00">PropertyValueFactory</text>
</a>
</g>
</g>
<!-- Node1&#45;&gt;Node14 -->
<g id="edge13_Node000001_Node000014" class="edge">
<title>Node1&#45;&gt;Node14</title>
<g id="a_edge13_Node000001_Node000014"><a xlink:title=" ">
<path fill="none" stroke="#63b8ff" d="M1083,-86.89C1210.93,-82.13 1503.75,-68.14 1758.76,-32.31"/>
<polygon fill="#63b8ff" stroke="#63b8ff" points="1759.2,-35.79 1768.61,-30.91 1758.22,-28.86 1759.2,-35.79"/>
</a>
</g>
</g>
<!-- Node15 -->
<g id="Node000015" class="node">
<title>Node15</title>
<g id="a_Node000015"><a xlink:title=" ">
<polygon fill="#e0e0e0" stroke="#999999" points="2040.62,-32 1912.88,-32 1912.88,0 2040.62,0 2040.62,-32"/>
<text xml:space="preserve" text-anchor="start" x="1920.88" y="-18.5" font-family="Helvetica,sans-Serif" font-size="10.00">javafx.scene.input.Mouse</text>
<text xml:space="preserve" text-anchor="middle" x="1976.75" y="-6.5" font-family="Helvetica,sans-Serif" font-size="10.00">Event</text>
</a>
</g>
</g>
<!-- Node1&#45;&gt;Node15 -->
<g id="edge14_Node000001_Node000015" class="edge">
<title>Node1&#45;&gt;Node15</title>
<g id="a_edge14_Node000001_Node000015"><a xlink:title=" ">
<path fill="none" stroke="#63b8ff" d="M1083.08,-87.89C1228.51,-84.74 1589.99,-73.24 1901.68,-32.15"/>
<polygon fill="#63b8ff" stroke="#63b8ff" points="1901.79,-35.66 1911.24,-30.87 1900.87,-28.73 1901.79,-35.66"/>
</a>
</g>
</g>
</g>
</svg>
