<?xml version="1.0" encoding="UTF-8" standalone="no"?>
<!DOCTYPE svg PUBLIC "-//W3C//DTD SVG 1.1//EN"
 "http://www.w3.org/Graphics/SVG/1.1/DTD/svg11.dtd">
<!-- Generated by graphviz version 14.1.0 (20251206.1807)
 -->
<!-- Title: it.unisa.biblioteca.gruppo21.service.ServiceLibri Pages: 1 -->
<svg width="536pt" height="857pt"
 viewBox="0.00 0.00 536.00 857.00" xmlns="http://www.w3.org/2000/svg" xmlns:xlink="http://www.w3.org/1999/xlink">
<g id="graph0" class="graph" transform="scale(1 1) rotate(0) translate(4 853)">
<title>it.unisa.biblioteca.gruppo21.service.ServiceLibri</title>
<!-- Node1 -->
<g id="Node000001" class="node">
<title>Node1</title>
<g id="a_Node000001"><a xlink:title=" ">
<polygon fill="#999999" stroke="none" points="467,-144 303,-144 303,0 467,0 467,-144"/>
<text xml:space="preserve" text-anchor="start" x="307" y="-130.5" font-family="Helvetica,sans-Serif" font-size="10.00">it.unisa.biblioteca.gruppo21.service.</text>
<text xml:space="preserve" text-anchor="start" x="359.5" y="-118.5" font-family="Helvetica,sans-Serif" font-size="10.00">ServiceLibri</text>
<text xml:space="preserve" text-anchor="start" x="383.5" y="-102.5" font-family="Helvetica,sans-Serif" font-size="10.00"> </text>
<text xml:space="preserve" text-anchor="start" x="326.44" y="-86.5" font-family="Helvetica,sans-Serif" font-size="10.00">+</text>
<text xml:space="preserve" text-anchor="start" x="355.88" y="-86.5" font-family="Helvetica,sans-Serif" font-size="10.00">ServiceLibri()</text>
<text xml:space="preserve" text-anchor="start" x="326.44" y="-70.5" font-family="Helvetica,sans-Serif" font-size="10.00">+</text>
<text xml:space="preserve" text-anchor="start" x="355.88" y="-70.5" font-family="Helvetica,sans-Serif" font-size="10.00">aggiungi()</text>
<text xml:space="preserve" text-anchor="start" x="326.44" y="-54.5" font-family="Helvetica,sans-Serif" font-size="10.00">+</text>
<text xml:space="preserve" text-anchor="start" x="355.88" y="-54.5" font-family="Helvetica,sans-Serif" font-size="10.00">aggiornaCopie()</text>
<text xml:space="preserve" text-anchor="start" x="326.44" y="-38.5" font-family="Helvetica,sans-Serif" font-size="10.00">+</text>
<text xml:space="preserve" text-anchor="start" x="355.88" y="-38.5" font-family="Helvetica,sans-Serif" font-size="10.00">rimuovi()</text>
<text xml:space="preserve" text-anchor="start" x="326.44" y="-22.5" font-family="Helvetica,sans-Serif" font-size="10.00">+</text>
<text xml:space="preserve" text-anchor="start" x="355.88" y="-22.5" font-family="Helvetica,sans-Serif" font-size="10.00">getLista()</text>
<text xml:space="preserve" text-anchor="start" x="326.44" y="-6.5" font-family="Helvetica,sans-Serif" font-size="10.00">+</text>
<text xml:space="preserve" text-anchor="start" x="355.88" y="-6.5" font-family="Helvetica,sans-Serif" font-size="10.00">cerca()</text>
<polygon fill="#666666" stroke="#666666" points="303,-114 303,-114 467,-114 467,-114 303,-114"/>
<polygon fill="#666666" stroke="#666666" points="303,-98 303,-98 467,-98 467,-98 303,-98"/>
<polygon fill="none" stroke="#666666" points="303,0 303,-144 467,-144 467,0 303,0"/>
</a>
</g>
</g>
<!-- Node2 -->
<g id="Node000002" class="node">
<title>Node2</title>
<g id="a_Node000002"><a xlink:href="classit_1_1unisa_1_1biblioteca_1_1gruppo21_1_1archive_1_1_archive_libri.html" target="_top" xlink:title=" ">
<polygon fill="white" stroke="none" points="528,-532 364,-532 364,-420 528,-420 528,-532"/>
<text xml:space="preserve" text-anchor="start" x="368" y="-518.5" font-family="Helvetica,sans-Serif" font-size="10.00">it.unisa.biblioteca.gruppo21.archive.</text>
<text xml:space="preserve" text-anchor="start" x="420.5" y="-506.5" font-family="Helvetica,sans-Serif" font-size="10.00">ArchiveLibri</text>
<text xml:space="preserve" text-anchor="start" x="444.5" y="-490.5" font-family="Helvetica,sans-Serif" font-size="10.00"> </text>
<text xml:space="preserve" text-anchor="start" x="390.06" y="-474.5" font-family="Helvetica,sans-Serif" font-size="10.00">+</text>
<text xml:space="preserve" text-anchor="start" x="422.12" y="-474.5" font-family="Helvetica,sans-Serif" font-size="10.00">ArchiveLibri()</text>
<text xml:space="preserve" text-anchor="start" x="390.06" y="-458.5" font-family="Helvetica,sans-Serif" font-size="10.00">+</text>
<text xml:space="preserve" text-anchor="start" x="422.12" y="-458.5" font-family="Helvetica,sans-Serif" font-size="10.00">cerca()</text>
<text xml:space="preserve" text-anchor="start" x="390.44" y="-442.5" font-family="Helvetica,sans-Serif" font-size="10.00">#</text>
<text xml:space="preserve" text-anchor="start" x="422.12" y="-442.5" font-family="Helvetica,sans-Serif" font-size="10.00">serializza()</text>
<text xml:space="preserve" text-anchor="start" x="390.44" y="-426.5" font-family="Helvetica,sans-Serif" font-size="10.00">#</text>
<text xml:space="preserve" text-anchor="start" x="422.12" y="-426.5" font-family="Helvetica,sans-Serif" font-size="10.00">deserializza()</text>
<polygon fill="#666666" stroke="#666666" points="364,-502 364,-502 528,-502 528,-502 364,-502"/>
<polygon fill="#666666" stroke="#666666" points="364,-486 364,-486 528,-486 528,-486 364,-486"/>
<polygon fill="none" stroke="#666666" points="364,-420 364,-532 528,-532 528,-420 364,-420"/>
</a>
</g>
</g>
<!-- Node2&#45;&gt;Node1 -->
<g id="edge1_Node000001_Node000002" class="edge">
<title>Node2&#45;&gt;Node1</title>
<g id="a_edge1_Node000001_Node000002"><a xlink:title=" ">
<path fill="none" stroke="#63b8ff" d="M437.71,-420.37C427.4,-352.45 409.71,-235.82 397.69,-156.63"/>
<polygon fill="none" stroke="#63b8ff" points="397.67,-156.52 392.82,-151.19 395.87,-144.65 400.73,-149.99 397.67,-156.52"/>
</a>
</g>
<text xml:space="preserve" text-anchor="start" x="423.56" y="-250.5" font-family="Helvetica,sans-Serif" font-size="10.00" fill="grey">&#45;arcLibri</text>
</g>
<!-- Node4 -->
<g id="Node000004" class="node">
<title>Node4</title>
<g id="a_Node000004"><a xlink:href="classit_1_1unisa_1_1biblioteca_1_1gruppo21_1_1archive_1_1_archive_prestiti.html" target="_top" xlink:title=" ">
<polygon fill="white" stroke="none" points="378,-310 214,-310 214,-198 378,-198 378,-310"/>
<text xml:space="preserve" text-anchor="start" x="218" y="-296.5" font-family="Helvetica,sans-Serif" font-size="10.00">it.unisa.biblioteca.gruppo21.archive.</text>
<text xml:space="preserve" text-anchor="start" x="264.12" y="-284.5" font-family="Helvetica,sans-Serif" font-size="10.00">ArchivePrestiti</text>
<text xml:space="preserve" text-anchor="start" x="294.5" y="-268.5" font-family="Helvetica,sans-Serif" font-size="10.00"> </text>
<text xml:space="preserve" text-anchor="start" x="237.06" y="-252.5" font-family="Helvetica,sans-Serif" font-size="10.00">+</text>
<text xml:space="preserve" text-anchor="start" x="266.12" y="-252.5" font-family="Helvetica,sans-Serif" font-size="10.00">ArchivePrestiti()</text>
<text xml:space="preserve" text-anchor="start" x="237.06" y="-236.5" font-family="Helvetica,sans-Serif" font-size="10.00">+</text>
<text xml:space="preserve" text-anchor="start" x="266.12" y="-236.5" font-family="Helvetica,sans-Serif" font-size="10.00">cerca()</text>
<text xml:space="preserve" text-anchor="start" x="237.44" y="-220.5" font-family="Helvetica,sans-Serif" font-size="10.00">#</text>
<text xml:space="preserve" text-anchor="start" x="266.12" y="-220.5" font-family="Helvetica,sans-Serif" font-size="10.00">serializza()</text>
<text xml:space="preserve" text-anchor="start" x="237.44" y="-204.5" font-family="Helvetica,sans-Serif" font-size="10.00">#</text>
<text xml:space="preserve" text-anchor="start" x="266.12" y="-204.5" font-family="Helvetica,sans-Serif" font-size="10.00">deserializza()</text>
<polygon fill="#666666" stroke="#666666" points="214,-280 214,-280 378,-280 378,-280 214,-280"/>
<polygon fill="#666666" stroke="#666666" points="214,-264 214,-264 378,-264 378,-264 214,-264"/>
<polygon fill="none" stroke="#666666" points="214,-198 214,-310 378,-310 378,-198 214,-198"/>
</a>
</g>
</g>
<!-- Node2&#45;&gt;Node4 -->
<g id="edge7_Node000004_Node000002" class="edge">
<title>Node2&#45;&gt;Node4</title>
<g id="a_edge7_Node000004_Node000002"><a xlink:title=" ">
<path fill="none" stroke="#63b8ff" d="M408.54,-420.05C387.88,-389.75 362.1,-351.94 340.42,-320.16"/>
<polygon fill="none" stroke="#63b8ff" points="340.51,-320.29 333.83,-317.58 333.75,-310.37 340.44,-313.08 340.51,-320.29"/>
</a>
</g>
<text xml:space="preserve" text-anchor="start" x="360.56" y="-333.5" font-family="Helvetica,sans-Serif" font-size="10.00" fill="grey">&#45;archivioLibri</text>
</g>
<!-- Node3 -->
<g id="Node000003" class="node">
<title>Node3</title>
<g id="a_Node000003"><a xlink:href="classit_1_1unisa_1_1biblioteca_1_1gruppo21_1_1archive_1_1_archive_astratto.html" target="_top" xlink:title=" ">
<polygon fill="white" stroke="none" points="528,-849 364,-849 364,-625 528,-625 528,-849"/>
<text xml:space="preserve" text-anchor="start" x="368" y="-835.5" font-family="Helvetica,sans-Serif" font-size="10.00">it.unisa.biblioteca.gruppo21.archive.</text>
<text xml:space="preserve" text-anchor="start" x="392.75" y="-823.5" font-family="Helvetica,sans-Serif" font-size="10.00">ArchiveAstratto&lt; Libro &gt;</text>
<text xml:space="preserve" text-anchor="start" x="386.5" y="-807.5" font-family="Helvetica,sans-Serif" font-size="10.00">#</text>
<text xml:space="preserve" text-anchor="start" x="414.25" y="-807.5" font-family="Helvetica,sans-Serif" font-size="10.00">cache</text>
<text xml:space="preserve" text-anchor="start" x="386.5" y="-791.5" font-family="Helvetica,sans-Serif" font-size="10.00">#</text>
<text xml:space="preserve" text-anchor="start" x="414.25" y="-791.5" font-family="Helvetica,sans-Serif" font-size="10.00">file</text>
<text xml:space="preserve" text-anchor="start" x="386.12" y="-775.5" font-family="Helvetica,sans-Serif" font-size="10.00">+</text>
<text xml:space="preserve" text-anchor="start" x="414.25" y="-775.5" font-family="Helvetica,sans-Serif" font-size="10.00">ArchiveAstratto()</text>
<text xml:space="preserve" text-anchor="start" x="386.12" y="-759.5" font-family="Helvetica,sans-Serif" font-size="10.00">+</text>
<text xml:space="preserve" text-anchor="start" x="414.25" y="-759.5" font-family="Helvetica,sans-Serif" font-size="10.00">inizializzaDati()</text>
<text xml:space="preserve" text-anchor="start" x="386.12" y="-743.5" font-family="Helvetica,sans-Serif" font-size="10.00">+</text>
<text xml:space="preserve" text-anchor="start" x="414.25" y="-743.5" font-family="Helvetica,sans-Serif" font-size="10.00">cerca()</text>
<text xml:space="preserve" text-anchor="start" x="386.12" y="-727.5" font-family="Helvetica,sans-Serif" font-size="10.00">+</text>
<text xml:space="preserve" text-anchor="start" x="414.25" y="-727.5" font-family="Helvetica,sans-Serif" font-size="10.00">aggiungi()</text>
<text xml:space="preserve" text-anchor="start" x="386.12" y="-711.5" font-family="Helvetica,sans-Serif" font-size="10.00">+</text>
<text xml:space="preserve" text-anchor="start" x="414.25" y="-711.5" font-family="Helvetica,sans-Serif" font-size="10.00">cancella()</text>
<text xml:space="preserve" text-anchor="start" x="386.12" y="-695.5" font-family="Helvetica,sans-Serif" font-size="10.00">+</text>
<text xml:space="preserve" text-anchor="start" x="414.25" y="-695.5" font-family="Helvetica,sans-Serif" font-size="10.00">leggiTutti()</text>
<text xml:space="preserve" text-anchor="start" x="386.12" y="-679.5" font-family="Helvetica,sans-Serif" font-size="10.00">+</text>
<text xml:space="preserve" text-anchor="start" x="414.25" y="-679.5" font-family="Helvetica,sans-Serif" font-size="10.00">salvaTutto()</text>
<text xml:space="preserve" text-anchor="start" x="386.5" y="-663.5" font-family="Helvetica,sans-Serif" font-size="10.00">#</text>
<text xml:space="preserve" text-anchor="start" x="414.25" y="-663.5" font-family="Helvetica,sans-Serif" font-size="10.00">serializza()</text>
<text xml:space="preserve" text-anchor="start" x="386.5" y="-647.5" font-family="Helvetica,sans-Serif" font-size="10.00">#</text>
<text xml:space="preserve" text-anchor="start" x="414.25" y="-647.5" font-family="Helvetica,sans-Serif" font-size="10.00">deserializza()</text>
<text xml:space="preserve" text-anchor="start" x="387.62" y="-631.5" font-family="Helvetica,sans-Serif" font-size="10.00">&#45;</text>
<text xml:space="preserve" text-anchor="start" x="414.25" y="-631.5" font-family="Helvetica,sans-Serif" font-size="10.00">caricaDaFile()</text>
<polygon fill="#666666" stroke="#666666" points="364,-819 364,-819 528,-819 528,-819 364,-819"/>
<polygon fill="#666666" stroke="#666666" points="364,-787 364,-787 412.25,-787 412.25,-787 364,-787"/>
<polygon fill="#666666" stroke="#666666" points="412.25,-787 412.25,-787 528,-787 528,-787 412.25,-787"/>
<polygon fill="none" stroke="#666666" points="364,-625 364,-849 528,-849 528,-625 364,-625"/>
</a>
</g>
</g>
<!-- Node3&#45;&gt;Node2 -->
<g id="edge2_Node000002_Node000003" class="edge">
<title>Node3&#45;&gt;Node2</title>
<g id="a_edge2_Node000002_Node000003"><a xlink:title=" ">
<path fill="none" stroke="#63b8ff" d="M446,-613.64C446,-584.93 446,-555.75 446,-531.77"/>
<polygon fill="none" stroke="#63b8ff" points="442.5,-613.52 446,-623.52 449.5,-613.52 442.5,-613.52"/>
</a>
</g>
</g>
<!-- Node4&#45;&gt;Node1 -->
<g id="edge3_Node000001_Node000004" class="edge">
<title>Node4&#45;&gt;Node1</title>
<g id="a_edge3_Node000001_Node000004"><a xlink:title=" ">
<path fill="none" stroke="#63b8ff" d="M323.19,-198.02C329.84,-184.56 337.11,-169.86 344.25,-155.42"/>
<polygon fill="none" stroke="#63b8ff" points="344.21,-155.49 343.29,-148.34 349.53,-144.73 350.46,-151.89 344.21,-155.49"/>
</a>
</g>
<text xml:space="preserve" text-anchor="start" x="343.5" y="-167.5" font-family="Helvetica,sans-Serif" font-size="10.00" fill="grey">&#45;arcPrestiti</text>
</g>
<!-- Node5 -->
<g id="Node000005" class="node">
<title>Node5</title>
<g id="a_Node000005"><a xlink:href="classit_1_1unisa_1_1biblioteca_1_1gruppo21_1_1archive_1_1_archive_astratto.html" target="_top" xlink:title=" ">
<polygon fill="white" stroke="none" points="164,-588 0,-588 0,-364 164,-364 164,-588"/>
<text xml:space="preserve" text-anchor="start" x="4" y="-574.5" font-family="Helvetica,sans-Serif" font-size="10.00">it.unisa.biblioteca.gruppo21.archive.</text>
<text xml:space="preserve" text-anchor="start" x="22.38" y="-562.5" font-family="Helvetica,sans-Serif" font-size="10.00">ArchiveAstratto&lt; Prestito &gt;</text>
<text xml:space="preserve" text-anchor="start" x="22.5" y="-546.5" font-family="Helvetica,sans-Serif" font-size="10.00">#</text>
<text xml:space="preserve" text-anchor="start" x="50.25" y="-546.5" font-family="Helvetica,sans-Serif" font-size="10.00">cache</text>
<text xml:space="preserve" text-anchor="start" x="22.5" y="-530.5" font-family="Helvetica,sans-Serif" font-size="10.00">#</text>
<text xml:space="preserve" text-anchor="start" x="50.25" y="-530.5" font-family="Helvetica,sans-Serif" font-size="10.00">file</text>
<text xml:space="preserve" text-anchor="start" x="22.12" y="-514.5" font-family="Helvetica,sans-Serif" font-size="10.00">+</text>
<text xml:space="preserve" text-anchor="start" x="50.25" y="-514.5" font-family="Helvetica,sans-Serif" font-size="10.00">ArchiveAstratto()</text>
<text xml:space="preserve" text-anchor="start" x="22.12" y="-498.5" font-family="Helvetica,sans-Serif" font-size="10.00">+</text>
<text xml:space="preserve" text-anchor="start" x="50.25" y="-498.5" font-family="Helvetica,sans-Serif" font-size="10.00">inizializzaDati()</text>
<text xml:space="preserve" text-anchor="start" x="22.12" y="-482.5" font-family="Helvetica,sans-Serif" font-size="10.00">+</text>
<text xml:space="preserve" text-anchor="start" x="50.25" y="-482.5" font-family="Helvetica,sans-Serif" font-size="10.00">cerca()</text>
<text xml:space="preserve" text-anchor="start" x="22.12" y="-466.5" font-family="Helvetica,sans-Serif" font-size="10.00">+</text>
<text xml:space="preserve" text-anchor="start" x="50.25" y="-466.5" font-family="Helvetica,sans-Serif" font-size="10.00">aggiungi()</text>
<text xml:space="preserve" text-anchor="start" x="22.12" y="-450.5" font-family="Helvetica,sans-Serif" font-size="10.00">+</text>
<text xml:space="preserve" text-anchor="start" x="50.25" y="-450.5" font-family="Helvetica,sans-Serif" font-size="10.00">cancella()</text>
<text xml:space="preserve" text-anchor="start" x="22.12" y="-434.5" font-family="Helvetica,sans-Serif" font-size="10.00">+</text>
<text xml:space="preserve" text-anchor="start" x="50.25" y="-434.5" font-family="Helvetica,sans-Serif" font-size="10.00">leggiTutti()</text>
<text xml:space="preserve" text-anchor="start" x="22.12" y="-418.5" font-family="Helvetica,sans-Serif" font-size="10.00">+</text>
<text xml:space="preserve" text-anchor="start" x="50.25" y="-418.5" font-family="Helvetica,sans-Serif" font-size="10.00">salvaTutto()</text>
<text xml:space="preserve" text-anchor="start" x="22.5" y="-402.5" font-family="Helvetica,sans-Serif" font-size="10.00">#</text>
<text xml:space="preserve" text-anchor="start" x="50.25" y="-402.5" font-family="Helvetica,sans-Serif" font-size="10.00">serializza()</text>
<text xml:space="preserve" text-anchor="start" x="22.5" y="-386.5" font-family="Helvetica,sans-Serif" font-size="10.00">#</text>
<text xml:space="preserve" text-anchor="start" x="50.25" y="-386.5" font-family="Helvetica,sans-Serif" font-size="10.00">deserializza()</text>
<text xml:space="preserve" text-anchor="start" x="23.62" y="-370.5" font-family="Helvetica,sans-Serif" font-size="10.00">&#45;</text>
<text xml:space="preserve" text-anchor="start" x="50.25" y="-370.5" font-family="Helvetica,sans-Serif" font-size="10.00">caricaDaFile()</text>
<polygon fill="#666666" stroke="#666666" points="0,-558 0,-558 164,-558 164,-558 0,-558"/>
<polygon fill="#666666" stroke="#666666" points="0,-526 0,-526 48.25,-526 48.25,-526 0,-526"/>
<polygon fill="#666666" stroke="#666666" points="48.25,-526 48.25,-526 164,-526 164,-526 48.25,-526"/>
<polygon fill="none" stroke="#666666" points="0,-364 0,-588 164,-588 164,-364 0,-364"/>
</a>
</g>
</g>
<!-- Node5&#45;&gt;Node4 -->
<g id="edge4_Node000004_Node000005" class="edge">
<title>Node5&#45;&gt;Node4</title>
<g id="a_edge4_Node000004_Node000005"><a xlink:title=" ">
<path fill="none" stroke="#63b8ff" d="M171.58,-365.48C172.05,-364.98 172.53,-364.49 173,-364 190.71,-345.6 211.07,-326.74 230.06,-310"/>
<polygon fill="none" stroke="#63b8ff" points="169.23,-362.87 164.94,-372.56 174.34,-367.66 169.23,-362.87"/>
</a>
</g>
</g>
<!-- Node6 -->
<g id="Node000006" class="node">
<title>Node6</title>
<g id="a_Node000006"><a xlink:href="classit_1_1unisa_1_1biblioteca_1_1gruppo21_1_1archive_1_1_archive_utenti.html" target="_top" xlink:title=" ">
<polygon fill="white" stroke="none" points="346,-532 182,-532 182,-420 346,-420 346,-532"/>
<text xml:space="preserve" text-anchor="start" x="186" y="-518.5" font-family="Helvetica,sans-Serif" font-size="10.00">it.unisa.biblioteca.gruppo21.archive.</text>
<text xml:space="preserve" text-anchor="start" x="234.38" y="-506.5" font-family="Helvetica,sans-Serif" font-size="10.00">ArchiveUtenti</text>
<text xml:space="preserve" text-anchor="start" x="262.5" y="-490.5" font-family="Helvetica,sans-Serif" font-size="10.00"> </text>
<text xml:space="preserve" text-anchor="start" x="206.19" y="-474.5" font-family="Helvetica,sans-Serif" font-size="10.00">+</text>
<text xml:space="preserve" text-anchor="start" x="236.38" y="-474.5" font-family="Helvetica,sans-Serif" font-size="10.00">ArchiveUtenti()</text>
<text xml:space="preserve" text-anchor="start" x="206.19" y="-458.5" font-family="Helvetica,sans-Serif" font-size="10.00">+</text>
<text xml:space="preserve" text-anchor="start" x="236.38" y="-458.5" font-family="Helvetica,sans-Serif" font-size="10.00">cerca()</text>
<text xml:space="preserve" text-anchor="start" x="206.56" y="-442.5" font-family="Helvetica,sans-Serif" font-size="10.00">#</text>
<text xml:space="preserve" text-anchor="start" x="236.38" y="-442.5" font-family="Helvetica,sans-Serif" font-size="10.00">serializza()</text>
<text xml:space="preserve" text-anchor="start" x="206.56" y="-426.5" font-family="Helvetica,sans-Serif" font-size="10.00">#</text>
<text xml:space="preserve" text-anchor="start" x="236.38" y="-426.5" font-family="Helvetica,sans-Serif" font-size="10.00">deserializza()</text>
<polygon fill="#666666" stroke="#666666" points="182,-502 182,-502 346,-502 346,-502 182,-502"/>
<polygon fill="#666666" stroke="#666666" points="182,-486 182,-486 346,-486 346,-486 182,-486"/>
<polygon fill="none" stroke="#666666" points="182,-420 182,-532 346,-532 346,-420 182,-420"/>
</a>
</g>
</g>
<!-- Node6&#45;&gt;Node4 -->
<g id="edge5_Node000004_Node000006" class="edge">
<title>Node6&#45;&gt;Node4</title>
<g id="a_edge5_Node000004_Node000006"><a xlink:title=" ">
<path fill="none" stroke="#63b8ff" d="M264.81,-420.19C265.95,-392.39 268.49,-358.2 274,-328 274.34,-326.13 274.71,-324.24 275.11,-322.33"/>
<polygon fill="none" stroke="#63b8ff" points="275.13,-322.24 272.61,-315.49 277.87,-310.56 280.4,-317.32 275.13,-322.24"/>
</a>
</g>
<text xml:space="preserve" text-anchor="start" x="277" y="-333.5" font-family="Helvetica,sans-Serif" font-size="10.00" fill="grey">&#45;archivioUtenti</text>
</g>
<!-- Node7 -->
<g id="Node000007" class="node">
<title>Node7</title>
<g id="a_Node000007"><a xlink:href="classit_1_1unisa_1_1biblioteca_1_1gruppo21_1_1archive_1_1_archive_astratto.html" target="_top" xlink:title=" ">
<polygon fill="white" stroke="none" points="346,-849 182,-849 182,-625 346,-625 346,-849"/>
<text xml:space="preserve" text-anchor="start" x="186" y="-835.5" font-family="Helvetica,sans-Serif" font-size="10.00">it.unisa.biblioteca.gruppo21.archive.</text>
<text xml:space="preserve" text-anchor="start" x="206.62" y="-823.5" font-family="Helvetica,sans-Serif" font-size="10.00">ArchiveAstratto&lt; Utente &gt;</text>
<text xml:space="preserve" text-anchor="start" x="204.5" y="-807.5" font-family="Helvetica,sans-Serif" font-size="10.00">#</text>
<text xml:space="preserve" text-anchor="start" x="232.25" y="-807.5" font-family="Helvetica,sans-Serif" font-size="10.00">cache</text>
<text xml:space="preserve" text-anchor="start" x="204.5" y="-791.5" font-family="Helvetica,sans-Serif" font-size="10.00">#</text>
<text xml:space="preserve" text-anchor="start" x="232.25" y="-791.5" font-family="Helvetica,sans-Serif" font-size="10.00">file</text>
<text xml:space="preserve" text-anchor="start" x="204.12" y="-775.5" font-family="Helvetica,sans-Serif" font-size="10.00">+</text>
<text xml:space="preserve" text-anchor="start" x="232.25" y="-775.5" font-family="Helvetica,sans-Serif" font-size="10.00">ArchiveAstratto()</text>
<text xml:space="preserve" text-anchor="start" x="204.12" y="-759.5" font-family="Helvetica,sans-Serif" font-size="10.00">+</text>
<text xml:space="preserve" text-anchor="start" x="232.25" y="-759.5" font-family="Helvetica,sans-Serif" font-size="10.00">inizializzaDati()</text>
<text xml:space="preserve" text-anchor="start" x="204.12" y="-743.5" font-family="Helvetica,sans-Serif" font-size="10.00">+</text>
<text xml:space="preserve" text-anchor="start" x="232.25" y="-743.5" font-family="Helvetica,sans-Serif" font-size="10.00">cerca()</text>
<text xml:space="preserve" text-anchor="start" x="204.12" y="-727.5" font-family="Helvetica,sans-Serif" font-size="10.00">+</text>
<text xml:space="preserve" text-anchor="start" x="232.25" y="-727.5" font-family="Helvetica,sans-Serif" font-size="10.00">aggiungi()</text>
<text xml:space="preserve" text-anchor="start" x="204.12" y="-711.5" font-family="Helvetica,sans-Serif" font-size="10.00">+</text>
<text xml:space="preserve" text-anchor="start" x="232.25" y="-711.5" font-family="Helvetica,sans-Serif" font-size="10.00">cancella()</text>
<text xml:space="preserve" text-anchor="start" x="204.12" y="-695.5" font-family="Helvetica,sans-Serif" font-size="10.00">+</text>
<text xml:space="preserve" text-anchor="start" x="232.25" y="-695.5" font-family="Helvetica,sans-Serif" font-size="10.00">leggiTutti()</text>
<text xml:space="preserve" text-anchor="start" x="204.12" y="-679.5" font-family="Helvetica,sans-Serif" font-size="10.00">+</text>
<text xml:space="preserve" text-anchor="start" x="232.25" y="-679.5" font-family="Helvetica,sans-Serif" font-size="10.00">salvaTutto()</text>
<text xml:space="preserve" text-anchor="start" x="204.5" y="-663.5" font-family="Helvetica,sans-Serif" font-size="10.00">#</text>
<text xml:space="preserve" text-anchor="start" x="232.25" y="-663.5" font-family="Helvetica,sans-Serif" font-size="10.00">serializza()</text>
<text xml:space="preserve" text-anchor="start" x="204.5" y="-647.5" font-family="Helvetica,sans-Serif" font-size="10.00">#</text>
<text xml:space="preserve" text-anchor="start" x="232.25" y="-647.5" font-family="Helvetica,sans-Serif" font-size="10.00">deserializza()</text>
<text xml:space="preserve" text-anchor="start" x="205.62" y="-631.5" font-family="Helvetica,sans-Serif" font-size="10.00">&#45;</text>
<text xml:space="preserve" text-anchor="start" x="232.25" y="-631.5" font-family="Helvetica,sans-Serif" font-size="10.00">caricaDaFile()</text>
<polygon fill="#666666" stroke="#666666" points="182,-819 182,-819 346,-819 346,-819 182,-819"/>
<polygon fill="#666666" stroke="#666666" points="182,-787 182,-787 230.25,-787 230.25,-787 182,-787"/>
<polygon fill="#666666" stroke="#666666" points="230.25,-787 230.25,-787 346,-787 346,-787 230.25,-787"/>
<polygon fill="none" stroke="#666666" points="182,-625 182,-849 346,-849 346,-625 182,-625"/>
</a>
</g>
</g>
<!-- Node7&#45;&gt;Node6 -->
<g id="edge6_Node000006_Node000007" class="edge">
<title>Node7&#45;&gt;Node6</title>
<g id="a_edge6_Node000006_Node000007"><a xlink:title=" ">
<path fill="none" stroke="#63b8ff" d="M264,-613.64C264,-584.93 264,-555.75 264,-531.77"/>
<polygon fill="none" stroke="#63b8ff" points="260.5,-613.52 264,-623.52 267.5,-613.52 260.5,-613.52"/>
</a>
</g>
</g>
</g>
</svg>
