<?xml version="1.0" encoding="UTF-8" standalone="no"?>
<!DOCTYPE svg PUBLIC "-//W3C//DTD SVG 1.1//EN"
 "http://www.w3.org/Graphics/SVG/1.1/DTD/svg11.dtd">
<!-- Generated by graphviz version 14.1.0 (20251206.1807)
 -->
<!-- Title: it.unisa.biblioteca.gruppo21.gui.AbstractViewController Pages: 1 -->
<svg width="583pt" height="1643pt"
 viewBox="0.00 0.00 583.00 1643.00" xmlns="http://www.w3.org/2000/svg" xmlns:xlink="http://www.w3.org/1999/xlink">
<g id="graph0" class="graph" transform="scale(1 1) rotate(0) translate(4 1639)">
<title>it.unisa.biblioteca.gruppo21.gui.AbstractViewController</title>
<!-- Node1 -->
<g id="Node000001" class="node">
<title>Node1</title>
<g id="a_Node000001"><a xlink:title=" ">
<polygon fill="#999999" stroke="none" points="336.62,-80 191.38,-80 191.38,0 336.62,0 336.62,-80"/>
<text xml:space="preserve" text-anchor="start" x="195.38" y="-66.5" font-family="Helvetica,sans-Serif" font-size="10.00">it.unisa.biblioteca.gruppo21.gui.</text>
<text xml:space="preserve" text-anchor="start" x="213.75" y="-54.5" font-family="Helvetica,sans-Serif" font-size="10.00">AbstractViewController</text>
<text xml:space="preserve" text-anchor="start" x="262.5" y="-38.5" font-family="Helvetica,sans-Serif" font-size="10.00"> </text>
<text xml:space="preserve" text-anchor="start" x="206" y="-22.5" font-family="Helvetica,sans-Serif" font-size="10.00">+</text>
<text xml:space="preserve" text-anchor="start" x="226.62" y="-22.5" font-family="Helvetica,sans-Serif" font-size="10.00">setLogicController()</text>
<text xml:space="preserve" text-anchor="start" x="206.38" y="-6.5" font-family="Helvetica,sans-Serif" font-size="10.00">#</text>
<text xml:space="preserve" text-anchor="start" x="226.62" y="-6.5" font-family="Helvetica,sans-Serif" font-size="10.00">aggiornaTabella()</text>
<polygon fill="#666666" stroke="#666666" points="191.38,-50 191.38,-50 336.62,-50 336.62,-50 191.38,-50"/>
<polygon fill="#666666" stroke="#666666" points="191.38,-34 191.38,-34 336.62,-34 336.62,-34 191.38,-34"/>
<polygon fill="none" stroke="#666666" points="191.38,0 191.38,-80 336.62,-80 336.62,0 191.38,0"/>
</a>
</g>
</g>
<!-- Node2 -->
<g id="Node000002" class="node">
<title>Node2</title>
<g id="a_Node000002"><a xlink:href="classit_1_1unisa_1_1biblioteca_1_1gruppo21_1_1gui_1_1_controller.html" target="_top" xlink:title=" ">
<polygon fill="white" stroke="none" points="338.25,-390 189.75,-390 189.75,-134 338.25,-134 338.25,-390"/>
<text xml:space="preserve" text-anchor="start" x="195.38" y="-376.5" font-family="Helvetica,sans-Serif" font-size="10.00">it.unisa.biblioteca.gruppo21.gui.</text>
<text xml:space="preserve" text-anchor="start" x="243" y="-364.5" font-family="Helvetica,sans-Serif" font-size="10.00">Controller</text>
<text xml:space="preserve" text-anchor="start" x="262.5" y="-348.5" font-family="Helvetica,sans-Serif" font-size="10.00"> </text>
<text xml:space="preserve" text-anchor="start" x="193.75" y="-332.5" font-family="Helvetica,sans-Serif" font-size="10.00">+</text>
<text xml:space="preserve" text-anchor="start" x="203.75" y="-332.5" font-family="Helvetica,sans-Serif" font-size="10.00">Controller()</text>
<text xml:space="preserve" text-anchor="start" x="193.75" y="-316.5" font-family="Helvetica,sans-Serif" font-size="10.00">+</text>
<text xml:space="preserve" text-anchor="start" x="203.75" y="-316.5" font-family="Helvetica,sans-Serif" font-size="10.00">gestisciIscrizione()</text>
<text xml:space="preserve" text-anchor="start" x="193.75" y="-300.5" font-family="Helvetica,sans-Serif" font-size="10.00">+</text>
<text xml:space="preserve" text-anchor="start" x="203.75" y="-300.5" font-family="Helvetica,sans-Serif" font-size="10.00">gestisciModificaUtente()</text>
<text xml:space="preserve" text-anchor="start" x="193.75" y="-284.5" font-family="Helvetica,sans-Serif" font-size="10.00">+</text>
<text xml:space="preserve" text-anchor="start" x="203.75" y="-284.5" font-family="Helvetica,sans-Serif" font-size="10.00">gestisciRimozioneUtente()</text>
<text xml:space="preserve" text-anchor="start" x="193.75" y="-268.5" font-family="Helvetica,sans-Serif" font-size="10.00">+</text>
<text xml:space="preserve" text-anchor="start" x="203.75" y="-268.5" font-family="Helvetica,sans-Serif" font-size="10.00">getListaUtenti()</text>
<text xml:space="preserve" text-anchor="start" x="193.75" y="-252.5" font-family="Helvetica,sans-Serif" font-size="10.00">+</text>
<text xml:space="preserve" text-anchor="start" x="203.75" y="-252.5" font-family="Helvetica,sans-Serif" font-size="10.00">gestisciAggiuntaLibro()</text>
<text xml:space="preserve" text-anchor="start" x="193.75" y="-236.5" font-family="Helvetica,sans-Serif" font-size="10.00">+</text>
<text xml:space="preserve" text-anchor="start" x="203.75" y="-236.5" font-family="Helvetica,sans-Serif" font-size="10.00">gestisciAggiornamentoCopie()</text>
<text xml:space="preserve" text-anchor="start" x="193.75" y="-220.5" font-family="Helvetica,sans-Serif" font-size="10.00">+</text>
<text xml:space="preserve" text-anchor="start" x="203.75" y="-220.5" font-family="Helvetica,sans-Serif" font-size="10.00">gestisciRimozioneLibro()</text>
<text xml:space="preserve" text-anchor="start" x="193.75" y="-204.5" font-family="Helvetica,sans-Serif" font-size="10.00">+</text>
<text xml:space="preserve" text-anchor="start" x="203.75" y="-204.5" font-family="Helvetica,sans-Serif" font-size="10.00">getListaLibri()</text>
<text xml:space="preserve" text-anchor="start" x="193.75" y="-188.5" font-family="Helvetica,sans-Serif" font-size="10.00">+</text>
<text xml:space="preserve" text-anchor="start" x="203.75" y="-188.5" font-family="Helvetica,sans-Serif" font-size="10.00">gestisciPrestito()</text>
<text xml:space="preserve" text-anchor="start" x="193.75" y="-172.5" font-family="Helvetica,sans-Serif" font-size="10.00">+</text>
<text xml:space="preserve" text-anchor="start" x="203.75" y="-172.5" font-family="Helvetica,sans-Serif" font-size="10.00">gestisciRestituzione()</text>
<text xml:space="preserve" text-anchor="start" x="193.75" y="-156.5" font-family="Helvetica,sans-Serif" font-size="10.00">+</text>
<text xml:space="preserve" text-anchor="start" x="203.75" y="-156.5" font-family="Helvetica,sans-Serif" font-size="10.00">getListaPrestiti()</text>
<text xml:space="preserve" text-anchor="start" x="195.25" y="-140.5" font-family="Helvetica,sans-Serif" font-size="10.00">&#45;</text>
<text xml:space="preserve" text-anchor="start" x="203.75" y="-140.5" font-family="Helvetica,sans-Serif" font-size="10.00">mostraMessaggio()</text>
<polygon fill="#666666" stroke="#666666" points="189.75,-360 189.75,-360 338.25,-360 338.25,-360 189.75,-360"/>
<polygon fill="#666666" stroke="#666666" points="189.75,-344 189.75,-344 338.25,-344 338.25,-344 189.75,-344"/>
<polygon fill="none" stroke="#666666" points="189.75,-134 189.75,-390 338.25,-390 338.25,-134 189.75,-134"/>
</a>
</g>
</g>
<!-- Node2&#45;&gt;Node1 -->
<g id="edge1_Node000001_Node000002" class="edge">
<title>Node2&#45;&gt;Node1</title>
<g id="a_edge1_Node000001_Node000002"><a xlink:title=" ">
<path fill="none" stroke="#63b8ff" d="M264,-134.3C264,-119.55 264,-105.22 264,-92.39"/>
<polygon fill="none" stroke="#63b8ff" points="264,-92.51 260,-86.51 264,-80.51 268,-86.51 264,-92.51"/>
</a>
</g>
<text xml:space="preserve" text-anchor="start" x="267" y="-103.5" font-family="Helvetica,sans-Serif" font-size="10.00" fill="grey">#logicController</text>
</g>
<!-- Node3 -->
<g id="Node000003" class="node">
<title>Node3</title>
<g id="a_Node000003"><a xlink:href="classit_1_1unisa_1_1biblioteca_1_1gruppo21_1_1service_1_1_biblioteca.html" target="_top" xlink:title=" ">
<polygon fill="white" stroke="none" points="346,-732 182,-732 182,-444 346,-444 346,-732"/>
<text xml:space="preserve" text-anchor="start" x="186" y="-718.5" font-family="Helvetica,sans-Serif" font-size="10.00">it.unisa.biblioteca.gruppo21.service.</text>
<text xml:space="preserve" text-anchor="start" x="242.62" y="-706.5" font-family="Helvetica,sans-Serif" font-size="10.00">Biblioteca</text>
<text xml:space="preserve" text-anchor="start" x="262.5" y="-690.5" font-family="Helvetica,sans-Serif" font-size="10.00"> </text>
<text xml:space="preserve" text-anchor="start" x="200.19" y="-674.5" font-family="Helvetica,sans-Serif" font-size="10.00">+</text>
<text xml:space="preserve" text-anchor="start" x="224.38" y="-674.5" font-family="Helvetica,sans-Serif" font-size="10.00">Biblioteca()</text>
<text xml:space="preserve" text-anchor="start" x="200.19" y="-658.5" font-family="Helvetica,sans-Serif" font-size="10.00">+</text>
<text xml:space="preserve" text-anchor="start" x="224.38" y="-658.5" font-family="Helvetica,sans-Serif" font-size="10.00">iscriviUtente()</text>
<text xml:space="preserve" text-anchor="start" x="200.19" y="-642.5" font-family="Helvetica,sans-Serif" font-size="10.00">+</text>
<text xml:space="preserve" text-anchor="start" x="224.38" y="-642.5" font-family="Helvetica,sans-Serif" font-size="10.00">modificaUtente()</text>
<text xml:space="preserve" text-anchor="start" x="200.19" y="-626.5" font-family="Helvetica,sans-Serif" font-size="10.00">+</text>
<text xml:space="preserve" text-anchor="start" x="224.38" y="-626.5" font-family="Helvetica,sans-Serif" font-size="10.00">rimuoviUtente()</text>
<text xml:space="preserve" text-anchor="start" x="200.19" y="-610.5" font-family="Helvetica,sans-Serif" font-size="10.00">+</text>
<text xml:space="preserve" text-anchor="start" x="224.38" y="-610.5" font-family="Helvetica,sans-Serif" font-size="10.00">getElencoUtenti()</text>
<text xml:space="preserve" text-anchor="start" x="200.19" y="-594.5" font-family="Helvetica,sans-Serif" font-size="10.00">+</text>
<text xml:space="preserve" text-anchor="start" x="224.38" y="-594.5" font-family="Helvetica,sans-Serif" font-size="10.00">cercaUtente()</text>
<text xml:space="preserve" text-anchor="start" x="200.19" y="-578.5" font-family="Helvetica,sans-Serif" font-size="10.00">+</text>
<text xml:space="preserve" text-anchor="start" x="224.38" y="-578.5" font-family="Helvetica,sans-Serif" font-size="10.00">aggiungiLibro()</text>
<text xml:space="preserve" text-anchor="start" x="200.19" y="-562.5" font-family="Helvetica,sans-Serif" font-size="10.00">+</text>
<text xml:space="preserve" text-anchor="start" x="224.38" y="-562.5" font-family="Helvetica,sans-Serif" font-size="10.00">aggiornaCopieLibro()</text>
<text xml:space="preserve" text-anchor="start" x="200.19" y="-546.5" font-family="Helvetica,sans-Serif" font-size="10.00">+</text>
<text xml:space="preserve" text-anchor="start" x="224.38" y="-546.5" font-family="Helvetica,sans-Serif" font-size="10.00">rimuoviLibro()</text>
<text xml:space="preserve" text-anchor="start" x="200.19" y="-530.5" font-family="Helvetica,sans-Serif" font-size="10.00">+</text>
<text xml:space="preserve" text-anchor="start" x="224.38" y="-530.5" font-family="Helvetica,sans-Serif" font-size="10.00">getElencoLibri()</text>
<text xml:space="preserve" text-anchor="start" x="200.19" y="-514.5" font-family="Helvetica,sans-Serif" font-size="10.00">+</text>
<text xml:space="preserve" text-anchor="start" x="224.38" y="-514.5" font-family="Helvetica,sans-Serif" font-size="10.00">cercaLibro()</text>
<text xml:space="preserve" text-anchor="start" x="200.19" y="-498.5" font-family="Helvetica,sans-Serif" font-size="10.00">+</text>
<text xml:space="preserve" text-anchor="start" x="224.38" y="-498.5" font-family="Helvetica,sans-Serif" font-size="10.00">effettuaPrestito()</text>
<text xml:space="preserve" text-anchor="start" x="200.19" y="-482.5" font-family="Helvetica,sans-Serif" font-size="10.00">+</text>
<text xml:space="preserve" text-anchor="start" x="224.38" y="-482.5" font-family="Helvetica,sans-Serif" font-size="10.00">restituisciLibro()</text>
<text xml:space="preserve" text-anchor="start" x="200.19" y="-466.5" font-family="Helvetica,sans-Serif" font-size="10.00">+</text>
<text xml:space="preserve" text-anchor="start" x="224.38" y="-466.5" font-family="Helvetica,sans-Serif" font-size="10.00">getStoricoPrestiti()</text>
<text xml:space="preserve" text-anchor="start" x="200.19" y="-450.5" font-family="Helvetica,sans-Serif" font-size="10.00">+</text>
<text xml:space="preserve" text-anchor="start" x="224.38" y="-450.5" font-family="Helvetica,sans-Serif" font-size="10.00">controllaRitardi()</text>
<polygon fill="#666666" stroke="#666666" points="182,-702 182,-702 346,-702 346,-702 182,-702"/>
<polygon fill="#666666" stroke="#666666" points="182,-686 182,-686 346,-686 346,-686 182,-686"/>
<polygon fill="none" stroke="#666666" points="182,-444 182,-732 346,-732 346,-444 182,-444"/>
</a>
</g>
</g>
<!-- Node3&#45;&gt;Node2 -->
<g id="edge2_Node000002_Node000003" class="edge">
<title>Node3&#45;&gt;Node2</title>
<g id="a_edge2_Node000002_Node000003"><a xlink:title=" ">
<path fill="none" stroke="#63b8ff" d="M264,-444.42C264,-430.51 264,-416.41 264,-402.53"/>
<polygon fill="none" stroke="#63b8ff" points="264,-402.76 260,-396.76 264,-390.76 268,-396.76 264,-402.76"/>
</a>
</g>
<text xml:space="preserve" text-anchor="start" x="267" y="-413.5" font-family="Helvetica,sans-Serif" font-size="10.00" fill="grey">&#45;biblioteca</text>
</g>
<!-- Node4 -->
<g id="Node000004" class="node">
<title>Node4</title>
<g id="a_Node000004"><a xlink:href="classit_1_1unisa_1_1biblioteca_1_1gruppo21_1_1service_1_1_service_utenti.html" target="_top" xlink:title=" ">
<polygon fill="white" stroke="none" points="528,-930 364,-930 364,-786 528,-786 528,-930"/>
<text xml:space="preserve" text-anchor="start" x="368" y="-916.5" font-family="Helvetica,sans-Serif" font-size="10.00">it.unisa.biblioteca.gruppo21.service.</text>
<text xml:space="preserve" text-anchor="start" x="416.38" y="-904.5" font-family="Helvetica,sans-Serif" font-size="10.00">ServiceUtenti</text>
<text xml:space="preserve" text-anchor="start" x="444.5" y="-888.5" font-family="Helvetica,sans-Serif" font-size="10.00"> </text>
<text xml:space="preserve" text-anchor="start" x="382" y="-872.5" font-family="Helvetica,sans-Serif" font-size="10.00">+</text>
<text xml:space="preserve" text-anchor="start" x="406" y="-872.5" font-family="Helvetica,sans-Serif" font-size="10.00">ServiceUtenti()</text>
<text xml:space="preserve" text-anchor="start" x="382" y="-856.5" font-family="Helvetica,sans-Serif" font-size="10.00">+</text>
<text xml:space="preserve" text-anchor="start" x="406" y="-856.5" font-family="Helvetica,sans-Serif" font-size="10.00">iscrivi()</text>
<text xml:space="preserve" text-anchor="start" x="382" y="-840.5" font-family="Helvetica,sans-Serif" font-size="10.00">+</text>
<text xml:space="preserve" text-anchor="start" x="406" y="-840.5" font-family="Helvetica,sans-Serif" font-size="10.00">modificaDatiUtente()</text>
<text xml:space="preserve" text-anchor="start" x="382" y="-824.5" font-family="Helvetica,sans-Serif" font-size="10.00">+</text>
<text xml:space="preserve" text-anchor="start" x="406" y="-824.5" font-family="Helvetica,sans-Serif" font-size="10.00">rimuovi()</text>
<text xml:space="preserve" text-anchor="start" x="382" y="-808.5" font-family="Helvetica,sans-Serif" font-size="10.00">+</text>
<text xml:space="preserve" text-anchor="start" x="406" y="-808.5" font-family="Helvetica,sans-Serif" font-size="10.00">cerca()</text>
<text xml:space="preserve" text-anchor="start" x="382" y="-792.5" font-family="Helvetica,sans-Serif" font-size="10.00">+</text>
<text xml:space="preserve" text-anchor="start" x="406" y="-792.5" font-family="Helvetica,sans-Serif" font-size="10.00">getLista()</text>
<polygon fill="#666666" stroke="#666666" points="364,-900 364,-900 528,-900 528,-900 364,-900"/>
<polygon fill="#666666" stroke="#666666" points="364,-884 364,-884 528,-884 528,-884 364,-884"/>
<polygon fill="none" stroke="#666666" points="364,-786 364,-930 528,-930 528,-786 364,-786"/>
</a>
</g>
</g>
<!-- Node4&#45;&gt;Node3 -->
<g id="edge3_Node000003_Node000004" class="edge">
<title>Node4&#45;&gt;Node3</title>
<g id="a_edge3_Node000003_Node000004"><a xlink:title=" ">
<path fill="none" stroke="#63b8ff" d="M397.94,-786.24C384.17,-765.95 368.69,-743.16 353.28,-720.47"/>
<polygon fill="none" stroke="#63b8ff" points="353.22,-720.38 346.54,-717.66 346.48,-710.45 353.16,-713.17 353.22,-720.38"/>
</a>
</g>
<text xml:space="preserve" text-anchor="start" x="384.94" y="-755.5" font-family="Helvetica,sans-Serif" font-size="10.00" fill="grey">&#45;serviceUtenti</text>
</g>
<!-- Node5 -->
<g id="Node000005" class="node">
<title>Node5</title>
<g id="a_Node000005"><a xlink:href="classit_1_1unisa_1_1biblioteca_1_1gruppo21_1_1archive_1_1_archive_utenti.html" target="_top" xlink:title=" ">
<polygon fill="white" stroke="none" points="575,-1318 411,-1318 411,-1206 575,-1206 575,-1318"/>
<text xml:space="preserve" text-anchor="start" x="415" y="-1304.5" font-family="Helvetica,sans-Serif" font-size="10.00">it.unisa.biblioteca.gruppo21.archive.</text>
<text xml:space="preserve" text-anchor="start" x="463.38" y="-1292.5" font-family="Helvetica,sans-Serif" font-size="10.00">ArchiveUtenti</text>
<text xml:space="preserve" text-anchor="start" x="491.5" y="-1276.5" font-family="Helvetica,sans-Serif" font-size="10.00"> </text>
<text xml:space="preserve" text-anchor="start" x="435.19" y="-1260.5" font-family="Helvetica,sans-Serif" font-size="10.00">+</text>
<text xml:space="preserve" text-anchor="start" x="465.38" y="-1260.5" font-family="Helvetica,sans-Serif" font-size="10.00">ArchiveUtenti()</text>
<text xml:space="preserve" text-anchor="start" x="435.19" y="-1244.5" font-family="Helvetica,sans-Serif" font-size="10.00">+</text>
<text xml:space="preserve" text-anchor="start" x="465.38" y="-1244.5" font-family="Helvetica,sans-Serif" font-size="10.00">cerca()</text>
<text xml:space="preserve" text-anchor="start" x="435.56" y="-1228.5" font-family="Helvetica,sans-Serif" font-size="10.00">#</text>
<text xml:space="preserve" text-anchor="start" x="465.38" y="-1228.5" font-family="Helvetica,sans-Serif" font-size="10.00">serializza()</text>
<text xml:space="preserve" text-anchor="start" x="435.56" y="-1212.5" font-family="Helvetica,sans-Serif" font-size="10.00">#</text>
<text xml:space="preserve" text-anchor="start" x="465.38" y="-1212.5" font-family="Helvetica,sans-Serif" font-size="10.00">deserializza()</text>
<polygon fill="#666666" stroke="#666666" points="411,-1288 411,-1288 575,-1288 575,-1288 411,-1288"/>
<polygon fill="#666666" stroke="#666666" points="411,-1272 411,-1272 575,-1272 575,-1272 411,-1272"/>
<polygon fill="none" stroke="#666666" points="411,-1206 411,-1318 575,-1318 575,-1206 411,-1206"/>
</a>
</g>
</g>
<!-- Node5&#45;&gt;Node4 -->
<g id="edge4_Node000004_Node000005" class="edge">
<title>Node5&#45;&gt;Node4</title>
<g id="a_edge4_Node000004_Node000005"><a xlink:title=" ">
<path fill="none" stroke="#63b8ff" d="M502.49,-1206.17C510.46,-1149.78 518.19,-1059.75 502,-984 499,-969.97 494.31,-955.61 488.88,-941.86"/>
<polygon fill="none" stroke="#63b8ff" points="488.88,-941.87 482.89,-937.86 484.29,-930.78 490.28,-934.8 488.88,-941.87"/>
</a>
</g>
<text xml:space="preserve" text-anchor="start" x="514.5" y="-1036.5" font-family="Helvetica,sans-Serif" font-size="10.00" fill="grey">&#45;arcUtenti</text>
</g>
<!-- Node7 -->
<g id="Node000007" class="node">
<title>Node7</title>
<g id="a_Node000007"><a xlink:href="classit_1_1unisa_1_1biblioteca_1_1gruppo21_1_1archive_1_1_archive_prestiti.html" target="_top" xlink:title=" ">
<polygon fill="white" stroke="none" points="393,-1096 229,-1096 229,-984 393,-984 393,-1096"/>
<text xml:space="preserve" text-anchor="start" x="233" y="-1082.5" font-family="Helvetica,sans-Serif" font-size="10.00">it.unisa.biblioteca.gruppo21.archive.</text>
<text xml:space="preserve" text-anchor="start" x="279.12" y="-1070.5" font-family="Helvetica,sans-Serif" font-size="10.00">ArchivePrestiti</text>
<text xml:space="preserve" text-anchor="start" x="309.5" y="-1054.5" font-family="Helvetica,sans-Serif" font-size="10.00"> </text>
<text xml:space="preserve" text-anchor="start" x="252.06" y="-1038.5" font-family="Helvetica,sans-Serif" font-size="10.00">+</text>
<text xml:space="preserve" text-anchor="start" x="281.12" y="-1038.5" font-family="Helvetica,sans-Serif" font-size="10.00">ArchivePrestiti()</text>
<text xml:space="preserve" text-anchor="start" x="252.06" y="-1022.5" font-family="Helvetica,sans-Serif" font-size="10.00">+</text>
<text xml:space="preserve" text-anchor="start" x="281.12" y="-1022.5" font-family="Helvetica,sans-Serif" font-size="10.00">cerca()</text>
<text xml:space="preserve" text-anchor="start" x="252.44" y="-1006.5" font-family="Helvetica,sans-Serif" font-size="10.00">#</text>
<text xml:space="preserve" text-anchor="start" x="281.12" y="-1006.5" font-family="Helvetica,sans-Serif" font-size="10.00">serializza()</text>
<text xml:space="preserve" text-anchor="start" x="252.44" y="-990.5" font-family="Helvetica,sans-Serif" font-size="10.00">#</text>
<text xml:space="preserve" text-anchor="start" x="281.12" y="-990.5" font-family="Helvetica,sans-Serif" font-size="10.00">deserializza()</text>
<polygon fill="#666666" stroke="#666666" points="229,-1066 229,-1066 393,-1066 393,-1066 229,-1066"/>
<polygon fill="#666666" stroke="#666666" points="229,-1050 229,-1050 393,-1050 393,-1050 229,-1050"/>
<polygon fill="none" stroke="#666666" points="229,-984 229,-1096 393,-1096 393,-984 229,-984"/>
</a>
</g>
</g>
<!-- Node5&#45;&gt;Node7 -->
<g id="edge8_Node000007_Node000005" class="edge">
<title>Node5&#45;&gt;Node7</title>
<g id="a_edge8_Node000007_Node000005"><a xlink:title=" ">
<path fill="none" stroke="#63b8ff" d="M457.95,-1206.07C442.83,-1186.04 423.63,-1164.72 402,-1150 380.39,-1135.29 365,-1149.96 346,-1132 338.74,-1125.13 332.96,-1116.59 328.37,-1107.51"/>
<polygon fill="none" stroke="#63b8ff" points="328.41,-1107.6 322.32,-1103.74 323.54,-1096.63 329.63,-1100.49 328.41,-1107.6"/>
</a>
</g>
<text xml:space="preserve" text-anchor="start" x="349" y="-1119.5" font-family="Helvetica,sans-Serif" font-size="10.00" fill="grey">&#45;archivioUtenti</text>
</g>
<!-- Node12 -->
<g id="Node000012" class="node">
<title>Node12</title>
<g id="a_Node000012"><a xlink:href="classit_1_1unisa_1_1biblioteca_1_1gruppo21_1_1service_1_1_service_prestiti.html" target="_top" xlink:title=" ">
<polygon fill="white" stroke="none" points="346,-930 182,-930 182,-786 346,-786 346,-930"/>
<text xml:space="preserve" text-anchor="start" x="186" y="-916.5" font-family="Helvetica,sans-Serif" font-size="10.00">it.unisa.biblioteca.gruppo21.service.</text>
<text xml:space="preserve" text-anchor="start" x="232.12" y="-904.5" font-family="Helvetica,sans-Serif" font-size="10.00">ServicePrestiti</text>
<text xml:space="preserve" text-anchor="start" x="262.5" y="-888.5" font-family="Helvetica,sans-Serif" font-size="10.00"> </text>
<text xml:space="preserve" text-anchor="start" x="204.69" y="-872.5" font-family="Helvetica,sans-Serif" font-size="10.00">+</text>
<text xml:space="preserve" text-anchor="start" x="233.38" y="-872.5" font-family="Helvetica,sans-Serif" font-size="10.00">ServicePrestiti()</text>
<text xml:space="preserve" text-anchor="start" x="204.69" y="-856.5" font-family="Helvetica,sans-Serif" font-size="10.00">+</text>
<text xml:space="preserve" text-anchor="start" x="233.38" y="-856.5" font-family="Helvetica,sans-Serif" font-size="10.00">nuovoPrestito()</text>
<text xml:space="preserve" text-anchor="start" x="204.69" y="-840.5" font-family="Helvetica,sans-Serif" font-size="10.00">+</text>
<text xml:space="preserve" text-anchor="start" x="233.38" y="-840.5" font-family="Helvetica,sans-Serif" font-size="10.00">restituzione()</text>
<text xml:space="preserve" text-anchor="start" x="204.69" y="-824.5" font-family="Helvetica,sans-Serif" font-size="10.00">+</text>
<text xml:space="preserve" text-anchor="start" x="233.38" y="-824.5" font-family="Helvetica,sans-Serif" font-size="10.00">controllaRitardi()</text>
<text xml:space="preserve" text-anchor="start" x="204.69" y="-808.5" font-family="Helvetica,sans-Serif" font-size="10.00">+</text>
<text xml:space="preserve" text-anchor="start" x="233.38" y="-808.5" font-family="Helvetica,sans-Serif" font-size="10.00">getLista()</text>
<text xml:space="preserve" text-anchor="start" x="206.19" y="-792.5" font-family="Helvetica,sans-Serif" font-size="10.00">&#45;</text>
<text xml:space="preserve" text-anchor="start" x="233.38" y="-792.5" font-family="Helvetica,sans-Serif" font-size="10.00">trovaUtente()</text>
<polygon fill="#666666" stroke="#666666" points="182,-900 182,-900 346,-900 346,-900 182,-900"/>
<polygon fill="#666666" stroke="#666666" points="182,-884 182,-884 346,-884 346,-884 182,-884"/>
<polygon fill="none" stroke="#666666" points="182,-786 182,-930 346,-930 346,-786 182,-786"/>
</a>
</g>
</g>
<!-- Node5&#45;&gt;Node12 -->
<g id="edge17_Node000012_Node000005" class="edge">
<title>Node5&#45;&gt;Node12</title>
<g id="a_edge17_Node000012_Node000005"><a xlink:title=" ">
<path fill="none" stroke="#63b8ff" d="M467.3,-1206.09C453.67,-1174.56 437.94,-1133.82 429,-1096 421.4,-1063.85 435.95,-973.55 415,-948 399.55,-929.16 384.14,-939.3 357.88,-930.22"/>
<polygon fill="none" stroke="#63b8ff" points="357.76,-930.17 350.66,-931.44 346.76,-925.37 353.86,-924.1 357.76,-930.17"/>
</a>
</g>
<text xml:space="preserve" text-anchor="start" x="432" y="-1036.5" font-family="Helvetica,sans-Serif" font-size="10.00" fill="grey">&#45;archivioUtenti</text>
</g>
<!-- Node6 -->
<g id="Node000006" class="node">
<title>Node6</title>
<g id="a_Node000006"><a xlink:href="classit_1_1unisa_1_1biblioteca_1_1gruppo21_1_1archive_1_1_archive_astratto.html" target="_top" xlink:title=" ">
<polygon fill="white" stroke="none" points="575,-1635 411,-1635 411,-1411 575,-1411 575,-1635"/>
<text xml:space="preserve" text-anchor="start" x="415" y="-1621.5" font-family="Helvetica,sans-Serif" font-size="10.00">it.unisa.biblioteca.gruppo21.archive.</text>
<text xml:space="preserve" text-anchor="start" x="435.62" y="-1609.5" font-family="Helvetica,sans-Serif" font-size="10.00">ArchiveAstratto&lt; Utente &gt;</text>
<text xml:space="preserve" text-anchor="start" x="433.5" y="-1593.5" font-family="Helvetica,sans-Serif" font-size="10.00">#</text>
<text xml:space="preserve" text-anchor="start" x="461.25" y="-1593.5" font-family="Helvetica,sans-Serif" font-size="10.00">cache</text>
<text xml:space="preserve" text-anchor="start" x="433.5" y="-1577.5" font-family="Helvetica,sans-Serif" font-size="10.00">#</text>
<text xml:space="preserve" text-anchor="start" x="461.25" y="-1577.5" font-family="Helvetica,sans-Serif" font-size="10.00">file</text>
<text xml:space="preserve" text-anchor="start" x="433.12" y="-1561.5" font-family="Helvetica,sans-Serif" font-size="10.00">+</text>
<text xml:space="preserve" text-anchor="start" x="461.25" y="-1561.5" font-family="Helvetica,sans-Serif" font-size="10.00">ArchiveAstratto()</text>
<text xml:space="preserve" text-anchor="start" x="433.12" y="-1545.5" font-family="Helvetica,sans-Serif" font-size="10.00">+</text>
<text xml:space="preserve" text-anchor="start" x="461.25" y="-1545.5" font-family="Helvetica,sans-Serif" font-size="10.00">inizializzaDati()</text>
<text xml:space="preserve" text-anchor="start" x="433.12" y="-1529.5" font-family="Helvetica,sans-Serif" font-size="10.00">+</text>
<text xml:space="preserve" text-anchor="start" x="461.25" y="-1529.5" font-family="Helvetica,sans-Serif" font-size="10.00">cerca()</text>
<text xml:space="preserve" text-anchor="start" x="433.12" y="-1513.5" font-family="Helvetica,sans-Serif" font-size="10.00">+</text>
<text xml:space="preserve" text-anchor="start" x="461.25" y="-1513.5" font-family="Helvetica,sans-Serif" font-size="10.00">aggiungi()</text>
<text xml:space="preserve" text-anchor="start" x="433.12" y="-1497.5" font-family="Helvetica,sans-Serif" font-size="10.00">+</text>
<text xml:space="preserve" text-anchor="start" x="461.25" y="-1497.5" font-family="Helvetica,sans-Serif" font-size="10.00">cancella()</text>
<text xml:space="preserve" text-anchor="start" x="433.12" y="-1481.5" font-family="Helvetica,sans-Serif" font-size="10.00">+</text>
<text xml:space="preserve" text-anchor="start" x="461.25" y="-1481.5" font-family="Helvetica,sans-Serif" font-size="10.00">leggiTutti()</text>
<text xml:space="preserve" text-anchor="start" x="433.12" y="-1465.5" font-family="Helvetica,sans-Serif" font-size="10.00">+</text>
<text xml:space="preserve" text-anchor="start" x="461.25" y="-1465.5" font-family="Helvetica,sans-Serif" font-size="10.00">salvaTutto()</text>
<text xml:space="preserve" text-anchor="start" x="433.5" y="-1449.5" font-family="Helvetica,sans-Serif" font-size="10.00">#</text>
<text xml:space="preserve" text-anchor="start" x="461.25" y="-1449.5" font-family="Helvetica,sans-Serif" font-size="10.00">serializza()</text>
<text xml:space="preserve" text-anchor="start" x="433.5" y="-1433.5" font-family="Helvetica,sans-Serif" font-size="10.00">#</text>
<text xml:space="preserve" text-anchor="start" x="461.25" y="-1433.5" font-family="Helvetica,sans-Serif" font-size="10.00">deserializza()</text>
<text xml:space="preserve" text-anchor="start" x="434.62" y="-1417.5" font-family="Helvetica,sans-Serif" font-size="10.00">&#45;</text>
<text xml:space="preserve" text-anchor="start" x="461.25" y="-1417.5" font-family="Helvetica,sans-Serif" font-size="10.00">caricaDaFile()</text>
<polygon fill="#666666" stroke="#666666" points="411,-1605 411,-1605 575,-1605 575,-1605 411,-1605"/>
<polygon fill="#666666" stroke="#666666" points="411,-1573 411,-1573 459.25,-1573 459.25,-1573 411,-1573"/>
<polygon fill="#666666" stroke="#666666" points="459.25,-1573 459.25,-1573 575,-1573 575,-1573 459.25,-1573"/>
<polygon fill="none" stroke="#666666" points="411,-1411 411,-1635 575,-1635 575,-1411 411,-1411"/>
</a>
</g>
</g>
<!-- Node6&#45;&gt;Node5 -->
<g id="edge5_Node000005_Node000006" class="edge">
<title>Node6&#45;&gt;Node5</title>
<g id="a_edge5_Node000005_Node000006"><a xlink:title=" ">
<path fill="none" stroke="#63b8ff" d="M493,-1399.64C493,-1370.93 493,-1341.75 493,-1317.77"/>
<polygon fill="none" stroke="#63b8ff" points="489.5,-1399.52 493,-1409.52 496.5,-1399.52 489.5,-1399.52"/>
</a>
</g>
</g>
<!-- Node7&#45;&gt;Node4 -->
<g id="edge6_Node000004_Node000007" class="edge">
<title>Node7&#45;&gt;Node4</title>
<g id="a_edge6_Node000004_Node000007"><a xlink:title=" ">
<path fill="none" stroke="#63b8ff" d="M352.24,-984.02C362.63,-970.16 374.01,-954.98 385.15,-940.13"/>
<polygon fill="none" stroke="#63b8ff" points="385.06,-940.25 385.46,-933.05 392.26,-930.65 391.86,-937.85 385.06,-940.25"/>
</a>
</g>
<text xml:space="preserve" text-anchor="start" x="381.5" y="-953.5" font-family="Helvetica,sans-Serif" font-size="10.00" fill="grey">&#45;arcPrestiti</text>
</g>
<!-- Node11 -->
<g id="Node000011" class="node">
<title>Node11</title>
<g id="a_Node000011"><a xlink:href="classit_1_1unisa_1_1biblioteca_1_1gruppo21_1_1service_1_1_service_libri.html" target="_top" xlink:title=" ">
<polygon fill="white" stroke="none" points="164,-930 0,-930 0,-786 164,-786 164,-930"/>
<text xml:space="preserve" text-anchor="start" x="4" y="-916.5" font-family="Helvetica,sans-Serif" font-size="10.00">it.unisa.biblioteca.gruppo21.service.</text>
<text xml:space="preserve" text-anchor="start" x="56.5" y="-904.5" font-family="Helvetica,sans-Serif" font-size="10.00">ServiceLibri</text>
<text xml:space="preserve" text-anchor="start" x="80.5" y="-888.5" font-family="Helvetica,sans-Serif" font-size="10.00"> </text>
<text xml:space="preserve" text-anchor="start" x="23.44" y="-872.5" font-family="Helvetica,sans-Serif" font-size="10.00">+</text>
<text xml:space="preserve" text-anchor="start" x="52.88" y="-872.5" font-family="Helvetica,sans-Serif" font-size="10.00">ServiceLibri()</text>
<text xml:space="preserve" text-anchor="start" x="23.44" y="-856.5" font-family="Helvetica,sans-Serif" font-size="10.00">+</text>
<text xml:space="preserve" text-anchor="start" x="52.88" y="-856.5" font-family="Helvetica,sans-Serif" font-size="10.00">aggiungi()</text>
<text xml:space="preserve" text-anchor="start" x="23.44" y="-840.5" font-family="Helvetica,sans-Serif" font-size="10.00">+</text>
<text xml:space="preserve" text-anchor="start" x="52.88" y="-840.5" font-family="Helvetica,sans-Serif" font-size="10.00">aggiornaCopie()</text>
<text xml:space="preserve" text-anchor="start" x="23.44" y="-824.5" font-family="Helvetica,sans-Serif" font-size="10.00">+</text>
<text xml:space="preserve" text-anchor="start" x="52.88" y="-824.5" font-family="Helvetica,sans-Serif" font-size="10.00">rimuovi()</text>
<text xml:space="preserve" text-anchor="start" x="23.44" y="-808.5" font-family="Helvetica,sans-Serif" font-size="10.00">+</text>
<text xml:space="preserve" text-anchor="start" x="52.88" y="-808.5" font-family="Helvetica,sans-Serif" font-size="10.00">getLista()</text>
<text xml:space="preserve" text-anchor="start" x="23.44" y="-792.5" font-family="Helvetica,sans-Serif" font-size="10.00">+</text>
<text xml:space="preserve" text-anchor="start" x="52.88" y="-792.5" font-family="Helvetica,sans-Serif" font-size="10.00">cerca()</text>
<polygon fill="#bfbfbf" stroke="#bfbfbf" points="0,-900 0,-900 164,-900 164,-900 0,-900"/>
<polygon fill="#bfbfbf" stroke="#bfbfbf" points="0,-884 0,-884 164,-884 164,-884 0,-884"/>
<polygon fill="none" stroke="#bfbfbf" points="0,-786 0,-930 164,-930 164,-786 0,-786"/>
</a>
</g>
</g>
<!-- Node7&#45;&gt;Node11 -->
<g id="edge13_Node000011_Node000007" class="edge">
<title>Node7&#45;&gt;Node11</title>
<g id="a_edge13_Node000011_Node000007"><a xlink:title=" ">
<path fill="none" stroke="#63b8ff" d="M229.1,-984.14C220.78,-978.15 212.53,-972.03 204.75,-966 193.43,-957.22 181.79,-947.73 170.38,-938.15"/>
<polygon fill="none" stroke="#63b8ff" points="170.28,-938.07 163.12,-937.24 161.13,-930.31 168.29,-931.13 170.28,-938.07"/>
</a>
</g>
<text xml:space="preserve" text-anchor="start" x="207.75" y="-953.5" font-family="Helvetica,sans-Serif" font-size="10.00" fill="grey">&#45;arcPrestiti</text>
</g>
<!-- Node7&#45;&gt;Node12 -->
<g id="edge15_Node000012_Node000007" class="edge">
<title>Node7&#45;&gt;Node12</title>
<g id="a_edge15_Node000012_Node000007"><a xlink:title=" ">
<path fill="none" stroke="#63b8ff" d="M272.68,-984.28C269.8,-978.31 267.31,-972.16 265.5,-966 263.31,-958.54 261.8,-950.67 260.79,-942.71"/>
<polygon fill="none" stroke="#63b8ff" points="260.78,-942.59 256.25,-936.99 259.68,-930.64 264.21,-936.25 260.78,-942.59"/>
</a>
</g>
<text xml:space="preserve" text-anchor="start" x="268.5" y="-953.5" font-family="Helvetica,sans-Serif" font-size="10.00" fill="grey">&#45;archivioPrestiti</text>
</g>
<!-- Node8 -->
<g id="Node000008" class="node">
<title>Node8</title>
<g id="a_Node000008"><a xlink:href="classit_1_1unisa_1_1biblioteca_1_1gruppo21_1_1archive_1_1_archive_astratto.html" target="_top" xlink:title=" ">
<polygon fill="white" stroke="none" points="393,-1374 229,-1374 229,-1150 393,-1150 393,-1374"/>
<text xml:space="preserve" text-anchor="start" x="233" y="-1360.5" font-family="Helvetica,sans-Serif" font-size="10.00">it.unisa.biblioteca.gruppo21.archive.</text>
<text xml:space="preserve" text-anchor="start" x="251.38" y="-1348.5" font-family="Helvetica,sans-Serif" font-size="10.00">ArchiveAstratto&lt; Prestito &gt;</text>
<text xml:space="preserve" text-anchor="start" x="251.5" y="-1332.5" font-family="Helvetica,sans-Serif" font-size="10.00">#</text>
<text xml:space="preserve" text-anchor="start" x="279.25" y="-1332.5" font-family="Helvetica,sans-Serif" font-size="10.00">cache</text>
<text xml:space="preserve" text-anchor="start" x="251.5" y="-1316.5" font-family="Helvetica,sans-Serif" font-size="10.00">#</text>
<text xml:space="preserve" text-anchor="start" x="279.25" y="-1316.5" font-family="Helvetica,sans-Serif" font-size="10.00">file</text>
<text xml:space="preserve" text-anchor="start" x="251.12" y="-1300.5" font-family="Helvetica,sans-Serif" font-size="10.00">+</text>
<text xml:space="preserve" text-anchor="start" x="279.25" y="-1300.5" font-family="Helvetica,sans-Serif" font-size="10.00">ArchiveAstratto()</text>
<text xml:space="preserve" text-anchor="start" x="251.12" y="-1284.5" font-family="Helvetica,sans-Serif" font-size="10.00">+</text>
<text xml:space="preserve" text-anchor="start" x="279.25" y="-1284.5" font-family="Helvetica,sans-Serif" font-size="10.00">inizializzaDati()</text>
<text xml:space="preserve" text-anchor="start" x="251.12" y="-1268.5" font-family="Helvetica,sans-Serif" font-size="10.00">+</text>
<text xml:space="preserve" text-anchor="start" x="279.25" y="-1268.5" font-family="Helvetica,sans-Serif" font-size="10.00">cerca()</text>
<text xml:space="preserve" text-anchor="start" x="251.12" y="-1252.5" font-family="Helvetica,sans-Serif" font-size="10.00">+</text>
<text xml:space="preserve" text-anchor="start" x="279.25" y="-1252.5" font-family="Helvetica,sans-Serif" font-size="10.00">aggiungi()</text>
<text xml:space="preserve" text-anchor="start" x="251.12" y="-1236.5" font-family="Helvetica,sans-Serif" font-size="10.00">+</text>
<text xml:space="preserve" text-anchor="start" x="279.25" y="-1236.5" font-family="Helvetica,sans-Serif" font-size="10.00">cancella()</text>
<text xml:space="preserve" text-anchor="start" x="251.12" y="-1220.5" font-family="Helvetica,sans-Serif" font-size="10.00">+</text>
<text xml:space="preserve" text-anchor="start" x="279.25" y="-1220.5" font-family="Helvetica,sans-Serif" font-size="10.00">leggiTutti()</text>
<text xml:space="preserve" text-anchor="start" x="251.12" y="-1204.5" font-family="Helvetica,sans-Serif" font-size="10.00">+</text>
<text xml:space="preserve" text-anchor="start" x="279.25" y="-1204.5" font-family="Helvetica,sans-Serif" font-size="10.00">salvaTutto()</text>
<text xml:space="preserve" text-anchor="start" x="251.5" y="-1188.5" font-family="Helvetica,sans-Serif" font-size="10.00">#</text>
<text xml:space="preserve" text-anchor="start" x="279.25" y="-1188.5" font-family="Helvetica,sans-Serif" font-size="10.00">serializza()</text>
<text xml:space="preserve" text-anchor="start" x="251.5" y="-1172.5" font-family="Helvetica,sans-Serif" font-size="10.00">#</text>
<text xml:space="preserve" text-anchor="start" x="279.25" y="-1172.5" font-family="Helvetica,sans-Serif" font-size="10.00">deserializza()</text>
<text xml:space="preserve" text-anchor="start" x="252.62" y="-1156.5" font-family="Helvetica,sans-Serif" font-size="10.00">&#45;</text>
<text xml:space="preserve" text-anchor="start" x="279.25" y="-1156.5" font-family="Helvetica,sans-Serif" font-size="10.00">caricaDaFile()</text>
<polygon fill="#666666" stroke="#666666" points="229,-1344 229,-1344 393,-1344 393,-1344 229,-1344"/>
<polygon fill="#666666" stroke="#666666" points="229,-1312 229,-1312 277.25,-1312 277.25,-1312 229,-1312"/>
<polygon fill="#666666" stroke="#666666" points="277.25,-1312 277.25,-1312 393,-1312 393,-1312 277.25,-1312"/>
<polygon fill="none" stroke="#666666" points="229,-1150 229,-1374 393,-1374 393,-1150 229,-1150"/>
</a>
</g>
</g>
<!-- Node8&#45;&gt;Node7 -->
<g id="edge7_Node000007_Node000008" class="edge">
<title>Node8&#45;&gt;Node7</title>
<g id="a_edge7_Node000007_Node000008"><a xlink:title=" ">
<path fill="none" stroke="#63b8ff" d="M311,-1138.6C311,-1123.71 311,-1109.12 311,-1095.96"/>
<polygon fill="none" stroke="#63b8ff" points="307.5,-1138.52 311,-1148.52 314.5,-1138.52 307.5,-1138.52"/>
</a>
</g>
</g>
<!-- Node9 -->
<g id="Node000009" class="node">
<title>Node9</title>
<g id="a_Node000009"><a xlink:href="classit_1_1unisa_1_1biblioteca_1_1gruppo21_1_1archive_1_1_archive_libri.html" target="_top" xlink:title=" ">
<polygon fill="white" stroke="none" points="211,-1318 47,-1318 47,-1206 211,-1206 211,-1318"/>
<text xml:space="preserve" text-anchor="start" x="51" y="-1304.5" font-family="Helvetica,sans-Serif" font-size="10.00">it.unisa.biblioteca.gruppo21.archive.</text>
<text xml:space="preserve" text-anchor="start" x="103.5" y="-1292.5" font-family="Helvetica,sans-Serif" font-size="10.00">ArchiveLibri</text>
<text xml:space="preserve" text-anchor="start" x="127.5" y="-1276.5" font-family="Helvetica,sans-Serif" font-size="10.00"> </text>
<text xml:space="preserve" text-anchor="start" x="73.06" y="-1260.5" font-family="Helvetica,sans-Serif" font-size="10.00">+</text>
<text xml:space="preserve" text-anchor="start" x="105.12" y="-1260.5" font-family="Helvetica,sans-Serif" font-size="10.00">ArchiveLibri()</text>
<text xml:space="preserve" text-anchor="start" x="73.06" y="-1244.5" font-family="Helvetica,sans-Serif" font-size="10.00">+</text>
<text xml:space="preserve" text-anchor="start" x="105.12" y="-1244.5" font-family="Helvetica,sans-Serif" font-size="10.00">cerca()</text>
<text xml:space="preserve" text-anchor="start" x="73.44" y="-1228.5" font-family="Helvetica,sans-Serif" font-size="10.00">#</text>
<text xml:space="preserve" text-anchor="start" x="105.12" y="-1228.5" font-family="Helvetica,sans-Serif" font-size="10.00">serializza()</text>
<text xml:space="preserve" text-anchor="start" x="73.44" y="-1212.5" font-family="Helvetica,sans-Serif" font-size="10.00">#</text>
<text xml:space="preserve" text-anchor="start" x="105.12" y="-1212.5" font-family="Helvetica,sans-Serif" font-size="10.00">deserializza()</text>
<polygon fill="#666666" stroke="#666666" points="47,-1288 47,-1288 211,-1288 211,-1288 47,-1288"/>
<polygon fill="#666666" stroke="#666666" points="47,-1272 47,-1272 211,-1272 211,-1272 47,-1272"/>
<polygon fill="none" stroke="#666666" points="47,-1206 47,-1318 211,-1318 211,-1206 47,-1206"/>
</a>
</g>
</g>
<!-- Node9&#45;&gt;Node7 -->
<g id="edge9_Node000007_Node000009" class="edge">
<title>Node9&#45;&gt;Node7</title>
<g id="a_edge9_Node000007_Node000009"><a xlink:title=" ">
<path fill="none" stroke="#63b8ff" d="M171.49,-1206.35C193.46,-1178.43 220.93,-1144.1 246.25,-1114 248.6,-1111.2 251.02,-1108.36 253.47,-1105.5"/>
<polygon fill="none" stroke="#63b8ff" points="253.47,-1105.5 254.36,-1098.35 261.31,-1096.42 260.41,-1103.58 253.47,-1105.5"/>
</a>
</g>
<text xml:space="preserve" text-anchor="start" x="249.25" y="-1119.5" font-family="Helvetica,sans-Serif" font-size="10.00" fill="grey">&#45;archivioLibri</text>
</g>
<!-- Node9&#45;&gt;Node11 -->
<g id="edge12_Node000011_Node000009" class="edge">
<title>Node9&#45;&gt;Node11</title>
<g id="a_edge12_Node000011_Node000009"><a xlink:title=" ">
<path fill="none" stroke="#63b8ff" d="M111.95,-1206.23C102.88,-1174.39 92.56,-1133.32 87.5,-1096 80.64,-1045.41 79.14,-988.2 79.41,-942.66"/>
<polygon fill="none" stroke="#63b8ff" points="79.41,-942.74 75.47,-936.71 79.52,-930.74 83.47,-936.78 79.41,-942.74"/>
</a>
</g>
<text xml:space="preserve" text-anchor="start" x="90.5" y="-1036.5" font-family="Helvetica,sans-Serif" font-size="10.00" fill="grey">&#45;arcLibri</text>
</g>
<!-- Node9&#45;&gt;Node12 -->
<g id="edge16_Node000012_Node000009" class="edge">
<title>Node9&#45;&gt;Node12</title>
<g id="a_edge16_Node000012_Node000009"><a xlink:title=" ">
<path fill="none" stroke="#63b8ff" d="M128.4,-1206.25C129.28,-1149.35 134.95,-1058.38 159.25,-984 164.3,-968.56 172.34,-953.76 181.79,-940.09"/>
<polygon fill="none" stroke="#63b8ff" points="181.65,-940.28 181.96,-933.08 188.73,-930.59 188.42,-937.8 181.65,-940.28"/>
</a>
</g>
<text xml:space="preserve" text-anchor="start" x="162.25" y="-1036.5" font-family="Helvetica,sans-Serif" font-size="10.00" fill="grey">&#45;archivioLibri</text>
</g>
<!-- Node10 -->
<g id="Node000010" class="node">
<title>Node10</title>
<g id="a_Node000010"><a xlink:href="classit_1_1unisa_1_1biblioteca_1_1gruppo21_1_1archive_1_1_archive_astratto.html" target="_top" xlink:title=" ">
<polygon fill="white" stroke="none" points="211,-1635 47,-1635 47,-1411 211,-1411 211,-1635"/>
<text xml:space="preserve" text-anchor="start" x="51" y="-1621.5" font-family="Helvetica,sans-Serif" font-size="10.00">it.unisa.biblioteca.gruppo21.archive.</text>
<text xml:space="preserve" text-anchor="start" x="75.75" y="-1609.5" font-family="Helvetica,sans-Serif" font-size="10.00">ArchiveAstratto&lt; Libro &gt;</text>
<text xml:space="preserve" text-anchor="start" x="69.5" y="-1593.5" font-family="Helvetica,sans-Serif" font-size="10.00">#</text>
<text xml:space="preserve" text-anchor="start" x="97.25" y="-1593.5" font-family="Helvetica,sans-Serif" font-size="10.00">cache</text>
<text xml:space="preserve" text-anchor="start" x="69.5" y="-1577.5" font-family="Helvetica,sans-Serif" font-size="10.00">#</text>
<text xml:space="preserve" text-anchor="start" x="97.25" y="-1577.5" font-family="Helvetica,sans-Serif" font-size="10.00">file</text>
<text xml:space="preserve" text-anchor="start" x="69.12" y="-1561.5" font-family="Helvetica,sans-Serif" font-size="10.00">+</text>
<text xml:space="preserve" text-anchor="start" x="97.25" y="-1561.5" font-family="Helvetica,sans-Serif" font-size="10.00">ArchiveAstratto()</text>
<text xml:space="preserve" text-anchor="start" x="69.12" y="-1545.5" font-family="Helvetica,sans-Serif" font-size="10.00">+</text>
<text xml:space="preserve" text-anchor="start" x="97.25" y="-1545.5" font-family="Helvetica,sans-Serif" font-size="10.00">inizializzaDati()</text>
<text xml:space="preserve" text-anchor="start" x="69.12" y="-1529.5" font-family="Helvetica,sans-Serif" font-size="10.00">+</text>
<text xml:space="preserve" text-anchor="start" x="97.25" y="-1529.5" font-family="Helvetica,sans-Serif" font-size="10.00">cerca()</text>
<text xml:space="preserve" text-anchor="start" x="69.12" y="-1513.5" font-family="Helvetica,sans-Serif" font-size="10.00">+</text>
<text xml:space="preserve" text-anchor="start" x="97.25" y="-1513.5" font-family="Helvetica,sans-Serif" font-size="10.00">aggiungi()</text>
<text xml:space="preserve" text-anchor="start" x="69.12" y="-1497.5" font-family="Helvetica,sans-Serif" font-size="10.00">+</text>
<text xml:space="preserve" text-anchor="start" x="97.25" y="-1497.5" font-family="Helvetica,sans-Serif" font-size="10.00">cancella()</text>
<text xml:space="preserve" text-anchor="start" x="69.12" y="-1481.5" font-family="Helvetica,sans-Serif" font-size="10.00">+</text>
<text xml:space="preserve" text-anchor="start" x="97.25" y="-1481.5" font-family="Helvetica,sans-Serif" font-size="10.00">leggiTutti()</text>
<text xml:space="preserve" text-anchor="start" x="69.12" y="-1465.5" font-family="Helvetica,sans-Serif" font-size="10.00">+</text>
<text xml:space="preserve" text-anchor="start" x="97.25" y="-1465.5" font-family="Helvetica,sans-Serif" font-size="10.00">salvaTutto()</text>
<text xml:space="preserve" text-anchor="start" x="69.5" y="-1449.5" font-family="Helvetica,sans-Serif" font-size="10.00">#</text>
<text xml:space="preserve" text-anchor="start" x="97.25" y="-1449.5" font-family="Helvetica,sans-Serif" font-size="10.00">serializza()</text>
<text xml:space="preserve" text-anchor="start" x="69.5" y="-1433.5" font-family="Helvetica,sans-Serif" font-size="10.00">#</text>
<text xml:space="preserve" text-anchor="start" x="97.25" y="-1433.5" font-family="Helvetica,sans-Serif" font-size="10.00">deserializza()</text>
<text xml:space="preserve" text-anchor="start" x="70.62" y="-1417.5" font-family="Helvetica,sans-Serif" font-size="10.00">&#45;</text>
<text xml:space="preserve" text-anchor="start" x="97.25" y="-1417.5" font-family="Helvetica,sans-Serif" font-size="10.00">caricaDaFile()</text>
<polygon fill="#666666" stroke="#666666" points="47,-1605 47,-1605 211,-1605 211,-1605 47,-1605"/>
<polygon fill="#666666" stroke="#666666" points="47,-1573 47,-1573 95.25,-1573 95.25,-1573 47,-1573"/>
<polygon fill="#666666" stroke="#666666" points="95.25,-1573 95.25,-1573 211,-1573 211,-1573 95.25,-1573"/>
<polygon fill="none" stroke="#666666" points="47,-1411 47,-1635 211,-1635 211,-1411 47,-1411"/>
</a>
</g>
</g>
<!-- Node10&#45;&gt;Node9 -->
<g id="edge10_Node000009_Node000010" class="edge">
<title>Node10&#45;&gt;Node9</title>
<g id="a_edge10_Node000009_Node000010"><a xlink:title=" ">
<path fill="none" stroke="#63b8ff" d="M129,-1399.64C129,-1370.93 129,-1341.75 129,-1317.77"/>
<polygon fill="none" stroke="#63b8ff" points="125.5,-1399.52 129,-1409.52 132.5,-1399.52 125.5,-1399.52"/>
</a>
</g>
</g>
<!-- Node11&#45;&gt;Node3 -->
<g id="edge11_Node000003_Node000011" class="edge">
<title>Node11&#45;&gt;Node3</title>
<g id="a_edge11_Node000003_Node000011"><a xlink:title=" ">
<path fill="none" stroke="#63b8ff" d="M130.06,-786.24C143.83,-765.95 159.31,-743.16 174.72,-720.47"/>
<polygon fill="none" stroke="#63b8ff" points="174.78,-720.38 174.84,-713.17 181.52,-710.45 181.46,-717.66 174.78,-720.38"/>
</a>
</g>
<text xml:space="preserve" text-anchor="start" x="154.35" y="-755.5" font-family="Helvetica,sans-Serif" font-size="10.00" fill="grey">&#45;serviceLibri</text>
</g>
<!-- Node12&#45;&gt;Node3 -->
<g id="edge14_Node000003_Node000012" class="edge">
<title>Node12&#45;&gt;Node3</title>
<g id="a_edge14_Node000003_Node000012"><a xlink:title=" ">
<path fill="none" stroke="#63b8ff" d="M264,-786.24C264,-773.16 264,-759.05 264,-744.59"/>
<polygon fill="none" stroke="#63b8ff" points="264,-744.71 260,-738.71 264,-732.71 268,-738.71 264,-744.71"/>
</a>
</g>
<text xml:space="preserve" text-anchor="start" x="267" y="-755.5" font-family="Helvetica,sans-Serif" font-size="10.00" fill="grey">&#45;servicePrestiti</text>
</g>
</g>
</svg>
