<?xml version="1.0" encoding="UTF-8" standalone="no"?>
<!DOCTYPE svg PUBLIC "-//W3C//DTD SVG 1.1//EN"
 "http://www.w3.org/Graphics/SVG/1.1/DTD/svg11.dtd">
<!-- Generated by graphviz version 14.1.0 (20251206.1807)
 -->
<!-- Title: it.unisa.biblioteca.gruppo21.entity.Prestito Pages: 1 -->
<svg width="512pt" height="526pt"
 viewBox="0.00 0.00 512.00 526.00" xmlns="http://www.w3.org/2000/svg" xmlns:xlink="http://www.w3.org/1999/xlink">
<g id="graph0" class="graph" transform="scale(1 1) rotate(0) translate(4 522)">
<title>it.unisa.biblioteca.gruppo21.entity.Prestito</title>
<!-- Node1 -->
<g id="Node000001" class="node">
<title>Node1</title>
<g id="a_Node000001"><a xlink:title=" ">
<polygon fill="#999999" stroke="none" points="329.75,-144 174,-144 174,0 329.75,0 329.75,-144"/>
<text xml:space="preserve" text-anchor="start" x="178" y="-130.5" font-family="Helvetica,sans-Serif" font-size="10.00">it.unisa.biblioteca.gruppo21.entity.</text>
<text xml:space="preserve" text-anchor="start" x="235" y="-118.5" font-family="Helvetica,sans-Serif" font-size="10.00">Prestito</text>
<text xml:space="preserve" text-anchor="start" x="190.12" y="-102.5" font-family="Helvetica,sans-Serif" font-size="10.00">&#45;</text>
<text xml:space="preserve" text-anchor="start" x="209.25" y="-102.5" font-family="Helvetica,sans-Serif" font-size="10.00">dataRestituzione</text>
<text xml:space="preserve" text-anchor="start" x="188.62" y="-86.5" font-family="Helvetica,sans-Serif" font-size="10.00">+</text>
<text xml:space="preserve" text-anchor="start" x="209.25" y="-86.5" font-family="Helvetica,sans-Serif" font-size="10.00">Prestito()</text>
<text xml:space="preserve" text-anchor="start" x="188.62" y="-70.5" font-family="Helvetica,sans-Serif" font-size="10.00">+</text>
<text xml:space="preserve" text-anchor="start" x="209.25" y="-70.5" font-family="Helvetica,sans-Serif" font-size="10.00">getUtente()</text>
<text xml:space="preserve" text-anchor="start" x="188.62" y="-54.5" font-family="Helvetica,sans-Serif" font-size="10.00">+</text>
<text xml:space="preserve" text-anchor="start" x="209.25" y="-54.5" font-family="Helvetica,sans-Serif" font-size="10.00">getLibro()</text>
<text xml:space="preserve" text-anchor="start" x="188.62" y="-38.5" font-family="Helvetica,sans-Serif" font-size="10.00">+</text>
<text xml:space="preserve" text-anchor="start" x="209.25" y="-38.5" font-family="Helvetica,sans-Serif" font-size="10.00">getDataRestituzione()</text>
<text xml:space="preserve" text-anchor="start" x="188.62" y="-22.5" font-family="Helvetica,sans-Serif" font-size="10.00">+</text>
<text xml:space="preserve" text-anchor="start" x="209.25" y="-22.5" font-family="Helvetica,sans-Serif" font-size="10.00">getStato()</text>
<text xml:space="preserve" text-anchor="start" x="188.62" y="-6.5" font-family="Helvetica,sans-Serif" font-size="10.00">+</text>
<text xml:space="preserve" text-anchor="start" x="209.25" y="-6.5" font-family="Helvetica,sans-Serif" font-size="10.00">setStato()</text>
<polygon fill="#666666" stroke="#666666" points="174,-114 174,-114 329.75,-114 329.75,-114 174,-114"/>
<polygon fill="#666666" stroke="#666666" points="174,-98 174,-98 207.25,-98 207.25,-98 174,-98"/>
<polygon fill="#666666" stroke="#666666" points="207.25,-98 207.25,-98 329.75,-98 329.75,-98 207.25,-98"/>
<polygon fill="none" stroke="#666666" points="174,0 174,-144 329.75,-144 329.75,0 174,0"/>
</a>
</g>
</g>
<!-- Node2 -->
<g id="Node000002" class="node">
<title>Node2</title>
<g id="a_Node000002"><a xlink:href="classit_1_1unisa_1_1biblioteca_1_1gruppo21_1_1entity_1_1_utente.html" target="_top" xlink:title=" ">
<polygon fill="white" stroke="none" points="155.75,-518 0,-518 0,-198 155.75,-198 155.75,-518"/>
<text xml:space="preserve" text-anchor="start" x="4" y="-504.5" font-family="Helvetica,sans-Serif" font-size="10.00">it.unisa.biblioteca.gruppo21.entity.</text>
<text xml:space="preserve" text-anchor="start" x="63.25" y="-492.5" font-family="Helvetica,sans-Serif" font-size="10.00">Utente</text>
<text xml:space="preserve" text-anchor="start" x="9.56" y="-476.5" font-family="Helvetica,sans-Serif" font-size="10.00">+</text>
<text xml:space="preserve" text-anchor="start" x="25.12" y="-476.5" font-family="Helvetica,sans-Serif" font-size="10.00">MAX_PRESTITI</text>
<text xml:space="preserve" text-anchor="start" x="11.06" y="-460.5" font-family="Helvetica,sans-Serif" font-size="10.00">&#45;</text>
<text xml:space="preserve" text-anchor="start" x="25.12" y="-460.5" font-family="Helvetica,sans-Serif" font-size="10.00">nome</text>
<text xml:space="preserve" text-anchor="start" x="11.06" y="-444.5" font-family="Helvetica,sans-Serif" font-size="10.00">&#45;</text>
<text xml:space="preserve" text-anchor="start" x="25.12" y="-444.5" font-family="Helvetica,sans-Serif" font-size="10.00">cognome</text>
<text xml:space="preserve" text-anchor="start" x="11.06" y="-428.5" font-family="Helvetica,sans-Serif" font-size="10.00">&#45;</text>
<text xml:space="preserve" text-anchor="start" x="25.12" y="-428.5" font-family="Helvetica,sans-Serif" font-size="10.00">email</text>
<text xml:space="preserve" text-anchor="start" x="11.06" y="-412.5" font-family="Helvetica,sans-Serif" font-size="10.00">&#45;</text>
<text xml:space="preserve" text-anchor="start" x="25.12" y="-412.5" font-family="Helvetica,sans-Serif" font-size="10.00">matricola</text>
<text xml:space="preserve" text-anchor="start" x="11.06" y="-396.5" font-family="Helvetica,sans-Serif" font-size="10.00">&#45;</text>
<text xml:space="preserve" text-anchor="start" x="25.12" y="-396.5" font-family="Helvetica,sans-Serif" font-size="10.00">prestitiAttivi</text>
<text xml:space="preserve" text-anchor="start" x="9.56" y="-380.5" font-family="Helvetica,sans-Serif" font-size="10.00">+</text>
<text xml:space="preserve" text-anchor="start" x="25.12" y="-380.5" font-family="Helvetica,sans-Serif" font-size="10.00">Utente()</text>
<text xml:space="preserve" text-anchor="start" x="9.56" y="-364.5" font-family="Helvetica,sans-Serif" font-size="10.00">+</text>
<text xml:space="preserve" text-anchor="start" x="25.12" y="-364.5" font-family="Helvetica,sans-Serif" font-size="10.00">getNome()</text>
<text xml:space="preserve" text-anchor="start" x="9.56" y="-348.5" font-family="Helvetica,sans-Serif" font-size="10.00">+</text>
<text xml:space="preserve" text-anchor="start" x="25.12" y="-348.5" font-family="Helvetica,sans-Serif" font-size="10.00">setNome()</text>
<text xml:space="preserve" text-anchor="start" x="9.56" y="-332.5" font-family="Helvetica,sans-Serif" font-size="10.00">+</text>
<text xml:space="preserve" text-anchor="start" x="25.12" y="-332.5" font-family="Helvetica,sans-Serif" font-size="10.00">getCognome()</text>
<text xml:space="preserve" text-anchor="start" x="9.56" y="-316.5" font-family="Helvetica,sans-Serif" font-size="10.00">+</text>
<text xml:space="preserve" text-anchor="start" x="25.12" y="-316.5" font-family="Helvetica,sans-Serif" font-size="10.00">setCognome()</text>
<text xml:space="preserve" text-anchor="start" x="9.56" y="-300.5" font-family="Helvetica,sans-Serif" font-size="10.00">+</text>
<text xml:space="preserve" text-anchor="start" x="25.12" y="-300.5" font-family="Helvetica,sans-Serif" font-size="10.00">getEmail()</text>
<text xml:space="preserve" text-anchor="start" x="9.56" y="-284.5" font-family="Helvetica,sans-Serif" font-size="10.00">+</text>
<text xml:space="preserve" text-anchor="start" x="25.12" y="-284.5" font-family="Helvetica,sans-Serif" font-size="10.00">setEmail()</text>
<text xml:space="preserve" text-anchor="start" x="9.56" y="-268.5" font-family="Helvetica,sans-Serif" font-size="10.00">+</text>
<text xml:space="preserve" text-anchor="start" x="25.12" y="-268.5" font-family="Helvetica,sans-Serif" font-size="10.00">getMatricola()</text>
<text xml:space="preserve" text-anchor="start" x="9.56" y="-252.5" font-family="Helvetica,sans-Serif" font-size="10.00">+</text>
<text xml:space="preserve" text-anchor="start" x="25.12" y="-252.5" font-family="Helvetica,sans-Serif" font-size="10.00">getNumeroLibriPossesso()</text>
<text xml:space="preserve" text-anchor="start" x="9.56" y="-236.5" font-family="Helvetica,sans-Serif" font-size="10.00">+</text>
<text xml:space="preserve" text-anchor="start" x="25.12" y="-236.5" font-family="Helvetica,sans-Serif" font-size="10.00">getPrestitiAttivi()</text>
<text xml:space="preserve" text-anchor="start" x="9.56" y="-220.5" font-family="Helvetica,sans-Serif" font-size="10.00">+</text>
<text xml:space="preserve" text-anchor="start" x="25.12" y="-220.5" font-family="Helvetica,sans-Serif" font-size="10.00">aggiungiPrestito()</text>
<text xml:space="preserve" text-anchor="start" x="9.56" y="-204.5" font-family="Helvetica,sans-Serif" font-size="10.00">+</text>
<text xml:space="preserve" text-anchor="start" x="25.12" y="-204.5" font-family="Helvetica,sans-Serif" font-size="10.00">rimuoviPrestito()</text>
<polygon fill="#666666" stroke="#666666" points="0,-488 0,-488 155.75,-488 155.75,-488 0,-488"/>
<polygon fill="#666666" stroke="#666666" points="0,-392 0,-392 23.12,-392 23.12,-392 0,-392"/>
<polygon fill="#666666" stroke="#666666" points="23.12,-392 23.12,-392 155.75,-392 155.75,-392 23.12,-392"/>
<polygon fill="none" stroke="#666666" points="0,-198 0,-518 155.75,-518 155.75,-198 0,-198"/>
</a>
</g>
</g>
<!-- Node2&#45;&gt;Node1 -->
<g id="edge1_Node000001_Node000002" class="edge">
<title>Node2&#45;&gt;Node1</title>
<g id="a_edge1_Node000001_Node000002"><a xlink:title=" ">
<path fill="none" stroke="#63b8ff" d="M155.67,-213.15C158.74,-208.01 161.81,-202.95 164.88,-198 173.78,-183.62 183.67,-168.62 193.49,-154.21"/>
<polygon fill="none" stroke="#63b8ff" points="193.31,-154.47 193.41,-147.26 200.1,-144.58 200,-151.79 193.31,-154.47"/>
</a>
</g>
<text xml:space="preserve" text-anchor="start" x="190.6" y="-167.5" font-family="Helvetica,sans-Serif" font-size="10.00" fill="grey">&#45;utente</text>
</g>
<!-- Node3 -->
<g id="Node000003" class="node">
<title>Node3</title>
<g id="a_Node000003"><a xlink:href="classit_1_1unisa_1_1biblioteca_1_1gruppo21_1_1entity_1_1_libro.html" target="_top" xlink:title=" ">
<polygon fill="white" stroke="none" points="329.75,-470 174,-470 174,-246 329.75,-246 329.75,-470"/>
<text xml:space="preserve" text-anchor="start" x="178" y="-456.5" font-family="Helvetica,sans-Serif" font-size="10.00">it.unisa.biblioteca.gruppo21.entity.</text>
<text xml:space="preserve" text-anchor="start" x="241.38" y="-444.5" font-family="Helvetica,sans-Serif" font-size="10.00">Libro</text>
<text xml:space="preserve" text-anchor="start" x="182.81" y="-428.5" font-family="Helvetica,sans-Serif" font-size="10.00">&#45;</text>
<text xml:space="preserve" text-anchor="start" x="194.62" y="-428.5" font-family="Helvetica,sans-Serif" font-size="10.00">titolo</text>
<text xml:space="preserve" text-anchor="start" x="182.81" y="-412.5" font-family="Helvetica,sans-Serif" font-size="10.00">&#45;</text>
<text xml:space="preserve" text-anchor="start" x="194.62" y="-412.5" font-family="Helvetica,sans-Serif" font-size="10.00">autore</text>
<text xml:space="preserve" text-anchor="start" x="182.81" y="-396.5" font-family="Helvetica,sans-Serif" font-size="10.00">&#45;</text>
<text xml:space="preserve" text-anchor="start" x="194.62" y="-396.5" font-family="Helvetica,sans-Serif" font-size="10.00">codiceISBN</text>
<text xml:space="preserve" text-anchor="start" x="182.81" y="-380.5" font-family="Helvetica,sans-Serif" font-size="10.00">&#45;</text>
<text xml:space="preserve" text-anchor="start" x="194.62" y="-380.5" font-family="Helvetica,sans-Serif" font-size="10.00">annoPubblicazione</text>
<text xml:space="preserve" text-anchor="start" x="182.81" y="-364.5" font-family="Helvetica,sans-Serif" font-size="10.00">&#45;</text>
<text xml:space="preserve" text-anchor="start" x="194.62" y="-364.5" font-family="Helvetica,sans-Serif" font-size="10.00">numeroCopieDisponibili</text>
<text xml:space="preserve" text-anchor="start" x="181.31" y="-348.5" font-family="Helvetica,sans-Serif" font-size="10.00">+</text>
<text xml:space="preserve" text-anchor="start" x="194.62" y="-348.5" font-family="Helvetica,sans-Serif" font-size="10.00">Libro()</text>
<text xml:space="preserve" text-anchor="start" x="181.31" y="-332.5" font-family="Helvetica,sans-Serif" font-size="10.00">+</text>
<text xml:space="preserve" text-anchor="start" x="194.62" y="-332.5" font-family="Helvetica,sans-Serif" font-size="10.00">getTitolo()</text>
<text xml:space="preserve" text-anchor="start" x="181.31" y="-316.5" font-family="Helvetica,sans-Serif" font-size="10.00">+</text>
<text xml:space="preserve" text-anchor="start" x="194.62" y="-316.5" font-family="Helvetica,sans-Serif" font-size="10.00">getAutore()</text>
<text xml:space="preserve" text-anchor="start" x="181.31" y="-300.5" font-family="Helvetica,sans-Serif" font-size="10.00">+</text>
<text xml:space="preserve" text-anchor="start" x="194.62" y="-300.5" font-family="Helvetica,sans-Serif" font-size="10.00">getCodiceISBN()</text>
<text xml:space="preserve" text-anchor="start" x="181.31" y="-284.5" font-family="Helvetica,sans-Serif" font-size="10.00">+</text>
<text xml:space="preserve" text-anchor="start" x="194.62" y="-284.5" font-family="Helvetica,sans-Serif" font-size="10.00">getAnnoPubblicazione()</text>
<text xml:space="preserve" text-anchor="start" x="181.31" y="-268.5" font-family="Helvetica,sans-Serif" font-size="10.00">+</text>
<text xml:space="preserve" text-anchor="start" x="194.62" y="-268.5" font-family="Helvetica,sans-Serif" font-size="10.00">getNumeroCopieDisponibili()</text>
<text xml:space="preserve" text-anchor="start" x="181.31" y="-252.5" font-family="Helvetica,sans-Serif" font-size="10.00">+</text>
<text xml:space="preserve" text-anchor="start" x="194.62" y="-252.5" font-family="Helvetica,sans-Serif" font-size="10.00">setNumeroCopieDisponibili()</text>
<polygon fill="#666666" stroke="#666666" points="174,-440 174,-440 329.75,-440 329.75,-440 174,-440"/>
<polygon fill="#666666" stroke="#666666" points="174,-360 174,-360 192.62,-360 192.62,-360 174,-360"/>
<polygon fill="#666666" stroke="#666666" points="192.62,-360 192.62,-360 329.75,-360 329.75,-360 192.62,-360"/>
<polygon fill="none" stroke="#666666" points="174,-246 174,-470 329.75,-470 329.75,-246 174,-246"/>
</a>
</g>
</g>
<!-- Node3&#45;&gt;Node1 -->
<g id="edge2_Node000001_Node000003" class="edge">
<title>Node3&#45;&gt;Node1</title>
<g id="a_edge2_Node000001_Node000003"><a xlink:title=" ">
<path fill="none" stroke="#63b8ff" d="M251.88,-246.38C251.88,-216.54 251.88,-184.74 251.88,-156.64"/>
<polygon fill="none" stroke="#63b8ff" points="251.88,-156.49 247.88,-150.49 251.88,-144.49 255.88,-150.49 251.88,-156.49"/>
</a>
</g>
<text xml:space="preserve" text-anchor="start" x="254.88" y="-167.5" font-family="Helvetica,sans-Serif" font-size="10.00" fill="grey">&#45;libro</text>
</g>
<!-- Node4 -->
<g id="Node000004" class="node">
<title>Node4</title>
<g id="a_Node000004"><a xlink:href="enumit_1_1unisa_1_1biblioteca_1_1gruppo21_1_1entity_1_1_prestito_1_1_stato_prestito.html" target="_top" xlink:title="Enumerazione che definisce gli stati possibili del ciclo di vita di un prestito.">
<polygon fill="white" stroke="none" points="503.75,-406 348,-406 348,-310 503.75,-310 503.75,-406"/>
<text xml:space="preserve" text-anchor="start" x="352" y="-392.5" font-family="Helvetica,sans-Serif" font-size="10.00">it.unisa.biblioteca.gruppo21.entity.</text>
<text xml:space="preserve" text-anchor="start" x="379" y="-380.5" font-family="Helvetica,sans-Serif" font-size="10.00">Prestito.StatoPrestito</text>
<text xml:space="preserve" text-anchor="start" x="371.25" y="-364.5" font-family="Helvetica,sans-Serif" font-size="10.00">+</text>
<text xml:space="preserve" text-anchor="start" x="400.5" y="-364.5" font-family="Helvetica,sans-Serif" font-size="10.00">ATTIVO</text>
<text xml:space="preserve" text-anchor="start" x="371.25" y="-348.5" font-family="Helvetica,sans-Serif" font-size="10.00">+</text>
<text xml:space="preserve" text-anchor="start" x="400.5" y="-348.5" font-family="Helvetica,sans-Serif" font-size="10.00">RESTITUITO</text>
<text xml:space="preserve" text-anchor="start" x="371.25" y="-332.5" font-family="Helvetica,sans-Serif" font-size="10.00">+</text>
<text xml:space="preserve" text-anchor="start" x="400.5" y="-332.5" font-family="Helvetica,sans-Serif" font-size="10.00">IN_RITARDO</text>
<text xml:space="preserve" text-anchor="start" x="424.38" y="-316.5" font-family="Helvetica,sans-Serif" font-size="10.00"> </text>
<polygon fill="#666666" stroke="#666666" points="348,-376 348,-376 503.75,-376 503.75,-376 348,-376"/>
<polygon fill="#666666" stroke="#666666" points="348,-328 348,-328 398.5,-328 398.5,-328 348,-328"/>
<polygon fill="#666666" stroke="#666666" points="398.5,-328 398.5,-328 503.75,-328 503.75,-328 398.5,-328"/>
<polygon fill="none" stroke="#666666" points="348,-310 348,-406 503.75,-406 503.75,-310 348,-310"/>
</a>
</g>
</g>
<!-- Node4&#45;&gt;Node1 -->
<g id="edge3_Node000001_Node000004" class="edge">
<title>Node4&#45;&gt;Node1</title>
<g id="a_edge3_Node000001_Node000004"><a xlink:title=" ">
<path fill="none" stroke="#63b8ff" d="M402.03,-310.33C385.23,-278.24 361.73,-234.92 338.88,-198 329.97,-183.62 320.08,-168.62 310.26,-154.21"/>
<polygon fill="none" stroke="#63b8ff" points="310.44,-154.47 303.75,-151.79 303.65,-144.58 310.34,-147.26 310.44,-154.47"/>
</a>
</g>
<text xml:space="preserve" text-anchor="start" x="328.48" y="-167.5" font-family="Helvetica,sans-Serif" font-size="10.00" fill="grey">&#45;stato</text>
</g>
</g>
</svg>
