<?xml version="1.0" encoding="UTF-8" standalone="no"?>
<!DOCTYPE svg PUBLIC "-//W3C//DTD SVG 1.1//EN"
 "http://www.w3.org/Graphics/SVG/1.1/DTD/svg11.dtd">
<!-- Generated by graphviz version 14.1.0 (20251206.1807)
 -->
<!-- Title: it.unisa.biblioteca.gruppo21.archive.ArchiveAstratto&lt; T &gt; Pages: 1 -->
<svg width="172pt" height="380pt"
 viewBox="0.00 0.00 172.00 380.00" xmlns="http://www.w3.org/2000/svg" xmlns:xlink="http://www.w3.org/1999/xlink">
<g id="graph0" class="graph" transform="scale(1 1) rotate(0) translate(4 376)">
<title>it.unisa.biblioteca.gruppo21.archive.ArchiveAstratto&lt; T &gt;</title>
<!-- Node1 -->
<g id="Node000001" class="node">
<title>Node1</title>
<g id="a_Node000001"><a xlink:title=" ">
<polygon fill="#999999" stroke="none" points="164,-224 0,-224 0,0 164,0 164,-224"/>
<text xml:space="preserve" text-anchor="start" x="4" y="-210.5" font-family="Helvetica,sans-Serif" font-size="10.00">it.unisa.biblioteca.gruppo21.archive.</text>
<text xml:space="preserve" text-anchor="start" x="36.62" y="-198.5" font-family="Helvetica,sans-Serif" font-size="10.00">ArchiveAstratto&lt; T &gt;</text>
<text xml:space="preserve" text-anchor="start" x="22.5" y="-182.5" font-family="Helvetica,sans-Serif" font-size="10.00">#</text>
<text xml:space="preserve" text-anchor="start" x="50.25" y="-182.5" font-family="Helvetica,sans-Serif" font-size="10.00">cache</text>
<text xml:space="preserve" text-anchor="start" x="22.5" y="-166.5" font-family="Helvetica,sans-Serif" font-size="10.00">#</text>
<text xml:space="preserve" text-anchor="start" x="50.25" y="-166.5" font-family="Helvetica,sans-Serif" font-size="10.00">file</text>
<text xml:space="preserve" text-anchor="start" x="22.12" y="-150.5" font-family="Helvetica,sans-Serif" font-size="10.00">+</text>
<text xml:space="preserve" text-anchor="start" x="50.25" y="-150.5" font-family="Helvetica,sans-Serif" font-size="10.00">ArchiveAstratto()</text>
<text xml:space="preserve" text-anchor="start" x="22.12" y="-134.5" font-family="Helvetica,sans-Serif" font-size="10.00">+</text>
<text xml:space="preserve" text-anchor="start" x="50.25" y="-134.5" font-family="Helvetica,sans-Serif" font-size="10.00">inizializzaDati()</text>
<text xml:space="preserve" text-anchor="start" x="22.12" y="-118.5" font-family="Helvetica,sans-Serif" font-size="10.00">+</text>
<text xml:space="preserve" text-anchor="start" x="50.25" y="-118.5" font-family="Helvetica,sans-Serif" font-size="10.00">cerca()</text>
<text xml:space="preserve" text-anchor="start" x="22.12" y="-102.5" font-family="Helvetica,sans-Serif" font-size="10.00">+</text>
<text xml:space="preserve" text-anchor="start" x="50.25" y="-102.5" font-family="Helvetica,sans-Serif" font-size="10.00">aggiungi()</text>
<text xml:space="preserve" text-anchor="start" x="22.12" y="-86.5" font-family="Helvetica,sans-Serif" font-size="10.00">+</text>
<text xml:space="preserve" text-anchor="start" x="50.25" y="-86.5" font-family="Helvetica,sans-Serif" font-size="10.00">cancella()</text>
<text xml:space="preserve" text-anchor="start" x="22.12" y="-70.5" font-family="Helvetica,sans-Serif" font-size="10.00">+</text>
<text xml:space="preserve" text-anchor="start" x="50.25" y="-70.5" font-family="Helvetica,sans-Serif" font-size="10.00">leggiTutti()</text>
<text xml:space="preserve" text-anchor="start" x="22.12" y="-54.5" font-family="Helvetica,sans-Serif" font-size="10.00">+</text>
<text xml:space="preserve" text-anchor="start" x="50.25" y="-54.5" font-family="Helvetica,sans-Serif" font-size="10.00">salvaTutto()</text>
<text xml:space="preserve" text-anchor="start" x="22.5" y="-38.5" font-family="Helvetica,sans-Serif" font-size="10.00">#</text>
<text xml:space="preserve" text-anchor="start" x="50.25" y="-38.5" font-family="Helvetica,sans-Serif" font-size="10.00">serializza()</text>
<text xml:space="preserve" text-anchor="start" x="22.5" y="-22.5" font-family="Helvetica,sans-Serif" font-size="10.00">#</text>
<text xml:space="preserve" text-anchor="start" x="50.25" y="-22.5" font-family="Helvetica,sans-Serif" font-size="10.00">deserializza()</text>
<text xml:space="preserve" text-anchor="start" x="23.62" y="-6.5" font-family="Helvetica,sans-Serif" font-size="10.00">&#45;</text>
<text xml:space="preserve" text-anchor="start" x="50.25" y="-6.5" font-family="Helvetica,sans-Serif" font-size="10.00">caricaDaFile()</text>
<polygon fill="#666666" stroke="#666666" points="0,-194 0,-194 164,-194 164,-194 0,-194"/>
<polygon fill="#666666" stroke="#666666" points="0,-162 0,-162 48.25,-162 48.25,-162 0,-162"/>
<polygon fill="#666666" stroke="#666666" points="48.25,-162 48.25,-162 164,-162 164,-162 48.25,-162"/>
<polygon fill="none" stroke="#666666" points="0,0 0,-224 164,-224 164,0 0,0"/>
</a>
</g>
</g>
<!-- Node2 -->
<g id="Node000002" class="node">
<title>Node2</title>
<g id="a_Node000002"><a xlink:href="interfaceit_1_1unisa_1_1biblioteca_1_1gruppo21_1_1archive_1_1_archive_interfaccia.html" target="_top" xlink:title=" ">
<polygon fill="white" stroke="none" points="164,-372 0,-372 0,-260 164,-260 164,-372"/>
<text xml:space="preserve" text-anchor="start" x="4" y="-358.5" font-family="Helvetica,sans-Serif" font-size="10.00">it.unisa.biblioteca.gruppo21.archive.</text>
<text xml:space="preserve" text-anchor="start" x="31" y="-346.5" font-family="Helvetica,sans-Serif" font-size="10.00">ArchiveInterfaccia&lt; T &gt;</text>
<text xml:space="preserve" text-anchor="start" x="80.5" y="-330.5" font-family="Helvetica,sans-Serif" font-size="10.00"> </text>
<text xml:space="preserve" text-anchor="start" x="29.06" y="-314.5" font-family="Helvetica,sans-Serif" font-size="10.00">+</text>
<text xml:space="preserve" text-anchor="start" x="64.12" y="-314.5" font-family="Helvetica,sans-Serif" font-size="10.00">aggiungi()</text>
<text xml:space="preserve" text-anchor="start" x="29.06" y="-298.5" font-family="Helvetica,sans-Serif" font-size="10.00">+</text>
<text xml:space="preserve" text-anchor="start" x="64.12" y="-298.5" font-family="Helvetica,sans-Serif" font-size="10.00">cancella()</text>
<text xml:space="preserve" text-anchor="start" x="29.06" y="-282.5" font-family="Helvetica,sans-Serif" font-size="10.00">+</text>
<text xml:space="preserve" text-anchor="start" x="64.12" y="-282.5" font-family="Helvetica,sans-Serif" font-size="10.00">cerca()</text>
<text xml:space="preserve" text-anchor="start" x="29.06" y="-266.5" font-family="Helvetica,sans-Serif" font-size="10.00">+</text>
<text xml:space="preserve" text-anchor="start" x="64.12" y="-266.5" font-family="Helvetica,sans-Serif" font-size="10.00">leggiTutti()</text>
<polygon fill="#666666" stroke="#666666" points="0,-342 0,-342 164,-342 164,-342 0,-342"/>
<polygon fill="#666666" stroke="#666666" points="0,-326 0,-326 164,-326 164,-326 0,-326"/>
<polygon fill="none" stroke="#666666" points="0,-260 0,-372 164,-372 164,-260 0,-260"/>
</a>
</g>
</g>
<!-- Node2&#45;&gt;Node1 -->
<g id="edge1_Node000001_Node000002" class="edge">
<title>Node2&#45;&gt;Node1</title>
<g id="a_edge1_Node000001_Node000002"><a xlink:title=" ">
<path fill="none" stroke="#63b8ff" d="M82,-248.62C82,-240.63 82,-232.31 82,-223.9"/>
<polygon fill="none" stroke="#63b8ff" points="78.5,-248.56 82,-258.56 85.5,-248.56 78.5,-248.56"/>
</a>
</g>
</g>
</g>
</svg>
