<?xml version="1.0" encoding="UTF-8" standalone="no"?>
<!DOCTYPE svg PUBLIC "-//W3C//DTD SVG 1.1//EN"
 "http://www.w3.org/Graphics/SVG/1.1/DTD/svg11.dtd">
<!-- Generated by graphviz version 14.1.0 (20251206.1807)
 -->
<!-- Title: it.unisa.biblioteca.gruppo21.entity.Prestito Pages: 1 -->
<svg width="642pt" height="615pt"
 viewBox="0.00 0.00 642.00 615.00" xmlns="http://www.w3.org/2000/svg" xmlns:xlink="http://www.w3.org/1999/xlink">
<g id="graph0" class="graph" transform="scale(1 1) rotate(0) translate(4 611)">
<title>it.unisa.biblioteca.gruppo21.entity.Prestito</title>
<!-- Node1 -->
<g id="Node000001" class="node">
<title>Node1</title>
<g id="a_Node000001"><a xlink:title=" ">
<polygon fill="#999999" stroke="none" points="373,-160 217.25,-160 217.25,0 373,0 373,-160"/>
<text xml:space="preserve" text-anchor="start" x="221.25" y="-146.5" font-family="Helvetica,sans-Serif" font-size="10.00">it.unisa.biblioteca.gruppo21.entity.</text>
<text xml:space="preserve" text-anchor="start" x="278.25" y="-134.5" font-family="Helvetica,sans-Serif" font-size="10.00">Prestito</text>
<text xml:space="preserve" text-anchor="start" x="233.38" y="-118.5" font-family="Helvetica,sans-Serif" font-size="10.00">&#45;</text>
<text xml:space="preserve" text-anchor="start" x="252.5" y="-118.5" font-family="Helvetica,sans-Serif" font-size="10.00">dataRestituzione</text>
<text xml:space="preserve" text-anchor="start" x="231.88" y="-102.5" font-family="Helvetica,sans-Serif" font-size="10.00">+</text>
<text xml:space="preserve" text-anchor="start" x="252.5" y="-102.5" font-family="Helvetica,sans-Serif" font-size="10.00">Prestito()</text>
<text xml:space="preserve" text-anchor="start" x="231.88" y="-86.5" font-family="Helvetica,sans-Serif" font-size="10.00">+</text>
<text xml:space="preserve" text-anchor="start" x="252.5" y="-86.5" font-family="Helvetica,sans-Serif" font-size="10.00">getUtente()</text>
<text xml:space="preserve" text-anchor="start" x="231.88" y="-70.5" font-family="Helvetica,sans-Serif" font-size="10.00">+</text>
<text xml:space="preserve" text-anchor="start" x="252.5" y="-70.5" font-family="Helvetica,sans-Serif" font-size="10.00">getLibro()</text>
<text xml:space="preserve" text-anchor="start" x="231.88" y="-54.5" font-family="Helvetica,sans-Serif" font-size="10.00">+</text>
<text xml:space="preserve" text-anchor="start" x="252.5" y="-54.5" font-family="Helvetica,sans-Serif" font-size="10.00">getDataRestituzione()</text>
<text xml:space="preserve" text-anchor="start" x="231.88" y="-38.5" font-family="Helvetica,sans-Serif" font-size="10.00">+</text>
<text xml:space="preserve" text-anchor="start" x="252.5" y="-38.5" font-family="Helvetica,sans-Serif" font-size="10.00">getStato()</text>
<text xml:space="preserve" text-anchor="start" x="231.88" y="-22.5" font-family="Helvetica,sans-Serif" font-size="10.00">+</text>
<text xml:space="preserve" text-anchor="start" x="252.5" y="-22.5" font-family="Helvetica,sans-Serif" font-size="10.00">setStato()</text>
<text xml:space="preserve" text-anchor="start" x="231.88" y="-6.5" font-family="Helvetica,sans-Serif" font-size="10.00">+</text>
<text xml:space="preserve" text-anchor="start" x="252.5" y="-6.5" font-family="Helvetica,sans-Serif" font-size="10.00">compareTo()</text>
<polygon fill="#666666" stroke="#666666" points="217.25,-130 217.25,-130 373,-130 373,-130 217.25,-130"/>
<polygon fill="#666666" stroke="#666666" points="217.25,-114 217.25,-114 250.5,-114 250.5,-114 217.25,-114"/>
<polygon fill="#666666" stroke="#666666" points="250.5,-114 250.5,-114 373,-114 373,-114 250.5,-114"/>
<polygon fill="none" stroke="#666666" points="217.25,0 217.25,-160 373,-160 373,0 217.25,0"/>
</a>
</g>
</g>
<!-- Node2 -->
<g id="Node000002" class="node">
<title>Node2</title>
<g id="a_Node000002"><a xlink:title=" ">
<polygon fill="white" stroke="none" points="112.25,-392 0,-392 0,-340 112.25,-340 112.25,-392"/>
<text xml:space="preserve" text-anchor="start" x="4" y="-378.5" font-family="Helvetica,sans-Serif" font-size="10.00">Comparable&lt; Prestito &gt;</text>
<text xml:space="preserve" text-anchor="start" x="54.62" y="-362.5" font-family="Helvetica,sans-Serif" font-size="10.00"> </text>
<text xml:space="preserve" text-anchor="start" x="54.62" y="-346.5" font-family="Helvetica,sans-Serif" font-size="10.00"> </text>
<polygon fill="#bfbfbf" stroke="#bfbfbf" points="0,-374 0,-374 112.25,-374 112.25,-374 0,-374"/>
<polygon fill="#bfbfbf" stroke="#bfbfbf" points="0,-358 0,-358 112.25,-358 112.25,-358 0,-358"/>
<polygon fill="none" stroke="#bfbfbf" points="0,-340 0,-392 112.25,-392 112.25,-340 0,-340"/>
</a>
</g>
</g>
<!-- Node2&#45;&gt;Node1 -->
<g id="edge1_Node000001_Node000002" class="edge">
<title>Node2&#45;&gt;Node1</title>
<g id="a_edge1_Node000001_Node000002"><a xlink:title=" ">
<path fill="none" stroke="#63b8ff" d="M65.75,-329.45C75.78,-297.01 93.89,-248.93 121.12,-214 147.55,-180.12 184.55,-150.24 217.63,-127.42"/>
<polygon fill="none" stroke="#63b8ff" points="62.47,-328.19 62.97,-338.78 69.18,-330.19 62.47,-328.19"/>
</a>
</g>
</g>
<!-- Node3 -->
<g id="Node000003" class="node">
<title>Node3</title>
<g id="a_Node000003"><a xlink:href="classit_1_1unisa_1_1biblioteca_1_1gruppo21_1_1entity_1_1_utente.html" target="_top" xlink:title=" ">
<polygon fill="white" stroke="none" points="286,-518 130.25,-518 130.25,-214 286,-214 286,-518"/>
<text xml:space="preserve" text-anchor="start" x="134.25" y="-504.5" font-family="Helvetica,sans-Serif" font-size="10.00">it.unisa.biblioteca.gruppo21.entity.</text>
<text xml:space="preserve" text-anchor="start" x="193.5" y="-492.5" font-family="Helvetica,sans-Serif" font-size="10.00">Utente</text>
<text xml:space="preserve" text-anchor="start" x="139.81" y="-476.5" font-family="Helvetica,sans-Serif" font-size="10.00">+</text>
<text xml:space="preserve" text-anchor="start" x="155.38" y="-476.5" font-family="Helvetica,sans-Serif" font-size="10.00">MAX_PRESTITI</text>
<text xml:space="preserve" text-anchor="start" x="141.31" y="-460.5" font-family="Helvetica,sans-Serif" font-size="10.00">&#45;</text>
<text xml:space="preserve" text-anchor="start" x="155.38" y="-460.5" font-family="Helvetica,sans-Serif" font-size="10.00">nome</text>
<text xml:space="preserve" text-anchor="start" x="141.31" y="-444.5" font-family="Helvetica,sans-Serif" font-size="10.00">&#45;</text>
<text xml:space="preserve" text-anchor="start" x="155.38" y="-444.5" font-family="Helvetica,sans-Serif" font-size="10.00">cognome</text>
<text xml:space="preserve" text-anchor="start" x="141.31" y="-428.5" font-family="Helvetica,sans-Serif" font-size="10.00">&#45;</text>
<text xml:space="preserve" text-anchor="start" x="155.38" y="-428.5" font-family="Helvetica,sans-Serif" font-size="10.00">email</text>
<text xml:space="preserve" text-anchor="start" x="141.31" y="-412.5" font-family="Helvetica,sans-Serif" font-size="10.00">&#45;</text>
<text xml:space="preserve" text-anchor="start" x="155.38" y="-412.5" font-family="Helvetica,sans-Serif" font-size="10.00">matricola</text>
<text xml:space="preserve" text-anchor="start" x="141.31" y="-396.5" font-family="Helvetica,sans-Serif" font-size="10.00">&#45;</text>
<text xml:space="preserve" text-anchor="start" x="155.38" y="-396.5" font-family="Helvetica,sans-Serif" font-size="10.00">prestitiAttivi</text>
<text xml:space="preserve" text-anchor="start" x="139.81" y="-380.5" font-family="Helvetica,sans-Serif" font-size="10.00">+</text>
<text xml:space="preserve" text-anchor="start" x="155.38" y="-380.5" font-family="Helvetica,sans-Serif" font-size="10.00">Utente()</text>
<text xml:space="preserve" text-anchor="start" x="139.81" y="-364.5" font-family="Helvetica,sans-Serif" font-size="10.00">+</text>
<text xml:space="preserve" text-anchor="start" x="155.38" y="-364.5" font-family="Helvetica,sans-Serif" font-size="10.00">getNome()</text>
<text xml:space="preserve" text-anchor="start" x="139.81" y="-348.5" font-family="Helvetica,sans-Serif" font-size="10.00">+</text>
<text xml:space="preserve" text-anchor="start" x="155.38" y="-348.5" font-family="Helvetica,sans-Serif" font-size="10.00">setNome()</text>
<text xml:space="preserve" text-anchor="start" x="139.81" y="-332.5" font-family="Helvetica,sans-Serif" font-size="10.00">+</text>
<text xml:space="preserve" text-anchor="start" x="155.38" y="-332.5" font-family="Helvetica,sans-Serif" font-size="10.00">getCognome()</text>
<text xml:space="preserve" text-anchor="start" x="139.81" y="-316.5" font-family="Helvetica,sans-Serif" font-size="10.00">+</text>
<text xml:space="preserve" text-anchor="start" x="155.38" y="-316.5" font-family="Helvetica,sans-Serif" font-size="10.00">setCognome()</text>
<text xml:space="preserve" text-anchor="start" x="139.81" y="-300.5" font-family="Helvetica,sans-Serif" font-size="10.00">+</text>
<text xml:space="preserve" text-anchor="start" x="155.38" y="-300.5" font-family="Helvetica,sans-Serif" font-size="10.00">getEmail()</text>
<text xml:space="preserve" text-anchor="start" x="139.81" y="-284.5" font-family="Helvetica,sans-Serif" font-size="10.00">+</text>
<text xml:space="preserve" text-anchor="start" x="155.38" y="-284.5" font-family="Helvetica,sans-Serif" font-size="10.00">setEmail()</text>
<text xml:space="preserve" text-anchor="start" x="139.81" y="-268.5" font-family="Helvetica,sans-Serif" font-size="10.00">+</text>
<text xml:space="preserve" text-anchor="start" x="155.38" y="-268.5" font-family="Helvetica,sans-Serif" font-size="10.00">getMatricola()</text>
<text xml:space="preserve" text-anchor="start" x="139.81" y="-252.5" font-family="Helvetica,sans-Serif" font-size="10.00">+</text>
<text xml:space="preserve" text-anchor="start" x="155.38" y="-252.5" font-family="Helvetica,sans-Serif" font-size="10.00">getNumeroLibriPossesso()</text>
<text xml:space="preserve" text-anchor="start" x="139.81" y="-236.5" font-family="Helvetica,sans-Serif" font-size="10.00">+</text>
<text xml:space="preserve" text-anchor="start" x="155.38" y="-236.5" font-family="Helvetica,sans-Serif" font-size="10.00">getPrestitiAttivi()</text>
<text xml:space="preserve" text-anchor="start" x="155.38" y="-220.5" font-family="Helvetica,sans-Serif" font-size="10.00">and 6 more...</text>
<polygon fill="#666666" stroke="#666666" points="130.25,-488 130.25,-488 286,-488 286,-488 130.25,-488"/>
<polygon fill="#666666" stroke="#666666" points="130.25,-392 130.25,-392 153.38,-392 153.38,-392 130.25,-392"/>
<polygon fill="#666666" stroke="#666666" points="153.38,-392 153.38,-392 286,-392 286,-392 153.38,-392"/>
<polygon fill="none" stroke="#666666" points="130.25,-214 130.25,-518 286,-518 286,-214 130.25,-214"/>
</a>
</g>
</g>
<!-- Node3&#45;&gt;Node1 -->
<g id="edge2_Node000001_Node000003" class="edge">
<title>Node3&#45;&gt;Node1</title>
<g id="a_edge2_Node000001_Node000003"><a xlink:title=" ">
<path fill="none" stroke="#63b8ff" d="M254.3,-214.27C258.72,-199.84 263.11,-185.52 267.27,-171.93"/>
<polygon fill="none" stroke="#63b8ff" points="267.25,-172 265.18,-165.09 270.76,-160.53 272.83,-167.44 267.25,-172"/>
</a>
</g>
<text xml:space="preserve" text-anchor="start" x="267.5" y="-183.5" font-family="Helvetica,sans-Serif" font-size="10.00" fill="grey">&#45;utente</text>
</g>
<!-- Node4 -->
<g id="Node000004" class="node">
<title>Node4</title>
<g id="a_Node000004"><a xlink:title=" ">
<polygon fill="white" stroke="none" points="262,-607 154.25,-607 154.25,-555 262,-555 262,-607"/>
<text xml:space="preserve" text-anchor="start" x="158.25" y="-593.5" font-family="Helvetica,sans-Serif" font-size="10.00">Comparable&lt; Utente &gt;</text>
<text xml:space="preserve" text-anchor="start" x="206.62" y="-577.5" font-family="Helvetica,sans-Serif" font-size="10.00"> </text>
<text xml:space="preserve" text-anchor="start" x="206.62" y="-561.5" font-family="Helvetica,sans-Serif" font-size="10.00"> </text>
<polygon fill="#bfbfbf" stroke="#bfbfbf" points="154.25,-589 154.25,-589 262,-589 262,-589 154.25,-589"/>
<polygon fill="#bfbfbf" stroke="#bfbfbf" points="154.25,-573 154.25,-573 262,-573 262,-573 154.25,-573"/>
<polygon fill="none" stroke="#bfbfbf" points="154.25,-555 154.25,-607 262,-607 262,-555 154.25,-555"/>
</a>
</g>
</g>
<!-- Node4&#45;&gt;Node3 -->
<g id="edge3_Node000003_Node000004" class="edge">
<title>Node4&#45;&gt;Node3</title>
<g id="a_edge3_Node000003_Node000004"><a xlink:title=" ">
<path fill="none" stroke="#63b8ff" d="M208.12,-543.66C208.12,-535.84 208.12,-527.1 208.12,-517.83"/>
<polygon fill="none" stroke="#63b8ff" points="204.63,-543.64 208.13,-553.64 211.63,-543.64 204.63,-543.64"/>
</a>
</g>
</g>
<!-- Node5 -->
<g id="Node000005" class="node">
<title>Node5</title>
<g id="a_Node000005"><a xlink:href="classit_1_1unisa_1_1biblioteca_1_1gruppo21_1_1entity_1_1_libro.html" target="_top" xlink:title=" ">
<polygon fill="white" stroke="none" points="460,-510 304.25,-510 304.25,-222 460,-222 460,-510"/>
<text xml:space="preserve" text-anchor="start" x="308.25" y="-496.5" font-family="Helvetica,sans-Serif" font-size="10.00">it.unisa.biblioteca.gruppo21.entity.</text>
<text xml:space="preserve" text-anchor="start" x="371.62" y="-484.5" font-family="Helvetica,sans-Serif" font-size="10.00">Libro</text>
<text xml:space="preserve" text-anchor="start" x="313.06" y="-468.5" font-family="Helvetica,sans-Serif" font-size="10.00">&#45;</text>
<text xml:space="preserve" text-anchor="start" x="324.88" y="-468.5" font-family="Helvetica,sans-Serif" font-size="10.00">titolo</text>
<text xml:space="preserve" text-anchor="start" x="313.06" y="-452.5" font-family="Helvetica,sans-Serif" font-size="10.00">&#45;</text>
<text xml:space="preserve" text-anchor="start" x="324.88" y="-452.5" font-family="Helvetica,sans-Serif" font-size="10.00">autore</text>
<text xml:space="preserve" text-anchor="start" x="313.06" y="-436.5" font-family="Helvetica,sans-Serif" font-size="10.00">&#45;</text>
<text xml:space="preserve" text-anchor="start" x="324.88" y="-436.5" font-family="Helvetica,sans-Serif" font-size="10.00">codiceISBN</text>
<text xml:space="preserve" text-anchor="start" x="313.06" y="-420.5" font-family="Helvetica,sans-Serif" font-size="10.00">&#45;</text>
<text xml:space="preserve" text-anchor="start" x="324.88" y="-420.5" font-family="Helvetica,sans-Serif" font-size="10.00">annoPubblicazione</text>
<text xml:space="preserve" text-anchor="start" x="313.06" y="-404.5" font-family="Helvetica,sans-Serif" font-size="10.00">&#45;</text>
<text xml:space="preserve" text-anchor="start" x="324.88" y="-404.5" font-family="Helvetica,sans-Serif" font-size="10.00">numeroCopieDisponibili</text>
<text xml:space="preserve" text-anchor="start" x="311.56" y="-388.5" font-family="Helvetica,sans-Serif" font-size="10.00">+</text>
<text xml:space="preserve" text-anchor="start" x="324.88" y="-388.5" font-family="Helvetica,sans-Serif" font-size="10.00">Libro()</text>
<text xml:space="preserve" text-anchor="start" x="311.56" y="-372.5" font-family="Helvetica,sans-Serif" font-size="10.00">+</text>
<text xml:space="preserve" text-anchor="start" x="324.88" y="-372.5" font-family="Helvetica,sans-Serif" font-size="10.00">getTitolo()</text>
<text xml:space="preserve" text-anchor="start" x="311.56" y="-356.5" font-family="Helvetica,sans-Serif" font-size="10.00">+</text>
<text xml:space="preserve" text-anchor="start" x="324.88" y="-356.5" font-family="Helvetica,sans-Serif" font-size="10.00">getAutore()</text>
<text xml:space="preserve" text-anchor="start" x="311.56" y="-340.5" font-family="Helvetica,sans-Serif" font-size="10.00">+</text>
<text xml:space="preserve" text-anchor="start" x="324.88" y="-340.5" font-family="Helvetica,sans-Serif" font-size="10.00">getCodiceISBN()</text>
<text xml:space="preserve" text-anchor="start" x="311.56" y="-324.5" font-family="Helvetica,sans-Serif" font-size="10.00">+</text>
<text xml:space="preserve" text-anchor="start" x="324.88" y="-324.5" font-family="Helvetica,sans-Serif" font-size="10.00">getAnnoPubblicazione()</text>
<text xml:space="preserve" text-anchor="start" x="311.56" y="-308.5" font-family="Helvetica,sans-Serif" font-size="10.00">+</text>
<text xml:space="preserve" text-anchor="start" x="324.88" y="-308.5" font-family="Helvetica,sans-Serif" font-size="10.00">getNumeroCopieDisponibili()</text>
<text xml:space="preserve" text-anchor="start" x="311.56" y="-292.5" font-family="Helvetica,sans-Serif" font-size="10.00">+</text>
<text xml:space="preserve" text-anchor="start" x="324.88" y="-292.5" font-family="Helvetica,sans-Serif" font-size="10.00">setNumeroCopieDisponibili()</text>
<text xml:space="preserve" text-anchor="start" x="311.56" y="-276.5" font-family="Helvetica,sans-Serif" font-size="10.00">+</text>
<text xml:space="preserve" text-anchor="start" x="324.88" y="-276.5" font-family="Helvetica,sans-Serif" font-size="10.00">toString()</text>
<text xml:space="preserve" text-anchor="start" x="311.56" y="-260.5" font-family="Helvetica,sans-Serif" font-size="10.00">+</text>
<text xml:space="preserve" text-anchor="start" x="324.88" y="-260.5" font-family="Helvetica,sans-Serif" font-size="10.00">hashCode()</text>
<text xml:space="preserve" text-anchor="start" x="311.56" y="-244.5" font-family="Helvetica,sans-Serif" font-size="10.00">+</text>
<text xml:space="preserve" text-anchor="start" x="324.88" y="-244.5" font-family="Helvetica,sans-Serif" font-size="10.00">equals()</text>
<text xml:space="preserve" text-anchor="start" x="311.56" y="-228.5" font-family="Helvetica,sans-Serif" font-size="10.00">+</text>
<text xml:space="preserve" text-anchor="start" x="324.88" y="-228.5" font-family="Helvetica,sans-Serif" font-size="10.00">compareTo()</text>
<polygon fill="#666666" stroke="#666666" points="304.25,-480 304.25,-480 460,-480 460,-480 304.25,-480"/>
<polygon fill="#666666" stroke="#666666" points="304.25,-400 304.25,-400 322.88,-400 322.88,-400 304.25,-400"/>
<polygon fill="#666666" stroke="#666666" points="322.88,-400 322.88,-400 460,-400 460,-400 322.88,-400"/>
<polygon fill="none" stroke="#666666" points="304.25,-222 304.25,-510 460,-510 460,-222 304.25,-222"/>
</a>
</g>
</g>
<!-- Node5&#45;&gt;Node1 -->
<g id="edge4_Node000001_Node000005" class="edge">
<title>Node5&#45;&gt;Node1</title>
<g id="a_edge4_Node000001_Node000005"><a xlink:title=" ">
<path fill="none" stroke="#63b8ff" d="M338.37,-222.17C333.14,-205.11 327.92,-188.06 323.01,-172.02"/>
<polygon fill="none" stroke="#63b8ff" points="323.09,-172.3 317.51,-167.73 319.58,-160.82 325.16,-165.39 323.09,-172.3"/>
</a>
</g>
<text xml:space="preserve" text-anchor="start" x="331.27" y="-183.5" font-family="Helvetica,sans-Serif" font-size="10.00" fill="grey">&#45;libro</text>
</g>
<!-- Node6 -->
<g id="Node000006" class="node">
<title>Node6</title>
<g id="a_Node000006"><a xlink:title=" ">
<polygon fill="white" stroke="none" points="431.88,-607 332.38,-607 332.38,-555 431.88,-555 431.88,-607"/>
<text xml:space="preserve" text-anchor="start" x="336.38" y="-593.5" font-family="Helvetica,sans-Serif" font-size="10.00">Comparable&lt; Libro &gt;</text>
<text xml:space="preserve" text-anchor="start" x="380.62" y="-577.5" font-family="Helvetica,sans-Serif" font-size="10.00"> </text>
<text xml:space="preserve" text-anchor="start" x="380.62" y="-561.5" font-family="Helvetica,sans-Serif" font-size="10.00"> </text>
<polygon fill="#bfbfbf" stroke="#bfbfbf" points="332.38,-589 332.38,-589 431.88,-589 431.88,-589 332.38,-589"/>
<polygon fill="#bfbfbf" stroke="#bfbfbf" points="332.38,-573 332.38,-573 431.88,-573 431.88,-573 332.38,-573"/>
<polygon fill="none" stroke="#bfbfbf" points="332.38,-555 332.38,-607 431.88,-607 431.88,-555 332.38,-555"/>
</a>
</g>
</g>
<!-- Node6&#45;&gt;Node5 -->
<g id="edge5_Node000005_Node000006" class="edge">
<title>Node6&#45;&gt;Node5</title>
<g id="a_edge5_Node000005_Node000006"><a xlink:title=" ">
<path fill="none" stroke="#63b8ff" d="M382.12,-543.97C382.12,-533.79 382.12,-522.06 382.12,-509.57"/>
<polygon fill="none" stroke="#63b8ff" points="378.63,-543.64 382.13,-553.64 385.63,-543.64 378.63,-543.64"/>
</a>
</g>
</g>
<!-- Node7 -->
<g id="Node000007" class="node">
<title>Node7</title>
<g id="a_Node000007"><a xlink:href="enumit_1_1unisa_1_1biblioteca_1_1gruppo21_1_1entity_1_1_prestito_1_1_stato_prestito.html" target="_top" xlink:title="Enumerazione che definisce gli stati possibili del ciclo di vita di un prestito.">
<polygon fill="white" stroke="none" points="634,-414 478.25,-414 478.25,-318 634,-318 634,-414"/>
<text xml:space="preserve" text-anchor="start" x="482.25" y="-400.5" font-family="Helvetica,sans-Serif" font-size="10.00">it.unisa.biblioteca.gruppo21.entity.</text>
<text xml:space="preserve" text-anchor="start" x="509.25" y="-388.5" font-family="Helvetica,sans-Serif" font-size="10.00">Prestito.StatoPrestito</text>
<text xml:space="preserve" text-anchor="start" x="501.5" y="-372.5" font-family="Helvetica,sans-Serif" font-size="10.00">+</text>
<text xml:space="preserve" text-anchor="start" x="530.75" y="-372.5" font-family="Helvetica,sans-Serif" font-size="10.00">ATTIVO</text>
<text xml:space="preserve" text-anchor="start" x="501.5" y="-356.5" font-family="Helvetica,sans-Serif" font-size="10.00">+</text>
<text xml:space="preserve" text-anchor="start" x="530.75" y="-356.5" font-family="Helvetica,sans-Serif" font-size="10.00">RESTITUITO</text>
<text xml:space="preserve" text-anchor="start" x="501.5" y="-340.5" font-family="Helvetica,sans-Serif" font-size="10.00">+</text>
<text xml:space="preserve" text-anchor="start" x="530.75" y="-340.5" font-family="Helvetica,sans-Serif" font-size="10.00">IN_RITARDO</text>
<text xml:space="preserve" text-anchor="start" x="554.62" y="-324.5" font-family="Helvetica,sans-Serif" font-size="10.00"> </text>
<polygon fill="#666666" stroke="#666666" points="478.25,-384 478.25,-384 634,-384 634,-384 478.25,-384"/>
<polygon fill="#666666" stroke="#666666" points="478.25,-336 478.25,-336 528.75,-336 528.75,-336 478.25,-336"/>
<polygon fill="#666666" stroke="#666666" points="528.75,-336 528.75,-336 634,-336 634,-336 528.75,-336"/>
<polygon fill="none" stroke="#666666" points="478.25,-318 478.25,-414 634,-414 634,-318 478.25,-318"/>
</a>
</g>
</g>
<!-- Node7&#45;&gt;Node1 -->
<g id="edge6_Node000001_Node000007" class="edge">
<title>Node7&#45;&gt;Node1</title>
<g id="a_edge6_Node000001_Node000007"><a xlink:title=" ">
<path fill="none" stroke="#63b8ff" d="M535.27,-318.33C519.8,-286.81 496.67,-245.38 469.12,-214 444.33,-185.76 412.74,-159.49 383.3,-137.89"/>
<polygon fill="none" stroke="#63b8ff" points="383.46,-138 376.25,-137.74 373.73,-130.98 380.93,-131.25 383.46,-138"/>
</a>
</g>
<text xml:space="preserve" text-anchor="start" x="451.65" y="-183.5" font-family="Helvetica,sans-Serif" font-size="10.00" fill="grey">&#45;stato</text>
</g>
</g>
</svg>
