<?xml version="1.0" encoding="UTF-8" standalone="no"?>
<!DOCTYPE svg PUBLIC "-//W3C//DTD SVG 1.1//EN"
 "http://www.w3.org/Graphics/SVG/1.1/DTD/svg11.dtd">
<!-- Generated by graphviz version 14.1.0 (20251206.1807)
 -->
<!-- Title: it.unisa.biblioteca.gruppo21.entity.Utente Pages: 1 -->
<svg width="164pt" height="400pt"
 viewBox="0.00 0.00 164.00 400.00" xmlns="http://www.w3.org/2000/svg" xmlns:xlink="http://www.w3.org/1999/xlink">
<g id="graph0" class="graph" transform="scale(1 1) rotate(0) translate(4 396)">
<title>it.unisa.biblioteca.gruppo21.entity.Utente</title>
<!-- Node1 -->
<g id="Node000001" class="node">
<title>Node1</title>
<g id="a_Node000001"><a xlink:title=" ">
<polygon fill="#999999" stroke="none" points="155.75,-304 0,-304 0,0 155.75,0 155.75,-304"/>
<text xml:space="preserve" text-anchor="start" x="4" y="-290.5" font-family="Helvetica,sans-Serif" font-size="10.00">it.unisa.biblioteca.gruppo21.entity.</text>
<text xml:space="preserve" text-anchor="start" x="63.25" y="-278.5" font-family="Helvetica,sans-Serif" font-size="10.00">Utente</text>
<text xml:space="preserve" text-anchor="start" x="9.56" y="-262.5" font-family="Helvetica,sans-Serif" font-size="10.00">+</text>
<text xml:space="preserve" text-anchor="start" x="25.12" y="-262.5" font-family="Helvetica,sans-Serif" font-size="10.00">MAX_PRESTITI</text>
<text xml:space="preserve" text-anchor="start" x="11.06" y="-246.5" font-family="Helvetica,sans-Serif" font-size="10.00">&#45;</text>
<text xml:space="preserve" text-anchor="start" x="25.12" y="-246.5" font-family="Helvetica,sans-Serif" font-size="10.00">nome</text>
<text xml:space="preserve" text-anchor="start" x="11.06" y="-230.5" font-family="Helvetica,sans-Serif" font-size="10.00">&#45;</text>
<text xml:space="preserve" text-anchor="start" x="25.12" y="-230.5" font-family="Helvetica,sans-Serif" font-size="10.00">cognome</text>
<text xml:space="preserve" text-anchor="start" x="11.06" y="-214.5" font-family="Helvetica,sans-Serif" font-size="10.00">&#45;</text>
<text xml:space="preserve" text-anchor="start" x="25.12" y="-214.5" font-family="Helvetica,sans-Serif" font-size="10.00">email</text>
<text xml:space="preserve" text-anchor="start" x="11.06" y="-198.5" font-family="Helvetica,sans-Serif" font-size="10.00">&#45;</text>
<text xml:space="preserve" text-anchor="start" x="25.12" y="-198.5" font-family="Helvetica,sans-Serif" font-size="10.00">matricola</text>
<text xml:space="preserve" text-anchor="start" x="11.06" y="-182.5" font-family="Helvetica,sans-Serif" font-size="10.00">&#45;</text>
<text xml:space="preserve" text-anchor="start" x="25.12" y="-182.5" font-family="Helvetica,sans-Serif" font-size="10.00">prestitiAttivi</text>
<text xml:space="preserve" text-anchor="start" x="9.56" y="-166.5" font-family="Helvetica,sans-Serif" font-size="10.00">+</text>
<text xml:space="preserve" text-anchor="start" x="25.12" y="-166.5" font-family="Helvetica,sans-Serif" font-size="10.00">Utente()</text>
<text xml:space="preserve" text-anchor="start" x="9.56" y="-150.5" font-family="Helvetica,sans-Serif" font-size="10.00">+</text>
<text xml:space="preserve" text-anchor="start" x="25.12" y="-150.5" font-family="Helvetica,sans-Serif" font-size="10.00">getNome()</text>
<text xml:space="preserve" text-anchor="start" x="9.56" y="-134.5" font-family="Helvetica,sans-Serif" font-size="10.00">+</text>
<text xml:space="preserve" text-anchor="start" x="25.12" y="-134.5" font-family="Helvetica,sans-Serif" font-size="10.00">setNome()</text>
<text xml:space="preserve" text-anchor="start" x="9.56" y="-118.5" font-family="Helvetica,sans-Serif" font-size="10.00">+</text>
<text xml:space="preserve" text-anchor="start" x="25.12" y="-118.5" font-family="Helvetica,sans-Serif" font-size="10.00">getCognome()</text>
<text xml:space="preserve" text-anchor="start" x="9.56" y="-102.5" font-family="Helvetica,sans-Serif" font-size="10.00">+</text>
<text xml:space="preserve" text-anchor="start" x="25.12" y="-102.5" font-family="Helvetica,sans-Serif" font-size="10.00">setCognome()</text>
<text xml:space="preserve" text-anchor="start" x="9.56" y="-86.5" font-family="Helvetica,sans-Serif" font-size="10.00">+</text>
<text xml:space="preserve" text-anchor="start" x="25.12" y="-86.5" font-family="Helvetica,sans-Serif" font-size="10.00">getEmail()</text>
<text xml:space="preserve" text-anchor="start" x="9.56" y="-70.5" font-family="Helvetica,sans-Serif" font-size="10.00">+</text>
<text xml:space="preserve" text-anchor="start" x="25.12" y="-70.5" font-family="Helvetica,sans-Serif" font-size="10.00">setEmail()</text>
<text xml:space="preserve" text-anchor="start" x="9.56" y="-54.5" font-family="Helvetica,sans-Serif" font-size="10.00">+</text>
<text xml:space="preserve" text-anchor="start" x="25.12" y="-54.5" font-family="Helvetica,sans-Serif" font-size="10.00">getMatricola()</text>
<text xml:space="preserve" text-anchor="start" x="9.56" y="-38.5" font-family="Helvetica,sans-Serif" font-size="10.00">+</text>
<text xml:space="preserve" text-anchor="start" x="25.12" y="-38.5" font-family="Helvetica,sans-Serif" font-size="10.00">getNumeroLibriPossesso()</text>
<text xml:space="preserve" text-anchor="start" x="9.56" y="-22.5" font-family="Helvetica,sans-Serif" font-size="10.00">+</text>
<text xml:space="preserve" text-anchor="start" x="25.12" y="-22.5" font-family="Helvetica,sans-Serif" font-size="10.00">getPrestitiAttivi()</text>
<text xml:space="preserve" text-anchor="start" x="25.12" y="-6.5" font-family="Helvetica,sans-Serif" font-size="10.00">and 6 more...</text>
<polygon fill="#666666" stroke="#666666" points="0,-274 0,-274 155.75,-274 155.75,-274 0,-274"/>
<polygon fill="#666666" stroke="#666666" points="0,-178 0,-178 23.12,-178 23.12,-178 0,-178"/>
<polygon fill="#666666" stroke="#666666" points="23.12,-178 23.12,-178 155.75,-178 155.75,-178 23.12,-178"/>
<polygon fill="none" stroke="#666666" points="0,0 0,-304 155.75,-304 155.75,0 0,0"/>
</a>
</g>
</g>
<!-- Node2 -->
<g id="Node000002" class="node">
<title>Node2</title>
<g id="a_Node000002"><a xlink:title=" ">
<polygon fill="white" stroke="none" points="131.75,-392 24,-392 24,-340 131.75,-340 131.75,-392"/>
<text xml:space="preserve" text-anchor="start" x="28" y="-378.5" font-family="Helvetica,sans-Serif" font-size="10.00">Comparable&lt; Utente &gt;</text>
<text xml:space="preserve" text-anchor="start" x="76.38" y="-362.5" font-family="Helvetica,sans-Serif" font-size="10.00"> </text>
<text xml:space="preserve" text-anchor="start" x="76.38" y="-346.5" font-family="Helvetica,sans-Serif" font-size="10.00"> </text>
<polygon fill="#bfbfbf" stroke="#bfbfbf" points="24,-374 24,-374 131.75,-374 131.75,-374 24,-374"/>
<polygon fill="#bfbfbf" stroke="#bfbfbf" points="24,-358 24,-358 131.75,-358 131.75,-358 24,-358"/>
<polygon fill="none" stroke="#bfbfbf" points="24,-340 24,-392 131.75,-392 131.75,-340 24,-340"/>
</a>
</g>
</g>
<!-- Node2&#45;&gt;Node1 -->
<g id="edge1_Node000001_Node000002" class="edge">
<title>Node2&#45;&gt;Node1</title>
<g id="a_edge1_Node000001_Node000002"><a xlink:title=" ">
<path fill="none" stroke="#63b8ff" d="M77.88,-328.96C77.88,-321.27 77.88,-312.69 77.88,-303.57"/>
<polygon fill="none" stroke="#63b8ff" points="74.38,-328.75 77.88,-338.75 81.38,-328.75 74.38,-328.75"/>
</a>
</g>
</g>
</g>
</svg>
