<?xml version="1.0" encoding="UTF-8" standalone="no"?>
<!DOCTYPE svg PUBLIC "-//W3C//DTD SVG 1.1//EN"
 "http://www.w3.org/Graphics/SVG/1.1/DTD/svg11.dtd">
<!-- Generated by graphviz version 14.1.0 (20251206.1807)
 -->
<!-- Title: it.unisa.biblioteca.gruppo21.gui.Controller Pages: 1 -->
<svg width="572pt" height="1151pt"
 viewBox="0.00 0.00 572.00 1151.00" xmlns="http://www.w3.org/2000/svg" xmlns:xlink="http://www.w3.org/1999/xlink">
<g id="graph0" class="graph" transform="scale(1 1) rotate(0) translate(4 1147)">
<title>it.unisa.biblioteca.gruppo21.gui.Controller</title>
<!-- Node1 -->
<g id="Node000001" class="node">
<title>Node1</title>
<g id="a_Node000001"><a xlink:title=" ">
<polygon fill="#999999" stroke="none" points="355.62,-224 210.38,-224 210.38,0 355.62,0 355.62,-224"/>
<text xml:space="preserve" text-anchor="start" x="214.38" y="-210.5" font-family="Helvetica,sans-Serif" font-size="10.00">it.unisa.biblioteca.gruppo21.gui.</text>
<text xml:space="preserve" text-anchor="start" x="262" y="-198.5" font-family="Helvetica,sans-Serif" font-size="10.00">Controller</text>
<text xml:space="preserve" text-anchor="start" x="281.5" y="-182.5" font-family="Helvetica,sans-Serif" font-size="10.00"> </text>
<text xml:space="preserve" text-anchor="start" x="217.31" y="-166.5" font-family="Helvetica,sans-Serif" font-size="10.00">+</text>
<text xml:space="preserve" text-anchor="start" x="230.25" y="-166.5" font-family="Helvetica,sans-Serif" font-size="10.00">Controller()</text>
<text xml:space="preserve" text-anchor="start" x="217.31" y="-150.5" font-family="Helvetica,sans-Serif" font-size="10.00">+</text>
<text xml:space="preserve" text-anchor="start" x="230.25" y="-150.5" font-family="Helvetica,sans-Serif" font-size="10.00">gestisciIscrizione()</text>
<text xml:space="preserve" text-anchor="start" x="217.31" y="-134.5" font-family="Helvetica,sans-Serif" font-size="10.00">+</text>
<text xml:space="preserve" text-anchor="start" x="230.25" y="-134.5" font-family="Helvetica,sans-Serif" font-size="10.00">gestisciRimozioneUtente()</text>
<text xml:space="preserve" text-anchor="start" x="217.31" y="-118.5" font-family="Helvetica,sans-Serif" font-size="10.00">+</text>
<text xml:space="preserve" text-anchor="start" x="230.25" y="-118.5" font-family="Helvetica,sans-Serif" font-size="10.00">getListaUtenti()</text>
<text xml:space="preserve" text-anchor="start" x="217.31" y="-102.5" font-family="Helvetica,sans-Serif" font-size="10.00">+</text>
<text xml:space="preserve" text-anchor="start" x="230.25" y="-102.5" font-family="Helvetica,sans-Serif" font-size="10.00">gestisciAggiuntaLibro()</text>
<text xml:space="preserve" text-anchor="start" x="217.31" y="-86.5" font-family="Helvetica,sans-Serif" font-size="10.00">+</text>
<text xml:space="preserve" text-anchor="start" x="230.25" y="-86.5" font-family="Helvetica,sans-Serif" font-size="10.00">gestisciRimozioneLibro()</text>
<text xml:space="preserve" text-anchor="start" x="217.31" y="-70.5" font-family="Helvetica,sans-Serif" font-size="10.00">+</text>
<text xml:space="preserve" text-anchor="start" x="230.25" y="-70.5" font-family="Helvetica,sans-Serif" font-size="10.00">getListaLibri()</text>
<text xml:space="preserve" text-anchor="start" x="217.31" y="-54.5" font-family="Helvetica,sans-Serif" font-size="10.00">+</text>
<text xml:space="preserve" text-anchor="start" x="230.25" y="-54.5" font-family="Helvetica,sans-Serif" font-size="10.00">gestisciPrestito()</text>
<text xml:space="preserve" text-anchor="start" x="217.31" y="-38.5" font-family="Helvetica,sans-Serif" font-size="10.00">+</text>
<text xml:space="preserve" text-anchor="start" x="230.25" y="-38.5" font-family="Helvetica,sans-Serif" font-size="10.00">gestisciRestituzione()</text>
<text xml:space="preserve" text-anchor="start" x="217.31" y="-22.5" font-family="Helvetica,sans-Serif" font-size="10.00">+</text>
<text xml:space="preserve" text-anchor="start" x="230.25" y="-22.5" font-family="Helvetica,sans-Serif" font-size="10.00">getListaPrestiti()</text>
<text xml:space="preserve" text-anchor="start" x="218.81" y="-6.5" font-family="Helvetica,sans-Serif" font-size="10.00">&#45;</text>
<text xml:space="preserve" text-anchor="start" x="230.25" y="-6.5" font-family="Helvetica,sans-Serif" font-size="10.00">mostraMessaggio()</text>
<polygon fill="#666666" stroke="#666666" points="210.38,-194 210.38,-194 355.62,-194 355.62,-194 210.38,-194"/>
<polygon fill="#666666" stroke="#666666" points="210.38,-178 210.38,-178 355.62,-178 355.62,-178 210.38,-178"/>
<polygon fill="none" stroke="#666666" points="210.38,0 210.38,-224 355.62,-224 355.62,0 210.38,0"/>
</a>
</g>
</g>
<!-- Node2 -->
<g id="Node000002" class="node">
<title>Node2</title>
<g id="a_Node000002"><a xlink:href="classit_1_1unisa_1_1biblioteca_1_1gruppo21_1_1service_1_1_biblioteca.html" target="_top" xlink:title=" ">
<polygon fill="white" stroke="none" points="365,-550 201,-550 201,-278 365,-278 365,-550"/>
<text xml:space="preserve" text-anchor="start" x="205" y="-536.5" font-family="Helvetica,sans-Serif" font-size="10.00">it.unisa.biblioteca.gruppo21.service.</text>
<text xml:space="preserve" text-anchor="start" x="261.62" y="-524.5" font-family="Helvetica,sans-Serif" font-size="10.00">Biblioteca</text>
<text xml:space="preserve" text-anchor="start" x="281.5" y="-508.5" font-family="Helvetica,sans-Serif" font-size="10.00"> </text>
<text xml:space="preserve" text-anchor="start" x="221.25" y="-492.5" font-family="Helvetica,sans-Serif" font-size="10.00">+</text>
<text xml:space="preserve" text-anchor="start" x="247.5" y="-492.5" font-family="Helvetica,sans-Serif" font-size="10.00">Biblioteca()</text>
<text xml:space="preserve" text-anchor="start" x="221.25" y="-476.5" font-family="Helvetica,sans-Serif" font-size="10.00">+</text>
<text xml:space="preserve" text-anchor="start" x="247.5" y="-476.5" font-family="Helvetica,sans-Serif" font-size="10.00">iscriviUtente()</text>
<text xml:space="preserve" text-anchor="start" x="221.25" y="-460.5" font-family="Helvetica,sans-Serif" font-size="10.00">+</text>
<text xml:space="preserve" text-anchor="start" x="247.5" y="-460.5" font-family="Helvetica,sans-Serif" font-size="10.00">modificaUtente()</text>
<text xml:space="preserve" text-anchor="start" x="221.25" y="-444.5" font-family="Helvetica,sans-Serif" font-size="10.00">+</text>
<text xml:space="preserve" text-anchor="start" x="247.5" y="-444.5" font-family="Helvetica,sans-Serif" font-size="10.00">rimuoviUtente()</text>
<text xml:space="preserve" text-anchor="start" x="221.25" y="-428.5" font-family="Helvetica,sans-Serif" font-size="10.00">+</text>
<text xml:space="preserve" text-anchor="start" x="247.5" y="-428.5" font-family="Helvetica,sans-Serif" font-size="10.00">getElencoUtenti()</text>
<text xml:space="preserve" text-anchor="start" x="221.25" y="-412.5" font-family="Helvetica,sans-Serif" font-size="10.00">+</text>
<text xml:space="preserve" text-anchor="start" x="247.5" y="-412.5" font-family="Helvetica,sans-Serif" font-size="10.00">cercaUtenti()</text>
<text xml:space="preserve" text-anchor="start" x="221.25" y="-396.5" font-family="Helvetica,sans-Serif" font-size="10.00">+</text>
<text xml:space="preserve" text-anchor="start" x="247.5" y="-396.5" font-family="Helvetica,sans-Serif" font-size="10.00">aggiungiLibro()</text>
<text xml:space="preserve" text-anchor="start" x="221.25" y="-380.5" font-family="Helvetica,sans-Serif" font-size="10.00">+</text>
<text xml:space="preserve" text-anchor="start" x="247.5" y="-380.5" font-family="Helvetica,sans-Serif" font-size="10.00">rimuoviLibro()</text>
<text xml:space="preserve" text-anchor="start" x="221.25" y="-364.5" font-family="Helvetica,sans-Serif" font-size="10.00">+</text>
<text xml:space="preserve" text-anchor="start" x="247.5" y="-364.5" font-family="Helvetica,sans-Serif" font-size="10.00">getElencoLibri()</text>
<text xml:space="preserve" text-anchor="start" x="221.25" y="-348.5" font-family="Helvetica,sans-Serif" font-size="10.00">+</text>
<text xml:space="preserve" text-anchor="start" x="247.5" y="-348.5" font-family="Helvetica,sans-Serif" font-size="10.00">cercaLibri()</text>
<text xml:space="preserve" text-anchor="start" x="221.25" y="-332.5" font-family="Helvetica,sans-Serif" font-size="10.00">+</text>
<text xml:space="preserve" text-anchor="start" x="247.5" y="-332.5" font-family="Helvetica,sans-Serif" font-size="10.00">effettuaPrestito()</text>
<text xml:space="preserve" text-anchor="start" x="221.25" y="-316.5" font-family="Helvetica,sans-Serif" font-size="10.00">+</text>
<text xml:space="preserve" text-anchor="start" x="247.5" y="-316.5" font-family="Helvetica,sans-Serif" font-size="10.00">restituisciLibro()</text>
<text xml:space="preserve" text-anchor="start" x="221.25" y="-300.5" font-family="Helvetica,sans-Serif" font-size="10.00">+</text>
<text xml:space="preserve" text-anchor="start" x="247.5" y="-300.5" font-family="Helvetica,sans-Serif" font-size="10.00">getStoricoPrestiti()</text>
<text xml:space="preserve" text-anchor="start" x="221.25" y="-284.5" font-family="Helvetica,sans-Serif" font-size="10.00">+</text>
<text xml:space="preserve" text-anchor="start" x="247.5" y="-284.5" font-family="Helvetica,sans-Serif" font-size="10.00">controllaRitardi()</text>
<polygon fill="#666666" stroke="#666666" points="201,-520 201,-520 365,-520 365,-520 201,-520"/>
<polygon fill="#666666" stroke="#666666" points="201,-504 201,-504 365,-504 365,-504 201,-504"/>
<polygon fill="none" stroke="#666666" points="201,-278 201,-550 365,-550 365,-278 201,-278"/>
</a>
</g>
</g>
<!-- Node2&#45;&gt;Node1 -->
<g id="edge1_Node000001_Node000002" class="edge">
<title>Node2&#45;&gt;Node1</title>
<g id="a_edge1_Node000001_Node000002"><a xlink:title=" ">
<path fill="none" stroke="#63b8ff" d="M283,-278.36C283,-264.55 283,-250.56 283,-236.87"/>
<polygon fill="none" stroke="#63b8ff" points="283,-236.76 279,-230.76 283,-224.76 287,-230.76 283,-236.76"/>
</a>
</g>
<text xml:space="preserve" text-anchor="start" x="286" y="-247.5" font-family="Helvetica,sans-Serif" font-size="10.00" fill="grey">&#45;biblioteca</text>
</g>
<!-- Node3 -->
<g id="Node000003" class="node">
<title>Node3</title>
<g id="a_Node000003"><a xlink:href="classit_1_1unisa_1_1biblioteca_1_1gruppo21_1_1service_1_1_service_utenti.html" target="_top" xlink:title=" ">
<polygon fill="white" stroke="none" points="183,-748 19,-748 19,-604 183,-604 183,-748"/>
<text xml:space="preserve" text-anchor="start" x="23" y="-734.5" font-family="Helvetica,sans-Serif" font-size="10.00">it.unisa.biblioteca.gruppo21.service.</text>
<text xml:space="preserve" text-anchor="start" x="71.38" y="-722.5" font-family="Helvetica,sans-Serif" font-size="10.00">ServiceUtenti</text>
<text xml:space="preserve" text-anchor="start" x="99.5" y="-706.5" font-family="Helvetica,sans-Serif" font-size="10.00"> </text>
<text xml:space="preserve" text-anchor="start" x="37" y="-690.5" font-family="Helvetica,sans-Serif" font-size="10.00">+</text>
<text xml:space="preserve" text-anchor="start" x="61" y="-690.5" font-family="Helvetica,sans-Serif" font-size="10.00">ServiceUtenti()</text>
<text xml:space="preserve" text-anchor="start" x="37" y="-674.5" font-family="Helvetica,sans-Serif" font-size="10.00">+</text>
<text xml:space="preserve" text-anchor="start" x="61" y="-674.5" font-family="Helvetica,sans-Serif" font-size="10.00">iscrivi()</text>
<text xml:space="preserve" text-anchor="start" x="37" y="-658.5" font-family="Helvetica,sans-Serif" font-size="10.00">+</text>
<text xml:space="preserve" text-anchor="start" x="61" y="-658.5" font-family="Helvetica,sans-Serif" font-size="10.00">modificaDatiUtente()</text>
<text xml:space="preserve" text-anchor="start" x="37" y="-642.5" font-family="Helvetica,sans-Serif" font-size="10.00">+</text>
<text xml:space="preserve" text-anchor="start" x="61" y="-642.5" font-family="Helvetica,sans-Serif" font-size="10.00">rimuovi()</text>
<text xml:space="preserve" text-anchor="start" x="37" y="-626.5" font-family="Helvetica,sans-Serif" font-size="10.00">+</text>
<text xml:space="preserve" text-anchor="start" x="61" y="-626.5" font-family="Helvetica,sans-Serif" font-size="10.00">cerca()</text>
<text xml:space="preserve" text-anchor="start" x="37" y="-610.5" font-family="Helvetica,sans-Serif" font-size="10.00">+</text>
<text xml:space="preserve" text-anchor="start" x="61" y="-610.5" font-family="Helvetica,sans-Serif" font-size="10.00">getLista()</text>
<polygon fill="#666666" stroke="#666666" points="19,-718 19,-718 183,-718 183,-718 19,-718"/>
<polygon fill="#666666" stroke="#666666" points="19,-702 19,-702 183,-702 183,-702 19,-702"/>
<polygon fill="none" stroke="#666666" points="19,-604 19,-748 183,-748 183,-604 19,-604"/>
</a>
</g>
</g>
<!-- Node3&#45;&gt;Node2 -->
<g id="edge2_Node000002_Node000003" class="edge">
<title>Node3&#45;&gt;Node2</title>
<g id="a_edge2_Node000002_Node000003"><a xlink:title=" ">
<path fill="none" stroke="#63b8ff" d="M150.49,-604.3C163.97,-585.04 178.99,-563.58 193.95,-542.22"/>
<polygon fill="none" stroke="#63b8ff" points="193.88,-542.32 194.04,-535.11 200.76,-532.48 200.6,-539.69 193.88,-542.32"/>
</a>
</g>
<text xml:space="preserve" text-anchor="start" x="178.7" y="-573.5" font-family="Helvetica,sans-Serif" font-size="10.00" fill="grey">&#45;serviceUtenti</text>
</g>
<!-- Node4 -->
<g id="Node000004" class="node">
<title>Node4</title>
<g id="a_Node000004"><a xlink:href="classit_1_1unisa_1_1biblioteca_1_1gruppo21_1_1archive_1_1_archive_utenti.html" target="_top" xlink:title=" ">
<polygon fill="white" stroke="none" points="164,-914 0,-914 0,-802 164,-802 164,-914"/>
<text xml:space="preserve" text-anchor="start" x="4" y="-900.5" font-family="Helvetica,sans-Serif" font-size="10.00">it.unisa.biblioteca.gruppo21.archive.</text>
<text xml:space="preserve" text-anchor="start" x="52.38" y="-888.5" font-family="Helvetica,sans-Serif" font-size="10.00">ArchiveUtenti</text>
<text xml:space="preserve" text-anchor="start" x="80.5" y="-872.5" font-family="Helvetica,sans-Serif" font-size="10.00"> </text>
<text xml:space="preserve" text-anchor="start" x="24.19" y="-856.5" font-family="Helvetica,sans-Serif" font-size="10.00">+</text>
<text xml:space="preserve" text-anchor="start" x="54.38" y="-856.5" font-family="Helvetica,sans-Serif" font-size="10.00">ArchiveUtenti()</text>
<text xml:space="preserve" text-anchor="start" x="24.19" y="-840.5" font-family="Helvetica,sans-Serif" font-size="10.00">+</text>
<text xml:space="preserve" text-anchor="start" x="54.38" y="-840.5" font-family="Helvetica,sans-Serif" font-size="10.00">cerca()</text>
<text xml:space="preserve" text-anchor="start" x="24.56" y="-824.5" font-family="Helvetica,sans-Serif" font-size="10.00">#</text>
<text xml:space="preserve" text-anchor="start" x="54.38" y="-824.5" font-family="Helvetica,sans-Serif" font-size="10.00">serializza()</text>
<text xml:space="preserve" text-anchor="start" x="24.56" y="-808.5" font-family="Helvetica,sans-Serif" font-size="10.00">#</text>
<text xml:space="preserve" text-anchor="start" x="54.38" y="-808.5" font-family="Helvetica,sans-Serif" font-size="10.00">deserializza()</text>
<polygon fill="#666666" stroke="#666666" points="0,-884 0,-884 164,-884 164,-884 0,-884"/>
<polygon fill="#666666" stroke="#666666" points="0,-868 0,-868 164,-868 164,-868 0,-868"/>
<polygon fill="none" stroke="#666666" points="0,-802 0,-914 164,-914 164,-802 0,-802"/>
</a>
</g>
</g>
<!-- Node4&#45;&gt;Node3 -->
<g id="edge3_Node000003_Node000004" class="edge">
<title>Node4&#45;&gt;Node3</title>
<g id="a_edge3_Node000003_Node000004"><a xlink:title=" ">
<path fill="none" stroke="#63b8ff" d="M64.33,-802.13C62.44,-790.22 61.93,-777.68 64.25,-766 64.64,-764.01 65.08,-762.01 65.56,-760"/>
<polygon fill="none" stroke="#63b8ff" points="65.54,-760.08 63.28,-753.23 68.73,-748.51 70.99,-755.36 65.54,-760.08"/>
</a>
</g>
<text xml:space="preserve" text-anchor="start" x="67.25" y="-771.5" font-family="Helvetica,sans-Serif" font-size="10.00" fill="grey">&#45;arcUtenti</text>
</g>
<!-- Node11 -->
<g id="Node000011" class="node">
<title>Node11</title>
<g id="a_Node000011"><a xlink:href="classit_1_1unisa_1_1biblioteca_1_1gruppo21_1_1service_1_1_service_prestiti.html" target="_top" xlink:title=" ">
<polygon fill="white" stroke="none" points="365,-740 201,-740 201,-612 365,-612 365,-740"/>
<text xml:space="preserve" text-anchor="start" x="205" y="-726.5" font-family="Helvetica,sans-Serif" font-size="10.00">it.unisa.biblioteca.gruppo21.service.</text>
<text xml:space="preserve" text-anchor="start" x="251.12" y="-714.5" font-family="Helvetica,sans-Serif" font-size="10.00">ServicePrestiti</text>
<text xml:space="preserve" text-anchor="start" x="281.5" y="-698.5" font-family="Helvetica,sans-Serif" font-size="10.00"> </text>
<text xml:space="preserve" text-anchor="start" x="223.69" y="-682.5" font-family="Helvetica,sans-Serif" font-size="10.00">+</text>
<text xml:space="preserve" text-anchor="start" x="252.38" y="-682.5" font-family="Helvetica,sans-Serif" font-size="10.00">ServicePrestiti()</text>
<text xml:space="preserve" text-anchor="start" x="223.69" y="-666.5" font-family="Helvetica,sans-Serif" font-size="10.00">+</text>
<text xml:space="preserve" text-anchor="start" x="252.38" y="-666.5" font-family="Helvetica,sans-Serif" font-size="10.00">nuovoPrestito()</text>
<text xml:space="preserve" text-anchor="start" x="223.69" y="-650.5" font-family="Helvetica,sans-Serif" font-size="10.00">+</text>
<text xml:space="preserve" text-anchor="start" x="252.38" y="-650.5" font-family="Helvetica,sans-Serif" font-size="10.00">restituzione()</text>
<text xml:space="preserve" text-anchor="start" x="223.69" y="-634.5" font-family="Helvetica,sans-Serif" font-size="10.00">+</text>
<text xml:space="preserve" text-anchor="start" x="252.38" y="-634.5" font-family="Helvetica,sans-Serif" font-size="10.00">controllaRitardi()</text>
<text xml:space="preserve" text-anchor="start" x="223.69" y="-618.5" font-family="Helvetica,sans-Serif" font-size="10.00">+</text>
<text xml:space="preserve" text-anchor="start" x="252.38" y="-618.5" font-family="Helvetica,sans-Serif" font-size="10.00">getLista()</text>
<polygon fill="#666666" stroke="#666666" points="201,-710 201,-710 365,-710 365,-710 201,-710"/>
<polygon fill="#666666" stroke="#666666" points="201,-694 201,-694 365,-694 365,-694 201,-694"/>
<polygon fill="none" stroke="#666666" points="201,-612 201,-740 365,-740 365,-612 201,-612"/>
</a>
</g>
</g>
<!-- Node4&#45;&gt;Node11 -->
<g id="edge14_Node000011_Node000004" class="edge">
<title>Node4&#45;&gt;Node11</title>
<g id="a_edge14_Node000011_Node000004"><a xlink:title=" ">
<path fill="none" stroke="#63b8ff" d="M108.15,-802.13C116.56,-788.86 126.95,-775.72 139.25,-766 158.68,-750.64 170.21,-759.78 192,-748 192.86,-747.54 193.72,-747.06 194.58,-746.58"/>
<polygon fill="none" stroke="#63b8ff" points="194.64,-746.55 197.75,-740.04 204.95,-740.41 201.84,-746.92 194.64,-746.55"/>
</a>
</g>
<text xml:space="preserve" text-anchor="start" x="142.25" y="-771.5" font-family="Helvetica,sans-Serif" font-size="10.00" fill="grey">&#45;arcUtenti</text>
</g>
<!-- Node5 -->
<g id="Node000005" class="node">
<title>Node5</title>
<g id="a_Node000005"><a xlink:href="classit_1_1unisa_1_1biblioteca_1_1gruppo21_1_1archive_1_1_archive_astratto.html" target="_top" xlink:title=" ">
<polygon fill="white" stroke="none" points="164,-1143 0,-1143 0,-951 164,-951 164,-1143"/>
<text xml:space="preserve" text-anchor="start" x="4" y="-1129.5" font-family="Helvetica,sans-Serif" font-size="10.00">it.unisa.biblioteca.gruppo21.archive.</text>
<text xml:space="preserve" text-anchor="start" x="24.62" y="-1117.5" font-family="Helvetica,sans-Serif" font-size="10.00">ArchiveAstratto&lt; Utente &gt;</text>
<text xml:space="preserve" text-anchor="start" x="22.5" y="-1101.5" font-family="Helvetica,sans-Serif" font-size="10.00">#</text>
<text xml:space="preserve" text-anchor="start" x="50.25" y="-1101.5" font-family="Helvetica,sans-Serif" font-size="10.00">cache</text>
<text xml:space="preserve" text-anchor="start" x="22.5" y="-1085.5" font-family="Helvetica,sans-Serif" font-size="10.00">#</text>
<text xml:space="preserve" text-anchor="start" x="50.25" y="-1085.5" font-family="Helvetica,sans-Serif" font-size="10.00">file</text>
<text xml:space="preserve" text-anchor="start" x="22.12" y="-1069.5" font-family="Helvetica,sans-Serif" font-size="10.00">+</text>
<text xml:space="preserve" text-anchor="start" x="50.25" y="-1069.5" font-family="Helvetica,sans-Serif" font-size="10.00">ArchiveAstratto()</text>
<text xml:space="preserve" text-anchor="start" x="22.12" y="-1053.5" font-family="Helvetica,sans-Serif" font-size="10.00">+</text>
<text xml:space="preserve" text-anchor="start" x="50.25" y="-1053.5" font-family="Helvetica,sans-Serif" font-size="10.00">cerca()</text>
<text xml:space="preserve" text-anchor="start" x="22.12" y="-1037.5" font-family="Helvetica,sans-Serif" font-size="10.00">+</text>
<text xml:space="preserve" text-anchor="start" x="50.25" y="-1037.5" font-family="Helvetica,sans-Serif" font-size="10.00">aggiungi()</text>
<text xml:space="preserve" text-anchor="start" x="22.12" y="-1021.5" font-family="Helvetica,sans-Serif" font-size="10.00">+</text>
<text xml:space="preserve" text-anchor="start" x="50.25" y="-1021.5" font-family="Helvetica,sans-Serif" font-size="10.00">cancella()</text>
<text xml:space="preserve" text-anchor="start" x="22.12" y="-1005.5" font-family="Helvetica,sans-Serif" font-size="10.00">+</text>
<text xml:space="preserve" text-anchor="start" x="50.25" y="-1005.5" font-family="Helvetica,sans-Serif" font-size="10.00">leggiTutti()</text>
<text xml:space="preserve" text-anchor="start" x="22.5" y="-989.5" font-family="Helvetica,sans-Serif" font-size="10.00">#</text>
<text xml:space="preserve" text-anchor="start" x="50.25" y="-989.5" font-family="Helvetica,sans-Serif" font-size="10.00">serializza()</text>
<text xml:space="preserve" text-anchor="start" x="22.5" y="-973.5" font-family="Helvetica,sans-Serif" font-size="10.00">#</text>
<text xml:space="preserve" text-anchor="start" x="50.25" y="-973.5" font-family="Helvetica,sans-Serif" font-size="10.00">deserializza()</text>
<text xml:space="preserve" text-anchor="start" x="22.5" y="-957.5" font-family="Helvetica,sans-Serif" font-size="10.00">#</text>
<text xml:space="preserve" text-anchor="start" x="50.25" y="-957.5" font-family="Helvetica,sans-Serif" font-size="10.00">salvaTutto()</text>
<polygon fill="#666666" stroke="#666666" points="0,-1113 0,-1113 164,-1113 164,-1113 0,-1113"/>
<polygon fill="#666666" stroke="#666666" points="0,-1081 0,-1081 48.25,-1081 48.25,-1081 0,-1081"/>
<polygon fill="#666666" stroke="#666666" points="48.25,-1081 48.25,-1081 164,-1081 164,-1081 48.25,-1081"/>
<polygon fill="none" stroke="#666666" points="0,-951 0,-1143 164,-1143 164,-951 0,-951"/>
</a>
</g>
</g>
<!-- Node5&#45;&gt;Node4 -->
<g id="edge4_Node000004_Node000005" class="edge">
<title>Node5&#45;&gt;Node4</title>
<g id="a_edge4_Node000004_Node000005"><a xlink:title=" ">
<path fill="none" stroke="#63b8ff" d="M82,-939.73C82,-930.78 82,-921.99 82,-913.69"/>
<polygon fill="none" stroke="#63b8ff" points="78.5,-939.62 82,-949.62 85.5,-939.62 78.5,-939.62"/>
</a>
</g>
</g>
<!-- Node6 -->
<g id="Node000006" class="node">
<title>Node6</title>
<g id="a_Node000006"><a xlink:href="classit_1_1unisa_1_1biblioteca_1_1gruppo21_1_1archive_1_1_archive_prestiti.html" target="_top" xlink:title=" ">
<polygon fill="white" stroke="none" points="365,-914 201,-914 201,-802 365,-802 365,-914"/>
<text xml:space="preserve" text-anchor="start" x="205" y="-900.5" font-family="Helvetica,sans-Serif" font-size="10.00">it.unisa.biblioteca.gruppo21.archive.</text>
<text xml:space="preserve" text-anchor="start" x="251.12" y="-888.5" font-family="Helvetica,sans-Serif" font-size="10.00">ArchivePrestiti</text>
<text xml:space="preserve" text-anchor="start" x="281.5" y="-872.5" font-family="Helvetica,sans-Serif" font-size="10.00"> </text>
<text xml:space="preserve" text-anchor="start" x="224.06" y="-856.5" font-family="Helvetica,sans-Serif" font-size="10.00">+</text>
<text xml:space="preserve" text-anchor="start" x="253.12" y="-856.5" font-family="Helvetica,sans-Serif" font-size="10.00">ArchivePrestiti()</text>
<text xml:space="preserve" text-anchor="start" x="224.06" y="-840.5" font-family="Helvetica,sans-Serif" font-size="10.00">+</text>
<text xml:space="preserve" text-anchor="start" x="253.12" y="-840.5" font-family="Helvetica,sans-Serif" font-size="10.00">cerca()</text>
<text xml:space="preserve" text-anchor="start" x="224.44" y="-824.5" font-family="Helvetica,sans-Serif" font-size="10.00">#</text>
<text xml:space="preserve" text-anchor="start" x="253.12" y="-824.5" font-family="Helvetica,sans-Serif" font-size="10.00">serializza()</text>
<text xml:space="preserve" text-anchor="start" x="224.44" y="-808.5" font-family="Helvetica,sans-Serif" font-size="10.00">#</text>
<text xml:space="preserve" text-anchor="start" x="253.12" y="-808.5" font-family="Helvetica,sans-Serif" font-size="10.00">deserializza()</text>
<polygon fill="#666666" stroke="#666666" points="201,-884 201,-884 365,-884 365,-884 201,-884"/>
<polygon fill="#666666" stroke="#666666" points="201,-868 201,-868 365,-868 365,-868 201,-868"/>
<polygon fill="none" stroke="#666666" points="201,-802 201,-914 365,-914 365,-802 201,-802"/>
</a>
</g>
</g>
<!-- Node6&#45;&gt;Node3 -->
<g id="edge5_Node000003_Node000006" class="edge">
<title>Node6&#45;&gt;Node3</title>
<g id="a_edge5_Node000003_Node000006"><a xlink:title=" ">
<path fill="none" stroke="#63b8ff" d="M227.41,-802.02C212.99,-787.76 197.16,-772.11 181.74,-756.85"/>
<polygon fill="none" stroke="#63b8ff" points="181.89,-757 174.81,-755.62 173.36,-748.56 180.43,-749.94 181.89,-757"/>
</a>
</g>
<text xml:space="preserve" text-anchor="start" x="211.3" y="-771.5" font-family="Helvetica,sans-Serif" font-size="10.00" fill="grey">&#45;arcPrestiti</text>
</g>
<!-- Node8 -->
<g id="Node000008" class="node">
<title>Node8</title>
<g id="a_Node000008"><a xlink:href="classit_1_1unisa_1_1biblioteca_1_1gruppo21_1_1service_1_1_service_libri.html" target="_top" xlink:title=" ">
<polygon fill="white" stroke="none" points="547,-748 383,-748 383,-604 547,-604 547,-748"/>
<text xml:space="preserve" text-anchor="start" x="387" y="-734.5" font-family="Helvetica,sans-Serif" font-size="10.00">it.unisa.biblioteca.gruppo21.service.</text>
<text xml:space="preserve" text-anchor="start" x="439.5" y="-722.5" font-family="Helvetica,sans-Serif" font-size="10.00">ServiceLibri</text>
<text xml:space="preserve" text-anchor="start" x="463.5" y="-706.5" font-family="Helvetica,sans-Serif" font-size="10.00"> </text>
<text xml:space="preserve" text-anchor="start" x="406.44" y="-690.5" font-family="Helvetica,sans-Serif" font-size="10.00">+</text>
<text xml:space="preserve" text-anchor="start" x="435.88" y="-690.5" font-family="Helvetica,sans-Serif" font-size="10.00">ServiceLibri()</text>
<text xml:space="preserve" text-anchor="start" x="406.44" y="-674.5" font-family="Helvetica,sans-Serif" font-size="10.00">+</text>
<text xml:space="preserve" text-anchor="start" x="435.88" y="-674.5" font-family="Helvetica,sans-Serif" font-size="10.00">aggiungi()</text>
<text xml:space="preserve" text-anchor="start" x="406.44" y="-658.5" font-family="Helvetica,sans-Serif" font-size="10.00">+</text>
<text xml:space="preserve" text-anchor="start" x="435.88" y="-658.5" font-family="Helvetica,sans-Serif" font-size="10.00">aggiornaCopie()</text>
<text xml:space="preserve" text-anchor="start" x="406.44" y="-642.5" font-family="Helvetica,sans-Serif" font-size="10.00">+</text>
<text xml:space="preserve" text-anchor="start" x="435.88" y="-642.5" font-family="Helvetica,sans-Serif" font-size="10.00">rimuovi()</text>
<text xml:space="preserve" text-anchor="start" x="406.44" y="-626.5" font-family="Helvetica,sans-Serif" font-size="10.00">+</text>
<text xml:space="preserve" text-anchor="start" x="435.88" y="-626.5" font-family="Helvetica,sans-Serif" font-size="10.00">cerca()</text>
<text xml:space="preserve" text-anchor="start" x="406.44" y="-610.5" font-family="Helvetica,sans-Serif" font-size="10.00">+</text>
<text xml:space="preserve" text-anchor="start" x="435.88" y="-610.5" font-family="Helvetica,sans-Serif" font-size="10.00">getLista()</text>
<polygon fill="#bfbfbf" stroke="#bfbfbf" points="383,-718 383,-718 547,-718 547,-718 383,-718"/>
<polygon fill="#bfbfbf" stroke="#bfbfbf" points="383,-702 383,-702 547,-702 547,-702 383,-702"/>
<polygon fill="none" stroke="#bfbfbf" points="383,-604 383,-748 547,-748 547,-604 383,-604"/>
</a>
</g>
</g>
<!-- Node6&#45;&gt;Node8 -->
<g id="edge10_Node000008_Node000006" class="edge">
<title>Node6&#45;&gt;Node8</title>
<g id="a_edge10_Node000008_Node000006"><a xlink:title=" ">
<path fill="none" stroke="#63b8ff" d="M326.6,-802.26C337.08,-789.98 348.5,-777.26 359.75,-766 364.23,-761.51 368.92,-757 373.71,-752.51"/>
<polygon fill="none" stroke="#63b8ff" points="373.54,-752.67 375.25,-745.66 382.38,-744.55 380.66,-751.55 373.54,-752.67"/>
</a>
</g>
<text xml:space="preserve" text-anchor="start" x="362.75" y="-771.5" font-family="Helvetica,sans-Serif" font-size="10.00" fill="grey">&#45;arcPrestiti</text>
</g>
<!-- Node6&#45;&gt;Node11 -->
<g id="edge12_Node000011_Node000006" class="edge">
<title>Node6&#45;&gt;Node11</title>
<g id="a_edge12_Node000011_Node000006"><a xlink:title=" ">
<path fill="none" stroke="#63b8ff" d="M283,-802.02C283,-786.52 283,-769.37 283,-752.88"/>
<polygon fill="none" stroke="#63b8ff" points="283,-752.74 279,-746.74 283,-740.74 287,-746.74 283,-752.74"/>
</a>
</g>
<text xml:space="preserve" text-anchor="start" x="286" y="-771.5" font-family="Helvetica,sans-Serif" font-size="10.00" fill="grey">&#45;arcPrestiti</text>
</g>
<!-- Node7 -->
<g id="Node000007" class="node">
<title>Node7</title>
<g id="a_Node000007"><a xlink:href="classit_1_1unisa_1_1biblioteca_1_1gruppo21_1_1archive_1_1_archive_astratto.html" target="_top" xlink:title=" ">
<polygon fill="white" stroke="none" points="365,-1143 201,-1143 201,-951 365,-951 365,-1143"/>
<text xml:space="preserve" text-anchor="start" x="205" y="-1129.5" font-family="Helvetica,sans-Serif" font-size="10.00">it.unisa.biblioteca.gruppo21.archive.</text>
<text xml:space="preserve" text-anchor="start" x="223.38" y="-1117.5" font-family="Helvetica,sans-Serif" font-size="10.00">ArchiveAstratto&lt; Prestito &gt;</text>
<text xml:space="preserve" text-anchor="start" x="223.5" y="-1101.5" font-family="Helvetica,sans-Serif" font-size="10.00">#</text>
<text xml:space="preserve" text-anchor="start" x="251.25" y="-1101.5" font-family="Helvetica,sans-Serif" font-size="10.00">cache</text>
<text xml:space="preserve" text-anchor="start" x="223.5" y="-1085.5" font-family="Helvetica,sans-Serif" font-size="10.00">#</text>
<text xml:space="preserve" text-anchor="start" x="251.25" y="-1085.5" font-family="Helvetica,sans-Serif" font-size="10.00">file</text>
<text xml:space="preserve" text-anchor="start" x="223.12" y="-1069.5" font-family="Helvetica,sans-Serif" font-size="10.00">+</text>
<text xml:space="preserve" text-anchor="start" x="251.25" y="-1069.5" font-family="Helvetica,sans-Serif" font-size="10.00">ArchiveAstratto()</text>
<text xml:space="preserve" text-anchor="start" x="223.12" y="-1053.5" font-family="Helvetica,sans-Serif" font-size="10.00">+</text>
<text xml:space="preserve" text-anchor="start" x="251.25" y="-1053.5" font-family="Helvetica,sans-Serif" font-size="10.00">cerca()</text>
<text xml:space="preserve" text-anchor="start" x="223.12" y="-1037.5" font-family="Helvetica,sans-Serif" font-size="10.00">+</text>
<text xml:space="preserve" text-anchor="start" x="251.25" y="-1037.5" font-family="Helvetica,sans-Serif" font-size="10.00">aggiungi()</text>
<text xml:space="preserve" text-anchor="start" x="223.12" y="-1021.5" font-family="Helvetica,sans-Serif" font-size="10.00">+</text>
<text xml:space="preserve" text-anchor="start" x="251.25" y="-1021.5" font-family="Helvetica,sans-Serif" font-size="10.00">cancella()</text>
<text xml:space="preserve" text-anchor="start" x="223.12" y="-1005.5" font-family="Helvetica,sans-Serif" font-size="10.00">+</text>
<text xml:space="preserve" text-anchor="start" x="251.25" y="-1005.5" font-family="Helvetica,sans-Serif" font-size="10.00">leggiTutti()</text>
<text xml:space="preserve" text-anchor="start" x="223.5" y="-989.5" font-family="Helvetica,sans-Serif" font-size="10.00">#</text>
<text xml:space="preserve" text-anchor="start" x="251.25" y="-989.5" font-family="Helvetica,sans-Serif" font-size="10.00">serializza()</text>
<text xml:space="preserve" text-anchor="start" x="223.5" y="-973.5" font-family="Helvetica,sans-Serif" font-size="10.00">#</text>
<text xml:space="preserve" text-anchor="start" x="251.25" y="-973.5" font-family="Helvetica,sans-Serif" font-size="10.00">deserializza()</text>
<text xml:space="preserve" text-anchor="start" x="223.5" y="-957.5" font-family="Helvetica,sans-Serif" font-size="10.00">#</text>
<text xml:space="preserve" text-anchor="start" x="251.25" y="-957.5" font-family="Helvetica,sans-Serif" font-size="10.00">salvaTutto()</text>
<polygon fill="#666666" stroke="#666666" points="201,-1113 201,-1113 365,-1113 365,-1113 201,-1113"/>
<polygon fill="#666666" stroke="#666666" points="201,-1081 201,-1081 249.25,-1081 249.25,-1081 201,-1081"/>
<polygon fill="#666666" stroke="#666666" points="249.25,-1081 249.25,-1081 365,-1081 365,-1081 249.25,-1081"/>
<polygon fill="none" stroke="#666666" points="201,-951 201,-1143 365,-1143 365,-951 201,-951"/>
</a>
</g>
</g>
<!-- Node7&#45;&gt;Node6 -->
<g id="edge6_Node000006_Node000007" class="edge">
<title>Node7&#45;&gt;Node6</title>
<g id="a_edge6_Node000006_Node000007"><a xlink:title=" ">
<path fill="none" stroke="#63b8ff" d="M283,-939.73C283,-930.78 283,-921.99 283,-913.69"/>
<polygon fill="none" stroke="#63b8ff" points="279.5,-939.62 283,-949.62 286.5,-939.62 279.5,-939.62"/>
</a>
</g>
</g>
<!-- Node8&#45;&gt;Node2 -->
<g id="edge7_Node000002_Node000008" class="edge">
<title>Node8&#45;&gt;Node2</title>
<g id="a_edge7_Node000002_Node000008"><a xlink:title=" ">
<path fill="none" stroke="#63b8ff" d="M415.51,-604.3C402.03,-585.04 387.01,-563.58 372.05,-542.22"/>
<polygon fill="none" stroke="#63b8ff" points="372.12,-542.32 365.4,-539.69 365.24,-532.48 371.96,-535.11 372.12,-542.32"/>
</a>
</g>
<text xml:space="preserve" text-anchor="start" x="403.94" y="-573.5" font-family="Helvetica,sans-Serif" font-size="10.00" fill="grey">&#45;serviceLibri</text>
</g>
<!-- Node9 -->
<g id="Node000009" class="node">
<title>Node9</title>
<g id="a_Node000009"><a xlink:href="classit_1_1unisa_1_1biblioteca_1_1gruppo21_1_1archive_1_1_archive_libri.html" target="_top" xlink:title=" ">
<polygon fill="white" stroke="none" points="564,-914 400,-914 400,-802 564,-802 564,-914"/>
<text xml:space="preserve" text-anchor="start" x="404" y="-900.5" font-family="Helvetica,sans-Serif" font-size="10.00">it.unisa.biblioteca.gruppo21.archive.</text>
<text xml:space="preserve" text-anchor="start" x="456.5" y="-888.5" font-family="Helvetica,sans-Serif" font-size="10.00">ArchiveLibri</text>
<text xml:space="preserve" text-anchor="start" x="480.5" y="-872.5" font-family="Helvetica,sans-Serif" font-size="10.00"> </text>
<text xml:space="preserve" text-anchor="start" x="426.06" y="-856.5" font-family="Helvetica,sans-Serif" font-size="10.00">+</text>
<text xml:space="preserve" text-anchor="start" x="458.12" y="-856.5" font-family="Helvetica,sans-Serif" font-size="10.00">ArchiveLibri()</text>
<text xml:space="preserve" text-anchor="start" x="426.06" y="-840.5" font-family="Helvetica,sans-Serif" font-size="10.00">+</text>
<text xml:space="preserve" text-anchor="start" x="458.12" y="-840.5" font-family="Helvetica,sans-Serif" font-size="10.00">cerca()</text>
<text xml:space="preserve" text-anchor="start" x="426.44" y="-824.5" font-family="Helvetica,sans-Serif" font-size="10.00">#</text>
<text xml:space="preserve" text-anchor="start" x="458.12" y="-824.5" font-family="Helvetica,sans-Serif" font-size="10.00">serializza()</text>
<text xml:space="preserve" text-anchor="start" x="426.44" y="-808.5" font-family="Helvetica,sans-Serif" font-size="10.00">#</text>
<text xml:space="preserve" text-anchor="start" x="458.12" y="-808.5" font-family="Helvetica,sans-Serif" font-size="10.00">deserializza()</text>
<polygon fill="#666666" stroke="#666666" points="400,-884 400,-884 564,-884 564,-884 400,-884"/>
<polygon fill="#666666" stroke="#666666" points="400,-868 400,-868 564,-868 564,-868 400,-868"/>
<polygon fill="none" stroke="#666666" points="400,-802 400,-914 564,-914 564,-802 400,-802"/>
</a>
</g>
</g>
<!-- Node9&#45;&gt;Node8 -->
<g id="edge8_Node000008_Node000009" class="edge">
<title>Node9&#45;&gt;Node8</title>
<g id="a_edge8_Node000008_Node000009"><a xlink:title=" ">
<path fill="none" stroke="#63b8ff" d="M479.69,-802.09C478.99,-790.18 478.1,-777.66 477,-766 476.83,-764.25 476.66,-762.48 476.48,-760.7"/>
<polygon fill="none" stroke="#63b8ff" points="476.48,-760.69 471.85,-755.16 475.17,-748.76 479.8,-754.29 476.48,-760.69"/>
</a>
</g>
<text xml:space="preserve" text-anchor="start" x="481.45" y="-771.5" font-family="Helvetica,sans-Serif" font-size="10.00" fill="grey">&#45;arcLibri</text>
</g>
<!-- Node9&#45;&gt;Node11 -->
<g id="edge13_Node000011_Node000009" class="edge">
<title>Node9&#45;&gt;Node11</title>
<g id="a_edge13_Node000011_Node000009"><a xlink:title=" ">
<path fill="none" stroke="#63b8ff" d="M447.26,-802.15C437.3,-789.19 425.67,-776.19 413,-766 398.12,-754.04 390.3,-757.94 374,-748 373.35,-747.6 372.69,-747.2 372.03,-746.79"/>
<polygon fill="none" stroke="#63b8ff" points="372.21,-746.91 365,-747.01 362.13,-740.39 369.34,-740.29 372.21,-746.91"/>
</a>
</g>
<text xml:space="preserve" text-anchor="start" x="434.13" y="-771.5" font-family="Helvetica,sans-Serif" font-size="10.00" fill="grey">&#45;arcLibri</text>
</g>
<!-- Node10 -->
<g id="Node000010" class="node">
<title>Node10</title>
<g id="a_Node000010"><a xlink:href="classit_1_1unisa_1_1biblioteca_1_1gruppo21_1_1archive_1_1_archive_astratto.html" target="_top" xlink:title=" ">
<polygon fill="white" stroke="none" points="564,-1143 400,-1143 400,-951 564,-951 564,-1143"/>
<text xml:space="preserve" text-anchor="start" x="404" y="-1129.5" font-family="Helvetica,sans-Serif" font-size="10.00">it.unisa.biblioteca.gruppo21.archive.</text>
<text xml:space="preserve" text-anchor="start" x="428.75" y="-1117.5" font-family="Helvetica,sans-Serif" font-size="10.00">ArchiveAstratto&lt; Libro &gt;</text>
<text xml:space="preserve" text-anchor="start" x="422.5" y="-1101.5" font-family="Helvetica,sans-Serif" font-size="10.00">#</text>
<text xml:space="preserve" text-anchor="start" x="450.25" y="-1101.5" font-family="Helvetica,sans-Serif" font-size="10.00">cache</text>
<text xml:space="preserve" text-anchor="start" x="422.5" y="-1085.5" font-family="Helvetica,sans-Serif" font-size="10.00">#</text>
<text xml:space="preserve" text-anchor="start" x="450.25" y="-1085.5" font-family="Helvetica,sans-Serif" font-size="10.00">file</text>
<text xml:space="preserve" text-anchor="start" x="422.12" y="-1069.5" font-family="Helvetica,sans-Serif" font-size="10.00">+</text>
<text xml:space="preserve" text-anchor="start" x="450.25" y="-1069.5" font-family="Helvetica,sans-Serif" font-size="10.00">ArchiveAstratto()</text>
<text xml:space="preserve" text-anchor="start" x="422.12" y="-1053.5" font-family="Helvetica,sans-Serif" font-size="10.00">+</text>
<text xml:space="preserve" text-anchor="start" x="450.25" y="-1053.5" font-family="Helvetica,sans-Serif" font-size="10.00">cerca()</text>
<text xml:space="preserve" text-anchor="start" x="422.12" y="-1037.5" font-family="Helvetica,sans-Serif" font-size="10.00">+</text>
<text xml:space="preserve" text-anchor="start" x="450.25" y="-1037.5" font-family="Helvetica,sans-Serif" font-size="10.00">aggiungi()</text>
<text xml:space="preserve" text-anchor="start" x="422.12" y="-1021.5" font-family="Helvetica,sans-Serif" font-size="10.00">+</text>
<text xml:space="preserve" text-anchor="start" x="450.25" y="-1021.5" font-family="Helvetica,sans-Serif" font-size="10.00">cancella()</text>
<text xml:space="preserve" text-anchor="start" x="422.12" y="-1005.5" font-family="Helvetica,sans-Serif" font-size="10.00">+</text>
<text xml:space="preserve" text-anchor="start" x="450.25" y="-1005.5" font-family="Helvetica,sans-Serif" font-size="10.00">leggiTutti()</text>
<text xml:space="preserve" text-anchor="start" x="422.5" y="-989.5" font-family="Helvetica,sans-Serif" font-size="10.00">#</text>
<text xml:space="preserve" text-anchor="start" x="450.25" y="-989.5" font-family="Helvetica,sans-Serif" font-size="10.00">serializza()</text>
<text xml:space="preserve" text-anchor="start" x="422.5" y="-973.5" font-family="Helvetica,sans-Serif" font-size="10.00">#</text>
<text xml:space="preserve" text-anchor="start" x="450.25" y="-973.5" font-family="Helvetica,sans-Serif" font-size="10.00">deserializza()</text>
<text xml:space="preserve" text-anchor="start" x="422.5" y="-957.5" font-family="Helvetica,sans-Serif" font-size="10.00">#</text>
<text xml:space="preserve" text-anchor="start" x="450.25" y="-957.5" font-family="Helvetica,sans-Serif" font-size="10.00">salvaTutto()</text>
<polygon fill="#666666" stroke="#666666" points="400,-1113 400,-1113 564,-1113 564,-1113 400,-1113"/>
<polygon fill="#666666" stroke="#666666" points="400,-1081 400,-1081 448.25,-1081 448.25,-1081 400,-1081"/>
<polygon fill="#666666" stroke="#666666" points="448.25,-1081 448.25,-1081 564,-1081 564,-1081 448.25,-1081"/>
<polygon fill="none" stroke="#666666" points="400,-951 400,-1143 564,-1143 564,-951 400,-951"/>
</a>
</g>
</g>
<!-- Node10&#45;&gt;Node9 -->
<g id="edge9_Node000009_Node000010" class="edge">
<title>Node10&#45;&gt;Node9</title>
<g id="a_edge9_Node000009_Node000010"><a xlink:title=" ">
<path fill="none" stroke="#63b8ff" d="M482,-939.73C482,-930.78 482,-921.99 482,-913.69"/>
<polygon fill="none" stroke="#63b8ff" points="478.5,-939.62 482,-949.62 485.5,-939.62 478.5,-939.62"/>
</a>
</g>
</g>
<!-- Node11&#45;&gt;Node2 -->
<g id="edge11_Node000002_Node000011" class="edge">
<title>Node11&#45;&gt;Node2</title>
<g id="a_edge11_Node000002_Node000011"><a xlink:title=" ">
<path fill="none" stroke="#63b8ff" d="M283,-612.06C283,-596.9 283,-580.06 283,-562.79"/>
<polygon fill="none" stroke="#63b8ff" points="283,-562.74 279,-556.74 283,-550.74 287,-556.74 283,-562.74"/>
</a>
</g>
<text xml:space="preserve" text-anchor="start" x="286" y="-573.5" font-family="Helvetica,sans-Serif" font-size="10.00" fill="grey">&#45;servicePrestiti</text>
</g>
</g>
</svg>
