<?xml version="1.0" encoding="UTF-8" standalone="no"?>
<!DOCTYPE svg PUBLIC "-//W3C//DTD SVG 1.1//EN"
 "http://www.w3.org/Graphics/SVG/1.1/DTD/svg11.dtd">
<!-- Generated by graphviz version 14.1.0 (20251206.1807)
 -->
<!-- Title: it.unisa.biblioteca.gruppo21.service.ServicePrestiti Pages: 1 -->
<svg width="536pt" height="857pt"
 viewBox="0.00 0.00 536.00 857.00" xmlns="http://www.w3.org/2000/svg" xmlns:xlink="http://www.w3.org/1999/xlink">
<g id="graph0" class="graph" transform="scale(1 1) rotate(0) translate(4 853)">
<title>it.unisa.biblioteca.gruppo21.service.ServicePrestiti</title>
<!-- Node1 -->
<g id="Node000001" class="node">
<title>Node1</title>
<g id="a_Node000001"><a xlink:title=" ">
<polygon fill="#999999" stroke="none" points="346,-144 182,-144 182,0 346,0 346,-144"/>
<text xml:space="preserve" text-anchor="start" x="186" y="-130.5" font-family="Helvetica,sans-Serif" font-size="10.00">it.unisa.biblioteca.gruppo21.service.</text>
<text xml:space="preserve" text-anchor="start" x="232.12" y="-118.5" font-family="Helvetica,sans-Serif" font-size="10.00">ServicePrestiti</text>
<text xml:space="preserve" text-anchor="start" x="262.5" y="-102.5" font-family="Helvetica,sans-Serif" font-size="10.00"> </text>
<text xml:space="preserve" text-anchor="start" x="204.69" y="-86.5" font-family="Helvetica,sans-Serif" font-size="10.00">+</text>
<text xml:space="preserve" text-anchor="start" x="233.38" y="-86.5" font-family="Helvetica,sans-Serif" font-size="10.00">ServicePrestiti()</text>
<text xml:space="preserve" text-anchor="start" x="204.69" y="-70.5" font-family="Helvetica,sans-Serif" font-size="10.00">+</text>
<text xml:space="preserve" text-anchor="start" x="233.38" y="-70.5" font-family="Helvetica,sans-Serif" font-size="10.00">nuovoPrestito()</text>
<text xml:space="preserve" text-anchor="start" x="204.69" y="-54.5" font-family="Helvetica,sans-Serif" font-size="10.00">+</text>
<text xml:space="preserve" text-anchor="start" x="233.38" y="-54.5" font-family="Helvetica,sans-Serif" font-size="10.00">restituzione()</text>
<text xml:space="preserve" text-anchor="start" x="204.69" y="-38.5" font-family="Helvetica,sans-Serif" font-size="10.00">+</text>
<text xml:space="preserve" text-anchor="start" x="233.38" y="-38.5" font-family="Helvetica,sans-Serif" font-size="10.00">controllaRitardi()</text>
<text xml:space="preserve" text-anchor="start" x="204.69" y="-22.5" font-family="Helvetica,sans-Serif" font-size="10.00">+</text>
<text xml:space="preserve" text-anchor="start" x="233.38" y="-22.5" font-family="Helvetica,sans-Serif" font-size="10.00">getLista()</text>
<text xml:space="preserve" text-anchor="start" x="206.19" y="-6.5" font-family="Helvetica,sans-Serif" font-size="10.00">&#45;</text>
<text xml:space="preserve" text-anchor="start" x="233.38" y="-6.5" font-family="Helvetica,sans-Serif" font-size="10.00">trovaUtente()</text>
<polygon fill="#666666" stroke="#666666" points="182,-114 182,-114 346,-114 346,-114 182,-114"/>
<polygon fill="#666666" stroke="#666666" points="182,-98 182,-98 346,-98 346,-98 182,-98"/>
<polygon fill="none" stroke="#666666" points="182,0 182,-144 346,-144 346,0 182,0"/>
</a>
</g>
</g>
<!-- Node2 -->
<g id="Node000002" class="node">
<title>Node2</title>
<g id="a_Node000002"><a xlink:href="classit_1_1unisa_1_1biblioteca_1_1gruppo21_1_1archive_1_1_archive_prestiti.html" target="_top" xlink:title=" ">
<polygon fill="white" stroke="none" points="346,-310 182,-310 182,-198 346,-198 346,-310"/>
<text xml:space="preserve" text-anchor="start" x="186" y="-296.5" font-family="Helvetica,sans-Serif" font-size="10.00">it.unisa.biblioteca.gruppo21.archive.</text>
<text xml:space="preserve" text-anchor="start" x="232.12" y="-284.5" font-family="Helvetica,sans-Serif" font-size="10.00">ArchivePrestiti</text>
<text xml:space="preserve" text-anchor="start" x="262.5" y="-268.5" font-family="Helvetica,sans-Serif" font-size="10.00"> </text>
<text xml:space="preserve" text-anchor="start" x="205.06" y="-252.5" font-family="Helvetica,sans-Serif" font-size="10.00">+</text>
<text xml:space="preserve" text-anchor="start" x="234.12" y="-252.5" font-family="Helvetica,sans-Serif" font-size="10.00">ArchivePrestiti()</text>
<text xml:space="preserve" text-anchor="start" x="205.06" y="-236.5" font-family="Helvetica,sans-Serif" font-size="10.00">+</text>
<text xml:space="preserve" text-anchor="start" x="234.12" y="-236.5" font-family="Helvetica,sans-Serif" font-size="10.00">cerca()</text>
<text xml:space="preserve" text-anchor="start" x="205.44" y="-220.5" font-family="Helvetica,sans-Serif" font-size="10.00">#</text>
<text xml:space="preserve" text-anchor="start" x="234.12" y="-220.5" font-family="Helvetica,sans-Serif" font-size="10.00">serializza()</text>
<text xml:space="preserve" text-anchor="start" x="205.44" y="-204.5" font-family="Helvetica,sans-Serif" font-size="10.00">#</text>
<text xml:space="preserve" text-anchor="start" x="234.12" y="-204.5" font-family="Helvetica,sans-Serif" font-size="10.00">deserializza()</text>
<polygon fill="#666666" stroke="#666666" points="182,-280 182,-280 346,-280 346,-280 182,-280"/>
<polygon fill="#666666" stroke="#666666" points="182,-264 182,-264 346,-264 346,-264 182,-264"/>
<polygon fill="none" stroke="#666666" points="182,-198 182,-310 346,-310 346,-198 182,-198"/>
</a>
</g>
</g>
<!-- Node2&#45;&gt;Node1 -->
<g id="edge1_Node000001_Node000002" class="edge">
<title>Node2&#45;&gt;Node1</title>
<g id="a_edge1_Node000001_Node000002"><a xlink:title=" ">
<path fill="none" stroke="#63b8ff" d="M264,-198.02C264,-184.96 264,-170.73 264,-156.71"/>
<polygon fill="none" stroke="#63b8ff" points="264,-156.83 260,-150.83 264,-144.83 268,-150.83 264,-156.83"/>
</a>
</g>
<text xml:space="preserve" text-anchor="start" x="267" y="-167.5" font-family="Helvetica,sans-Serif" font-size="10.00" fill="grey">&#45;archivioPrestiti</text>
</g>
<!-- Node3 -->
<g id="Node000003" class="node">
<title>Node3</title>
<g id="a_Node000003"><a xlink:href="classit_1_1unisa_1_1biblioteca_1_1gruppo21_1_1archive_1_1_archive_astratto.html" target="_top" xlink:title=" ">
<polygon fill="white" stroke="none" points="346,-588 182,-588 182,-364 346,-364 346,-588"/>
<text xml:space="preserve" text-anchor="start" x="186" y="-574.5" font-family="Helvetica,sans-Serif" font-size="10.00">it.unisa.biblioteca.gruppo21.archive.</text>
<text xml:space="preserve" text-anchor="start" x="204.38" y="-562.5" font-family="Helvetica,sans-Serif" font-size="10.00">ArchiveAstratto&lt; Prestito &gt;</text>
<text xml:space="preserve" text-anchor="start" x="204.5" y="-546.5" font-family="Helvetica,sans-Serif" font-size="10.00">#</text>
<text xml:space="preserve" text-anchor="start" x="232.25" y="-546.5" font-family="Helvetica,sans-Serif" font-size="10.00">cache</text>
<text xml:space="preserve" text-anchor="start" x="204.5" y="-530.5" font-family="Helvetica,sans-Serif" font-size="10.00">#</text>
<text xml:space="preserve" text-anchor="start" x="232.25" y="-530.5" font-family="Helvetica,sans-Serif" font-size="10.00">file</text>
<text xml:space="preserve" text-anchor="start" x="204.12" y="-514.5" font-family="Helvetica,sans-Serif" font-size="10.00">+</text>
<text xml:space="preserve" text-anchor="start" x="232.25" y="-514.5" font-family="Helvetica,sans-Serif" font-size="10.00">ArchiveAstratto()</text>
<text xml:space="preserve" text-anchor="start" x="204.12" y="-498.5" font-family="Helvetica,sans-Serif" font-size="10.00">+</text>
<text xml:space="preserve" text-anchor="start" x="232.25" y="-498.5" font-family="Helvetica,sans-Serif" font-size="10.00">inizializzaDati()</text>
<text xml:space="preserve" text-anchor="start" x="204.12" y="-482.5" font-family="Helvetica,sans-Serif" font-size="10.00">+</text>
<text xml:space="preserve" text-anchor="start" x="232.25" y="-482.5" font-family="Helvetica,sans-Serif" font-size="10.00">cerca()</text>
<text xml:space="preserve" text-anchor="start" x="204.12" y="-466.5" font-family="Helvetica,sans-Serif" font-size="10.00">+</text>
<text xml:space="preserve" text-anchor="start" x="232.25" y="-466.5" font-family="Helvetica,sans-Serif" font-size="10.00">aggiungi()</text>
<text xml:space="preserve" text-anchor="start" x="204.12" y="-450.5" font-family="Helvetica,sans-Serif" font-size="10.00">+</text>
<text xml:space="preserve" text-anchor="start" x="232.25" y="-450.5" font-family="Helvetica,sans-Serif" font-size="10.00">cancella()</text>
<text xml:space="preserve" text-anchor="start" x="204.12" y="-434.5" font-family="Helvetica,sans-Serif" font-size="10.00">+</text>
<text xml:space="preserve" text-anchor="start" x="232.25" y="-434.5" font-family="Helvetica,sans-Serif" font-size="10.00">leggiTutti()</text>
<text xml:space="preserve" text-anchor="start" x="204.12" y="-418.5" font-family="Helvetica,sans-Serif" font-size="10.00">+</text>
<text xml:space="preserve" text-anchor="start" x="232.25" y="-418.5" font-family="Helvetica,sans-Serif" font-size="10.00">salvaTutto()</text>
<text xml:space="preserve" text-anchor="start" x="204.5" y="-402.5" font-family="Helvetica,sans-Serif" font-size="10.00">#</text>
<text xml:space="preserve" text-anchor="start" x="232.25" y="-402.5" font-family="Helvetica,sans-Serif" font-size="10.00">serializza()</text>
<text xml:space="preserve" text-anchor="start" x="204.5" y="-386.5" font-family="Helvetica,sans-Serif" font-size="10.00">#</text>
<text xml:space="preserve" text-anchor="start" x="232.25" y="-386.5" font-family="Helvetica,sans-Serif" font-size="10.00">deserializza()</text>
<text xml:space="preserve" text-anchor="start" x="205.62" y="-370.5" font-family="Helvetica,sans-Serif" font-size="10.00">&#45;</text>
<text xml:space="preserve" text-anchor="start" x="232.25" y="-370.5" font-family="Helvetica,sans-Serif" font-size="10.00">caricaDaFile()</text>
<polygon fill="#666666" stroke="#666666" points="182,-558 182,-558 346,-558 346,-558 182,-558"/>
<polygon fill="#666666" stroke="#666666" points="182,-526 182,-526 230.25,-526 230.25,-526 182,-526"/>
<polygon fill="#666666" stroke="#666666" points="230.25,-526 230.25,-526 346,-526 346,-526 230.25,-526"/>
<polygon fill="none" stroke="#666666" points="182,-364 182,-588 346,-588 346,-364 182,-364"/>
</a>
</g>
</g>
<!-- Node3&#45;&gt;Node2 -->
<g id="edge2_Node000002_Node000003" class="edge">
<title>Node3&#45;&gt;Node2</title>
<g id="a_edge2_Node000002_Node000003"><a xlink:title=" ">
<path fill="none" stroke="#63b8ff" d="M264,-352.6C264,-337.71 264,-323.12 264,-309.96"/>
<polygon fill="none" stroke="#63b8ff" points="260.5,-352.52 264,-362.52 267.5,-352.52 260.5,-352.52"/>
</a>
</g>
</g>
<!-- Node4 -->
<g id="Node000004" class="node">
<title>Node4</title>
<g id="a_Node000004"><a xlink:href="classit_1_1unisa_1_1biblioteca_1_1gruppo21_1_1archive_1_1_archive_utenti.html" target="_top" xlink:title=" ">
<polygon fill="white" stroke="none" points="164,-532 0,-532 0,-420 164,-420 164,-532"/>
<text xml:space="preserve" text-anchor="start" x="4" y="-518.5" font-family="Helvetica,sans-Serif" font-size="10.00">it.unisa.biblioteca.gruppo21.archive.</text>
<text xml:space="preserve" text-anchor="start" x="52.38" y="-506.5" font-family="Helvetica,sans-Serif" font-size="10.00">ArchiveUtenti</text>
<text xml:space="preserve" text-anchor="start" x="80.5" y="-490.5" font-family="Helvetica,sans-Serif" font-size="10.00"> </text>
<text xml:space="preserve" text-anchor="start" x="24.19" y="-474.5" font-family="Helvetica,sans-Serif" font-size="10.00">+</text>
<text xml:space="preserve" text-anchor="start" x="54.38" y="-474.5" font-family="Helvetica,sans-Serif" font-size="10.00">ArchiveUtenti()</text>
<text xml:space="preserve" text-anchor="start" x="24.19" y="-458.5" font-family="Helvetica,sans-Serif" font-size="10.00">+</text>
<text xml:space="preserve" text-anchor="start" x="54.38" y="-458.5" font-family="Helvetica,sans-Serif" font-size="10.00">cerca()</text>
<text xml:space="preserve" text-anchor="start" x="24.56" y="-442.5" font-family="Helvetica,sans-Serif" font-size="10.00">#</text>
<text xml:space="preserve" text-anchor="start" x="54.38" y="-442.5" font-family="Helvetica,sans-Serif" font-size="10.00">serializza()</text>
<text xml:space="preserve" text-anchor="start" x="24.56" y="-426.5" font-family="Helvetica,sans-Serif" font-size="10.00">#</text>
<text xml:space="preserve" text-anchor="start" x="54.38" y="-426.5" font-family="Helvetica,sans-Serif" font-size="10.00">deserializza()</text>
<polygon fill="#666666" stroke="#666666" points="0,-502 0,-502 164,-502 164,-502 0,-502"/>
<polygon fill="#666666" stroke="#666666" points="0,-486 0,-486 164,-486 164,-486 0,-486"/>
<polygon fill="none" stroke="#666666" points="0,-420 0,-532 164,-532 164,-420 0,-420"/>
</a>
</g>
</g>
<!-- Node4&#45;&gt;Node1 -->
<g id="edge8_Node000001_Node000004" class="edge">
<title>Node4&#45;&gt;Node1</title>
<g id="a_edge8_Node000001_Node000004"><a xlink:title=" ">
<path fill="none" stroke="#63b8ff" d="M73.94,-420.12C68.03,-361.48 66.58,-267.57 104,-198 119.7,-168.81 145.45,-144.2 171.75,-124.75"/>
<polygon fill="none" stroke="#63b8ff" points="171.72,-124.76 174.28,-118.02 181.49,-117.8 178.93,-124.54 171.72,-124.76"/>
</a>
</g>
<text xml:space="preserve" text-anchor="start" x="107" y="-250.5" font-family="Helvetica,sans-Serif" font-size="10.00" fill="grey">&#45;archivioUtenti</text>
</g>
<!-- Node4&#45;&gt;Node2 -->
<g id="edge3_Node000002_Node000004" class="edge">
<title>Node4&#45;&gt;Node2</title>
<g id="a_edge3_Node000002_Node000004"><a xlink:title=" ">
<path fill="none" stroke="#63b8ff" d="M119.77,-420.11C139.95,-391.83 165.79,-357.23 191,-328 193.41,-325.2 195.91,-322.38 198.47,-319.56"/>
<polygon fill="none" stroke="#63b8ff" points="198.56,-319.45 199.7,-312.33 206.71,-310.65 205.57,-317.77 198.56,-319.45"/>
</a>
</g>
<text xml:space="preserve" text-anchor="start" x="194" y="-333.5" font-family="Helvetica,sans-Serif" font-size="10.00" fill="grey">&#45;archivioUtenti</text>
</g>
<!-- Node5 -->
<g id="Node000005" class="node">
<title>Node5</title>
<g id="a_Node000005"><a xlink:href="classit_1_1unisa_1_1biblioteca_1_1gruppo21_1_1archive_1_1_archive_astratto.html" target="_top" xlink:title=" ">
<polygon fill="white" stroke="none" points="164,-849 0,-849 0,-625 164,-625 164,-849"/>
<text xml:space="preserve" text-anchor="start" x="4" y="-835.5" font-family="Helvetica,sans-Serif" font-size="10.00">it.unisa.biblioteca.gruppo21.archive.</text>
<text xml:space="preserve" text-anchor="start" x="24.62" y="-823.5" font-family="Helvetica,sans-Serif" font-size="10.00">ArchiveAstratto&lt; Utente &gt;</text>
<text xml:space="preserve" text-anchor="start" x="22.5" y="-807.5" font-family="Helvetica,sans-Serif" font-size="10.00">#</text>
<text xml:space="preserve" text-anchor="start" x="50.25" y="-807.5" font-family="Helvetica,sans-Serif" font-size="10.00">cache</text>
<text xml:space="preserve" text-anchor="start" x="22.5" y="-791.5" font-family="Helvetica,sans-Serif" font-size="10.00">#</text>
<text xml:space="preserve" text-anchor="start" x="50.25" y="-791.5" font-family="Helvetica,sans-Serif" font-size="10.00">file</text>
<text xml:space="preserve" text-anchor="start" x="22.12" y="-775.5" font-family="Helvetica,sans-Serif" font-size="10.00">+</text>
<text xml:space="preserve" text-anchor="start" x="50.25" y="-775.5" font-family="Helvetica,sans-Serif" font-size="10.00">ArchiveAstratto()</text>
<text xml:space="preserve" text-anchor="start" x="22.12" y="-759.5" font-family="Helvetica,sans-Serif" font-size="10.00">+</text>
<text xml:space="preserve" text-anchor="start" x="50.25" y="-759.5" font-family="Helvetica,sans-Serif" font-size="10.00">inizializzaDati()</text>
<text xml:space="preserve" text-anchor="start" x="22.12" y="-743.5" font-family="Helvetica,sans-Serif" font-size="10.00">+</text>
<text xml:space="preserve" text-anchor="start" x="50.25" y="-743.5" font-family="Helvetica,sans-Serif" font-size="10.00">cerca()</text>
<text xml:space="preserve" text-anchor="start" x="22.12" y="-727.5" font-family="Helvetica,sans-Serif" font-size="10.00">+</text>
<text xml:space="preserve" text-anchor="start" x="50.25" y="-727.5" font-family="Helvetica,sans-Serif" font-size="10.00">aggiungi()</text>
<text xml:space="preserve" text-anchor="start" x="22.12" y="-711.5" font-family="Helvetica,sans-Serif" font-size="10.00">+</text>
<text xml:space="preserve" text-anchor="start" x="50.25" y="-711.5" font-family="Helvetica,sans-Serif" font-size="10.00">cancella()</text>
<text xml:space="preserve" text-anchor="start" x="22.12" y="-695.5" font-family="Helvetica,sans-Serif" font-size="10.00">+</text>
<text xml:space="preserve" text-anchor="start" x="50.25" y="-695.5" font-family="Helvetica,sans-Serif" font-size="10.00">leggiTutti()</text>
<text xml:space="preserve" text-anchor="start" x="22.12" y="-679.5" font-family="Helvetica,sans-Serif" font-size="10.00">+</text>
<text xml:space="preserve" text-anchor="start" x="50.25" y="-679.5" font-family="Helvetica,sans-Serif" font-size="10.00">salvaTutto()</text>
<text xml:space="preserve" text-anchor="start" x="22.5" y="-663.5" font-family="Helvetica,sans-Serif" font-size="10.00">#</text>
<text xml:space="preserve" text-anchor="start" x="50.25" y="-663.5" font-family="Helvetica,sans-Serif" font-size="10.00">serializza()</text>
<text xml:space="preserve" text-anchor="start" x="22.5" y="-647.5" font-family="Helvetica,sans-Serif" font-size="10.00">#</text>
<text xml:space="preserve" text-anchor="start" x="50.25" y="-647.5" font-family="Helvetica,sans-Serif" font-size="10.00">deserializza()</text>
<text xml:space="preserve" text-anchor="start" x="23.62" y="-631.5" font-family="Helvetica,sans-Serif" font-size="10.00">&#45;</text>
<text xml:space="preserve" text-anchor="start" x="50.25" y="-631.5" font-family="Helvetica,sans-Serif" font-size="10.00">caricaDaFile()</text>
<polygon fill="#666666" stroke="#666666" points="0,-819 0,-819 164,-819 164,-819 0,-819"/>
<polygon fill="#666666" stroke="#666666" points="0,-787 0,-787 48.25,-787 48.25,-787 0,-787"/>
<polygon fill="#666666" stroke="#666666" points="48.25,-787 48.25,-787 164,-787 164,-787 48.25,-787"/>
<polygon fill="none" stroke="#666666" points="0,-625 0,-849 164,-849 164,-625 0,-625"/>
</a>
</g>
</g>
<!-- Node5&#45;&gt;Node4 -->
<g id="edge4_Node000004_Node000005" class="edge">
<title>Node5&#45;&gt;Node4</title>
<g id="a_edge4_Node000004_Node000005"><a xlink:title=" ">
<path fill="none" stroke="#63b8ff" d="M82,-613.64C82,-584.93 82,-555.75 82,-531.77"/>
<polygon fill="none" stroke="#63b8ff" points="78.5,-613.52 82,-623.52 85.5,-613.52 78.5,-613.52"/>
</a>
</g>
</g>
<!-- Node6 -->
<g id="Node000006" class="node">
<title>Node6</title>
<g id="a_Node000006"><a xlink:href="classit_1_1unisa_1_1biblioteca_1_1gruppo21_1_1archive_1_1_archive_libri.html" target="_top" xlink:title=" ">
<polygon fill="white" stroke="none" points="528,-532 364,-532 364,-420 528,-420 528,-532"/>
<text xml:space="preserve" text-anchor="start" x="368" y="-518.5" font-family="Helvetica,sans-Serif" font-size="10.00">it.unisa.biblioteca.gruppo21.archive.</text>
<text xml:space="preserve" text-anchor="start" x="420.5" y="-506.5" font-family="Helvetica,sans-Serif" font-size="10.00">ArchiveLibri</text>
<text xml:space="preserve" text-anchor="start" x="444.5" y="-490.5" font-family="Helvetica,sans-Serif" font-size="10.00"> </text>
<text xml:space="preserve" text-anchor="start" x="390.06" y="-474.5" font-family="Helvetica,sans-Serif" font-size="10.00">+</text>
<text xml:space="preserve" text-anchor="start" x="422.12" y="-474.5" font-family="Helvetica,sans-Serif" font-size="10.00">ArchiveLibri()</text>
<text xml:space="preserve" text-anchor="start" x="390.06" y="-458.5" font-family="Helvetica,sans-Serif" font-size="10.00">+</text>
<text xml:space="preserve" text-anchor="start" x="422.12" y="-458.5" font-family="Helvetica,sans-Serif" font-size="10.00">cerca()</text>
<text xml:space="preserve" text-anchor="start" x="390.44" y="-442.5" font-family="Helvetica,sans-Serif" font-size="10.00">#</text>
<text xml:space="preserve" text-anchor="start" x="422.12" y="-442.5" font-family="Helvetica,sans-Serif" font-size="10.00">serializza()</text>
<text xml:space="preserve" text-anchor="start" x="390.44" y="-426.5" font-family="Helvetica,sans-Serif" font-size="10.00">#</text>
<text xml:space="preserve" text-anchor="start" x="422.12" y="-426.5" font-family="Helvetica,sans-Serif" font-size="10.00">deserializza()</text>
<polygon fill="#666666" stroke="#666666" points="364,-502 364,-502 528,-502 528,-502 364,-502"/>
<polygon fill="#666666" stroke="#666666" points="364,-486 364,-486 528,-486 528,-486 364,-486"/>
<polygon fill="none" stroke="#666666" points="364,-420 364,-532 528,-532 528,-420 364,-420"/>
</a>
</g>
</g>
<!-- Node6&#45;&gt;Node1 -->
<g id="edge7_Node000001_Node000006" class="edge">
<title>Node6&#45;&gt;Node1</title>
<g id="a_edge7_Node000001_Node000006"><a xlink:title=" ">
<path fill="none" stroke="#63b8ff" d="M435.24,-420.16C420.81,-355.13 391.05,-245.1 341,-162 339.44,-159.42 337.81,-156.83 336.11,-154.26"/>
<polygon fill="none" stroke="#63b8ff" points="336.19,-154.36 329.48,-151.72 329.34,-144.51 336.05,-147.15 336.19,-154.36"/>
</a>
</g>
<text xml:space="preserve" text-anchor="start" x="407.92" y="-250.5" font-family="Helvetica,sans-Serif" font-size="10.00" fill="grey">&#45;archivioLibri</text>
</g>
<!-- Node6&#45;&gt;Node2 -->
<g id="edge5_Node000002_Node000006" class="edge">
<title>Node6&#45;&gt;Node2</title>
<g id="a_edge5_Node000002_Node000006"><a xlink:title=" ">
<path fill="none" stroke="#63b8ff" d="M401.68,-420.23C386.95,-402.22 370.38,-382.16 355,-364 348.13,-355.89 346.14,-354.1 339.25,-346 332.01,-337.49 324.45,-328.48 317.02,-319.57"/>
<polygon fill="none" stroke="#63b8ff" points="316.96,-319.5 310.05,-317.45 309.29,-310.27 316.21,-312.33 316.96,-319.5"/>
</a>
</g>
<text xml:space="preserve" text-anchor="start" x="342.25" y="-333.5" font-family="Helvetica,sans-Serif" font-size="10.00" fill="grey">&#45;archivioLibri</text>
</g>
<!-- Node7 -->
<g id="Node000007" class="node">
<title>Node7</title>
<g id="a_Node000007"><a xlink:href="classit_1_1unisa_1_1biblioteca_1_1gruppo21_1_1archive_1_1_archive_astratto.html" target="_top" xlink:title=" ">
<polygon fill="white" stroke="none" points="528,-849 364,-849 364,-625 528,-625 528,-849"/>
<text xml:space="preserve" text-anchor="start" x="368" y="-835.5" font-family="Helvetica,sans-Serif" font-size="10.00">it.unisa.biblioteca.gruppo21.archive.</text>
<text xml:space="preserve" text-anchor="start" x="392.75" y="-823.5" font-family="Helvetica,sans-Serif" font-size="10.00">ArchiveAstratto&lt; Libro &gt;</text>
<text xml:space="preserve" text-anchor="start" x="386.5" y="-807.5" font-family="Helvetica,sans-Serif" font-size="10.00">#</text>
<text xml:space="preserve" text-anchor="start" x="414.25" y="-807.5" font-family="Helvetica,sans-Serif" font-size="10.00">cache</text>
<text xml:space="preserve" text-anchor="start" x="386.5" y="-791.5" font-family="Helvetica,sans-Serif" font-size="10.00">#</text>
<text xml:space="preserve" text-anchor="start" x="414.25" y="-791.5" font-family="Helvetica,sans-Serif" font-size="10.00">file</text>
<text xml:space="preserve" text-anchor="start" x="386.12" y="-775.5" font-family="Helvetica,sans-Serif" font-size="10.00">+</text>
<text xml:space="preserve" text-anchor="start" x="414.25" y="-775.5" font-family="Helvetica,sans-Serif" font-size="10.00">ArchiveAstratto()</text>
<text xml:space="preserve" text-anchor="start" x="386.12" y="-759.5" font-family="Helvetica,sans-Serif" font-size="10.00">+</text>
<text xml:space="preserve" text-anchor="start" x="414.25" y="-759.5" font-family="Helvetica,sans-Serif" font-size="10.00">inizializzaDati()</text>
<text xml:space="preserve" text-anchor="start" x="386.12" y="-743.5" font-family="Helvetica,sans-Serif" font-size="10.00">+</text>
<text xml:space="preserve" text-anchor="start" x="414.25" y="-743.5" font-family="Helvetica,sans-Serif" font-size="10.00">cerca()</text>
<text xml:space="preserve" text-anchor="start" x="386.12" y="-727.5" font-family="Helvetica,sans-Serif" font-size="10.00">+</text>
<text xml:space="preserve" text-anchor="start" x="414.25" y="-727.5" font-family="Helvetica,sans-Serif" font-size="10.00">aggiungi()</text>
<text xml:space="preserve" text-anchor="start" x="386.12" y="-711.5" font-family="Helvetica,sans-Serif" font-size="10.00">+</text>
<text xml:space="preserve" text-anchor="start" x="414.25" y="-711.5" font-family="Helvetica,sans-Serif" font-size="10.00">cancella()</text>
<text xml:space="preserve" text-anchor="start" x="386.12" y="-695.5" font-family="Helvetica,sans-Serif" font-size="10.00">+</text>
<text xml:space="preserve" text-anchor="start" x="414.25" y="-695.5" font-family="Helvetica,sans-Serif" font-size="10.00">leggiTutti()</text>
<text xml:space="preserve" text-anchor="start" x="386.12" y="-679.5" font-family="Helvetica,sans-Serif" font-size="10.00">+</text>
<text xml:space="preserve" text-anchor="start" x="414.25" y="-679.5" font-family="Helvetica,sans-Serif" font-size="10.00">salvaTutto()</text>
<text xml:space="preserve" text-anchor="start" x="386.5" y="-663.5" font-family="Helvetica,sans-Serif" font-size="10.00">#</text>
<text xml:space="preserve" text-anchor="start" x="414.25" y="-663.5" font-family="Helvetica,sans-Serif" font-size="10.00">serializza()</text>
<text xml:space="preserve" text-anchor="start" x="386.5" y="-647.5" font-family="Helvetica,sans-Serif" font-size="10.00">#</text>
<text xml:space="preserve" text-anchor="start" x="414.25" y="-647.5" font-family="Helvetica,sans-Serif" font-size="10.00">deserializza()</text>
<text xml:space="preserve" text-anchor="start" x="387.62" y="-631.5" font-family="Helvetica,sans-Serif" font-size="10.00">&#45;</text>
<text xml:space="preserve" text-anchor="start" x="414.25" y="-631.5" font-family="Helvetica,sans-Serif" font-size="10.00">caricaDaFile()</text>
<polygon fill="#666666" stroke="#666666" points="364,-819 364,-819 528,-819 528,-819 364,-819"/>
<polygon fill="#666666" stroke="#666666" points="364,-787 364,-787 412.25,-787 412.25,-787 364,-787"/>
<polygon fill="#666666" stroke="#666666" points="412.25,-787 412.25,-787 528,-787 528,-787 412.25,-787"/>
<polygon fill="none" stroke="#666666" points="364,-625 364,-849 528,-849 528,-625 364,-625"/>
</a>
</g>
</g>
<!-- Node7&#45;&gt;Node6 -->
<g id="edge6_Node000006_Node000007" class="edge">
<title>Node7&#45;&gt;Node6</title>
<g id="a_edge6_Node000006_Node000007"><a xlink:title=" ">
<path fill="none" stroke="#63b8ff" d="M446,-613.64C446,-584.93 446,-555.75 446,-531.77"/>
<polygon fill="none" stroke="#63b8ff" points="442.5,-613.52 446,-623.52 449.5,-613.52 442.5,-613.52"/>
</a>
</g>
</g>
</g>
</svg>
