<?xml version="1.0" encoding="UTF-8" standalone="no"?>
<!DOCTYPE svg PUBLIC "-//W3C//DTD SVG 1.1//EN"
 "http://www.w3.org/Graphics/SVG/1.1/DTD/svg11.dtd">
<!-- Generated by graphviz version 14.1.0 (20251206.1807)
 -->
<!-- Title: it.unisa.biblioteca.gruppo21.gui.ViewPrestitiController Pages: 1 -->
<svg width="153pt" height="412pt"
 viewBox="0.00 0.00 153.00 412.00" xmlns="http://www.w3.org/2000/svg" xmlns:xlink="http://www.w3.org/1999/xlink">
<g id="graph0" class="graph" transform="scale(1 1) rotate(0) translate(4 408)">
<title>it.unisa.biblioteca.gruppo21.gui.ViewPrestitiController</title>
<!-- Node1 -->
<g id="Node000001" class="node">
<title>Node1</title>
<g id="a_Node000001"><a xlink:title=" ">
<polygon fill="#999999" stroke="none" points="145.25,-288 0,-288 0,0 145.25,0 145.25,-288"/>
<text xml:space="preserve" text-anchor="start" x="4" y="-274.5" font-family="Helvetica,sans-Serif" font-size="10.00">it.unisa.biblioteca.gruppo21.gui.</text>
<text xml:space="preserve" text-anchor="start" x="25.38" y="-262.5" font-family="Helvetica,sans-Serif" font-size="10.00">ViewPrestitiController</text>
<text xml:space="preserve" text-anchor="start" x="11.81" y="-246.5" font-family="Helvetica,sans-Serif" font-size="10.00">&#45;</text>
<text xml:space="preserve" text-anchor="start" x="26.62" y="-246.5" font-family="Helvetica,sans-Serif" font-size="10.00">formatter</text>
<text xml:space="preserve" text-anchor="start" x="11.81" y="-230.5" font-family="Helvetica,sans-Serif" font-size="10.00">&#45;</text>
<text xml:space="preserve" text-anchor="start" x="26.62" y="-230.5" font-family="Helvetica,sans-Serif" font-size="10.00">txtIdentificativoUtente</text>
<text xml:space="preserve" text-anchor="start" x="11.81" y="-214.5" font-family="Helvetica,sans-Serif" font-size="10.00">&#45;</text>
<text xml:space="preserve" text-anchor="start" x="26.62" y="-214.5" font-family="Helvetica,sans-Serif" font-size="10.00">txtIsbnPrestito</text>
<text xml:space="preserve" text-anchor="start" x="11.81" y="-198.5" font-family="Helvetica,sans-Serif" font-size="10.00">&#45;</text>
<text xml:space="preserve" text-anchor="start" x="26.62" y="-198.5" font-family="Helvetica,sans-Serif" font-size="10.00">pickerScadenza</text>
<text xml:space="preserve" text-anchor="start" x="11.81" y="-182.5" font-family="Helvetica,sans-Serif" font-size="10.00">&#45;</text>
<text xml:space="preserve" text-anchor="start" x="26.62" y="-182.5" font-family="Helvetica,sans-Serif" font-size="10.00">tablePrestiti</text>
<text xml:space="preserve" text-anchor="start" x="11.81" y="-166.5" font-family="Helvetica,sans-Serif" font-size="10.00">&#45;</text>
<text xml:space="preserve" text-anchor="start" x="26.62" y="-166.5" font-family="Helvetica,sans-Serif" font-size="10.00">colMatricolaUtente</text>
<text xml:space="preserve" text-anchor="start" x="11.81" y="-150.5" font-family="Helvetica,sans-Serif" font-size="10.00">&#45;</text>
<text xml:space="preserve" text-anchor="start" x="26.62" y="-150.5" font-family="Helvetica,sans-Serif" font-size="10.00">colNomeUtente</text>
<text xml:space="preserve" text-anchor="start" x="11.81" y="-134.5" font-family="Helvetica,sans-Serif" font-size="10.00">&#45;</text>
<text xml:space="preserve" text-anchor="start" x="26.62" y="-134.5" font-family="Helvetica,sans-Serif" font-size="10.00">colCognomeUtente</text>
<text xml:space="preserve" text-anchor="start" x="11.81" y="-118.5" font-family="Helvetica,sans-Serif" font-size="10.00">&#45;</text>
<text xml:space="preserve" text-anchor="start" x="26.62" y="-118.5" font-family="Helvetica,sans-Serif" font-size="10.00">colIsbnLibro</text>
<text xml:space="preserve" text-anchor="start" x="11.81" y="-102.5" font-family="Helvetica,sans-Serif" font-size="10.00">&#45;</text>
<text xml:space="preserve" text-anchor="start" x="26.62" y="-102.5" font-family="Helvetica,sans-Serif" font-size="10.00">colTitoloLibro</text>
<text xml:space="preserve" text-anchor="start" x="11.81" y="-86.5" font-family="Helvetica,sans-Serif" font-size="10.00">&#45;</text>
<text xml:space="preserve" text-anchor="start" x="26.62" y="-86.5" font-family="Helvetica,sans-Serif" font-size="10.00">colDataScadenza</text>
<text xml:space="preserve" text-anchor="start" x="11.81" y="-70.5" font-family="Helvetica,sans-Serif" font-size="10.00">&#45;</text>
<text xml:space="preserve" text-anchor="start" x="26.62" y="-70.5" font-family="Helvetica,sans-Serif" font-size="10.00">colStato</text>
<text xml:space="preserve" text-anchor="start" x="10.31" y="-54.5" font-family="Helvetica,sans-Serif" font-size="10.00">+</text>
<text xml:space="preserve" text-anchor="start" x="26.62" y="-54.5" font-family="Helvetica,sans-Serif" font-size="10.00">initialize()</text>
<text xml:space="preserve" text-anchor="start" x="10.69" y="-38.5" font-family="Helvetica,sans-Serif" font-size="10.00">#</text>
<text xml:space="preserve" text-anchor="start" x="26.62" y="-38.5" font-family="Helvetica,sans-Serif" font-size="10.00">aggiornaTabella()</text>
<text xml:space="preserve" text-anchor="start" x="11.81" y="-22.5" font-family="Helvetica,sans-Serif" font-size="10.00">&#45;</text>
<text xml:space="preserve" text-anchor="start" x="26.62" y="-22.5" font-family="Helvetica,sans-Serif" font-size="10.00">handleEffettuaPrestito()</text>
<text xml:space="preserve" text-anchor="start" x="11.81" y="-6.5" font-family="Helvetica,sans-Serif" font-size="10.00">&#45;</text>
<text xml:space="preserve" text-anchor="start" x="26.62" y="-6.5" font-family="Helvetica,sans-Serif" font-size="10.00">handleRestituzione()</text>
<polygon fill="#666666" stroke="#666666" points="0,-258 0,-258 145.25,-258 145.25,-258 0,-258"/>
<polygon fill="#666666" stroke="#666666" points="0,-66 0,-66 24.62,-66 24.62,-66 0,-66"/>
<polygon fill="#666666" stroke="#666666" points="24.62,-66 24.62,-66 145.25,-66 145.25,-66 24.62,-66"/>
<polygon fill="none" stroke="#666666" points="0,0 0,-288 145.25,-288 145.25,0 0,0"/>
</a>
</g>
</g>
<!-- Node2 -->
<g id="Node000002" class="node">
<title>Node2</title>
<g id="a_Node000002"><a xlink:href="classit_1_1unisa_1_1biblioteca_1_1gruppo21_1_1gui_1_1_abstract_view_controller.html" target="_top" xlink:title=" ">
<polygon fill="white" stroke="none" points="145.25,-404 0,-404 0,-324 145.25,-324 145.25,-404"/>
<text xml:space="preserve" text-anchor="start" x="4" y="-390.5" font-family="Helvetica,sans-Serif" font-size="10.00">it.unisa.biblioteca.gruppo21.gui.</text>
<text xml:space="preserve" text-anchor="start" x="22.38" y="-378.5" font-family="Helvetica,sans-Serif" font-size="10.00">AbstractViewController</text>
<text xml:space="preserve" text-anchor="start" x="15" y="-362.5" font-family="Helvetica,sans-Serif" font-size="10.00">#</text>
<text xml:space="preserve" text-anchor="start" x="35.25" y="-362.5" font-family="Helvetica,sans-Serif" font-size="10.00">logicController</text>
<text xml:space="preserve" text-anchor="start" x="14.62" y="-346.5" font-family="Helvetica,sans-Serif" font-size="10.00">+</text>
<text xml:space="preserve" text-anchor="start" x="35.25" y="-346.5" font-family="Helvetica,sans-Serif" font-size="10.00">setLogicController()</text>
<text xml:space="preserve" text-anchor="start" x="15" y="-330.5" font-family="Helvetica,sans-Serif" font-size="10.00">#</text>
<text xml:space="preserve" text-anchor="start" x="35.25" y="-330.5" font-family="Helvetica,sans-Serif" font-size="10.00">aggiornaTabella()</text>
<polygon fill="#666666" stroke="#666666" points="0,-374 0,-374 145.25,-374 145.25,-374 0,-374"/>
<polygon fill="#666666" stroke="#666666" points="0,-358 0,-358 33.25,-358 33.25,-358 0,-358"/>
<polygon fill="#666666" stroke="#666666" points="33.25,-358 33.25,-358 145.25,-358 145.25,-358 33.25,-358"/>
<polygon fill="none" stroke="#666666" points="0,-324 0,-404 145.25,-404 145.25,-324 0,-324"/>
</a>
</g>
</g>
<!-- Node2&#45;&gt;Node1 -->
<g id="edge1_Node000001_Node000002" class="edge">
<title>Node2&#45;&gt;Node1</title>
<g id="a_edge1_Node000001_Node000002"><a xlink:title=" ">
<path fill="none" stroke="#63b8ff" d="M72.62,-312.66C72.62,-304.86 72.62,-296.49 72.62,-287.81"/>
<polygon fill="none" stroke="#63b8ff" points="69.13,-312.51 72.63,-322.51 76.13,-312.51 69.13,-312.51"/>
</a>
</g>
</g>
</g>
</svg>
