<?xml version="1.0" encoding="UTF-8" standalone="no"?>
<!DOCTYPE svg PUBLIC "-//W3C//DTD SVG 1.1//EN"
 "http://www.w3.org/Graphics/SVG/1.1/DTD/svg11.dtd">
<!-- Generated by graphviz version 14.1.0 (20251206.1807)
 -->
<!-- Title: it.unisa.biblioteca.gruppo21.entity.Libro Pages: 1 -->
<svg width="164pt" height="384pt"
 viewBox="0.00 0.00 164.00 384.00" xmlns="http://www.w3.org/2000/svg" xmlns:xlink="http://www.w3.org/1999/xlink">
<g id="graph0" class="graph" transform="scale(1 1) rotate(0) translate(4 380)">
<title>it.unisa.biblioteca.gruppo21.entity.Libro</title>
<!-- Node1 -->
<g id="Node000001" class="node">
<title>Node1</title>
<g id="a_Node000001"><a xlink:title=" ">
<polygon fill="#999999" stroke="none" points="155.75,-288 0,-288 0,0 155.75,0 155.75,-288"/>
<text xml:space="preserve" text-anchor="start" x="4" y="-274.5" font-family="Helvetica,sans-Serif" font-size="10.00">it.unisa.biblioteca.gruppo21.entity.</text>
<text xml:space="preserve" text-anchor="start" x="67.38" y="-262.5" font-family="Helvetica,sans-Serif" font-size="10.00">Libro</text>
<text xml:space="preserve" text-anchor="start" x="8.81" y="-246.5" font-family="Helvetica,sans-Serif" font-size="10.00">&#45;</text>
<text xml:space="preserve" text-anchor="start" x="20.62" y="-246.5" font-family="Helvetica,sans-Serif" font-size="10.00">titolo</text>
<text xml:space="preserve" text-anchor="start" x="8.81" y="-230.5" font-family="Helvetica,sans-Serif" font-size="10.00">&#45;</text>
<text xml:space="preserve" text-anchor="start" x="20.62" y="-230.5" font-family="Helvetica,sans-Serif" font-size="10.00">autore</text>
<text xml:space="preserve" text-anchor="start" x="8.81" y="-214.5" font-family="Helvetica,sans-Serif" font-size="10.00">&#45;</text>
<text xml:space="preserve" text-anchor="start" x="20.62" y="-214.5" font-family="Helvetica,sans-Serif" font-size="10.00">codiceISBN</text>
<text xml:space="preserve" text-anchor="start" x="8.81" y="-198.5" font-family="Helvetica,sans-Serif" font-size="10.00">&#45;</text>
<text xml:space="preserve" text-anchor="start" x="20.62" y="-198.5" font-family="Helvetica,sans-Serif" font-size="10.00">annoPubblicazione</text>
<text xml:space="preserve" text-anchor="start" x="8.81" y="-182.5" font-family="Helvetica,sans-Serif" font-size="10.00">&#45;</text>
<text xml:space="preserve" text-anchor="start" x="20.62" y="-182.5" font-family="Helvetica,sans-Serif" font-size="10.00">numeroCopieDisponibili</text>
<text xml:space="preserve" text-anchor="start" x="7.31" y="-166.5" font-family="Helvetica,sans-Serif" font-size="10.00">+</text>
<text xml:space="preserve" text-anchor="start" x="20.62" y="-166.5" font-family="Helvetica,sans-Serif" font-size="10.00">Libro()</text>
<text xml:space="preserve" text-anchor="start" x="7.31" y="-150.5" font-family="Helvetica,sans-Serif" font-size="10.00">+</text>
<text xml:space="preserve" text-anchor="start" x="20.62" y="-150.5" font-family="Helvetica,sans-Serif" font-size="10.00">getTitolo()</text>
<text xml:space="preserve" text-anchor="start" x="7.31" y="-134.5" font-family="Helvetica,sans-Serif" font-size="10.00">+</text>
<text xml:space="preserve" text-anchor="start" x="20.62" y="-134.5" font-family="Helvetica,sans-Serif" font-size="10.00">getAutore()</text>
<text xml:space="preserve" text-anchor="start" x="7.31" y="-118.5" font-family="Helvetica,sans-Serif" font-size="10.00">+</text>
<text xml:space="preserve" text-anchor="start" x="20.62" y="-118.5" font-family="Helvetica,sans-Serif" font-size="10.00">getCodiceISBN()</text>
<text xml:space="preserve" text-anchor="start" x="7.31" y="-102.5" font-family="Helvetica,sans-Serif" font-size="10.00">+</text>
<text xml:space="preserve" text-anchor="start" x="20.62" y="-102.5" font-family="Helvetica,sans-Serif" font-size="10.00">getAnnoPubblicazione()</text>
<text xml:space="preserve" text-anchor="start" x="7.31" y="-86.5" font-family="Helvetica,sans-Serif" font-size="10.00">+</text>
<text xml:space="preserve" text-anchor="start" x="20.62" y="-86.5" font-family="Helvetica,sans-Serif" font-size="10.00">getNumeroCopieDisponibili()</text>
<text xml:space="preserve" text-anchor="start" x="7.31" y="-70.5" font-family="Helvetica,sans-Serif" font-size="10.00">+</text>
<text xml:space="preserve" text-anchor="start" x="20.62" y="-70.5" font-family="Helvetica,sans-Serif" font-size="10.00">setNumeroCopieDisponibili()</text>
<text xml:space="preserve" text-anchor="start" x="7.31" y="-54.5" font-family="Helvetica,sans-Serif" font-size="10.00">+</text>
<text xml:space="preserve" text-anchor="start" x="20.62" y="-54.5" font-family="Helvetica,sans-Serif" font-size="10.00">toString()</text>
<text xml:space="preserve" text-anchor="start" x="7.31" y="-38.5" font-family="Helvetica,sans-Serif" font-size="10.00">+</text>
<text xml:space="preserve" text-anchor="start" x="20.62" y="-38.5" font-family="Helvetica,sans-Serif" font-size="10.00">hashCode()</text>
<text xml:space="preserve" text-anchor="start" x="7.31" y="-22.5" font-family="Helvetica,sans-Serif" font-size="10.00">+</text>
<text xml:space="preserve" text-anchor="start" x="20.62" y="-22.5" font-family="Helvetica,sans-Serif" font-size="10.00">equals()</text>
<text xml:space="preserve" text-anchor="start" x="7.31" y="-6.5" font-family="Helvetica,sans-Serif" font-size="10.00">+</text>
<text xml:space="preserve" text-anchor="start" x="20.62" y="-6.5" font-family="Helvetica,sans-Serif" font-size="10.00">compareTo()</text>
<polygon fill="#666666" stroke="#666666" points="0,-258 0,-258 155.75,-258 155.75,-258 0,-258"/>
<polygon fill="#666666" stroke="#666666" points="0,-178 0,-178 18.62,-178 18.62,-178 0,-178"/>
<polygon fill="#666666" stroke="#666666" points="18.62,-178 18.62,-178 155.75,-178 155.75,-178 18.62,-178"/>
<polygon fill="none" stroke="#666666" points="0,0 0,-288 155.75,-288 155.75,0 0,0"/>
</a>
</g>
</g>
<!-- Node2 -->
<g id="Node000002" class="node">
<title>Node2</title>
<g id="a_Node000002"><a xlink:title=" ">
<polygon fill="white" stroke="none" points="127.62,-376 28.12,-376 28.12,-324 127.62,-324 127.62,-376"/>
<text xml:space="preserve" text-anchor="start" x="32.12" y="-362.5" font-family="Helvetica,sans-Serif" font-size="10.00">Comparable&lt; Libro &gt;</text>
<text xml:space="preserve" text-anchor="start" x="76.38" y="-346.5" font-family="Helvetica,sans-Serif" font-size="10.00"> </text>
<text xml:space="preserve" text-anchor="start" x="76.38" y="-330.5" font-family="Helvetica,sans-Serif" font-size="10.00"> </text>
<polygon fill="#bfbfbf" stroke="#bfbfbf" points="28.12,-358 28.12,-358 127.62,-358 127.62,-358 28.12,-358"/>
<polygon fill="#bfbfbf" stroke="#bfbfbf" points="28.12,-342 28.12,-342 127.62,-342 127.62,-342 28.12,-342"/>
<polygon fill="none" stroke="#bfbfbf" points="28.12,-324 28.12,-376 127.62,-376 127.62,-324 28.12,-324"/>
</a>
</g>
</g>
<!-- Node2&#45;&gt;Node1 -->
<g id="edge1_Node000001_Node000002" class="edge">
<title>Node2&#45;&gt;Node1</title>
<g id="a_edge1_Node000001_Node000002"><a xlink:title=" ">
<path fill="none" stroke="#63b8ff" d="M77.88,-313.07C77.88,-305.37 77.88,-296.79 77.88,-287.69"/>
<polygon fill="none" stroke="#63b8ff" points="74.38,-312.88 77.88,-322.88 81.38,-312.88 74.38,-312.88"/>
</a>
</g>
</g>
</g>
</svg>
