<?xml version="1.0" encoding="UTF-8" standalone="no"?>
<!DOCTYPE svg PUBLIC "-//W3C//DTD SVG 1.1//EN"
 "http://www.w3.org/Graphics/SVG/1.1/DTD/svg11.dtd">
<!-- Generated by graphviz version 14.1.0 (20251206.1807)
 -->
<!-- Title: it.unisa.biblioteca.gruppo21.service.ServicePrestiti Pages: 1 -->
<svg width="536pt" height="531pt"
 viewBox="0.00 0.00 536.00 531.00" xmlns="http://www.w3.org/2000/svg" xmlns:xlink="http://www.w3.org/1999/xlink">
<g id="graph0" class="graph" transform="scale(1 1) rotate(0) translate(4 527)">
<title>it.unisa.biblioteca.gruppo21.service.ServicePrestiti</title>
<!-- Node1 -->
<g id="Node000001" class="node">
<title>Node1</title>
<g id="a_Node000001"><a xlink:title=" ">
<polygon fill="#999999" stroke="none" points="346,-128 182,-128 182,0 346,0 346,-128"/>
<text xml:space="preserve" text-anchor="start" x="186" y="-114.5" font-family="Helvetica,sans-Serif" font-size="10.00">it.unisa.biblioteca.gruppo21.service.</text>
<text xml:space="preserve" text-anchor="start" x="232.12" y="-102.5" font-family="Helvetica,sans-Serif" font-size="10.00">ServicePrestiti</text>
<text xml:space="preserve" text-anchor="start" x="262.5" y="-86.5" font-family="Helvetica,sans-Serif" font-size="10.00"> </text>
<text xml:space="preserve" text-anchor="start" x="204.69" y="-70.5" font-family="Helvetica,sans-Serif" font-size="10.00">+</text>
<text xml:space="preserve" text-anchor="start" x="233.38" y="-70.5" font-family="Helvetica,sans-Serif" font-size="10.00">ServicePrestiti()</text>
<text xml:space="preserve" text-anchor="start" x="204.69" y="-54.5" font-family="Helvetica,sans-Serif" font-size="10.00">+</text>
<text xml:space="preserve" text-anchor="start" x="233.38" y="-54.5" font-family="Helvetica,sans-Serif" font-size="10.00">nuovoPrestito()</text>
<text xml:space="preserve" text-anchor="start" x="204.69" y="-38.5" font-family="Helvetica,sans-Serif" font-size="10.00">+</text>
<text xml:space="preserve" text-anchor="start" x="233.38" y="-38.5" font-family="Helvetica,sans-Serif" font-size="10.00">restituzione()</text>
<text xml:space="preserve" text-anchor="start" x="204.69" y="-22.5" font-family="Helvetica,sans-Serif" font-size="10.00">+</text>
<text xml:space="preserve" text-anchor="start" x="233.38" y="-22.5" font-family="Helvetica,sans-Serif" font-size="10.00">controllaRitardi()</text>
<text xml:space="preserve" text-anchor="start" x="204.69" y="-6.5" font-family="Helvetica,sans-Serif" font-size="10.00">+</text>
<text xml:space="preserve" text-anchor="start" x="233.38" y="-6.5" font-family="Helvetica,sans-Serif" font-size="10.00">getLista()</text>
<polygon fill="#666666" stroke="#666666" points="182,-98 182,-98 346,-98 346,-98 182,-98"/>
<polygon fill="#666666" stroke="#666666" points="182,-82 182,-82 346,-82 346,-82 182,-82"/>
<polygon fill="none" stroke="#666666" points="182,0 182,-128 346,-128 346,0 182,0"/>
</a>
</g>
</g>
<!-- Node2 -->
<g id="Node000002" class="node">
<title>Node2</title>
<g id="a_Node000002"><a xlink:href="classit_1_1unisa_1_1biblioteca_1_1gruppo21_1_1archive_1_1_archive_prestiti.html" target="_top" xlink:title=" ">
<polygon fill="white" stroke="none" points="164,-294 0,-294 0,-182 164,-182 164,-294"/>
<text xml:space="preserve" text-anchor="start" x="4" y="-280.5" font-family="Helvetica,sans-Serif" font-size="10.00">it.unisa.biblioteca.gruppo21.archive.</text>
<text xml:space="preserve" text-anchor="start" x="50.12" y="-268.5" font-family="Helvetica,sans-Serif" font-size="10.00">ArchivePrestiti</text>
<text xml:space="preserve" text-anchor="start" x="80.5" y="-252.5" font-family="Helvetica,sans-Serif" font-size="10.00"> </text>
<text xml:space="preserve" text-anchor="start" x="23.06" y="-236.5" font-family="Helvetica,sans-Serif" font-size="10.00">+</text>
<text xml:space="preserve" text-anchor="start" x="52.12" y="-236.5" font-family="Helvetica,sans-Serif" font-size="10.00">ArchivePrestiti()</text>
<text xml:space="preserve" text-anchor="start" x="23.06" y="-220.5" font-family="Helvetica,sans-Serif" font-size="10.00">+</text>
<text xml:space="preserve" text-anchor="start" x="52.12" y="-220.5" font-family="Helvetica,sans-Serif" font-size="10.00">cerca()</text>
<text xml:space="preserve" text-anchor="start" x="23.44" y="-204.5" font-family="Helvetica,sans-Serif" font-size="10.00">#</text>
<text xml:space="preserve" text-anchor="start" x="52.12" y="-204.5" font-family="Helvetica,sans-Serif" font-size="10.00">serializza()</text>
<text xml:space="preserve" text-anchor="start" x="23.44" y="-188.5" font-family="Helvetica,sans-Serif" font-size="10.00">#</text>
<text xml:space="preserve" text-anchor="start" x="52.12" y="-188.5" font-family="Helvetica,sans-Serif" font-size="10.00">deserializza()</text>
<polygon fill="#666666" stroke="#666666" points="0,-264 0,-264 164,-264 164,-264 0,-264"/>
<polygon fill="#666666" stroke="#666666" points="0,-248 0,-248 164,-248 164,-248 0,-248"/>
<polygon fill="none" stroke="#666666" points="0,-182 0,-294 164,-294 164,-182 0,-182"/>
</a>
</g>
</g>
<!-- Node2&#45;&gt;Node1 -->
<g id="edge1_Node000001_Node000002" class="edge">
<title>Node2&#45;&gt;Node1</title>
<g id="a_edge1_Node000001_Node000002"><a xlink:title=" ">
<path fill="none" stroke="#63b8ff" d="M140.09,-182.11C155.39,-167.64 172.13,-151.82 188.22,-136.62"/>
<polygon fill="none" stroke="#63b8ff" points="188.23,-136.61 189.84,-129.58 196.95,-128.37 195.33,-135.4 188.23,-136.61"/>
</a>
</g>
<text xml:space="preserve" text-anchor="start" x="176" y="-151.5" font-family="Helvetica,sans-Serif" font-size="10.00" fill="grey">&#45;arcPrestiti</text>
</g>
<!-- Node3 -->
<g id="Node000003" class="node">
<title>Node3</title>
<g id="a_Node000003"><a xlink:href="classit_1_1unisa_1_1biblioteca_1_1gruppo21_1_1archive_1_1_archive_astratto.html" target="_top" xlink:title=" ">
<polygon fill="white" stroke="none" points="164,-523 0,-523 0,-331 164,-331 164,-523"/>
<text xml:space="preserve" text-anchor="start" x="4" y="-509.5" font-family="Helvetica,sans-Serif" font-size="10.00">it.unisa.biblioteca.gruppo21.archive.</text>
<text xml:space="preserve" text-anchor="start" x="22.38" y="-497.5" font-family="Helvetica,sans-Serif" font-size="10.00">ArchiveAstratto&lt; Prestito &gt;</text>
<text xml:space="preserve" text-anchor="start" x="22.5" y="-481.5" font-family="Helvetica,sans-Serif" font-size="10.00">#</text>
<text xml:space="preserve" text-anchor="start" x="50.25" y="-481.5" font-family="Helvetica,sans-Serif" font-size="10.00">cache</text>
<text xml:space="preserve" text-anchor="start" x="22.5" y="-465.5" font-family="Helvetica,sans-Serif" font-size="10.00">#</text>
<text xml:space="preserve" text-anchor="start" x="50.25" y="-465.5" font-family="Helvetica,sans-Serif" font-size="10.00">file</text>
<text xml:space="preserve" text-anchor="start" x="22.12" y="-449.5" font-family="Helvetica,sans-Serif" font-size="10.00">+</text>
<text xml:space="preserve" text-anchor="start" x="50.25" y="-449.5" font-family="Helvetica,sans-Serif" font-size="10.00">ArchiveAstratto()</text>
<text xml:space="preserve" text-anchor="start" x="22.12" y="-433.5" font-family="Helvetica,sans-Serif" font-size="10.00">+</text>
<text xml:space="preserve" text-anchor="start" x="50.25" y="-433.5" font-family="Helvetica,sans-Serif" font-size="10.00">cerca()</text>
<text xml:space="preserve" text-anchor="start" x="22.12" y="-417.5" font-family="Helvetica,sans-Serif" font-size="10.00">+</text>
<text xml:space="preserve" text-anchor="start" x="50.25" y="-417.5" font-family="Helvetica,sans-Serif" font-size="10.00">aggiungi()</text>
<text xml:space="preserve" text-anchor="start" x="22.12" y="-401.5" font-family="Helvetica,sans-Serif" font-size="10.00">+</text>
<text xml:space="preserve" text-anchor="start" x="50.25" y="-401.5" font-family="Helvetica,sans-Serif" font-size="10.00">cancella()</text>
<text xml:space="preserve" text-anchor="start" x="22.12" y="-385.5" font-family="Helvetica,sans-Serif" font-size="10.00">+</text>
<text xml:space="preserve" text-anchor="start" x="50.25" y="-385.5" font-family="Helvetica,sans-Serif" font-size="10.00">leggiTutti()</text>
<text xml:space="preserve" text-anchor="start" x="22.5" y="-369.5" font-family="Helvetica,sans-Serif" font-size="10.00">#</text>
<text xml:space="preserve" text-anchor="start" x="50.25" y="-369.5" font-family="Helvetica,sans-Serif" font-size="10.00">serializza()</text>
<text xml:space="preserve" text-anchor="start" x="22.5" y="-353.5" font-family="Helvetica,sans-Serif" font-size="10.00">#</text>
<text xml:space="preserve" text-anchor="start" x="50.25" y="-353.5" font-family="Helvetica,sans-Serif" font-size="10.00">deserializza()</text>
<text xml:space="preserve" text-anchor="start" x="22.5" y="-337.5" font-family="Helvetica,sans-Serif" font-size="10.00">#</text>
<text xml:space="preserve" text-anchor="start" x="50.25" y="-337.5" font-family="Helvetica,sans-Serif" font-size="10.00">salvaTutto()</text>
<polygon fill="#666666" stroke="#666666" points="0,-493 0,-493 164,-493 164,-493 0,-493"/>
<polygon fill="#666666" stroke="#666666" points="0,-461 0,-461 48.25,-461 48.25,-461 0,-461"/>
<polygon fill="#666666" stroke="#666666" points="48.25,-461 48.25,-461 164,-461 164,-461 48.25,-461"/>
<polygon fill="none" stroke="#666666" points="0,-331 0,-523 164,-523 164,-331 0,-331"/>
</a>
</g>
</g>
<!-- Node3&#45;&gt;Node2 -->
<g id="edge2_Node000002_Node000003" class="edge">
<title>Node3&#45;&gt;Node2</title>
<g id="a_edge2_Node000002_Node000003"><a xlink:title=" ">
<path fill="none" stroke="#63b8ff" d="M82,-319.73C82,-310.78 82,-301.99 82,-293.69"/>
<polygon fill="none" stroke="#63b8ff" points="78.5,-319.62 82,-329.62 85.5,-319.62 78.5,-319.62"/>
</a>
</g>
</g>
<!-- Node4 -->
<g id="Node000004" class="node">
<title>Node4</title>
<g id="a_Node000004"><a xlink:href="classit_1_1unisa_1_1biblioteca_1_1gruppo21_1_1archive_1_1_archive_libri.html" target="_top" xlink:title=" ">
<polygon fill="white" stroke="none" points="346,-294 182,-294 182,-182 346,-182 346,-294"/>
<text xml:space="preserve" text-anchor="start" x="186" y="-280.5" font-family="Helvetica,sans-Serif" font-size="10.00">it.unisa.biblioteca.gruppo21.archive.</text>
<text xml:space="preserve" text-anchor="start" x="238.5" y="-268.5" font-family="Helvetica,sans-Serif" font-size="10.00">ArchiveLibri</text>
<text xml:space="preserve" text-anchor="start" x="262.5" y="-252.5" font-family="Helvetica,sans-Serif" font-size="10.00"> </text>
<text xml:space="preserve" text-anchor="start" x="208.06" y="-236.5" font-family="Helvetica,sans-Serif" font-size="10.00">+</text>
<text xml:space="preserve" text-anchor="start" x="240.12" y="-236.5" font-family="Helvetica,sans-Serif" font-size="10.00">ArchiveLibri()</text>
<text xml:space="preserve" text-anchor="start" x="208.06" y="-220.5" font-family="Helvetica,sans-Serif" font-size="10.00">+</text>
<text xml:space="preserve" text-anchor="start" x="240.12" y="-220.5" font-family="Helvetica,sans-Serif" font-size="10.00">cerca()</text>
<text xml:space="preserve" text-anchor="start" x="208.44" y="-204.5" font-family="Helvetica,sans-Serif" font-size="10.00">#</text>
<text xml:space="preserve" text-anchor="start" x="240.12" y="-204.5" font-family="Helvetica,sans-Serif" font-size="10.00">serializza()</text>
<text xml:space="preserve" text-anchor="start" x="208.44" y="-188.5" font-family="Helvetica,sans-Serif" font-size="10.00">#</text>
<text xml:space="preserve" text-anchor="start" x="240.12" y="-188.5" font-family="Helvetica,sans-Serif" font-size="10.00">deserializza()</text>
<polygon fill="#666666" stroke="#666666" points="182,-264 182,-264 346,-264 346,-264 182,-264"/>
<polygon fill="#666666" stroke="#666666" points="182,-248 182,-248 346,-248 346,-248 182,-248"/>
<polygon fill="none" stroke="#666666" points="182,-182 182,-294 346,-294 346,-182 182,-182"/>
</a>
</g>
</g>
<!-- Node4&#45;&gt;Node1 -->
<g id="edge3_Node000001_Node000004" class="edge">
<title>Node4&#45;&gt;Node1</title>
<g id="a_edge3_Node000001_Node000004"><a xlink:title=" ">
<path fill="none" stroke="#63b8ff" d="M264,-182.11C264,-168.86 264,-154.47 264,-140.46"/>
<polygon fill="none" stroke="#63b8ff" points="264,-140.65 260,-134.65 264,-128.65 268,-134.65 264,-140.65"/>
</a>
</g>
<text xml:space="preserve" text-anchor="start" x="267" y="-151.5" font-family="Helvetica,sans-Serif" font-size="10.00" fill="grey">&#45;arcLibri</text>
</g>
<!-- Node5 -->
<g id="Node000005" class="node">
<title>Node5</title>
<g id="a_Node000005"><a xlink:href="classit_1_1unisa_1_1biblioteca_1_1gruppo21_1_1archive_1_1_archive_astratto.html" target="_top" xlink:title=" ">
<polygon fill="white" stroke="none" points="346,-523 182,-523 182,-331 346,-331 346,-523"/>
<text xml:space="preserve" text-anchor="start" x="186" y="-509.5" font-family="Helvetica,sans-Serif" font-size="10.00">it.unisa.biblioteca.gruppo21.archive.</text>
<text xml:space="preserve" text-anchor="start" x="210.75" y="-497.5" font-family="Helvetica,sans-Serif" font-size="10.00">ArchiveAstratto&lt; Libro &gt;</text>
<text xml:space="preserve" text-anchor="start" x="204.5" y="-481.5" font-family="Helvetica,sans-Serif" font-size="10.00">#</text>
<text xml:space="preserve" text-anchor="start" x="232.25" y="-481.5" font-family="Helvetica,sans-Serif" font-size="10.00">cache</text>
<text xml:space="preserve" text-anchor="start" x="204.5" y="-465.5" font-family="Helvetica,sans-Serif" font-size="10.00">#</text>
<text xml:space="preserve" text-anchor="start" x="232.25" y="-465.5" font-family="Helvetica,sans-Serif" font-size="10.00">file</text>
<text xml:space="preserve" text-anchor="start" x="204.12" y="-449.5" font-family="Helvetica,sans-Serif" font-size="10.00">+</text>
<text xml:space="preserve" text-anchor="start" x="232.25" y="-449.5" font-family="Helvetica,sans-Serif" font-size="10.00">ArchiveAstratto()</text>
<text xml:space="preserve" text-anchor="start" x="204.12" y="-433.5" font-family="Helvetica,sans-Serif" font-size="10.00">+</text>
<text xml:space="preserve" text-anchor="start" x="232.25" y="-433.5" font-family="Helvetica,sans-Serif" font-size="10.00">cerca()</text>
<text xml:space="preserve" text-anchor="start" x="204.12" y="-417.5" font-family="Helvetica,sans-Serif" font-size="10.00">+</text>
<text xml:space="preserve" text-anchor="start" x="232.25" y="-417.5" font-family="Helvetica,sans-Serif" font-size="10.00">aggiungi()</text>
<text xml:space="preserve" text-anchor="start" x="204.12" y="-401.5" font-family="Helvetica,sans-Serif" font-size="10.00">+</text>
<text xml:space="preserve" text-anchor="start" x="232.25" y="-401.5" font-family="Helvetica,sans-Serif" font-size="10.00">cancella()</text>
<text xml:space="preserve" text-anchor="start" x="204.12" y="-385.5" font-family="Helvetica,sans-Serif" font-size="10.00">+</text>
<text xml:space="preserve" text-anchor="start" x="232.25" y="-385.5" font-family="Helvetica,sans-Serif" font-size="10.00">leggiTutti()</text>
<text xml:space="preserve" text-anchor="start" x="204.5" y="-369.5" font-family="Helvetica,sans-Serif" font-size="10.00">#</text>
<text xml:space="preserve" text-anchor="start" x="232.25" y="-369.5" font-family="Helvetica,sans-Serif" font-size="10.00">serializza()</text>
<text xml:space="preserve" text-anchor="start" x="204.5" y="-353.5" font-family="Helvetica,sans-Serif" font-size="10.00">#</text>
<text xml:space="preserve" text-anchor="start" x="232.25" y="-353.5" font-family="Helvetica,sans-Serif" font-size="10.00">deserializza()</text>
<text xml:space="preserve" text-anchor="start" x="204.5" y="-337.5" font-family="Helvetica,sans-Serif" font-size="10.00">#</text>
<text xml:space="preserve" text-anchor="start" x="232.25" y="-337.5" font-family="Helvetica,sans-Serif" font-size="10.00">salvaTutto()</text>
<polygon fill="#666666" stroke="#666666" points="182,-493 182,-493 346,-493 346,-493 182,-493"/>
<polygon fill="#666666" stroke="#666666" points="182,-461 182,-461 230.25,-461 230.25,-461 182,-461"/>
<polygon fill="#666666" stroke="#666666" points="230.25,-461 230.25,-461 346,-461 346,-461 230.25,-461"/>
<polygon fill="none" stroke="#666666" points="182,-331 182,-523 346,-523 346,-331 182,-331"/>
</a>
</g>
</g>
<!-- Node5&#45;&gt;Node4 -->
<g id="edge4_Node000004_Node000005" class="edge">
<title>Node5&#45;&gt;Node4</title>
<g id="a_edge4_Node000004_Node000005"><a xlink:title=" ">
<path fill="none" stroke="#63b8ff" d="M264,-319.73C264,-310.78 264,-301.99 264,-293.69"/>
<polygon fill="none" stroke="#63b8ff" points="260.5,-319.62 264,-329.62 267.5,-319.62 260.5,-319.62"/>
</a>
</g>
</g>
<!-- Node6 -->
<g id="Node000006" class="node">
<title>Node6</title>
<g id="a_Node000006"><a xlink:href="classit_1_1unisa_1_1biblioteca_1_1gruppo21_1_1archive_1_1_archive_utenti.html" target="_top" xlink:title=" ">
<polygon fill="white" stroke="none" points="528,-294 364,-294 364,-182 528,-182 528,-294"/>
<text xml:space="preserve" text-anchor="start" x="368" y="-280.5" font-family="Helvetica,sans-Serif" font-size="10.00">it.unisa.biblioteca.gruppo21.archive.</text>
<text xml:space="preserve" text-anchor="start" x="416.38" y="-268.5" font-family="Helvetica,sans-Serif" font-size="10.00">ArchiveUtenti</text>
<text xml:space="preserve" text-anchor="start" x="444.5" y="-252.5" font-family="Helvetica,sans-Serif" font-size="10.00"> </text>
<text xml:space="preserve" text-anchor="start" x="388.19" y="-236.5" font-family="Helvetica,sans-Serif" font-size="10.00">+</text>
<text xml:space="preserve" text-anchor="start" x="418.38" y="-236.5" font-family="Helvetica,sans-Serif" font-size="10.00">ArchiveUtenti()</text>
<text xml:space="preserve" text-anchor="start" x="388.19" y="-220.5" font-family="Helvetica,sans-Serif" font-size="10.00">+</text>
<text xml:space="preserve" text-anchor="start" x="418.38" y="-220.5" font-family="Helvetica,sans-Serif" font-size="10.00">cerca()</text>
<text xml:space="preserve" text-anchor="start" x="388.56" y="-204.5" font-family="Helvetica,sans-Serif" font-size="10.00">#</text>
<text xml:space="preserve" text-anchor="start" x="418.38" y="-204.5" font-family="Helvetica,sans-Serif" font-size="10.00">serializza()</text>
<text xml:space="preserve" text-anchor="start" x="388.56" y="-188.5" font-family="Helvetica,sans-Serif" font-size="10.00">#</text>
<text xml:space="preserve" text-anchor="start" x="418.38" y="-188.5" font-family="Helvetica,sans-Serif" font-size="10.00">deserializza()</text>
<polygon fill="#666666" stroke="#666666" points="364,-264 364,-264 528,-264 528,-264 364,-264"/>
<polygon fill="#666666" stroke="#666666" points="364,-248 364,-248 528,-248 528,-248 364,-248"/>
<polygon fill="none" stroke="#666666" points="364,-182 364,-294 528,-294 528,-182 364,-182"/>
</a>
</g>
</g>
<!-- Node6&#45;&gt;Node1 -->
<g id="edge5_Node000001_Node000006" class="edge">
<title>Node6&#45;&gt;Node1</title>
<g id="a_edge5_Node000001_Node000006"><a xlink:title=" ">
<path fill="none" stroke="#63b8ff" d="M387.91,-182.11C372.61,-167.64 355.87,-151.82 339.78,-136.62"/>
<polygon fill="none" stroke="#63b8ff" points="339.77,-136.61 332.67,-135.4 331.05,-128.37 338.16,-129.58 339.77,-136.61"/>
</a>
</g>
<text xml:space="preserve" text-anchor="start" x="368.9" y="-151.5" font-family="Helvetica,sans-Serif" font-size="10.00" fill="grey">&#45;arcUtenti</text>
</g>
<!-- Node7 -->
<g id="Node000007" class="node">
<title>Node7</title>
<g id="a_Node000007"><a xlink:href="classit_1_1unisa_1_1biblioteca_1_1gruppo21_1_1archive_1_1_archive_astratto.html" target="_top" xlink:title=" ">
<polygon fill="white" stroke="none" points="528,-523 364,-523 364,-331 528,-331 528,-523"/>
<text xml:space="preserve" text-anchor="start" x="368" y="-509.5" font-family="Helvetica,sans-Serif" font-size="10.00">it.unisa.biblioteca.gruppo21.archive.</text>
<text xml:space="preserve" text-anchor="start" x="388.62" y="-497.5" font-family="Helvetica,sans-Serif" font-size="10.00">ArchiveAstratto&lt; Utente &gt;</text>
<text xml:space="preserve" text-anchor="start" x="386.5" y="-481.5" font-family="Helvetica,sans-Serif" font-size="10.00">#</text>
<text xml:space="preserve" text-anchor="start" x="414.25" y="-481.5" font-family="Helvetica,sans-Serif" font-size="10.00">cache</text>
<text xml:space="preserve" text-anchor="start" x="386.5" y="-465.5" font-family="Helvetica,sans-Serif" font-size="10.00">#</text>
<text xml:space="preserve" text-anchor="start" x="414.25" y="-465.5" font-family="Helvetica,sans-Serif" font-size="10.00">file</text>
<text xml:space="preserve" text-anchor="start" x="386.12" y="-449.5" font-family="Helvetica,sans-Serif" font-size="10.00">+</text>
<text xml:space="preserve" text-anchor="start" x="414.25" y="-449.5" font-family="Helvetica,sans-Serif" font-size="10.00">ArchiveAstratto()</text>
<text xml:space="preserve" text-anchor="start" x="386.12" y="-433.5" font-family="Helvetica,sans-Serif" font-size="10.00">+</text>
<text xml:space="preserve" text-anchor="start" x="414.25" y="-433.5" font-family="Helvetica,sans-Serif" font-size="10.00">cerca()</text>
<text xml:space="preserve" text-anchor="start" x="386.12" y="-417.5" font-family="Helvetica,sans-Serif" font-size="10.00">+</text>
<text xml:space="preserve" text-anchor="start" x="414.25" y="-417.5" font-family="Helvetica,sans-Serif" font-size="10.00">aggiungi()</text>
<text xml:space="preserve" text-anchor="start" x="386.12" y="-401.5" font-family="Helvetica,sans-Serif" font-size="10.00">+</text>
<text xml:space="preserve" text-anchor="start" x="414.25" y="-401.5" font-family="Helvetica,sans-Serif" font-size="10.00">cancella()</text>
<text xml:space="preserve" text-anchor="start" x="386.12" y="-385.5" font-family="Helvetica,sans-Serif" font-size="10.00">+</text>
<text xml:space="preserve" text-anchor="start" x="414.25" y="-385.5" font-family="Helvetica,sans-Serif" font-size="10.00">leggiTutti()</text>
<text xml:space="preserve" text-anchor="start" x="386.5" y="-369.5" font-family="Helvetica,sans-Serif" font-size="10.00">#</text>
<text xml:space="preserve" text-anchor="start" x="414.25" y="-369.5" font-family="Helvetica,sans-Serif" font-size="10.00">serializza()</text>
<text xml:space="preserve" text-anchor="start" x="386.5" y="-353.5" font-family="Helvetica,sans-Serif" font-size="10.00">#</text>
<text xml:space="preserve" text-anchor="start" x="414.25" y="-353.5" font-family="Helvetica,sans-Serif" font-size="10.00">deserializza()</text>
<text xml:space="preserve" text-anchor="start" x="386.5" y="-337.5" font-family="Helvetica,sans-Serif" font-size="10.00">#</text>
<text xml:space="preserve" text-anchor="start" x="414.25" y="-337.5" font-family="Helvetica,sans-Serif" font-size="10.00">salvaTutto()</text>
<polygon fill="#666666" stroke="#666666" points="364,-493 364,-493 528,-493 528,-493 364,-493"/>
<polygon fill="#666666" stroke="#666666" points="364,-461 364,-461 412.25,-461 412.25,-461 364,-461"/>
<polygon fill="#666666" stroke="#666666" points="412.25,-461 412.25,-461 528,-461 528,-461 412.25,-461"/>
<polygon fill="none" stroke="#666666" points="364,-331 364,-523 528,-523 528,-331 364,-331"/>
</a>
</g>
</g>
<!-- Node7&#45;&gt;Node6 -->
<g id="edge6_Node000006_Node000007" class="edge">
<title>Node7&#45;&gt;Node6</title>
<g id="a_edge6_Node000006_Node000007"><a xlink:title=" ">
<path fill="none" stroke="#63b8ff" d="M446,-319.73C446,-310.78 446,-301.99 446,-293.69"/>
<polygon fill="none" stroke="#63b8ff" points="442.5,-319.62 446,-329.62 449.5,-319.62 442.5,-319.62"/>
</a>
</g>
</g>
</g>
</svg>
