<?xml version="1.0" encoding="UTF-8" standalone="no"?>
<!DOCTYPE svg PUBLIC "-//W3C//DTD SVG 1.1//EN"
 "http://www.w3.org/Graphics/SVG/1.1/DTD/svg11.dtd">
<!-- Generated by graphviz version 14.1.0 (20251206.1807)
 -->
<!-- Title: it.unisa.biblioteca.gruppo21.service.Biblioteca Pages: 1 -->
<svg width="583pt" height="1199pt"
 viewBox="0.00 0.00 583.00 1199.00" xmlns="http://www.w3.org/2000/svg" xmlns:xlink="http://www.w3.org/1999/xlink">
<g id="graph0" class="graph" transform="scale(1 1) rotate(0) translate(4 1195)">
<title>it.unisa.biblioteca.gruppo21.service.Biblioteca</title>
<!-- Node1 -->
<g id="Node000001" class="node">
<title>Node1</title>
<g id="a_Node000001"><a xlink:title=" ">
<polygon fill="#999999" stroke="none" points="346,-288 182,-288 182,0 346,0 346,-288"/>
<text xml:space="preserve" text-anchor="start" x="186" y="-274.5" font-family="Helvetica,sans-Serif" font-size="10.00">it.unisa.biblioteca.gruppo21.service.</text>
<text xml:space="preserve" text-anchor="start" x="242.62" y="-262.5" font-family="Helvetica,sans-Serif" font-size="10.00">Biblioteca</text>
<text xml:space="preserve" text-anchor="start" x="262.5" y="-246.5" font-family="Helvetica,sans-Serif" font-size="10.00"> </text>
<text xml:space="preserve" text-anchor="start" x="200.19" y="-230.5" font-family="Helvetica,sans-Serif" font-size="10.00">+</text>
<text xml:space="preserve" text-anchor="start" x="224.38" y="-230.5" font-family="Helvetica,sans-Serif" font-size="10.00">Biblioteca()</text>
<text xml:space="preserve" text-anchor="start" x="200.19" y="-214.5" font-family="Helvetica,sans-Serif" font-size="10.00">+</text>
<text xml:space="preserve" text-anchor="start" x="224.38" y="-214.5" font-family="Helvetica,sans-Serif" font-size="10.00">iscriviUtente()</text>
<text xml:space="preserve" text-anchor="start" x="200.19" y="-198.5" font-family="Helvetica,sans-Serif" font-size="10.00">+</text>
<text xml:space="preserve" text-anchor="start" x="224.38" y="-198.5" font-family="Helvetica,sans-Serif" font-size="10.00">modificaUtente()</text>
<text xml:space="preserve" text-anchor="start" x="200.19" y="-182.5" font-family="Helvetica,sans-Serif" font-size="10.00">+</text>
<text xml:space="preserve" text-anchor="start" x="224.38" y="-182.5" font-family="Helvetica,sans-Serif" font-size="10.00">rimuoviUtente()</text>
<text xml:space="preserve" text-anchor="start" x="200.19" y="-166.5" font-family="Helvetica,sans-Serif" font-size="10.00">+</text>
<text xml:space="preserve" text-anchor="start" x="224.38" y="-166.5" font-family="Helvetica,sans-Serif" font-size="10.00">getElencoUtenti()</text>
<text xml:space="preserve" text-anchor="start" x="200.19" y="-150.5" font-family="Helvetica,sans-Serif" font-size="10.00">+</text>
<text xml:space="preserve" text-anchor="start" x="224.38" y="-150.5" font-family="Helvetica,sans-Serif" font-size="10.00">cercaUtente()</text>
<text xml:space="preserve" text-anchor="start" x="200.19" y="-134.5" font-family="Helvetica,sans-Serif" font-size="10.00">+</text>
<text xml:space="preserve" text-anchor="start" x="224.38" y="-134.5" font-family="Helvetica,sans-Serif" font-size="10.00">aggiungiLibro()</text>
<text xml:space="preserve" text-anchor="start" x="200.19" y="-118.5" font-family="Helvetica,sans-Serif" font-size="10.00">+</text>
<text xml:space="preserve" text-anchor="start" x="224.38" y="-118.5" font-family="Helvetica,sans-Serif" font-size="10.00">aggiornaCopieLibro()</text>
<text xml:space="preserve" text-anchor="start" x="200.19" y="-102.5" font-family="Helvetica,sans-Serif" font-size="10.00">+</text>
<text xml:space="preserve" text-anchor="start" x="224.38" y="-102.5" font-family="Helvetica,sans-Serif" font-size="10.00">rimuoviLibro()</text>
<text xml:space="preserve" text-anchor="start" x="200.19" y="-86.5" font-family="Helvetica,sans-Serif" font-size="10.00">+</text>
<text xml:space="preserve" text-anchor="start" x="224.38" y="-86.5" font-family="Helvetica,sans-Serif" font-size="10.00">getElencoLibri()</text>
<text xml:space="preserve" text-anchor="start" x="200.19" y="-70.5" font-family="Helvetica,sans-Serif" font-size="10.00">+</text>
<text xml:space="preserve" text-anchor="start" x="224.38" y="-70.5" font-family="Helvetica,sans-Serif" font-size="10.00">cercaLibro()</text>
<text xml:space="preserve" text-anchor="start" x="200.19" y="-54.5" font-family="Helvetica,sans-Serif" font-size="10.00">+</text>
<text xml:space="preserve" text-anchor="start" x="224.38" y="-54.5" font-family="Helvetica,sans-Serif" font-size="10.00">effettuaPrestito()</text>
<text xml:space="preserve" text-anchor="start" x="200.19" y="-38.5" font-family="Helvetica,sans-Serif" font-size="10.00">+</text>
<text xml:space="preserve" text-anchor="start" x="224.38" y="-38.5" font-family="Helvetica,sans-Serif" font-size="10.00">restituisciLibro()</text>
<text xml:space="preserve" text-anchor="start" x="200.19" y="-22.5" font-family="Helvetica,sans-Serif" font-size="10.00">+</text>
<text xml:space="preserve" text-anchor="start" x="224.38" y="-22.5" font-family="Helvetica,sans-Serif" font-size="10.00">getStoricoPrestiti()</text>
<text xml:space="preserve" text-anchor="start" x="200.19" y="-6.5" font-family="Helvetica,sans-Serif" font-size="10.00">+</text>
<text xml:space="preserve" text-anchor="start" x="224.38" y="-6.5" font-family="Helvetica,sans-Serif" font-size="10.00">controllaRitardi()</text>
<polygon fill="#666666" stroke="#666666" points="182,-258 182,-258 346,-258 346,-258 182,-258"/>
<polygon fill="#666666" stroke="#666666" points="182,-242 182,-242 346,-242 346,-242 182,-242"/>
<polygon fill="none" stroke="#666666" points="182,0 182,-288 346,-288 346,0 182,0"/>
</a>
</g>
</g>
<!-- Node2 -->
<g id="Node000002" class="node">
<title>Node2</title>
<g id="a_Node000002"><a xlink:href="classit_1_1unisa_1_1biblioteca_1_1gruppo21_1_1service_1_1_service_utenti.html" target="_top" xlink:title=" ">
<polygon fill="white" stroke="none" points="528,-486 364,-486 364,-342 528,-342 528,-486"/>
<text xml:space="preserve" text-anchor="start" x="368" y="-472.5" font-family="Helvetica,sans-Serif" font-size="10.00">it.unisa.biblioteca.gruppo21.service.</text>
<text xml:space="preserve" text-anchor="start" x="416.38" y="-460.5" font-family="Helvetica,sans-Serif" font-size="10.00">ServiceUtenti</text>
<text xml:space="preserve" text-anchor="start" x="444.5" y="-444.5" font-family="Helvetica,sans-Serif" font-size="10.00"> </text>
<text xml:space="preserve" text-anchor="start" x="382" y="-428.5" font-family="Helvetica,sans-Serif" font-size="10.00">+</text>
<text xml:space="preserve" text-anchor="start" x="406" y="-428.5" font-family="Helvetica,sans-Serif" font-size="10.00">ServiceUtenti()</text>
<text xml:space="preserve" text-anchor="start" x="382" y="-412.5" font-family="Helvetica,sans-Serif" font-size="10.00">+</text>
<text xml:space="preserve" text-anchor="start" x="406" y="-412.5" font-family="Helvetica,sans-Serif" font-size="10.00">iscrivi()</text>
<text xml:space="preserve" text-anchor="start" x="382" y="-396.5" font-family="Helvetica,sans-Serif" font-size="10.00">+</text>
<text xml:space="preserve" text-anchor="start" x="406" y="-396.5" font-family="Helvetica,sans-Serif" font-size="10.00">modificaDatiUtente()</text>
<text xml:space="preserve" text-anchor="start" x="382" y="-380.5" font-family="Helvetica,sans-Serif" font-size="10.00">+</text>
<text xml:space="preserve" text-anchor="start" x="406" y="-380.5" font-family="Helvetica,sans-Serif" font-size="10.00">rimuovi()</text>
<text xml:space="preserve" text-anchor="start" x="382" y="-364.5" font-family="Helvetica,sans-Serif" font-size="10.00">+</text>
<text xml:space="preserve" text-anchor="start" x="406" y="-364.5" font-family="Helvetica,sans-Serif" font-size="10.00">cerca()</text>
<text xml:space="preserve" text-anchor="start" x="382" y="-348.5" font-family="Helvetica,sans-Serif" font-size="10.00">+</text>
<text xml:space="preserve" text-anchor="start" x="406" y="-348.5" font-family="Helvetica,sans-Serif" font-size="10.00">getLista()</text>
<polygon fill="#666666" stroke="#666666" points="364,-456 364,-456 528,-456 528,-456 364,-456"/>
<polygon fill="#666666" stroke="#666666" points="364,-440 364,-440 528,-440 528,-440 364,-440"/>
<polygon fill="none" stroke="#666666" points="364,-342 364,-486 528,-486 528,-342 364,-342"/>
</a>
</g>
</g>
<!-- Node2&#45;&gt;Node1 -->
<g id="edge1_Node000001_Node000002" class="edge">
<title>Node2&#45;&gt;Node1</title>
<g id="a_edge1_Node000001_Node000002"><a xlink:title=" ">
<path fill="none" stroke="#63b8ff" d="M397.94,-342.24C384.17,-321.95 368.69,-299.16 353.28,-276.47"/>
<polygon fill="none" stroke="#63b8ff" points="353.22,-276.38 346.54,-273.66 346.48,-266.45 353.16,-269.17 353.22,-276.38"/>
</a>
</g>
<text xml:space="preserve" text-anchor="start" x="384.94" y="-311.5" font-family="Helvetica,sans-Serif" font-size="10.00" fill="grey">&#45;serviceUtenti</text>
</g>
<!-- Node3 -->
<g id="Node000003" class="node">
<title>Node3</title>
<g id="a_Node000003"><a xlink:href="classit_1_1unisa_1_1biblioteca_1_1gruppo21_1_1archive_1_1_archive_utenti.html" target="_top" xlink:title=" ">
<polygon fill="white" stroke="none" points="575,-874 411,-874 411,-762 575,-762 575,-874"/>
<text xml:space="preserve" text-anchor="start" x="415" y="-860.5" font-family="Helvetica,sans-Serif" font-size="10.00">it.unisa.biblioteca.gruppo21.archive.</text>
<text xml:space="preserve" text-anchor="start" x="463.38" y="-848.5" font-family="Helvetica,sans-Serif" font-size="10.00">ArchiveUtenti</text>
<text xml:space="preserve" text-anchor="start" x="491.5" y="-832.5" font-family="Helvetica,sans-Serif" font-size="10.00"> </text>
<text xml:space="preserve" text-anchor="start" x="435.19" y="-816.5" font-family="Helvetica,sans-Serif" font-size="10.00">+</text>
<text xml:space="preserve" text-anchor="start" x="465.38" y="-816.5" font-family="Helvetica,sans-Serif" font-size="10.00">ArchiveUtenti()</text>
<text xml:space="preserve" text-anchor="start" x="435.19" y="-800.5" font-family="Helvetica,sans-Serif" font-size="10.00">+</text>
<text xml:space="preserve" text-anchor="start" x="465.38" y="-800.5" font-family="Helvetica,sans-Serif" font-size="10.00">cerca()</text>
<text xml:space="preserve" text-anchor="start" x="435.56" y="-784.5" font-family="Helvetica,sans-Serif" font-size="10.00">#</text>
<text xml:space="preserve" text-anchor="start" x="465.38" y="-784.5" font-family="Helvetica,sans-Serif" font-size="10.00">serializza()</text>
<text xml:space="preserve" text-anchor="start" x="435.56" y="-768.5" font-family="Helvetica,sans-Serif" font-size="10.00">#</text>
<text xml:space="preserve" text-anchor="start" x="465.38" y="-768.5" font-family="Helvetica,sans-Serif" font-size="10.00">deserializza()</text>
<polygon fill="#666666" stroke="#666666" points="411,-844 411,-844 575,-844 575,-844 411,-844"/>
<polygon fill="#666666" stroke="#666666" points="411,-828 411,-828 575,-828 575,-828 411,-828"/>
<polygon fill="none" stroke="#666666" points="411,-762 411,-874 575,-874 575,-762 411,-762"/>
</a>
</g>
</g>
<!-- Node3&#45;&gt;Node2 -->
<g id="edge2_Node000002_Node000003" class="edge">
<title>Node3&#45;&gt;Node2</title>
<g id="a_edge2_Node000002_Node000003"><a xlink:title=" ">
<path fill="none" stroke="#63b8ff" d="M502.49,-762.17C510.46,-705.78 518.19,-615.75 502,-540 499,-525.97 494.31,-511.61 488.88,-497.86"/>
<polygon fill="none" stroke="#63b8ff" points="488.88,-497.87 482.89,-493.86 484.29,-486.78 490.28,-490.8 488.88,-497.87"/>
</a>
</g>
<text xml:space="preserve" text-anchor="start" x="514.5" y="-592.5" font-family="Helvetica,sans-Serif" font-size="10.00" fill="grey">&#45;arcUtenti</text>
</g>
<!-- Node5 -->
<g id="Node000005" class="node">
<title>Node5</title>
<g id="a_Node000005"><a xlink:href="classit_1_1unisa_1_1biblioteca_1_1gruppo21_1_1archive_1_1_archive_prestiti.html" target="_top" xlink:title=" ">
<polygon fill="white" stroke="none" points="393,-652 229,-652 229,-540 393,-540 393,-652"/>
<text xml:space="preserve" text-anchor="start" x="233" y="-638.5" font-family="Helvetica,sans-Serif" font-size="10.00">it.unisa.biblioteca.gruppo21.archive.</text>
<text xml:space="preserve" text-anchor="start" x="279.12" y="-626.5" font-family="Helvetica,sans-Serif" font-size="10.00">ArchivePrestiti</text>
<text xml:space="preserve" text-anchor="start" x="309.5" y="-610.5" font-family="Helvetica,sans-Serif" font-size="10.00"> </text>
<text xml:space="preserve" text-anchor="start" x="252.06" y="-594.5" font-family="Helvetica,sans-Serif" font-size="10.00">+</text>
<text xml:space="preserve" text-anchor="start" x="281.12" y="-594.5" font-family="Helvetica,sans-Serif" font-size="10.00">ArchivePrestiti()</text>
<text xml:space="preserve" text-anchor="start" x="252.06" y="-578.5" font-family="Helvetica,sans-Serif" font-size="10.00">+</text>
<text xml:space="preserve" text-anchor="start" x="281.12" y="-578.5" font-family="Helvetica,sans-Serif" font-size="10.00">cerca()</text>
<text xml:space="preserve" text-anchor="start" x="252.44" y="-562.5" font-family="Helvetica,sans-Serif" font-size="10.00">#</text>
<text xml:space="preserve" text-anchor="start" x="281.12" y="-562.5" font-family="Helvetica,sans-Serif" font-size="10.00">serializza()</text>
<text xml:space="preserve" text-anchor="start" x="252.44" y="-546.5" font-family="Helvetica,sans-Serif" font-size="10.00">#</text>
<text xml:space="preserve" text-anchor="start" x="281.12" y="-546.5" font-family="Helvetica,sans-Serif" font-size="10.00">deserializza()</text>
<polygon fill="#666666" stroke="#666666" points="229,-622 229,-622 393,-622 393,-622 229,-622"/>
<polygon fill="#666666" stroke="#666666" points="229,-606 229,-606 393,-606 393,-606 229,-606"/>
<polygon fill="none" stroke="#666666" points="229,-540 229,-652 393,-652 393,-540 229,-540"/>
</a>
</g>
</g>
<!-- Node3&#45;&gt;Node5 -->
<g id="edge6_Node000005_Node000003" class="edge">
<title>Node3&#45;&gt;Node5</title>
<g id="a_edge6_Node000005_Node000003"><a xlink:title=" ">
<path fill="none" stroke="#63b8ff" d="M457.95,-762.07C442.83,-742.04 423.63,-720.72 402,-706 380.39,-691.29 365,-705.96 346,-688 338.74,-681.13 332.96,-672.59 328.37,-663.51"/>
<polygon fill="none" stroke="#63b8ff" points="328.41,-663.6 322.32,-659.74 323.54,-652.63 329.63,-656.49 328.41,-663.6"/>
</a>
</g>
<text xml:space="preserve" text-anchor="start" x="349" y="-675.5" font-family="Helvetica,sans-Serif" font-size="10.00" fill="grey">&#45;archivioUtenti</text>
</g>
<!-- Node10 -->
<g id="Node000010" class="node">
<title>Node10</title>
<g id="a_Node000010"><a xlink:href="classit_1_1unisa_1_1biblioteca_1_1gruppo21_1_1service_1_1_service_prestiti.html" target="_top" xlink:title=" ">
<polygon fill="white" stroke="none" points="346,-486 182,-486 182,-342 346,-342 346,-486"/>
<text xml:space="preserve" text-anchor="start" x="186" y="-472.5" font-family="Helvetica,sans-Serif" font-size="10.00">it.unisa.biblioteca.gruppo21.service.</text>
<text xml:space="preserve" text-anchor="start" x="232.12" y="-460.5" font-family="Helvetica,sans-Serif" font-size="10.00">ServicePrestiti</text>
<text xml:space="preserve" text-anchor="start" x="262.5" y="-444.5" font-family="Helvetica,sans-Serif" font-size="10.00"> </text>
<text xml:space="preserve" text-anchor="start" x="204.69" y="-428.5" font-family="Helvetica,sans-Serif" font-size="10.00">+</text>
<text xml:space="preserve" text-anchor="start" x="233.38" y="-428.5" font-family="Helvetica,sans-Serif" font-size="10.00">ServicePrestiti()</text>
<text xml:space="preserve" text-anchor="start" x="204.69" y="-412.5" font-family="Helvetica,sans-Serif" font-size="10.00">+</text>
<text xml:space="preserve" text-anchor="start" x="233.38" y="-412.5" font-family="Helvetica,sans-Serif" font-size="10.00">nuovoPrestito()</text>
<text xml:space="preserve" text-anchor="start" x="204.69" y="-396.5" font-family="Helvetica,sans-Serif" font-size="10.00">+</text>
<text xml:space="preserve" text-anchor="start" x="233.38" y="-396.5" font-family="Helvetica,sans-Serif" font-size="10.00">restituzione()</text>
<text xml:space="preserve" text-anchor="start" x="204.69" y="-380.5" font-family="Helvetica,sans-Serif" font-size="10.00">+</text>
<text xml:space="preserve" text-anchor="start" x="233.38" y="-380.5" font-family="Helvetica,sans-Serif" font-size="10.00">controllaRitardi()</text>
<text xml:space="preserve" text-anchor="start" x="204.69" y="-364.5" font-family="Helvetica,sans-Serif" font-size="10.00">+</text>
<text xml:space="preserve" text-anchor="start" x="233.38" y="-364.5" font-family="Helvetica,sans-Serif" font-size="10.00">getLista()</text>
<text xml:space="preserve" text-anchor="start" x="206.19" y="-348.5" font-family="Helvetica,sans-Serif" font-size="10.00">&#45;</text>
<text xml:space="preserve" text-anchor="start" x="233.38" y="-348.5" font-family="Helvetica,sans-Serif" font-size="10.00">trovaUtente()</text>
<polygon fill="#666666" stroke="#666666" points="182,-456 182,-456 346,-456 346,-456 182,-456"/>
<polygon fill="#666666" stroke="#666666" points="182,-440 182,-440 346,-440 346,-440 182,-440"/>
<polygon fill="none" stroke="#666666" points="182,-342 182,-486 346,-486 346,-342 182,-342"/>
</a>
</g>
</g>
<!-- Node3&#45;&gt;Node10 -->
<g id="edge15_Node000010_Node000003" class="edge">
<title>Node3&#45;&gt;Node10</title>
<g id="a_edge15_Node000010_Node000003"><a xlink:title=" ">
<path fill="none" stroke="#63b8ff" d="M467.3,-762.09C453.67,-730.56 437.94,-689.82 429,-652 421.4,-619.85 435.95,-529.55 415,-504 399.55,-485.16 384.14,-495.3 357.88,-486.22"/>
<polygon fill="none" stroke="#63b8ff" points="357.76,-486.17 350.66,-487.44 346.76,-481.37 353.86,-480.1 357.76,-486.17"/>
</a>
</g>
<text xml:space="preserve" text-anchor="start" x="432" y="-592.5" font-family="Helvetica,sans-Serif" font-size="10.00" fill="grey">&#45;archivioUtenti</text>
</g>
<!-- Node4 -->
<g id="Node000004" class="node">
<title>Node4</title>
<g id="a_Node000004"><a xlink:href="classit_1_1unisa_1_1biblioteca_1_1gruppo21_1_1archive_1_1_archive_astratto.html" target="_top" xlink:title=" ">
<polygon fill="white" stroke="none" points="575,-1191 411,-1191 411,-967 575,-967 575,-1191"/>
<text xml:space="preserve" text-anchor="start" x="415" y="-1177.5" font-family="Helvetica,sans-Serif" font-size="10.00">it.unisa.biblioteca.gruppo21.archive.</text>
<text xml:space="preserve" text-anchor="start" x="435.62" y="-1165.5" font-family="Helvetica,sans-Serif" font-size="10.00">ArchiveAstratto&lt; Utente &gt;</text>
<text xml:space="preserve" text-anchor="start" x="433.5" y="-1149.5" font-family="Helvetica,sans-Serif" font-size="10.00">#</text>
<text xml:space="preserve" text-anchor="start" x="461.25" y="-1149.5" font-family="Helvetica,sans-Serif" font-size="10.00">cache</text>
<text xml:space="preserve" text-anchor="start" x="433.5" y="-1133.5" font-family="Helvetica,sans-Serif" font-size="10.00">#</text>
<text xml:space="preserve" text-anchor="start" x="461.25" y="-1133.5" font-family="Helvetica,sans-Serif" font-size="10.00">file</text>
<text xml:space="preserve" text-anchor="start" x="433.12" y="-1117.5" font-family="Helvetica,sans-Serif" font-size="10.00">+</text>
<text xml:space="preserve" text-anchor="start" x="461.25" y="-1117.5" font-family="Helvetica,sans-Serif" font-size="10.00">ArchiveAstratto()</text>
<text xml:space="preserve" text-anchor="start" x="433.12" y="-1101.5" font-family="Helvetica,sans-Serif" font-size="10.00">+</text>
<text xml:space="preserve" text-anchor="start" x="461.25" y="-1101.5" font-family="Helvetica,sans-Serif" font-size="10.00">inizializzaDati()</text>
<text xml:space="preserve" text-anchor="start" x="433.12" y="-1085.5" font-family="Helvetica,sans-Serif" font-size="10.00">+</text>
<text xml:space="preserve" text-anchor="start" x="461.25" y="-1085.5" font-family="Helvetica,sans-Serif" font-size="10.00">cerca()</text>
<text xml:space="preserve" text-anchor="start" x="433.12" y="-1069.5" font-family="Helvetica,sans-Serif" font-size="10.00">+</text>
<text xml:space="preserve" text-anchor="start" x="461.25" y="-1069.5" font-family="Helvetica,sans-Serif" font-size="10.00">aggiungi()</text>
<text xml:space="preserve" text-anchor="start" x="433.12" y="-1053.5" font-family="Helvetica,sans-Serif" font-size="10.00">+</text>
<text xml:space="preserve" text-anchor="start" x="461.25" y="-1053.5" font-family="Helvetica,sans-Serif" font-size="10.00">cancella()</text>
<text xml:space="preserve" text-anchor="start" x="433.12" y="-1037.5" font-family="Helvetica,sans-Serif" font-size="10.00">+</text>
<text xml:space="preserve" text-anchor="start" x="461.25" y="-1037.5" font-family="Helvetica,sans-Serif" font-size="10.00">leggiTutti()</text>
<text xml:space="preserve" text-anchor="start" x="433.12" y="-1021.5" font-family="Helvetica,sans-Serif" font-size="10.00">+</text>
<text xml:space="preserve" text-anchor="start" x="461.25" y="-1021.5" font-family="Helvetica,sans-Serif" font-size="10.00">salvaTutto()</text>
<text xml:space="preserve" text-anchor="start" x="433.5" y="-1005.5" font-family="Helvetica,sans-Serif" font-size="10.00">#</text>
<text xml:space="preserve" text-anchor="start" x="461.25" y="-1005.5" font-family="Helvetica,sans-Serif" font-size="10.00">serializza()</text>
<text xml:space="preserve" text-anchor="start" x="433.5" y="-989.5" font-family="Helvetica,sans-Serif" font-size="10.00">#</text>
<text xml:space="preserve" text-anchor="start" x="461.25" y="-989.5" font-family="Helvetica,sans-Serif" font-size="10.00">deserializza()</text>
<text xml:space="preserve" text-anchor="start" x="434.62" y="-973.5" font-family="Helvetica,sans-Serif" font-size="10.00">&#45;</text>
<text xml:space="preserve" text-anchor="start" x="461.25" y="-973.5" font-family="Helvetica,sans-Serif" font-size="10.00">caricaDaFile()</text>
<polygon fill="#666666" stroke="#666666" points="411,-1161 411,-1161 575,-1161 575,-1161 411,-1161"/>
<polygon fill="#666666" stroke="#666666" points="411,-1129 411,-1129 459.25,-1129 459.25,-1129 411,-1129"/>
<polygon fill="#666666" stroke="#666666" points="459.25,-1129 459.25,-1129 575,-1129 575,-1129 459.25,-1129"/>
<polygon fill="none" stroke="#666666" points="411,-967 411,-1191 575,-1191 575,-967 411,-967"/>
</a>
</g>
</g>
<!-- Node4&#45;&gt;Node3 -->
<g id="edge3_Node000003_Node000004" class="edge">
<title>Node4&#45;&gt;Node3</title>
<g id="a_edge3_Node000003_Node000004"><a xlink:title=" ">
<path fill="none" stroke="#63b8ff" d="M493,-955.64C493,-926.93 493,-897.75 493,-873.77"/>
<polygon fill="none" stroke="#63b8ff" points="489.5,-955.52 493,-965.52 496.5,-955.52 489.5,-955.52"/>
</a>
</g>
</g>
<!-- Node5&#45;&gt;Node2 -->
<g id="edge4_Node000002_Node000005" class="edge">
<title>Node5&#45;&gt;Node2</title>
<g id="a_edge4_Node000002_Node000005"><a xlink:title=" ">
<path fill="none" stroke="#63b8ff" d="M352.24,-540.02C362.63,-526.16 374.01,-510.98 385.15,-496.13"/>
<polygon fill="none" stroke="#63b8ff" points="385.06,-496.25 385.46,-489.05 392.26,-486.65 391.86,-493.85 385.06,-496.25"/>
</a>
</g>
<text xml:space="preserve" text-anchor="start" x="381.5" y="-509.5" font-family="Helvetica,sans-Serif" font-size="10.00" fill="grey">&#45;arcPrestiti</text>
</g>
<!-- Node9 -->
<g id="Node000009" class="node">
<title>Node9</title>
<g id="a_Node000009"><a xlink:href="classit_1_1unisa_1_1biblioteca_1_1gruppo21_1_1service_1_1_service_libri.html" target="_top" xlink:title=" ">
<polygon fill="white" stroke="none" points="164,-486 0,-486 0,-342 164,-342 164,-486"/>
<text xml:space="preserve" text-anchor="start" x="4" y="-472.5" font-family="Helvetica,sans-Serif" font-size="10.00">it.unisa.biblioteca.gruppo21.service.</text>
<text xml:space="preserve" text-anchor="start" x="56.5" y="-460.5" font-family="Helvetica,sans-Serif" font-size="10.00">ServiceLibri</text>
<text xml:space="preserve" text-anchor="start" x="80.5" y="-444.5" font-family="Helvetica,sans-Serif" font-size="10.00"> </text>
<text xml:space="preserve" text-anchor="start" x="23.44" y="-428.5" font-family="Helvetica,sans-Serif" font-size="10.00">+</text>
<text xml:space="preserve" text-anchor="start" x="52.88" y="-428.5" font-family="Helvetica,sans-Serif" font-size="10.00">ServiceLibri()</text>
<text xml:space="preserve" text-anchor="start" x="23.44" y="-412.5" font-family="Helvetica,sans-Serif" font-size="10.00">+</text>
<text xml:space="preserve" text-anchor="start" x="52.88" y="-412.5" font-family="Helvetica,sans-Serif" font-size="10.00">aggiungi()</text>
<text xml:space="preserve" text-anchor="start" x="23.44" y="-396.5" font-family="Helvetica,sans-Serif" font-size="10.00">+</text>
<text xml:space="preserve" text-anchor="start" x="52.88" y="-396.5" font-family="Helvetica,sans-Serif" font-size="10.00">aggiornaCopie()</text>
<text xml:space="preserve" text-anchor="start" x="23.44" y="-380.5" font-family="Helvetica,sans-Serif" font-size="10.00">+</text>
<text xml:space="preserve" text-anchor="start" x="52.88" y="-380.5" font-family="Helvetica,sans-Serif" font-size="10.00">rimuovi()</text>
<text xml:space="preserve" text-anchor="start" x="23.44" y="-364.5" font-family="Helvetica,sans-Serif" font-size="10.00">+</text>
<text xml:space="preserve" text-anchor="start" x="52.88" y="-364.5" font-family="Helvetica,sans-Serif" font-size="10.00">getLista()</text>
<text xml:space="preserve" text-anchor="start" x="23.44" y="-348.5" font-family="Helvetica,sans-Serif" font-size="10.00">+</text>
<text xml:space="preserve" text-anchor="start" x="52.88" y="-348.5" font-family="Helvetica,sans-Serif" font-size="10.00">cerca()</text>
<polygon fill="#bfbfbf" stroke="#bfbfbf" points="0,-456 0,-456 164,-456 164,-456 0,-456"/>
<polygon fill="#bfbfbf" stroke="#bfbfbf" points="0,-440 0,-440 164,-440 164,-440 0,-440"/>
<polygon fill="none" stroke="#bfbfbf" points="0,-342 0,-486 164,-486 164,-342 0,-342"/>
</a>
</g>
</g>
<!-- Node5&#45;&gt;Node9 -->
<g id="edge11_Node000009_Node000005" class="edge">
<title>Node5&#45;&gt;Node9</title>
<g id="a_edge11_Node000009_Node000005"><a xlink:title=" ">
<path fill="none" stroke="#63b8ff" d="M229.1,-540.14C220.78,-534.15 212.53,-528.03 204.75,-522 193.43,-513.22 181.79,-503.73 170.38,-494.15"/>
<polygon fill="none" stroke="#63b8ff" points="170.28,-494.07 163.12,-493.24 161.13,-486.31 168.29,-487.13 170.28,-494.07"/>
</a>
</g>
<text xml:space="preserve" text-anchor="start" x="207.75" y="-509.5" font-family="Helvetica,sans-Serif" font-size="10.00" fill="grey">&#45;arcPrestiti</text>
</g>
<!-- Node5&#45;&gt;Node10 -->
<g id="edge13_Node000010_Node000005" class="edge">
<title>Node5&#45;&gt;Node10</title>
<g id="a_edge13_Node000010_Node000005"><a xlink:title=" ">
<path fill="none" stroke="#63b8ff" d="M272.68,-540.28C269.8,-534.31 267.31,-528.16 265.5,-522 263.31,-514.54 261.8,-506.67 260.79,-498.71"/>
<polygon fill="none" stroke="#63b8ff" points="260.78,-498.59 256.25,-492.99 259.68,-486.64 264.21,-492.25 260.78,-498.59"/>
</a>
</g>
<text xml:space="preserve" text-anchor="start" x="268.5" y="-509.5" font-family="Helvetica,sans-Serif" font-size="10.00" fill="grey">&#45;archivioPrestiti</text>
</g>
<!-- Node6 -->
<g id="Node000006" class="node">
<title>Node6</title>
<g id="a_Node000006"><a xlink:href="classit_1_1unisa_1_1biblioteca_1_1gruppo21_1_1archive_1_1_archive_astratto.html" target="_top" xlink:title=" ">
<polygon fill="white" stroke="none" points="393,-930 229,-930 229,-706 393,-706 393,-930"/>
<text xml:space="preserve" text-anchor="start" x="233" y="-916.5" font-family="Helvetica,sans-Serif" font-size="10.00">it.unisa.biblioteca.gruppo21.archive.</text>
<text xml:space="preserve" text-anchor="start" x="251.38" y="-904.5" font-family="Helvetica,sans-Serif" font-size="10.00">ArchiveAstratto&lt; Prestito &gt;</text>
<text xml:space="preserve" text-anchor="start" x="251.5" y="-888.5" font-family="Helvetica,sans-Serif" font-size="10.00">#</text>
<text xml:space="preserve" text-anchor="start" x="279.25" y="-888.5" font-family="Helvetica,sans-Serif" font-size="10.00">cache</text>
<text xml:space="preserve" text-anchor="start" x="251.5" y="-872.5" font-family="Helvetica,sans-Serif" font-size="10.00">#</text>
<text xml:space="preserve" text-anchor="start" x="279.25" y="-872.5" font-family="Helvetica,sans-Serif" font-size="10.00">file</text>
<text xml:space="preserve" text-anchor="start" x="251.12" y="-856.5" font-family="Helvetica,sans-Serif" font-size="10.00">+</text>
<text xml:space="preserve" text-anchor="start" x="279.25" y="-856.5" font-family="Helvetica,sans-Serif" font-size="10.00">ArchiveAstratto()</text>
<text xml:space="preserve" text-anchor="start" x="251.12" y="-840.5" font-family="Helvetica,sans-Serif" font-size="10.00">+</text>
<text xml:space="preserve" text-anchor="start" x="279.25" y="-840.5" font-family="Helvetica,sans-Serif" font-size="10.00">inizializzaDati()</text>
<text xml:space="preserve" text-anchor="start" x="251.12" y="-824.5" font-family="Helvetica,sans-Serif" font-size="10.00">+</text>
<text xml:space="preserve" text-anchor="start" x="279.25" y="-824.5" font-family="Helvetica,sans-Serif" font-size="10.00">cerca()</text>
<text xml:space="preserve" text-anchor="start" x="251.12" y="-808.5" font-family="Helvetica,sans-Serif" font-size="10.00">+</text>
<text xml:space="preserve" text-anchor="start" x="279.25" y="-808.5" font-family="Helvetica,sans-Serif" font-size="10.00">aggiungi()</text>
<text xml:space="preserve" text-anchor="start" x="251.12" y="-792.5" font-family="Helvetica,sans-Serif" font-size="10.00">+</text>
<text xml:space="preserve" text-anchor="start" x="279.25" y="-792.5" font-family="Helvetica,sans-Serif" font-size="10.00">cancella()</text>
<text xml:space="preserve" text-anchor="start" x="251.12" y="-776.5" font-family="Helvetica,sans-Serif" font-size="10.00">+</text>
<text xml:space="preserve" text-anchor="start" x="279.25" y="-776.5" font-family="Helvetica,sans-Serif" font-size="10.00">leggiTutti()</text>
<text xml:space="preserve" text-anchor="start" x="251.12" y="-760.5" font-family="Helvetica,sans-Serif" font-size="10.00">+</text>
<text xml:space="preserve" text-anchor="start" x="279.25" y="-760.5" font-family="Helvetica,sans-Serif" font-size="10.00">salvaTutto()</text>
<text xml:space="preserve" text-anchor="start" x="251.5" y="-744.5" font-family="Helvetica,sans-Serif" font-size="10.00">#</text>
<text xml:space="preserve" text-anchor="start" x="279.25" y="-744.5" font-family="Helvetica,sans-Serif" font-size="10.00">serializza()</text>
<text xml:space="preserve" text-anchor="start" x="251.5" y="-728.5" font-family="Helvetica,sans-Serif" font-size="10.00">#</text>
<text xml:space="preserve" text-anchor="start" x="279.25" y="-728.5" font-family="Helvetica,sans-Serif" font-size="10.00">deserializza()</text>
<text xml:space="preserve" text-anchor="start" x="252.62" y="-712.5" font-family="Helvetica,sans-Serif" font-size="10.00">&#45;</text>
<text xml:space="preserve" text-anchor="start" x="279.25" y="-712.5" font-family="Helvetica,sans-Serif" font-size="10.00">caricaDaFile()</text>
<polygon fill="#666666" stroke="#666666" points="229,-900 229,-900 393,-900 393,-900 229,-900"/>
<polygon fill="#666666" stroke="#666666" points="229,-868 229,-868 277.25,-868 277.25,-868 229,-868"/>
<polygon fill="#666666" stroke="#666666" points="277.25,-868 277.25,-868 393,-868 393,-868 277.25,-868"/>
<polygon fill="none" stroke="#666666" points="229,-706 229,-930 393,-930 393,-706 229,-706"/>
</a>
</g>
</g>
<!-- Node6&#45;&gt;Node5 -->
<g id="edge5_Node000005_Node000006" class="edge">
<title>Node6&#45;&gt;Node5</title>
<g id="a_edge5_Node000005_Node000006"><a xlink:title=" ">
<path fill="none" stroke="#63b8ff" d="M311,-694.6C311,-679.71 311,-665.12 311,-651.96"/>
<polygon fill="none" stroke="#63b8ff" points="307.5,-694.52 311,-704.52 314.5,-694.52 307.5,-694.52"/>
</a>
</g>
</g>
<!-- Node7 -->
<g id="Node000007" class="node">
<title>Node7</title>
<g id="a_Node000007"><a xlink:href="classit_1_1unisa_1_1biblioteca_1_1gruppo21_1_1archive_1_1_archive_libri.html" target="_top" xlink:title=" ">
<polygon fill="white" stroke="none" points="211,-874 47,-874 47,-762 211,-762 211,-874"/>
<text xml:space="preserve" text-anchor="start" x="51" y="-860.5" font-family="Helvetica,sans-Serif" font-size="10.00">it.unisa.biblioteca.gruppo21.archive.</text>
<text xml:space="preserve" text-anchor="start" x="103.5" y="-848.5" font-family="Helvetica,sans-Serif" font-size="10.00">ArchiveLibri</text>
<text xml:space="preserve" text-anchor="start" x="127.5" y="-832.5" font-family="Helvetica,sans-Serif" font-size="10.00"> </text>
<text xml:space="preserve" text-anchor="start" x="73.06" y="-816.5" font-family="Helvetica,sans-Serif" font-size="10.00">+</text>
<text xml:space="preserve" text-anchor="start" x="105.12" y="-816.5" font-family="Helvetica,sans-Serif" font-size="10.00">ArchiveLibri()</text>
<text xml:space="preserve" text-anchor="start" x="73.06" y="-800.5" font-family="Helvetica,sans-Serif" font-size="10.00">+</text>
<text xml:space="preserve" text-anchor="start" x="105.12" y="-800.5" font-family="Helvetica,sans-Serif" font-size="10.00">cerca()</text>
<text xml:space="preserve" text-anchor="start" x="73.44" y="-784.5" font-family="Helvetica,sans-Serif" font-size="10.00">#</text>
<text xml:space="preserve" text-anchor="start" x="105.12" y="-784.5" font-family="Helvetica,sans-Serif" font-size="10.00">serializza()</text>
<text xml:space="preserve" text-anchor="start" x="73.44" y="-768.5" font-family="Helvetica,sans-Serif" font-size="10.00">#</text>
<text xml:space="preserve" text-anchor="start" x="105.12" y="-768.5" font-family="Helvetica,sans-Serif" font-size="10.00">deserializza()</text>
<polygon fill="#666666" stroke="#666666" points="47,-844 47,-844 211,-844 211,-844 47,-844"/>
<polygon fill="#666666" stroke="#666666" points="47,-828 47,-828 211,-828 211,-828 47,-828"/>
<polygon fill="none" stroke="#666666" points="47,-762 47,-874 211,-874 211,-762 47,-762"/>
</a>
</g>
</g>
<!-- Node7&#45;&gt;Node5 -->
<g id="edge7_Node000005_Node000007" class="edge">
<title>Node7&#45;&gt;Node5</title>
<g id="a_edge7_Node000005_Node000007"><a xlink:title=" ">
<path fill="none" stroke="#63b8ff" d="M171.49,-762.35C193.46,-734.43 220.93,-700.1 246.25,-670 248.6,-667.2 251.02,-664.36 253.47,-661.5"/>
<polygon fill="none" stroke="#63b8ff" points="253.47,-661.5 254.36,-654.35 261.31,-652.42 260.41,-659.58 253.47,-661.5"/>
</a>
</g>
<text xml:space="preserve" text-anchor="start" x="249.25" y="-675.5" font-family="Helvetica,sans-Serif" font-size="10.00" fill="grey">&#45;archivioLibri</text>
</g>
<!-- Node7&#45;&gt;Node9 -->
<g id="edge10_Node000009_Node000007" class="edge">
<title>Node7&#45;&gt;Node9</title>
<g id="a_edge10_Node000009_Node000007"><a xlink:title=" ">
<path fill="none" stroke="#63b8ff" d="M111.95,-762.23C102.88,-730.39 92.56,-689.32 87.5,-652 80.64,-601.41 79.14,-544.2 79.41,-498.66"/>
<polygon fill="none" stroke="#63b8ff" points="79.41,-498.74 75.47,-492.71 79.52,-486.74 83.47,-492.78 79.41,-498.74"/>
</a>
</g>
<text xml:space="preserve" text-anchor="start" x="90.5" y="-592.5" font-family="Helvetica,sans-Serif" font-size="10.00" fill="grey">&#45;arcLibri</text>
</g>
<!-- Node7&#45;&gt;Node10 -->
<g id="edge14_Node000010_Node000007" class="edge">
<title>Node7&#45;&gt;Node10</title>
<g id="a_edge14_Node000010_Node000007"><a xlink:title=" ">
<path fill="none" stroke="#63b8ff" d="M128.4,-762.25C129.28,-705.35 134.95,-614.38 159.25,-540 164.3,-524.56 172.34,-509.76 181.79,-496.09"/>
<polygon fill="none" stroke="#63b8ff" points="181.65,-496.28 181.96,-489.08 188.73,-486.59 188.42,-493.8 181.65,-496.28"/>
</a>
</g>
<text xml:space="preserve" text-anchor="start" x="162.25" y="-592.5" font-family="Helvetica,sans-Serif" font-size="10.00" fill="grey">&#45;archivioLibri</text>
</g>
<!-- Node8 -->
<g id="Node000008" class="node">
<title>Node8</title>
<g id="a_Node000008"><a xlink:href="classit_1_1unisa_1_1biblioteca_1_1gruppo21_1_1archive_1_1_archive_astratto.html" target="_top" xlink:title=" ">
<polygon fill="white" stroke="none" points="211,-1191 47,-1191 47,-967 211,-967 211,-1191"/>
<text xml:space="preserve" text-anchor="start" x="51" y="-1177.5" font-family="Helvetica,sans-Serif" font-size="10.00">it.unisa.biblioteca.gruppo21.archive.</text>
<text xml:space="preserve" text-anchor="start" x="75.75" y="-1165.5" font-family="Helvetica,sans-Serif" font-size="10.00">ArchiveAstratto&lt; Libro &gt;</text>
<text xml:space="preserve" text-anchor="start" x="69.5" y="-1149.5" font-family="Helvetica,sans-Serif" font-size="10.00">#</text>
<text xml:space="preserve" text-anchor="start" x="97.25" y="-1149.5" font-family="Helvetica,sans-Serif" font-size="10.00">cache</text>
<text xml:space="preserve" text-anchor="start" x="69.5" y="-1133.5" font-family="Helvetica,sans-Serif" font-size="10.00">#</text>
<text xml:space="preserve" text-anchor="start" x="97.25" y="-1133.5" font-family="Helvetica,sans-Serif" font-size="10.00">file</text>
<text xml:space="preserve" text-anchor="start" x="69.12" y="-1117.5" font-family="Helvetica,sans-Serif" font-size="10.00">+</text>
<text xml:space="preserve" text-anchor="start" x="97.25" y="-1117.5" font-family="Helvetica,sans-Serif" font-size="10.00">ArchiveAstratto()</text>
<text xml:space="preserve" text-anchor="start" x="69.12" y="-1101.5" font-family="Helvetica,sans-Serif" font-size="10.00">+</text>
<text xml:space="preserve" text-anchor="start" x="97.25" y="-1101.5" font-family="Helvetica,sans-Serif" font-size="10.00">inizializzaDati()</text>
<text xml:space="preserve" text-anchor="start" x="69.12" y="-1085.5" font-family="Helvetica,sans-Serif" font-size="10.00">+</text>
<text xml:space="preserve" text-anchor="start" x="97.25" y="-1085.5" font-family="Helvetica,sans-Serif" font-size="10.00">cerca()</text>
<text xml:space="preserve" text-anchor="start" x="69.12" y="-1069.5" font-family="Helvetica,sans-Serif" font-size="10.00">+</text>
<text xml:space="preserve" text-anchor="start" x="97.25" y="-1069.5" font-family="Helvetica,sans-Serif" font-size="10.00">aggiungi()</text>
<text xml:space="preserve" text-anchor="start" x="69.12" y="-1053.5" font-family="Helvetica,sans-Serif" font-size="10.00">+</text>
<text xml:space="preserve" text-anchor="start" x="97.25" y="-1053.5" font-family="Helvetica,sans-Serif" font-size="10.00">cancella()</text>
<text xml:space="preserve" text-anchor="start" x="69.12" y="-1037.5" font-family="Helvetica,sans-Serif" font-size="10.00">+</text>
<text xml:space="preserve" text-anchor="start" x="97.25" y="-1037.5" font-family="Helvetica,sans-Serif" font-size="10.00">leggiTutti()</text>
<text xml:space="preserve" text-anchor="start" x="69.12" y="-1021.5" font-family="Helvetica,sans-Serif" font-size="10.00">+</text>
<text xml:space="preserve" text-anchor="start" x="97.25" y="-1021.5" font-family="Helvetica,sans-Serif" font-size="10.00">salvaTutto()</text>
<text xml:space="preserve" text-anchor="start" x="69.5" y="-1005.5" font-family="Helvetica,sans-Serif" font-size="10.00">#</text>
<text xml:space="preserve" text-anchor="start" x="97.25" y="-1005.5" font-family="Helvetica,sans-Serif" font-size="10.00">serializza()</text>
<text xml:space="preserve" text-anchor="start" x="69.5" y="-989.5" font-family="Helvetica,sans-Serif" font-size="10.00">#</text>
<text xml:space="preserve" text-anchor="start" x="97.25" y="-989.5" font-family="Helvetica,sans-Serif" font-size="10.00">deserializza()</text>
<text xml:space="preserve" text-anchor="start" x="70.62" y="-973.5" font-family="Helvetica,sans-Serif" font-size="10.00">&#45;</text>
<text xml:space="preserve" text-anchor="start" x="97.25" y="-973.5" font-family="Helvetica,sans-Serif" font-size="10.00">caricaDaFile()</text>
<polygon fill="#666666" stroke="#666666" points="47,-1161 47,-1161 211,-1161 211,-1161 47,-1161"/>
<polygon fill="#666666" stroke="#666666" points="47,-1129 47,-1129 95.25,-1129 95.25,-1129 47,-1129"/>
<polygon fill="#666666" stroke="#666666" points="95.25,-1129 95.25,-1129 211,-1129 211,-1129 95.25,-1129"/>
<polygon fill="none" stroke="#666666" points="47,-967 47,-1191 211,-1191 211,-967 47,-967"/>
</a>
</g>
</g>
<!-- Node8&#45;&gt;Node7 -->
<g id="edge8_Node000007_Node000008" class="edge">
<title>Node8&#45;&gt;Node7</title>
<g id="a_edge8_Node000007_Node000008"><a xlink:title=" ">
<path fill="none" stroke="#63b8ff" d="M129,-955.64C129,-926.93 129,-897.75 129,-873.77"/>
<polygon fill="none" stroke="#63b8ff" points="125.5,-955.52 129,-965.52 132.5,-955.52 125.5,-955.52"/>
</a>
</g>
</g>
<!-- Node9&#45;&gt;Node1 -->
<g id="edge9_Node000001_Node000009" class="edge">
<title>Node9&#45;&gt;Node1</title>
<g id="a_edge9_Node000001_Node000009"><a xlink:title=" ">
<path fill="none" stroke="#63b8ff" d="M130.06,-342.24C143.83,-321.95 159.31,-299.16 174.72,-276.47"/>
<polygon fill="none" stroke="#63b8ff" points="174.78,-276.38 174.84,-269.17 181.52,-266.45 181.46,-273.66 174.78,-276.38"/>
</a>
</g>
<text xml:space="preserve" text-anchor="start" x="154.35" y="-311.5" font-family="Helvetica,sans-Serif" font-size="10.00" fill="grey">&#45;serviceLibri</text>
</g>
<!-- Node10&#45;&gt;Node1 -->
<g id="edge12_Node000001_Node000010" class="edge">
<title>Node10&#45;&gt;Node1</title>
<g id="a_edge12_Node000001_Node000010"><a xlink:title=" ">
<path fill="none" stroke="#63b8ff" d="M264,-342.24C264,-329.16 264,-315.05 264,-300.59"/>
<polygon fill="none" stroke="#63b8ff" points="264,-300.71 260,-294.71 264,-288.71 268,-294.71 264,-300.71"/>
</a>
</g>
<text xml:space="preserve" text-anchor="start" x="267" y="-311.5" font-family="Helvetica,sans-Serif" font-size="10.00" fill="grey">&#45;servicePrestiti</text>
</g>
</g>
</svg>
