<?xml version="1.0" encoding="UTF-8" standalone="no"?>
<!DOCTYPE svg PUBLIC "-//W3C//DTD SVG 1.1//EN"
 "http://www.w3.org/Graphics/SVG/1.1/DTD/svg11.dtd">
<!-- Generated by graphviz version 14.1.0 (20251206.1807)
 -->
<!-- Title: it.unisa.biblioteca.gruppo21.service.Validatore Pages: 1 -->
<svg width="172pt" height="104pt"
 viewBox="0.00 0.00 172.00 104.00" xmlns="http://www.w3.org/2000/svg" xmlns:xlink="http://www.w3.org/1999/xlink">
<g id="graph0" class="graph" transform="scale(1 1) rotate(0) translate(4 100)">
<title>it.unisa.biblioteca.gruppo21.service.Validatore</title>
<!-- Node1 -->
<g id="Node000001" class="node">
<title>Node1</title>
<g id="a_Node000001"><a xlink:title=" ">
<polygon fill="#999999" stroke="none" points="164,-96 0,-96 0,0 164,0 164,-96"/>
<text xml:space="preserve" text-anchor="start" x="4" y="-82.5" font-family="Helvetica,sans-Serif" font-size="10.00">it.unisa.biblioteca.gruppo21.service.</text>
<text xml:space="preserve" text-anchor="start" x="60.62" y="-70.5" font-family="Helvetica,sans-Serif" font-size="10.00">Validatore</text>
<text xml:space="preserve" text-anchor="start" x="15.75" y="-54.5" font-family="Helvetica,sans-Serif" font-size="10.00">&#45;</text>
<text xml:space="preserve" text-anchor="start" x="34.5" y="-54.5" font-family="Helvetica,sans-Serif" font-size="10.00">DOMINIO_RICHIESTO</text>
<text xml:space="preserve" text-anchor="start" x="14.25" y="-38.5" font-family="Helvetica,sans-Serif" font-size="10.00">+</text>
<text xml:space="preserve" text-anchor="start" x="34.5" y="-38.5" font-family="Helvetica,sans-Serif" font-size="10.00">validaEmail()</text>
<text xml:space="preserve" text-anchor="start" x="14.25" y="-22.5" font-family="Helvetica,sans-Serif" font-size="10.00">+</text>
<text xml:space="preserve" text-anchor="start" x="34.5" y="-22.5" font-family="Helvetica,sans-Serif" font-size="10.00">validaMatricola()</text>
<text xml:space="preserve" text-anchor="start" x="14.25" y="-6.5" font-family="Helvetica,sans-Serif" font-size="10.00">+</text>
<text xml:space="preserve" text-anchor="start" x="34.5" y="-6.5" font-family="Helvetica,sans-Serif" font-size="10.00">validaISBN()</text>
<polygon fill="#666666" stroke="#666666" points="0,-66 0,-66 164,-66 164,-66 0,-66"/>
<polygon fill="#666666" stroke="#666666" points="0,-50 0,-50 32.5,-50 32.5,-50 0,-50"/>
<polygon fill="#666666" stroke="#666666" points="32.5,-50 32.5,-50 164,-50 164,-50 32.5,-50"/>
<polygon fill="none" stroke="#666666" points="0,0 0,-96 164,-96 164,0 0,0"/>
</a>
</g>
</g>
</g>
</svg>
