<?xml version="1.0" encoding="UTF-8" standalone="no"?>
<!DOCTYPE svg PUBLIC "-//W3C//DTD SVG 1.1//EN"
 "http://www.w3.org/Graphics/SVG/1.1/DTD/svg11.dtd">
<!-- Generated by graphviz version 14.1.0 (20251206.1807)
 -->
<!-- Title: it.unisa.biblioteca.gruppo21.entity.Prestito Pages: 1 -->
<svg width="164pt" height="304pt"
 viewBox="0.00 0.00 164.00 304.00" xmlns="http://www.w3.org/2000/svg" xmlns:xlink="http://www.w3.org/1999/xlink">
<g id="graph0" class="graph" transform="scale(1 1) rotate(0) translate(4 300)">
<title>it.unisa.biblioteca.gruppo21.entity.Prestito</title>
<!-- Node1 -->
<g id="Node000001" class="node">
<title>Node1</title>
<g id="a_Node000001"><a xlink:title=" ">
<polygon fill="#999999" stroke="none" points="155.75,-208 0,-208 0,0 155.75,0 155.75,-208"/>
<text xml:space="preserve" text-anchor="start" x="4" y="-194.5" font-family="Helvetica,sans-Serif" font-size="10.00">it.unisa.biblioteca.gruppo21.entity.</text>
<text xml:space="preserve" text-anchor="start" x="61" y="-182.5" font-family="Helvetica,sans-Serif" font-size="10.00">Prestito</text>
<text xml:space="preserve" text-anchor="start" x="16.12" y="-166.5" font-family="Helvetica,sans-Serif" font-size="10.00">&#45;</text>
<text xml:space="preserve" text-anchor="start" x="35.25" y="-166.5" font-family="Helvetica,sans-Serif" font-size="10.00">utente</text>
<text xml:space="preserve" text-anchor="start" x="16.12" y="-150.5" font-family="Helvetica,sans-Serif" font-size="10.00">&#45;</text>
<text xml:space="preserve" text-anchor="start" x="35.25" y="-150.5" font-family="Helvetica,sans-Serif" font-size="10.00">libro</text>
<text xml:space="preserve" text-anchor="start" x="16.12" y="-134.5" font-family="Helvetica,sans-Serif" font-size="10.00">&#45;</text>
<text xml:space="preserve" text-anchor="start" x="35.25" y="-134.5" font-family="Helvetica,sans-Serif" font-size="10.00">dataRestituzione</text>
<text xml:space="preserve" text-anchor="start" x="16.12" y="-118.5" font-family="Helvetica,sans-Serif" font-size="10.00">&#45;</text>
<text xml:space="preserve" text-anchor="start" x="35.25" y="-118.5" font-family="Helvetica,sans-Serif" font-size="10.00">stato</text>
<text xml:space="preserve" text-anchor="start" x="14.62" y="-102.5" font-family="Helvetica,sans-Serif" font-size="10.00">+</text>
<text xml:space="preserve" text-anchor="start" x="35.25" y="-102.5" font-family="Helvetica,sans-Serif" font-size="10.00">Prestito()</text>
<text xml:space="preserve" text-anchor="start" x="14.62" y="-86.5" font-family="Helvetica,sans-Serif" font-size="10.00">+</text>
<text xml:space="preserve" text-anchor="start" x="35.25" y="-86.5" font-family="Helvetica,sans-Serif" font-size="10.00">getUtente()</text>
<text xml:space="preserve" text-anchor="start" x="14.62" y="-70.5" font-family="Helvetica,sans-Serif" font-size="10.00">+</text>
<text xml:space="preserve" text-anchor="start" x="35.25" y="-70.5" font-family="Helvetica,sans-Serif" font-size="10.00">getLibro()</text>
<text xml:space="preserve" text-anchor="start" x="14.62" y="-54.5" font-family="Helvetica,sans-Serif" font-size="10.00">+</text>
<text xml:space="preserve" text-anchor="start" x="35.25" y="-54.5" font-family="Helvetica,sans-Serif" font-size="10.00">getDataRestituzione()</text>
<text xml:space="preserve" text-anchor="start" x="14.62" y="-38.5" font-family="Helvetica,sans-Serif" font-size="10.00">+</text>
<text xml:space="preserve" text-anchor="start" x="35.25" y="-38.5" font-family="Helvetica,sans-Serif" font-size="10.00">getStato()</text>
<text xml:space="preserve" text-anchor="start" x="14.62" y="-22.5" font-family="Helvetica,sans-Serif" font-size="10.00">+</text>
<text xml:space="preserve" text-anchor="start" x="35.25" y="-22.5" font-family="Helvetica,sans-Serif" font-size="10.00">setStato()</text>
<text xml:space="preserve" text-anchor="start" x="14.62" y="-6.5" font-family="Helvetica,sans-Serif" font-size="10.00">+</text>
<text xml:space="preserve" text-anchor="start" x="35.25" y="-6.5" font-family="Helvetica,sans-Serif" font-size="10.00">compareTo()</text>
<polygon fill="#666666" stroke="#666666" points="0,-178 0,-178 155.75,-178 155.75,-178 0,-178"/>
<polygon fill="#666666" stroke="#666666" points="0,-114 0,-114 33.25,-114 33.25,-114 0,-114"/>
<polygon fill="#666666" stroke="#666666" points="33.25,-114 33.25,-114 155.75,-114 155.75,-114 33.25,-114"/>
<polygon fill="none" stroke="#666666" points="0,0 0,-208 155.75,-208 155.75,0 0,0"/>
</a>
</g>
</g>
<!-- Node2 -->
<g id="Node000002" class="node">
<title>Node2</title>
<g id="a_Node000002"><a xlink:title=" ">
<polygon fill="white" stroke="none" points="134,-296 21.75,-296 21.75,-244 134,-244 134,-296"/>
<text xml:space="preserve" text-anchor="start" x="25.75" y="-282.5" font-family="Helvetica,sans-Serif" font-size="10.00">Comparable&lt; Prestito &gt;</text>
<text xml:space="preserve" text-anchor="start" x="76.38" y="-266.5" font-family="Helvetica,sans-Serif" font-size="10.00"> </text>
<text xml:space="preserve" text-anchor="start" x="76.38" y="-250.5" font-family="Helvetica,sans-Serif" font-size="10.00"> </text>
<polygon fill="#bfbfbf" stroke="#bfbfbf" points="21.75,-278 21.75,-278 134,-278 134,-278 21.75,-278"/>
<polygon fill="#bfbfbf" stroke="#bfbfbf" points="21.75,-262 21.75,-262 134,-262 134,-262 21.75,-262"/>
<polygon fill="none" stroke="#bfbfbf" points="21.75,-244 21.75,-296 134,-296 134,-244 21.75,-244"/>
</a>
</g>
</g>
<!-- Node2&#45;&gt;Node1 -->
<g id="edge1_Node000001_Node000002" class="edge">
<title>Node2&#45;&gt;Node1</title>
<g id="a_edge1_Node000001_Node000002"><a xlink:title=" ">
<path fill="none" stroke="#63b8ff" d="M77.88,-232.79C77.88,-225.15 77.88,-216.72 77.88,-207.96"/>
<polygon fill="none" stroke="#63b8ff" points="74.38,-232.58 77.88,-242.58 81.38,-232.58 74.38,-232.58"/>
</a>
</g>
</g>
</g>
</svg>
