<?xml version="1.0" encoding="UTF-8" standalone="no"?>
<!DOCTYPE svg PUBLIC "-//W3C//DTD SVG 1.1//EN"
 "http://www.w3.org/Graphics/SVG/1.1/DTD/svg11.dtd">
<!-- Generated by graphviz version 14.1.0 (20251206.1807)
 -->
<!-- Title: it.unisa.biblioteca.gruppo21.service.Biblioteca Pages: 1 -->
<svg width="572pt" height="873pt"
 viewBox="0.00 0.00 572.00 873.00" xmlns="http://www.w3.org/2000/svg" xmlns:xlink="http://www.w3.org/1999/xlink">
<g id="graph0" class="graph" transform="scale(1 1) rotate(0) translate(4 869)">
<title>it.unisa.biblioteca.gruppo21.service.Biblioteca</title>
<!-- Node1 -->
<g id="Node000001" class="node">
<title>Node1</title>
<g id="a_Node000001"><a xlink:title=" ">
<polygon fill="#999999" stroke="none" points="365,-272 201,-272 201,0 365,0 365,-272"/>
<text xml:space="preserve" text-anchor="start" x="205" y="-258.5" font-family="Helvetica,sans-Serif" font-size="10.00">it.unisa.biblioteca.gruppo21.service.</text>
<text xml:space="preserve" text-anchor="start" x="261.62" y="-246.5" font-family="Helvetica,sans-Serif" font-size="10.00">Biblioteca</text>
<text xml:space="preserve" text-anchor="start" x="281.5" y="-230.5" font-family="Helvetica,sans-Serif" font-size="10.00"> </text>
<text xml:space="preserve" text-anchor="start" x="221.25" y="-214.5" font-family="Helvetica,sans-Serif" font-size="10.00">+</text>
<text xml:space="preserve" text-anchor="start" x="247.5" y="-214.5" font-family="Helvetica,sans-Serif" font-size="10.00">Biblioteca()</text>
<text xml:space="preserve" text-anchor="start" x="221.25" y="-198.5" font-family="Helvetica,sans-Serif" font-size="10.00">+</text>
<text xml:space="preserve" text-anchor="start" x="247.5" y="-198.5" font-family="Helvetica,sans-Serif" font-size="10.00">iscriviUtente()</text>
<text xml:space="preserve" text-anchor="start" x="221.25" y="-182.5" font-family="Helvetica,sans-Serif" font-size="10.00">+</text>
<text xml:space="preserve" text-anchor="start" x="247.5" y="-182.5" font-family="Helvetica,sans-Serif" font-size="10.00">modificaUtente()</text>
<text xml:space="preserve" text-anchor="start" x="221.25" y="-166.5" font-family="Helvetica,sans-Serif" font-size="10.00">+</text>
<text xml:space="preserve" text-anchor="start" x="247.5" y="-166.5" font-family="Helvetica,sans-Serif" font-size="10.00">rimuoviUtente()</text>
<text xml:space="preserve" text-anchor="start" x="221.25" y="-150.5" font-family="Helvetica,sans-Serif" font-size="10.00">+</text>
<text xml:space="preserve" text-anchor="start" x="247.5" y="-150.5" font-family="Helvetica,sans-Serif" font-size="10.00">getElencoUtenti()</text>
<text xml:space="preserve" text-anchor="start" x="221.25" y="-134.5" font-family="Helvetica,sans-Serif" font-size="10.00">+</text>
<text xml:space="preserve" text-anchor="start" x="247.5" y="-134.5" font-family="Helvetica,sans-Serif" font-size="10.00">cercaUtenti()</text>
<text xml:space="preserve" text-anchor="start" x="221.25" y="-118.5" font-family="Helvetica,sans-Serif" font-size="10.00">+</text>
<text xml:space="preserve" text-anchor="start" x="247.5" y="-118.5" font-family="Helvetica,sans-Serif" font-size="10.00">aggiungiLibro()</text>
<text xml:space="preserve" text-anchor="start" x="221.25" y="-102.5" font-family="Helvetica,sans-Serif" font-size="10.00">+</text>
<text xml:space="preserve" text-anchor="start" x="247.5" y="-102.5" font-family="Helvetica,sans-Serif" font-size="10.00">rimuoviLibro()</text>
<text xml:space="preserve" text-anchor="start" x="221.25" y="-86.5" font-family="Helvetica,sans-Serif" font-size="10.00">+</text>
<text xml:space="preserve" text-anchor="start" x="247.5" y="-86.5" font-family="Helvetica,sans-Serif" font-size="10.00">getElencoLibri()</text>
<text xml:space="preserve" text-anchor="start" x="221.25" y="-70.5" font-family="Helvetica,sans-Serif" font-size="10.00">+</text>
<text xml:space="preserve" text-anchor="start" x="247.5" y="-70.5" font-family="Helvetica,sans-Serif" font-size="10.00">cercaLibri()</text>
<text xml:space="preserve" text-anchor="start" x="221.25" y="-54.5" font-family="Helvetica,sans-Serif" font-size="10.00">+</text>
<text xml:space="preserve" text-anchor="start" x="247.5" y="-54.5" font-family="Helvetica,sans-Serif" font-size="10.00">effettuaPrestito()</text>
<text xml:space="preserve" text-anchor="start" x="221.25" y="-38.5" font-family="Helvetica,sans-Serif" font-size="10.00">+</text>
<text xml:space="preserve" text-anchor="start" x="247.5" y="-38.5" font-family="Helvetica,sans-Serif" font-size="10.00">restituisciLibro()</text>
<text xml:space="preserve" text-anchor="start" x="221.25" y="-22.5" font-family="Helvetica,sans-Serif" font-size="10.00">+</text>
<text xml:space="preserve" text-anchor="start" x="247.5" y="-22.5" font-family="Helvetica,sans-Serif" font-size="10.00">getStoricoPrestiti()</text>
<text xml:space="preserve" text-anchor="start" x="221.25" y="-6.5" font-family="Helvetica,sans-Serif" font-size="10.00">+</text>
<text xml:space="preserve" text-anchor="start" x="247.5" y="-6.5" font-family="Helvetica,sans-Serif" font-size="10.00">controllaRitardi()</text>
<polygon fill="#666666" stroke="#666666" points="201,-242 201,-242 365,-242 365,-242 201,-242"/>
<polygon fill="#666666" stroke="#666666" points="201,-226 201,-226 365,-226 365,-226 201,-226"/>
<polygon fill="none" stroke="#666666" points="201,0 201,-272 365,-272 365,0 201,0"/>
</a>
</g>
</g>
<!-- Node2 -->
<g id="Node000002" class="node">
<title>Node2</title>
<g id="a_Node000002"><a xlink:href="classit_1_1unisa_1_1biblioteca_1_1gruppo21_1_1service_1_1_service_utenti.html" target="_top" xlink:title=" ">
<polygon fill="white" stroke="none" points="183,-470 19,-470 19,-326 183,-326 183,-470"/>
<text xml:space="preserve" text-anchor="start" x="23" y="-456.5" font-family="Helvetica,sans-Serif" font-size="10.00">it.unisa.biblioteca.gruppo21.service.</text>
<text xml:space="preserve" text-anchor="start" x="71.38" y="-444.5" font-family="Helvetica,sans-Serif" font-size="10.00">ServiceUtenti</text>
<text xml:space="preserve" text-anchor="start" x="99.5" y="-428.5" font-family="Helvetica,sans-Serif" font-size="10.00"> </text>
<text xml:space="preserve" text-anchor="start" x="37" y="-412.5" font-family="Helvetica,sans-Serif" font-size="10.00">+</text>
<text xml:space="preserve" text-anchor="start" x="61" y="-412.5" font-family="Helvetica,sans-Serif" font-size="10.00">ServiceUtenti()</text>
<text xml:space="preserve" text-anchor="start" x="37" y="-396.5" font-family="Helvetica,sans-Serif" font-size="10.00">+</text>
<text xml:space="preserve" text-anchor="start" x="61" y="-396.5" font-family="Helvetica,sans-Serif" font-size="10.00">iscrivi()</text>
<text xml:space="preserve" text-anchor="start" x="37" y="-380.5" font-family="Helvetica,sans-Serif" font-size="10.00">+</text>
<text xml:space="preserve" text-anchor="start" x="61" y="-380.5" font-family="Helvetica,sans-Serif" font-size="10.00">modificaDatiUtente()</text>
<text xml:space="preserve" text-anchor="start" x="37" y="-364.5" font-family="Helvetica,sans-Serif" font-size="10.00">+</text>
<text xml:space="preserve" text-anchor="start" x="61" y="-364.5" font-family="Helvetica,sans-Serif" font-size="10.00">rimuovi()</text>
<text xml:space="preserve" text-anchor="start" x="37" y="-348.5" font-family="Helvetica,sans-Serif" font-size="10.00">+</text>
<text xml:space="preserve" text-anchor="start" x="61" y="-348.5" font-family="Helvetica,sans-Serif" font-size="10.00">cerca()</text>
<text xml:space="preserve" text-anchor="start" x="37" y="-332.5" font-family="Helvetica,sans-Serif" font-size="10.00">+</text>
<text xml:space="preserve" text-anchor="start" x="61" y="-332.5" font-family="Helvetica,sans-Serif" font-size="10.00">getLista()</text>
<polygon fill="#666666" stroke="#666666" points="19,-440 19,-440 183,-440 183,-440 19,-440"/>
<polygon fill="#666666" stroke="#666666" points="19,-424 19,-424 183,-424 183,-424 19,-424"/>
<polygon fill="none" stroke="#666666" points="19,-326 19,-470 183,-470 183,-326 19,-326"/>
</a>
</g>
</g>
<!-- Node2&#45;&gt;Node1 -->
<g id="edge1_Node000001_Node000002" class="edge">
<title>Node2&#45;&gt;Node1</title>
<g id="a_edge1_Node000001_Node000002"><a xlink:title=" ">
<path fill="none" stroke="#63b8ff" d="M150.49,-326.3C163.97,-307.04 178.99,-285.58 193.95,-264.22"/>
<polygon fill="none" stroke="#63b8ff" points="193.88,-264.32 194.04,-257.11 200.76,-254.48 200.6,-261.69 193.88,-264.32"/>
</a>
</g>
<text xml:space="preserve" text-anchor="start" x="178.7" y="-295.5" font-family="Helvetica,sans-Serif" font-size="10.00" fill="grey">&#45;serviceUtenti</text>
</g>
<!-- Node3 -->
<g id="Node000003" class="node">
<title>Node3</title>
<g id="a_Node000003"><a xlink:href="classit_1_1unisa_1_1biblioteca_1_1gruppo21_1_1archive_1_1_archive_utenti.html" target="_top" xlink:title=" ">
<polygon fill="white" stroke="none" points="164,-636 0,-636 0,-524 164,-524 164,-636"/>
<text xml:space="preserve" text-anchor="start" x="4" y="-622.5" font-family="Helvetica,sans-Serif" font-size="10.00">it.unisa.biblioteca.gruppo21.archive.</text>
<text xml:space="preserve" text-anchor="start" x="52.38" y="-610.5" font-family="Helvetica,sans-Serif" font-size="10.00">ArchiveUtenti</text>
<text xml:space="preserve" text-anchor="start" x="80.5" y="-594.5" font-family="Helvetica,sans-Serif" font-size="10.00"> </text>
<text xml:space="preserve" text-anchor="start" x="24.19" y="-578.5" font-family="Helvetica,sans-Serif" font-size="10.00">+</text>
<text xml:space="preserve" text-anchor="start" x="54.38" y="-578.5" font-family="Helvetica,sans-Serif" font-size="10.00">ArchiveUtenti()</text>
<text xml:space="preserve" text-anchor="start" x="24.19" y="-562.5" font-family="Helvetica,sans-Serif" font-size="10.00">+</text>
<text xml:space="preserve" text-anchor="start" x="54.38" y="-562.5" font-family="Helvetica,sans-Serif" font-size="10.00">cerca()</text>
<text xml:space="preserve" text-anchor="start" x="24.56" y="-546.5" font-family="Helvetica,sans-Serif" font-size="10.00">#</text>
<text xml:space="preserve" text-anchor="start" x="54.38" y="-546.5" font-family="Helvetica,sans-Serif" font-size="10.00">serializza()</text>
<text xml:space="preserve" text-anchor="start" x="24.56" y="-530.5" font-family="Helvetica,sans-Serif" font-size="10.00">#</text>
<text xml:space="preserve" text-anchor="start" x="54.38" y="-530.5" font-family="Helvetica,sans-Serif" font-size="10.00">deserializza()</text>
<polygon fill="#666666" stroke="#666666" points="0,-606 0,-606 164,-606 164,-606 0,-606"/>
<polygon fill="#666666" stroke="#666666" points="0,-590 0,-590 164,-590 164,-590 0,-590"/>
<polygon fill="none" stroke="#666666" points="0,-524 0,-636 164,-636 164,-524 0,-524"/>
</a>
</g>
</g>
<!-- Node3&#45;&gt;Node2 -->
<g id="edge2_Node000002_Node000003" class="edge">
<title>Node3&#45;&gt;Node2</title>
<g id="a_edge2_Node000002_Node000003"><a xlink:title=" ">
<path fill="none" stroke="#63b8ff" d="M64.33,-524.13C62.44,-512.22 61.93,-499.68 64.25,-488 64.64,-486.01 65.08,-484.01 65.56,-482"/>
<polygon fill="none" stroke="#63b8ff" points="65.54,-482.08 63.28,-475.23 68.73,-470.51 70.99,-477.36 65.54,-482.08"/>
</a>
</g>
<text xml:space="preserve" text-anchor="start" x="67.25" y="-493.5" font-family="Helvetica,sans-Serif" font-size="10.00" fill="grey">&#45;arcUtenti</text>
</g>
<!-- Node10 -->
<g id="Node000010" class="node">
<title>Node10</title>
<g id="a_Node000010"><a xlink:href="classit_1_1unisa_1_1biblioteca_1_1gruppo21_1_1service_1_1_service_prestiti.html" target="_top" xlink:title=" ">
<polygon fill="white" stroke="none" points="365,-462 201,-462 201,-334 365,-334 365,-462"/>
<text xml:space="preserve" text-anchor="start" x="205" y="-448.5" font-family="Helvetica,sans-Serif" font-size="10.00">it.unisa.biblioteca.gruppo21.service.</text>
<text xml:space="preserve" text-anchor="start" x="251.12" y="-436.5" font-family="Helvetica,sans-Serif" font-size="10.00">ServicePrestiti</text>
<text xml:space="preserve" text-anchor="start" x="281.5" y="-420.5" font-family="Helvetica,sans-Serif" font-size="10.00"> </text>
<text xml:space="preserve" text-anchor="start" x="223.69" y="-404.5" font-family="Helvetica,sans-Serif" font-size="10.00">+</text>
<text xml:space="preserve" text-anchor="start" x="252.38" y="-404.5" font-family="Helvetica,sans-Serif" font-size="10.00">ServicePrestiti()</text>
<text xml:space="preserve" text-anchor="start" x="223.69" y="-388.5" font-family="Helvetica,sans-Serif" font-size="10.00">+</text>
<text xml:space="preserve" text-anchor="start" x="252.38" y="-388.5" font-family="Helvetica,sans-Serif" font-size="10.00">nuovoPrestito()</text>
<text xml:space="preserve" text-anchor="start" x="223.69" y="-372.5" font-family="Helvetica,sans-Serif" font-size="10.00">+</text>
<text xml:space="preserve" text-anchor="start" x="252.38" y="-372.5" font-family="Helvetica,sans-Serif" font-size="10.00">restituzione()</text>
<text xml:space="preserve" text-anchor="start" x="223.69" y="-356.5" font-family="Helvetica,sans-Serif" font-size="10.00">+</text>
<text xml:space="preserve" text-anchor="start" x="252.38" y="-356.5" font-family="Helvetica,sans-Serif" font-size="10.00">controllaRitardi()</text>
<text xml:space="preserve" text-anchor="start" x="223.69" y="-340.5" font-family="Helvetica,sans-Serif" font-size="10.00">+</text>
<text xml:space="preserve" text-anchor="start" x="252.38" y="-340.5" font-family="Helvetica,sans-Serif" font-size="10.00">getLista()</text>
<polygon fill="#666666" stroke="#666666" points="201,-432 201,-432 365,-432 365,-432 201,-432"/>
<polygon fill="#666666" stroke="#666666" points="201,-416 201,-416 365,-416 365,-416 201,-416"/>
<polygon fill="none" stroke="#666666" points="201,-334 201,-462 365,-462 365,-334 201,-334"/>
</a>
</g>
</g>
<!-- Node3&#45;&gt;Node10 -->
<g id="edge13_Node000010_Node000003" class="edge">
<title>Node3&#45;&gt;Node10</title>
<g id="a_edge13_Node000010_Node000003"><a xlink:title=" ">
<path fill="none" stroke="#63b8ff" d="M108.15,-524.13C116.56,-510.86 126.95,-497.72 139.25,-488 158.68,-472.64 170.21,-481.78 192,-470 192.86,-469.54 193.72,-469.06 194.58,-468.58"/>
<polygon fill="none" stroke="#63b8ff" points="194.64,-468.55 197.75,-462.04 204.95,-462.41 201.84,-468.92 194.64,-468.55"/>
</a>
</g>
<text xml:space="preserve" text-anchor="start" x="142.25" y="-493.5" font-family="Helvetica,sans-Serif" font-size="10.00" fill="grey">&#45;arcUtenti</text>
</g>
<!-- Node4 -->
<g id="Node000004" class="node">
<title>Node4</title>
<g id="a_Node000004"><a xlink:href="classit_1_1unisa_1_1biblioteca_1_1gruppo21_1_1archive_1_1_archive_astratto.html" target="_top" xlink:title=" ">
<polygon fill="white" stroke="none" points="164,-865 0,-865 0,-673 164,-673 164,-865"/>
<text xml:space="preserve" text-anchor="start" x="4" y="-851.5" font-family="Helvetica,sans-Serif" font-size="10.00">it.unisa.biblioteca.gruppo21.archive.</text>
<text xml:space="preserve" text-anchor="start" x="24.62" y="-839.5" font-family="Helvetica,sans-Serif" font-size="10.00">ArchiveAstratto&lt; Utente &gt;</text>
<text xml:space="preserve" text-anchor="start" x="22.5" y="-823.5" font-family="Helvetica,sans-Serif" font-size="10.00">#</text>
<text xml:space="preserve" text-anchor="start" x="50.25" y="-823.5" font-family="Helvetica,sans-Serif" font-size="10.00">cache</text>
<text xml:space="preserve" text-anchor="start" x="22.5" y="-807.5" font-family="Helvetica,sans-Serif" font-size="10.00">#</text>
<text xml:space="preserve" text-anchor="start" x="50.25" y="-807.5" font-family="Helvetica,sans-Serif" font-size="10.00">file</text>
<text xml:space="preserve" text-anchor="start" x="22.12" y="-791.5" font-family="Helvetica,sans-Serif" font-size="10.00">+</text>
<text xml:space="preserve" text-anchor="start" x="50.25" y="-791.5" font-family="Helvetica,sans-Serif" font-size="10.00">ArchiveAstratto()</text>
<text xml:space="preserve" text-anchor="start" x="22.12" y="-775.5" font-family="Helvetica,sans-Serif" font-size="10.00">+</text>
<text xml:space="preserve" text-anchor="start" x="50.25" y="-775.5" font-family="Helvetica,sans-Serif" font-size="10.00">cerca()</text>
<text xml:space="preserve" text-anchor="start" x="22.12" y="-759.5" font-family="Helvetica,sans-Serif" font-size="10.00">+</text>
<text xml:space="preserve" text-anchor="start" x="50.25" y="-759.5" font-family="Helvetica,sans-Serif" font-size="10.00">aggiungi()</text>
<text xml:space="preserve" text-anchor="start" x="22.12" y="-743.5" font-family="Helvetica,sans-Serif" font-size="10.00">+</text>
<text xml:space="preserve" text-anchor="start" x="50.25" y="-743.5" font-family="Helvetica,sans-Serif" font-size="10.00">cancella()</text>
<text xml:space="preserve" text-anchor="start" x="22.12" y="-727.5" font-family="Helvetica,sans-Serif" font-size="10.00">+</text>
<text xml:space="preserve" text-anchor="start" x="50.25" y="-727.5" font-family="Helvetica,sans-Serif" font-size="10.00">leggiTutti()</text>
<text xml:space="preserve" text-anchor="start" x="22.5" y="-711.5" font-family="Helvetica,sans-Serif" font-size="10.00">#</text>
<text xml:space="preserve" text-anchor="start" x="50.25" y="-711.5" font-family="Helvetica,sans-Serif" font-size="10.00">serializza()</text>
<text xml:space="preserve" text-anchor="start" x="22.5" y="-695.5" font-family="Helvetica,sans-Serif" font-size="10.00">#</text>
<text xml:space="preserve" text-anchor="start" x="50.25" y="-695.5" font-family="Helvetica,sans-Serif" font-size="10.00">deserializza()</text>
<text xml:space="preserve" text-anchor="start" x="22.5" y="-679.5" font-family="Helvetica,sans-Serif" font-size="10.00">#</text>
<text xml:space="preserve" text-anchor="start" x="50.25" y="-679.5" font-family="Helvetica,sans-Serif" font-size="10.00">salvaTutto()</text>
<polygon fill="#666666" stroke="#666666" points="0,-835 0,-835 164,-835 164,-835 0,-835"/>
<polygon fill="#666666" stroke="#666666" points="0,-803 0,-803 48.25,-803 48.25,-803 0,-803"/>
<polygon fill="#666666" stroke="#666666" points="48.25,-803 48.25,-803 164,-803 164,-803 48.25,-803"/>
<polygon fill="none" stroke="#666666" points="0,-673 0,-865 164,-865 164,-673 0,-673"/>
</a>
</g>
</g>
<!-- Node4&#45;&gt;Node3 -->
<g id="edge3_Node000003_Node000004" class="edge">
<title>Node4&#45;&gt;Node3</title>
<g id="a_edge3_Node000003_Node000004"><a xlink:title=" ">
<path fill="none" stroke="#63b8ff" d="M82,-661.73C82,-652.78 82,-643.99 82,-635.69"/>
<polygon fill="none" stroke="#63b8ff" points="78.5,-661.62 82,-671.62 85.5,-661.62 78.5,-661.62"/>
</a>
</g>
</g>
<!-- Node5 -->
<g id="Node000005" class="node">
<title>Node5</title>
<g id="a_Node000005"><a xlink:href="classit_1_1unisa_1_1biblioteca_1_1gruppo21_1_1archive_1_1_archive_prestiti.html" target="_top" xlink:title=" ">
<polygon fill="white" stroke="none" points="365,-636 201,-636 201,-524 365,-524 365,-636"/>
<text xml:space="preserve" text-anchor="start" x="205" y="-622.5" font-family="Helvetica,sans-Serif" font-size="10.00">it.unisa.biblioteca.gruppo21.archive.</text>
<text xml:space="preserve" text-anchor="start" x="251.12" y="-610.5" font-family="Helvetica,sans-Serif" font-size="10.00">ArchivePrestiti</text>
<text xml:space="preserve" text-anchor="start" x="281.5" y="-594.5" font-family="Helvetica,sans-Serif" font-size="10.00"> </text>
<text xml:space="preserve" text-anchor="start" x="224.06" y="-578.5" font-family="Helvetica,sans-Serif" font-size="10.00">+</text>
<text xml:space="preserve" text-anchor="start" x="253.12" y="-578.5" font-family="Helvetica,sans-Serif" font-size="10.00">ArchivePrestiti()</text>
<text xml:space="preserve" text-anchor="start" x="224.06" y="-562.5" font-family="Helvetica,sans-Serif" font-size="10.00">+</text>
<text xml:space="preserve" text-anchor="start" x="253.12" y="-562.5" font-family="Helvetica,sans-Serif" font-size="10.00">cerca()</text>
<text xml:space="preserve" text-anchor="start" x="224.44" y="-546.5" font-family="Helvetica,sans-Serif" font-size="10.00">#</text>
<text xml:space="preserve" text-anchor="start" x="253.12" y="-546.5" font-family="Helvetica,sans-Serif" font-size="10.00">serializza()</text>
<text xml:space="preserve" text-anchor="start" x="224.44" y="-530.5" font-family="Helvetica,sans-Serif" font-size="10.00">#</text>
<text xml:space="preserve" text-anchor="start" x="253.12" y="-530.5" font-family="Helvetica,sans-Serif" font-size="10.00">deserializza()</text>
<polygon fill="#666666" stroke="#666666" points="201,-606 201,-606 365,-606 365,-606 201,-606"/>
<polygon fill="#666666" stroke="#666666" points="201,-590 201,-590 365,-590 365,-590 201,-590"/>
<polygon fill="none" stroke="#666666" points="201,-524 201,-636 365,-636 365,-524 201,-524"/>
</a>
</g>
</g>
<!-- Node5&#45;&gt;Node2 -->
<g id="edge4_Node000002_Node000005" class="edge">
<title>Node5&#45;&gt;Node2</title>
<g id="a_edge4_Node000002_Node000005"><a xlink:title=" ">
<path fill="none" stroke="#63b8ff" d="M227.41,-524.02C212.99,-509.76 197.16,-494.11 181.74,-478.85"/>
<polygon fill="none" stroke="#63b8ff" points="181.89,-479 174.81,-477.62 173.36,-470.56 180.43,-471.94 181.89,-479"/>
</a>
</g>
<text xml:space="preserve" text-anchor="start" x="211.3" y="-493.5" font-family="Helvetica,sans-Serif" font-size="10.00" fill="grey">&#45;arcPrestiti</text>
</g>
<!-- Node7 -->
<g id="Node000007" class="node">
<title>Node7</title>
<g id="a_Node000007"><a xlink:href="classit_1_1unisa_1_1biblioteca_1_1gruppo21_1_1service_1_1_service_libri.html" target="_top" xlink:title=" ">
<polygon fill="white" stroke="none" points="547,-470 383,-470 383,-326 547,-326 547,-470"/>
<text xml:space="preserve" text-anchor="start" x="387" y="-456.5" font-family="Helvetica,sans-Serif" font-size="10.00">it.unisa.biblioteca.gruppo21.service.</text>
<text xml:space="preserve" text-anchor="start" x="439.5" y="-444.5" font-family="Helvetica,sans-Serif" font-size="10.00">ServiceLibri</text>
<text xml:space="preserve" text-anchor="start" x="463.5" y="-428.5" font-family="Helvetica,sans-Serif" font-size="10.00"> </text>
<text xml:space="preserve" text-anchor="start" x="406.44" y="-412.5" font-family="Helvetica,sans-Serif" font-size="10.00">+</text>
<text xml:space="preserve" text-anchor="start" x="435.88" y="-412.5" font-family="Helvetica,sans-Serif" font-size="10.00">ServiceLibri()</text>
<text xml:space="preserve" text-anchor="start" x="406.44" y="-396.5" font-family="Helvetica,sans-Serif" font-size="10.00">+</text>
<text xml:space="preserve" text-anchor="start" x="435.88" y="-396.5" font-family="Helvetica,sans-Serif" font-size="10.00">aggiungi()</text>
<text xml:space="preserve" text-anchor="start" x="406.44" y="-380.5" font-family="Helvetica,sans-Serif" font-size="10.00">+</text>
<text xml:space="preserve" text-anchor="start" x="435.88" y="-380.5" font-family="Helvetica,sans-Serif" font-size="10.00">aggiornaCopie()</text>
<text xml:space="preserve" text-anchor="start" x="406.44" y="-364.5" font-family="Helvetica,sans-Serif" font-size="10.00">+</text>
<text xml:space="preserve" text-anchor="start" x="435.88" y="-364.5" font-family="Helvetica,sans-Serif" font-size="10.00">rimuovi()</text>
<text xml:space="preserve" text-anchor="start" x="406.44" y="-348.5" font-family="Helvetica,sans-Serif" font-size="10.00">+</text>
<text xml:space="preserve" text-anchor="start" x="435.88" y="-348.5" font-family="Helvetica,sans-Serif" font-size="10.00">cerca()</text>
<text xml:space="preserve" text-anchor="start" x="406.44" y="-332.5" font-family="Helvetica,sans-Serif" font-size="10.00">+</text>
<text xml:space="preserve" text-anchor="start" x="435.88" y="-332.5" font-family="Helvetica,sans-Serif" font-size="10.00">getLista()</text>
<polygon fill="#bfbfbf" stroke="#bfbfbf" points="383,-440 383,-440 547,-440 547,-440 383,-440"/>
<polygon fill="#bfbfbf" stroke="#bfbfbf" points="383,-424 383,-424 547,-424 547,-424 383,-424"/>
<polygon fill="none" stroke="#bfbfbf" points="383,-326 383,-470 547,-470 547,-326 383,-326"/>
</a>
</g>
</g>
<!-- Node5&#45;&gt;Node7 -->
<g id="edge9_Node000007_Node000005" class="edge">
<title>Node5&#45;&gt;Node7</title>
<g id="a_edge9_Node000007_Node000005"><a xlink:title=" ">
<path fill="none" stroke="#63b8ff" d="M326.6,-524.26C337.08,-511.98 348.5,-499.26 359.75,-488 364.23,-483.51 368.92,-479 373.71,-474.51"/>
<polygon fill="none" stroke="#63b8ff" points="373.54,-474.67 375.25,-467.66 382.38,-466.55 380.66,-473.55 373.54,-474.67"/>
</a>
</g>
<text xml:space="preserve" text-anchor="start" x="362.75" y="-493.5" font-family="Helvetica,sans-Serif" font-size="10.00" fill="grey">&#45;arcPrestiti</text>
</g>
<!-- Node5&#45;&gt;Node10 -->
<g id="edge11_Node000010_Node000005" class="edge">
<title>Node5&#45;&gt;Node10</title>
<g id="a_edge11_Node000010_Node000005"><a xlink:title=" ">
<path fill="none" stroke="#63b8ff" d="M283,-524.02C283,-508.52 283,-491.37 283,-474.88"/>
<polygon fill="none" stroke="#63b8ff" points="283,-474.74 279,-468.74 283,-462.74 287,-468.74 283,-474.74"/>
</a>
</g>
<text xml:space="preserve" text-anchor="start" x="286" y="-493.5" font-family="Helvetica,sans-Serif" font-size="10.00" fill="grey">&#45;arcPrestiti</text>
</g>
<!-- Node6 -->
<g id="Node000006" class="node">
<title>Node6</title>
<g id="a_Node000006"><a xlink:href="classit_1_1unisa_1_1biblioteca_1_1gruppo21_1_1archive_1_1_archive_astratto.html" target="_top" xlink:title=" ">
<polygon fill="white" stroke="none" points="365,-865 201,-865 201,-673 365,-673 365,-865"/>
<text xml:space="preserve" text-anchor="start" x="205" y="-851.5" font-family="Helvetica,sans-Serif" font-size="10.00">it.unisa.biblioteca.gruppo21.archive.</text>
<text xml:space="preserve" text-anchor="start" x="223.38" y="-839.5" font-family="Helvetica,sans-Serif" font-size="10.00">ArchiveAstratto&lt; Prestito &gt;</text>
<text xml:space="preserve" text-anchor="start" x="223.5" y="-823.5" font-family="Helvetica,sans-Serif" font-size="10.00">#</text>
<text xml:space="preserve" text-anchor="start" x="251.25" y="-823.5" font-family="Helvetica,sans-Serif" font-size="10.00">cache</text>
<text xml:space="preserve" text-anchor="start" x="223.5" y="-807.5" font-family="Helvetica,sans-Serif" font-size="10.00">#</text>
<text xml:space="preserve" text-anchor="start" x="251.25" y="-807.5" font-family="Helvetica,sans-Serif" font-size="10.00">file</text>
<text xml:space="preserve" text-anchor="start" x="223.12" y="-791.5" font-family="Helvetica,sans-Serif" font-size="10.00">+</text>
<text xml:space="preserve" text-anchor="start" x="251.25" y="-791.5" font-family="Helvetica,sans-Serif" font-size="10.00">ArchiveAstratto()</text>
<text xml:space="preserve" text-anchor="start" x="223.12" y="-775.5" font-family="Helvetica,sans-Serif" font-size="10.00">+</text>
<text xml:space="preserve" text-anchor="start" x="251.25" y="-775.5" font-family="Helvetica,sans-Serif" font-size="10.00">cerca()</text>
<text xml:space="preserve" text-anchor="start" x="223.12" y="-759.5" font-family="Helvetica,sans-Serif" font-size="10.00">+</text>
<text xml:space="preserve" text-anchor="start" x="251.25" y="-759.5" font-family="Helvetica,sans-Serif" font-size="10.00">aggiungi()</text>
<text xml:space="preserve" text-anchor="start" x="223.12" y="-743.5" font-family="Helvetica,sans-Serif" font-size="10.00">+</text>
<text xml:space="preserve" text-anchor="start" x="251.25" y="-743.5" font-family="Helvetica,sans-Serif" font-size="10.00">cancella()</text>
<text xml:space="preserve" text-anchor="start" x="223.12" y="-727.5" font-family="Helvetica,sans-Serif" font-size="10.00">+</text>
<text xml:space="preserve" text-anchor="start" x="251.25" y="-727.5" font-family="Helvetica,sans-Serif" font-size="10.00">leggiTutti()</text>
<text xml:space="preserve" text-anchor="start" x="223.5" y="-711.5" font-family="Helvetica,sans-Serif" font-size="10.00">#</text>
<text xml:space="preserve" text-anchor="start" x="251.25" y="-711.5" font-family="Helvetica,sans-Serif" font-size="10.00">serializza()</text>
<text xml:space="preserve" text-anchor="start" x="223.5" y="-695.5" font-family="Helvetica,sans-Serif" font-size="10.00">#</text>
<text xml:space="preserve" text-anchor="start" x="251.25" y="-695.5" font-family="Helvetica,sans-Serif" font-size="10.00">deserializza()</text>
<text xml:space="preserve" text-anchor="start" x="223.5" y="-679.5" font-family="Helvetica,sans-Serif" font-size="10.00">#</text>
<text xml:space="preserve" text-anchor="start" x="251.25" y="-679.5" font-family="Helvetica,sans-Serif" font-size="10.00">salvaTutto()</text>
<polygon fill="#666666" stroke="#666666" points="201,-835 201,-835 365,-835 365,-835 201,-835"/>
<polygon fill="#666666" stroke="#666666" points="201,-803 201,-803 249.25,-803 249.25,-803 201,-803"/>
<polygon fill="#666666" stroke="#666666" points="249.25,-803 249.25,-803 365,-803 365,-803 249.25,-803"/>
<polygon fill="none" stroke="#666666" points="201,-673 201,-865 365,-865 365,-673 201,-673"/>
</a>
</g>
</g>
<!-- Node6&#45;&gt;Node5 -->
<g id="edge5_Node000005_Node000006" class="edge">
<title>Node6&#45;&gt;Node5</title>
<g id="a_edge5_Node000005_Node000006"><a xlink:title=" ">
<path fill="none" stroke="#63b8ff" d="M283,-661.73C283,-652.78 283,-643.99 283,-635.69"/>
<polygon fill="none" stroke="#63b8ff" points="279.5,-661.62 283,-671.62 286.5,-661.62 279.5,-661.62"/>
</a>
</g>
</g>
<!-- Node7&#45;&gt;Node1 -->
<g id="edge6_Node000001_Node000007" class="edge">
<title>Node7&#45;&gt;Node1</title>
<g id="a_edge6_Node000001_Node000007"><a xlink:title=" ">
<path fill="none" stroke="#63b8ff" d="M415.51,-326.3C402.03,-307.04 387.01,-285.58 372.05,-264.22"/>
<polygon fill="none" stroke="#63b8ff" points="372.12,-264.32 365.4,-261.69 365.24,-254.48 371.96,-257.11 372.12,-264.32"/>
</a>
</g>
<text xml:space="preserve" text-anchor="start" x="403.94" y="-295.5" font-family="Helvetica,sans-Serif" font-size="10.00" fill="grey">&#45;serviceLibri</text>
</g>
<!-- Node8 -->
<g id="Node000008" class="node">
<title>Node8</title>
<g id="a_Node000008"><a xlink:href="classit_1_1unisa_1_1biblioteca_1_1gruppo21_1_1archive_1_1_archive_libri.html" target="_top" xlink:title=" ">
<polygon fill="white" stroke="none" points="564,-636 400,-636 400,-524 564,-524 564,-636"/>
<text xml:space="preserve" text-anchor="start" x="404" y="-622.5" font-family="Helvetica,sans-Serif" font-size="10.00">it.unisa.biblioteca.gruppo21.archive.</text>
<text xml:space="preserve" text-anchor="start" x="456.5" y="-610.5" font-family="Helvetica,sans-Serif" font-size="10.00">ArchiveLibri</text>
<text xml:space="preserve" text-anchor="start" x="480.5" y="-594.5" font-family="Helvetica,sans-Serif" font-size="10.00"> </text>
<text xml:space="preserve" text-anchor="start" x="426.06" y="-578.5" font-family="Helvetica,sans-Serif" font-size="10.00">+</text>
<text xml:space="preserve" text-anchor="start" x="458.12" y="-578.5" font-family="Helvetica,sans-Serif" font-size="10.00">ArchiveLibri()</text>
<text xml:space="preserve" text-anchor="start" x="426.06" y="-562.5" font-family="Helvetica,sans-Serif" font-size="10.00">+</text>
<text xml:space="preserve" text-anchor="start" x="458.12" y="-562.5" font-family="Helvetica,sans-Serif" font-size="10.00">cerca()</text>
<text xml:space="preserve" text-anchor="start" x="426.44" y="-546.5" font-family="Helvetica,sans-Serif" font-size="10.00">#</text>
<text xml:space="preserve" text-anchor="start" x="458.12" y="-546.5" font-family="Helvetica,sans-Serif" font-size="10.00">serializza()</text>
<text xml:space="preserve" text-anchor="start" x="426.44" y="-530.5" font-family="Helvetica,sans-Serif" font-size="10.00">#</text>
<text xml:space="preserve" text-anchor="start" x="458.12" y="-530.5" font-family="Helvetica,sans-Serif" font-size="10.00">deserializza()</text>
<polygon fill="#666666" stroke="#666666" points="400,-606 400,-606 564,-606 564,-606 400,-606"/>
<polygon fill="#666666" stroke="#666666" points="400,-590 400,-590 564,-590 564,-590 400,-590"/>
<polygon fill="none" stroke="#666666" points="400,-524 400,-636 564,-636 564,-524 400,-524"/>
</a>
</g>
</g>
<!-- Node8&#45;&gt;Node7 -->
<g id="edge7_Node000007_Node000008" class="edge">
<title>Node8&#45;&gt;Node7</title>
<g id="a_edge7_Node000007_Node000008"><a xlink:title=" ">
<path fill="none" stroke="#63b8ff" d="M479.69,-524.09C478.99,-512.18 478.1,-499.66 477,-488 476.83,-486.25 476.66,-484.48 476.48,-482.7"/>
<polygon fill="none" stroke="#63b8ff" points="476.48,-482.69 471.85,-477.16 475.17,-470.76 479.8,-476.29 476.48,-482.69"/>
</a>
</g>
<text xml:space="preserve" text-anchor="start" x="481.45" y="-493.5" font-family="Helvetica,sans-Serif" font-size="10.00" fill="grey">&#45;arcLibri</text>
</g>
<!-- Node8&#45;&gt;Node10 -->
<g id="edge12_Node000010_Node000008" class="edge">
<title>Node8&#45;&gt;Node10</title>
<g id="a_edge12_Node000010_Node000008"><a xlink:title=" ">
<path fill="none" stroke="#63b8ff" d="M447.26,-524.15C437.3,-511.19 425.67,-498.19 413,-488 398.12,-476.04 390.3,-479.94 374,-470 373.35,-469.6 372.69,-469.2 372.03,-468.79"/>
<polygon fill="none" stroke="#63b8ff" points="372.21,-468.91 365,-469.01 362.13,-462.39 369.34,-462.29 372.21,-468.91"/>
</a>
</g>
<text xml:space="preserve" text-anchor="start" x="434.13" y="-493.5" font-family="Helvetica,sans-Serif" font-size="10.00" fill="grey">&#45;arcLibri</text>
</g>
<!-- Node9 -->
<g id="Node000009" class="node">
<title>Node9</title>
<g id="a_Node000009"><a xlink:href="classit_1_1unisa_1_1biblioteca_1_1gruppo21_1_1archive_1_1_archive_astratto.html" target="_top" xlink:title=" ">
<polygon fill="white" stroke="none" points="564,-865 400,-865 400,-673 564,-673 564,-865"/>
<text xml:space="preserve" text-anchor="start" x="404" y="-851.5" font-family="Helvetica,sans-Serif" font-size="10.00">it.unisa.biblioteca.gruppo21.archive.</text>
<text xml:space="preserve" text-anchor="start" x="428.75" y="-839.5" font-family="Helvetica,sans-Serif" font-size="10.00">ArchiveAstratto&lt; Libro &gt;</text>
<text xml:space="preserve" text-anchor="start" x="422.5" y="-823.5" font-family="Helvetica,sans-Serif" font-size="10.00">#</text>
<text xml:space="preserve" text-anchor="start" x="450.25" y="-823.5" font-family="Helvetica,sans-Serif" font-size="10.00">cache</text>
<text xml:space="preserve" text-anchor="start" x="422.5" y="-807.5" font-family="Helvetica,sans-Serif" font-size="10.00">#</text>
<text xml:space="preserve" text-anchor="start" x="450.25" y="-807.5" font-family="Helvetica,sans-Serif" font-size="10.00">file</text>
<text xml:space="preserve" text-anchor="start" x="422.12" y="-791.5" font-family="Helvetica,sans-Serif" font-size="10.00">+</text>
<text xml:space="preserve" text-anchor="start" x="450.25" y="-791.5" font-family="Helvetica,sans-Serif" font-size="10.00">ArchiveAstratto()</text>
<text xml:space="preserve" text-anchor="start" x="422.12" y="-775.5" font-family="Helvetica,sans-Serif" font-size="10.00">+</text>
<text xml:space="preserve" text-anchor="start" x="450.25" y="-775.5" font-family="Helvetica,sans-Serif" font-size="10.00">cerca()</text>
<text xml:space="preserve" text-anchor="start" x="422.12" y="-759.5" font-family="Helvetica,sans-Serif" font-size="10.00">+</text>
<text xml:space="preserve" text-anchor="start" x="450.25" y="-759.5" font-family="Helvetica,sans-Serif" font-size="10.00">aggiungi()</text>
<text xml:space="preserve" text-anchor="start" x="422.12" y="-743.5" font-family="Helvetica,sans-Serif" font-size="10.00">+</text>
<text xml:space="preserve" text-anchor="start" x="450.25" y="-743.5" font-family="Helvetica,sans-Serif" font-size="10.00">cancella()</text>
<text xml:space="preserve" text-anchor="start" x="422.12" y="-727.5" font-family="Helvetica,sans-Serif" font-size="10.00">+</text>
<text xml:space="preserve" text-anchor="start" x="450.25" y="-727.5" font-family="Helvetica,sans-Serif" font-size="10.00">leggiTutti()</text>
<text xml:space="preserve" text-anchor="start" x="422.5" y="-711.5" font-family="Helvetica,sans-Serif" font-size="10.00">#</text>
<text xml:space="preserve" text-anchor="start" x="450.25" y="-711.5" font-family="Helvetica,sans-Serif" font-size="10.00">serializza()</text>
<text xml:space="preserve" text-anchor="start" x="422.5" y="-695.5" font-family="Helvetica,sans-Serif" font-size="10.00">#</text>
<text xml:space="preserve" text-anchor="start" x="450.25" y="-695.5" font-family="Helvetica,sans-Serif" font-size="10.00">deserializza()</text>
<text xml:space="preserve" text-anchor="start" x="422.5" y="-679.5" font-family="Helvetica,sans-Serif" font-size="10.00">#</text>
<text xml:space="preserve" text-anchor="start" x="450.25" y="-679.5" font-family="Helvetica,sans-Serif" font-size="10.00">salvaTutto()</text>
<polygon fill="#666666" stroke="#666666" points="400,-835 400,-835 564,-835 564,-835 400,-835"/>
<polygon fill="#666666" stroke="#666666" points="400,-803 400,-803 448.25,-803 448.25,-803 400,-803"/>
<polygon fill="#666666" stroke="#666666" points="448.25,-803 448.25,-803 564,-803 564,-803 448.25,-803"/>
<polygon fill="none" stroke="#666666" points="400,-673 400,-865 564,-865 564,-673 400,-673"/>
</a>
</g>
</g>
<!-- Node9&#45;&gt;Node8 -->
<g id="edge8_Node000008_Node000009" class="edge">
<title>Node9&#45;&gt;Node8</title>
<g id="a_edge8_Node000008_Node000009"><a xlink:title=" ">
<path fill="none" stroke="#63b8ff" d="M482,-661.73C482,-652.78 482,-643.99 482,-635.69"/>
<polygon fill="none" stroke="#63b8ff" points="478.5,-661.62 482,-671.62 485.5,-661.62 478.5,-661.62"/>
</a>
</g>
</g>
<!-- Node10&#45;&gt;Node1 -->
<g id="edge10_Node000001_Node000010" class="edge">
<title>Node10&#45;&gt;Node1</title>
<g id="a_edge10_Node000001_Node000010"><a xlink:title=" ">
<path fill="none" stroke="#63b8ff" d="M283,-334.06C283,-318.9 283,-302.06 283,-284.79"/>
<polygon fill="none" stroke="#63b8ff" points="283,-284.74 279,-278.74 283,-272.74 287,-278.74 283,-284.74"/>
</a>
</g>
<text xml:space="preserve" text-anchor="start" x="286" y="-295.5" font-family="Helvetica,sans-Serif" font-size="10.00" fill="grey">&#45;servicePrestiti</text>
</g>
</g>
</svg>
