<?xml version="1.0" encoding="UTF-8" standalone="no"?>
<!DOCTYPE svg PUBLIC "-//W3C//DTD SVG 1.1//EN"
 "http://www.w3.org/Graphics/SVG/1.1/DTD/svg11.dtd">
<!-- Generated by graphviz version 14.1.0 (20251206.1807)
 -->
<!-- Title: it.unisa.biblioteca.gruppo21.gui.ViewLibreria Pages: 1 -->
<svg width="572pt" height="1429pt"
 viewBox="0.00 0.00 572.00 1429.00" xmlns="http://www.w3.org/2000/svg" xmlns:xlink="http://www.w3.org/1999/xlink">
<g id="graph0" class="graph" transform="scale(1 1) rotate(0) translate(4 1425)">
<title>it.unisa.biblioteca.gruppo21.gui.ViewLibreria</title>
<!-- Node1 -->
<g id="Node000001" class="node">
<title>Node1</title>
<g id="a_Node000001"><a xlink:title=" ">
<polygon fill="#999999" stroke="none" points="355.62,-224 210.38,-224 210.38,0 355.62,0 355.62,-224"/>
<text xml:space="preserve" text-anchor="start" x="214.38" y="-210.5" font-family="Helvetica,sans-Serif" font-size="10.00">it.unisa.biblioteca.gruppo21.gui.</text>
<text xml:space="preserve" text-anchor="start" x="256.38" y="-198.5" font-family="Helvetica,sans-Serif" font-size="10.00">ViewLibreria</text>
<text xml:space="preserve" text-anchor="start" x="222.38" y="-182.5" font-family="Helvetica,sans-Serif" font-size="10.00">&#45;</text>
<text xml:space="preserve" text-anchor="start" x="237.38" y="-182.5" font-family="Helvetica,sans-Serif" font-size="10.00">rootLayout</text>
<text xml:space="preserve" text-anchor="start" x="222.38" y="-166.5" font-family="Helvetica,sans-Serif" font-size="10.00">&#45;</text>
<text xml:space="preserve" text-anchor="start" x="237.38" y="-166.5" font-family="Helvetica,sans-Serif" font-size="10.00">tabellaUtenti</text>
<text xml:space="preserve" text-anchor="start" x="222.38" y="-150.5" font-family="Helvetica,sans-Serif" font-size="10.00">&#45;</text>
<text xml:space="preserve" text-anchor="start" x="237.38" y="-150.5" font-family="Helvetica,sans-Serif" font-size="10.00">tabellaLibri</text>
<text xml:space="preserve" text-anchor="start" x="222.38" y="-134.5" font-family="Helvetica,sans-Serif" font-size="10.00">&#45;</text>
<text xml:space="preserve" text-anchor="start" x="237.38" y="-134.5" font-family="Helvetica,sans-Serif" font-size="10.00">tabellaPrestiti</text>
<text xml:space="preserve" text-anchor="start" x="220.88" y="-118.5" font-family="Helvetica,sans-Serif" font-size="10.00">+</text>
<text xml:space="preserve" text-anchor="start" x="237.38" y="-118.5" font-family="Helvetica,sans-Serif" font-size="10.00">ViewLibreria()</text>
<text xml:space="preserve" text-anchor="start" x="220.88" y="-102.5" font-family="Helvetica,sans-Serif" font-size="10.00">+</text>
<text xml:space="preserve" text-anchor="start" x="237.38" y="-102.5" font-family="Helvetica,sans-Serif" font-size="10.00">getInterfaccia()</text>
<text xml:space="preserve" text-anchor="start" x="220.88" y="-86.5" font-family="Helvetica,sans-Serif" font-size="10.00">+</text>
<text xml:space="preserve" text-anchor="start" x="237.38" y="-86.5" font-family="Helvetica,sans-Serif" font-size="10.00">aggiornaDatiUtenti()</text>
<text xml:space="preserve" text-anchor="start" x="220.88" y="-70.5" font-family="Helvetica,sans-Serif" font-size="10.00">+</text>
<text xml:space="preserve" text-anchor="start" x="237.38" y="-70.5" font-family="Helvetica,sans-Serif" font-size="10.00">aggiornaDatiLibri()</text>
<text xml:space="preserve" text-anchor="start" x="222.38" y="-54.5" font-family="Helvetica,sans-Serif" font-size="10.00">&#45;</text>
<text xml:space="preserve" text-anchor="start" x="237.38" y="-54.5" font-family="Helvetica,sans-Serif" font-size="10.00">costruisciSidebar()</text>
<text xml:space="preserve" text-anchor="start" x="222.38" y="-38.5" font-family="Helvetica,sans-Serif" font-size="10.00">&#45;</text>
<text xml:space="preserve" text-anchor="start" x="237.38" y="-38.5" font-family="Helvetica,sans-Serif" font-size="10.00">costruisciVistaUtenti()</text>
<text xml:space="preserve" text-anchor="start" x="222.38" y="-22.5" font-family="Helvetica,sans-Serif" font-size="10.00">&#45;</text>
<text xml:space="preserve" text-anchor="start" x="237.38" y="-22.5" font-family="Helvetica,sans-Serif" font-size="10.00">costruisciVistaLibri()</text>
<text xml:space="preserve" text-anchor="start" x="222.38" y="-6.5" font-family="Helvetica,sans-Serif" font-size="10.00">&#45;</text>
<text xml:space="preserve" text-anchor="start" x="237.38" y="-6.5" font-family="Helvetica,sans-Serif" font-size="10.00">costruisciVistaPrestiti()</text>
<polygon fill="#666666" stroke="#666666" points="210.38,-194 210.38,-194 355.62,-194 355.62,-194 210.38,-194"/>
<polygon fill="#666666" stroke="#666666" points="210.38,-130 210.38,-130 235.38,-130 235.38,-130 210.38,-130"/>
<polygon fill="#666666" stroke="#666666" points="235.38,-130 235.38,-130 355.62,-130 355.62,-130 235.38,-130"/>
<polygon fill="none" stroke="#666666" points="210.38,0 210.38,-224 355.62,-224 355.62,0 210.38,0"/>
</a>
</g>
</g>
<!-- Node2 -->
<g id="Node000002" class="node">
<title>Node2</title>
<g id="a_Node000002"><a xlink:href="classit_1_1unisa_1_1biblioteca_1_1gruppo21_1_1gui_1_1_controller.html" target="_top" xlink:title=" ">
<polygon fill="white" stroke="none" points="355.62,-502 210.38,-502 210.38,-278 355.62,-278 355.62,-502"/>
<text xml:space="preserve" text-anchor="start" x="214.38" y="-488.5" font-family="Helvetica,sans-Serif" font-size="10.00">it.unisa.biblioteca.gruppo21.gui.</text>
<text xml:space="preserve" text-anchor="start" x="262" y="-476.5" font-family="Helvetica,sans-Serif" font-size="10.00">Controller</text>
<text xml:space="preserve" text-anchor="start" x="281.5" y="-460.5" font-family="Helvetica,sans-Serif" font-size="10.00"> </text>
<text xml:space="preserve" text-anchor="start" x="217.31" y="-444.5" font-family="Helvetica,sans-Serif" font-size="10.00">+</text>
<text xml:space="preserve" text-anchor="start" x="230.25" y="-444.5" font-family="Helvetica,sans-Serif" font-size="10.00">Controller()</text>
<text xml:space="preserve" text-anchor="start" x="217.31" y="-428.5" font-family="Helvetica,sans-Serif" font-size="10.00">+</text>
<text xml:space="preserve" text-anchor="start" x="230.25" y="-428.5" font-family="Helvetica,sans-Serif" font-size="10.00">gestisciIscrizione()</text>
<text xml:space="preserve" text-anchor="start" x="217.31" y="-412.5" font-family="Helvetica,sans-Serif" font-size="10.00">+</text>
<text xml:space="preserve" text-anchor="start" x="230.25" y="-412.5" font-family="Helvetica,sans-Serif" font-size="10.00">gestisciRimozioneUtente()</text>
<text xml:space="preserve" text-anchor="start" x="217.31" y="-396.5" font-family="Helvetica,sans-Serif" font-size="10.00">+</text>
<text xml:space="preserve" text-anchor="start" x="230.25" y="-396.5" font-family="Helvetica,sans-Serif" font-size="10.00">getListaUtenti()</text>
<text xml:space="preserve" text-anchor="start" x="217.31" y="-380.5" font-family="Helvetica,sans-Serif" font-size="10.00">+</text>
<text xml:space="preserve" text-anchor="start" x="230.25" y="-380.5" font-family="Helvetica,sans-Serif" font-size="10.00">gestisciAggiuntaLibro()</text>
<text xml:space="preserve" text-anchor="start" x="217.31" y="-364.5" font-family="Helvetica,sans-Serif" font-size="10.00">+</text>
<text xml:space="preserve" text-anchor="start" x="230.25" y="-364.5" font-family="Helvetica,sans-Serif" font-size="10.00">gestisciRimozioneLibro()</text>
<text xml:space="preserve" text-anchor="start" x="217.31" y="-348.5" font-family="Helvetica,sans-Serif" font-size="10.00">+</text>
<text xml:space="preserve" text-anchor="start" x="230.25" y="-348.5" font-family="Helvetica,sans-Serif" font-size="10.00">getListaLibri()</text>
<text xml:space="preserve" text-anchor="start" x="217.31" y="-332.5" font-family="Helvetica,sans-Serif" font-size="10.00">+</text>
<text xml:space="preserve" text-anchor="start" x="230.25" y="-332.5" font-family="Helvetica,sans-Serif" font-size="10.00">gestisciPrestito()</text>
<text xml:space="preserve" text-anchor="start" x="217.31" y="-316.5" font-family="Helvetica,sans-Serif" font-size="10.00">+</text>
<text xml:space="preserve" text-anchor="start" x="230.25" y="-316.5" font-family="Helvetica,sans-Serif" font-size="10.00">gestisciRestituzione()</text>
<text xml:space="preserve" text-anchor="start" x="217.31" y="-300.5" font-family="Helvetica,sans-Serif" font-size="10.00">+</text>
<text xml:space="preserve" text-anchor="start" x="230.25" y="-300.5" font-family="Helvetica,sans-Serif" font-size="10.00">getListaPrestiti()</text>
<text xml:space="preserve" text-anchor="start" x="218.81" y="-284.5" font-family="Helvetica,sans-Serif" font-size="10.00">&#45;</text>
<text xml:space="preserve" text-anchor="start" x="230.25" y="-284.5" font-family="Helvetica,sans-Serif" font-size="10.00">mostraMessaggio()</text>
<polygon fill="#666666" stroke="#666666" points="210.38,-472 210.38,-472 355.62,-472 355.62,-472 210.38,-472"/>
<polygon fill="#666666" stroke="#666666" points="210.38,-456 210.38,-456 355.62,-456 355.62,-456 210.38,-456"/>
<polygon fill="none" stroke="#666666" points="210.38,-278 210.38,-502 355.62,-502 355.62,-278 210.38,-278"/>
</a>
</g>
</g>
<!-- Node2&#45;&gt;Node1 -->
<g id="edge1_Node000001_Node000002" class="edge">
<title>Node2&#45;&gt;Node1</title>
<g id="a_edge1_Node000001_Node000002"><a xlink:title=" ">
<path fill="none" stroke="#63b8ff" d="M283,-278.33C283,-264.55 283,-250.39 283,-236.44"/>
<polygon fill="none" stroke="#63b8ff" points="283,-236.6 279,-230.6 283,-224.6 287,-230.6 283,-236.6"/>
</a>
</g>
<text xml:space="preserve" text-anchor="start" x="286" y="-247.5" font-family="Helvetica,sans-Serif" font-size="10.00" fill="grey">&#45;controller</text>
</g>
<!-- Node3 -->
<g id="Node000003" class="node">
<title>Node3</title>
<g id="a_Node000003"><a xlink:href="classit_1_1unisa_1_1biblioteca_1_1gruppo21_1_1service_1_1_biblioteca.html" target="_top" xlink:title=" ">
<polygon fill="white" stroke="none" points="365,-828 201,-828 201,-556 365,-556 365,-828"/>
<text xml:space="preserve" text-anchor="start" x="205" y="-814.5" font-family="Helvetica,sans-Serif" font-size="10.00">it.unisa.biblioteca.gruppo21.service.</text>
<text xml:space="preserve" text-anchor="start" x="261.62" y="-802.5" font-family="Helvetica,sans-Serif" font-size="10.00">Biblioteca</text>
<text xml:space="preserve" text-anchor="start" x="281.5" y="-786.5" font-family="Helvetica,sans-Serif" font-size="10.00"> </text>
<text xml:space="preserve" text-anchor="start" x="221.25" y="-770.5" font-family="Helvetica,sans-Serif" font-size="10.00">+</text>
<text xml:space="preserve" text-anchor="start" x="247.5" y="-770.5" font-family="Helvetica,sans-Serif" font-size="10.00">Biblioteca()</text>
<text xml:space="preserve" text-anchor="start" x="221.25" y="-754.5" font-family="Helvetica,sans-Serif" font-size="10.00">+</text>
<text xml:space="preserve" text-anchor="start" x="247.5" y="-754.5" font-family="Helvetica,sans-Serif" font-size="10.00">iscriviUtente()</text>
<text xml:space="preserve" text-anchor="start" x="221.25" y="-738.5" font-family="Helvetica,sans-Serif" font-size="10.00">+</text>
<text xml:space="preserve" text-anchor="start" x="247.5" y="-738.5" font-family="Helvetica,sans-Serif" font-size="10.00">modificaUtente()</text>
<text xml:space="preserve" text-anchor="start" x="221.25" y="-722.5" font-family="Helvetica,sans-Serif" font-size="10.00">+</text>
<text xml:space="preserve" text-anchor="start" x="247.5" y="-722.5" font-family="Helvetica,sans-Serif" font-size="10.00">rimuoviUtente()</text>
<text xml:space="preserve" text-anchor="start" x="221.25" y="-706.5" font-family="Helvetica,sans-Serif" font-size="10.00">+</text>
<text xml:space="preserve" text-anchor="start" x="247.5" y="-706.5" font-family="Helvetica,sans-Serif" font-size="10.00">getElencoUtenti()</text>
<text xml:space="preserve" text-anchor="start" x="221.25" y="-690.5" font-family="Helvetica,sans-Serif" font-size="10.00">+</text>
<text xml:space="preserve" text-anchor="start" x="247.5" y="-690.5" font-family="Helvetica,sans-Serif" font-size="10.00">cercaUtenti()</text>
<text xml:space="preserve" text-anchor="start" x="221.25" y="-674.5" font-family="Helvetica,sans-Serif" font-size="10.00">+</text>
<text xml:space="preserve" text-anchor="start" x="247.5" y="-674.5" font-family="Helvetica,sans-Serif" font-size="10.00">aggiungiLibro()</text>
<text xml:space="preserve" text-anchor="start" x="221.25" y="-658.5" font-family="Helvetica,sans-Serif" font-size="10.00">+</text>
<text xml:space="preserve" text-anchor="start" x="247.5" y="-658.5" font-family="Helvetica,sans-Serif" font-size="10.00">rimuoviLibro()</text>
<text xml:space="preserve" text-anchor="start" x="221.25" y="-642.5" font-family="Helvetica,sans-Serif" font-size="10.00">+</text>
<text xml:space="preserve" text-anchor="start" x="247.5" y="-642.5" font-family="Helvetica,sans-Serif" font-size="10.00">getElencoLibri()</text>
<text xml:space="preserve" text-anchor="start" x="221.25" y="-626.5" font-family="Helvetica,sans-Serif" font-size="10.00">+</text>
<text xml:space="preserve" text-anchor="start" x="247.5" y="-626.5" font-family="Helvetica,sans-Serif" font-size="10.00">cercaLibri()</text>
<text xml:space="preserve" text-anchor="start" x="221.25" y="-610.5" font-family="Helvetica,sans-Serif" font-size="10.00">+</text>
<text xml:space="preserve" text-anchor="start" x="247.5" y="-610.5" font-family="Helvetica,sans-Serif" font-size="10.00">effettuaPrestito()</text>
<text xml:space="preserve" text-anchor="start" x="221.25" y="-594.5" font-family="Helvetica,sans-Serif" font-size="10.00">+</text>
<text xml:space="preserve" text-anchor="start" x="247.5" y="-594.5" font-family="Helvetica,sans-Serif" font-size="10.00">restituisciLibro()</text>
<text xml:space="preserve" text-anchor="start" x="221.25" y="-578.5" font-family="Helvetica,sans-Serif" font-size="10.00">+</text>
<text xml:space="preserve" text-anchor="start" x="247.5" y="-578.5" font-family="Helvetica,sans-Serif" font-size="10.00">getStoricoPrestiti()</text>
<text xml:space="preserve" text-anchor="start" x="221.25" y="-562.5" font-family="Helvetica,sans-Serif" font-size="10.00">+</text>
<text xml:space="preserve" text-anchor="start" x="247.5" y="-562.5" font-family="Helvetica,sans-Serif" font-size="10.00">controllaRitardi()</text>
<polygon fill="#666666" stroke="#666666" points="201,-798 201,-798 365,-798 365,-798 201,-798"/>
<polygon fill="#666666" stroke="#666666" points="201,-782 201,-782 365,-782 365,-782 201,-782"/>
<polygon fill="none" stroke="#666666" points="201,-556 201,-828 365,-828 365,-556 201,-556"/>
</a>
</g>
</g>
<!-- Node3&#45;&gt;Node2 -->
<g id="edge2_Node000002_Node000003" class="edge">
<title>Node3&#45;&gt;Node2</title>
<g id="a_edge2_Node000002_Node000003"><a xlink:title=" ">
<path fill="none" stroke="#63b8ff" d="M283,-556.36C283,-542.55 283,-528.56 283,-514.87"/>
<polygon fill="none" stroke="#63b8ff" points="283,-514.76 279,-508.76 283,-502.76 287,-508.76 283,-514.76"/>
</a>
</g>
<text xml:space="preserve" text-anchor="start" x="286" y="-525.5" font-family="Helvetica,sans-Serif" font-size="10.00" fill="grey">&#45;biblioteca</text>
</g>
<!-- Node4 -->
<g id="Node000004" class="node">
<title>Node4</title>
<g id="a_Node000004"><a xlink:href="classit_1_1unisa_1_1biblioteca_1_1gruppo21_1_1service_1_1_service_utenti.html" target="_top" xlink:title=" ">
<polygon fill="white" stroke="none" points="183,-1026 19,-1026 19,-882 183,-882 183,-1026"/>
<text xml:space="preserve" text-anchor="start" x="23" y="-1012.5" font-family="Helvetica,sans-Serif" font-size="10.00">it.unisa.biblioteca.gruppo21.service.</text>
<text xml:space="preserve" text-anchor="start" x="71.38" y="-1000.5" font-family="Helvetica,sans-Serif" font-size="10.00">ServiceUtenti</text>
<text xml:space="preserve" text-anchor="start" x="99.5" y="-984.5" font-family="Helvetica,sans-Serif" font-size="10.00"> </text>
<text xml:space="preserve" text-anchor="start" x="37" y="-968.5" font-family="Helvetica,sans-Serif" font-size="10.00">+</text>
<text xml:space="preserve" text-anchor="start" x="61" y="-968.5" font-family="Helvetica,sans-Serif" font-size="10.00">ServiceUtenti()</text>
<text xml:space="preserve" text-anchor="start" x="37" y="-952.5" font-family="Helvetica,sans-Serif" font-size="10.00">+</text>
<text xml:space="preserve" text-anchor="start" x="61" y="-952.5" font-family="Helvetica,sans-Serif" font-size="10.00">iscrivi()</text>
<text xml:space="preserve" text-anchor="start" x="37" y="-936.5" font-family="Helvetica,sans-Serif" font-size="10.00">+</text>
<text xml:space="preserve" text-anchor="start" x="61" y="-936.5" font-family="Helvetica,sans-Serif" font-size="10.00">modificaDatiUtente()</text>
<text xml:space="preserve" text-anchor="start" x="37" y="-920.5" font-family="Helvetica,sans-Serif" font-size="10.00">+</text>
<text xml:space="preserve" text-anchor="start" x="61" y="-920.5" font-family="Helvetica,sans-Serif" font-size="10.00">rimuovi()</text>
<text xml:space="preserve" text-anchor="start" x="37" y="-904.5" font-family="Helvetica,sans-Serif" font-size="10.00">+</text>
<text xml:space="preserve" text-anchor="start" x="61" y="-904.5" font-family="Helvetica,sans-Serif" font-size="10.00">cerca()</text>
<text xml:space="preserve" text-anchor="start" x="37" y="-888.5" font-family="Helvetica,sans-Serif" font-size="10.00">+</text>
<text xml:space="preserve" text-anchor="start" x="61" y="-888.5" font-family="Helvetica,sans-Serif" font-size="10.00">getLista()</text>
<polygon fill="#666666" stroke="#666666" points="19,-996 19,-996 183,-996 183,-996 19,-996"/>
<polygon fill="#666666" stroke="#666666" points="19,-980 19,-980 183,-980 183,-980 19,-980"/>
<polygon fill="none" stroke="#666666" points="19,-882 19,-1026 183,-1026 183,-882 19,-882"/>
</a>
</g>
</g>
<!-- Node4&#45;&gt;Node3 -->
<g id="edge3_Node000003_Node000004" class="edge">
<title>Node4&#45;&gt;Node3</title>
<g id="a_edge3_Node000003_Node000004"><a xlink:title=" ">
<path fill="none" stroke="#63b8ff" d="M150.49,-882.3C163.97,-863.04 178.99,-841.58 193.95,-820.22"/>
<polygon fill="none" stroke="#63b8ff" points="193.88,-820.32 194.04,-813.11 200.76,-810.48 200.6,-817.69 193.88,-820.32"/>
</a>
</g>
<text xml:space="preserve" text-anchor="start" x="178.7" y="-851.5" font-family="Helvetica,sans-Serif" font-size="10.00" fill="grey">&#45;serviceUtenti</text>
</g>
<!-- Node5 -->
<g id="Node000005" class="node">
<title>Node5</title>
<g id="a_Node000005"><a xlink:href="classit_1_1unisa_1_1biblioteca_1_1gruppo21_1_1archive_1_1_archive_utenti.html" target="_top" xlink:title=" ">
<polygon fill="white" stroke="none" points="164,-1192 0,-1192 0,-1080 164,-1080 164,-1192"/>
<text xml:space="preserve" text-anchor="start" x="4" y="-1178.5" font-family="Helvetica,sans-Serif" font-size="10.00">it.unisa.biblioteca.gruppo21.archive.</text>
<text xml:space="preserve" text-anchor="start" x="52.38" y="-1166.5" font-family="Helvetica,sans-Serif" font-size="10.00">ArchiveUtenti</text>
<text xml:space="preserve" text-anchor="start" x="80.5" y="-1150.5" font-family="Helvetica,sans-Serif" font-size="10.00"> </text>
<text xml:space="preserve" text-anchor="start" x="24.19" y="-1134.5" font-family="Helvetica,sans-Serif" font-size="10.00">+</text>
<text xml:space="preserve" text-anchor="start" x="54.38" y="-1134.5" font-family="Helvetica,sans-Serif" font-size="10.00">ArchiveUtenti()</text>
<text xml:space="preserve" text-anchor="start" x="24.19" y="-1118.5" font-family="Helvetica,sans-Serif" font-size="10.00">+</text>
<text xml:space="preserve" text-anchor="start" x="54.38" y="-1118.5" font-family="Helvetica,sans-Serif" font-size="10.00">cerca()</text>
<text xml:space="preserve" text-anchor="start" x="24.56" y="-1102.5" font-family="Helvetica,sans-Serif" font-size="10.00">#</text>
<text xml:space="preserve" text-anchor="start" x="54.38" y="-1102.5" font-family="Helvetica,sans-Serif" font-size="10.00">serializza()</text>
<text xml:space="preserve" text-anchor="start" x="24.56" y="-1086.5" font-family="Helvetica,sans-Serif" font-size="10.00">#</text>
<text xml:space="preserve" text-anchor="start" x="54.38" y="-1086.5" font-family="Helvetica,sans-Serif" font-size="10.00">deserializza()</text>
<polygon fill="#666666" stroke="#666666" points="0,-1162 0,-1162 164,-1162 164,-1162 0,-1162"/>
<polygon fill="#666666" stroke="#666666" points="0,-1146 0,-1146 164,-1146 164,-1146 0,-1146"/>
<polygon fill="none" stroke="#666666" points="0,-1080 0,-1192 164,-1192 164,-1080 0,-1080"/>
</a>
</g>
</g>
<!-- Node5&#45;&gt;Node4 -->
<g id="edge4_Node000004_Node000005" class="edge">
<title>Node5&#45;&gt;Node4</title>
<g id="a_edge4_Node000004_Node000005"><a xlink:title=" ">
<path fill="none" stroke="#63b8ff" d="M64.33,-1080.13C62.44,-1068.22 61.93,-1055.68 64.25,-1044 64.64,-1042.01 65.08,-1040.01 65.56,-1038"/>
<polygon fill="none" stroke="#63b8ff" points="65.54,-1038.08 63.28,-1031.23 68.73,-1026.51 70.99,-1033.36 65.54,-1038.08"/>
</a>
</g>
<text xml:space="preserve" text-anchor="start" x="67.25" y="-1049.5" font-family="Helvetica,sans-Serif" font-size="10.00" fill="grey">&#45;arcUtenti</text>
</g>
<!-- Node12 -->
<g id="Node000012" class="node">
<title>Node12</title>
<g id="a_Node000012"><a xlink:href="classit_1_1unisa_1_1biblioteca_1_1gruppo21_1_1service_1_1_service_prestiti.html" target="_top" xlink:title=" ">
<polygon fill="white" stroke="none" points="365,-1018 201,-1018 201,-890 365,-890 365,-1018"/>
<text xml:space="preserve" text-anchor="start" x="205" y="-1004.5" font-family="Helvetica,sans-Serif" font-size="10.00">it.unisa.biblioteca.gruppo21.service.</text>
<text xml:space="preserve" text-anchor="start" x="251.12" y="-992.5" font-family="Helvetica,sans-Serif" font-size="10.00">ServicePrestiti</text>
<text xml:space="preserve" text-anchor="start" x="281.5" y="-976.5" font-family="Helvetica,sans-Serif" font-size="10.00"> </text>
<text xml:space="preserve" text-anchor="start" x="223.69" y="-960.5" font-family="Helvetica,sans-Serif" font-size="10.00">+</text>
<text xml:space="preserve" text-anchor="start" x="252.38" y="-960.5" font-family="Helvetica,sans-Serif" font-size="10.00">ServicePrestiti()</text>
<text xml:space="preserve" text-anchor="start" x="223.69" y="-944.5" font-family="Helvetica,sans-Serif" font-size="10.00">+</text>
<text xml:space="preserve" text-anchor="start" x="252.38" y="-944.5" font-family="Helvetica,sans-Serif" font-size="10.00">nuovoPrestito()</text>
<text xml:space="preserve" text-anchor="start" x="223.69" y="-928.5" font-family="Helvetica,sans-Serif" font-size="10.00">+</text>
<text xml:space="preserve" text-anchor="start" x="252.38" y="-928.5" font-family="Helvetica,sans-Serif" font-size="10.00">restituzione()</text>
<text xml:space="preserve" text-anchor="start" x="223.69" y="-912.5" font-family="Helvetica,sans-Serif" font-size="10.00">+</text>
<text xml:space="preserve" text-anchor="start" x="252.38" y="-912.5" font-family="Helvetica,sans-Serif" font-size="10.00">controllaRitardi()</text>
<text xml:space="preserve" text-anchor="start" x="223.69" y="-896.5" font-family="Helvetica,sans-Serif" font-size="10.00">+</text>
<text xml:space="preserve" text-anchor="start" x="252.38" y="-896.5" font-family="Helvetica,sans-Serif" font-size="10.00">getLista()</text>
<polygon fill="#666666" stroke="#666666" points="201,-988 201,-988 365,-988 365,-988 201,-988"/>
<polygon fill="#666666" stroke="#666666" points="201,-972 201,-972 365,-972 365,-972 201,-972"/>
<polygon fill="none" stroke="#666666" points="201,-890 201,-1018 365,-1018 365,-890 201,-890"/>
</a>
</g>
</g>
<!-- Node5&#45;&gt;Node12 -->
<g id="edge15_Node000012_Node000005" class="edge">
<title>Node5&#45;&gt;Node12</title>
<g id="a_edge15_Node000012_Node000005"><a xlink:title=" ">
<path fill="none" stroke="#63b8ff" d="M108.15,-1080.13C116.56,-1066.86 126.95,-1053.72 139.25,-1044 158.68,-1028.64 170.21,-1037.78 192,-1026 192.86,-1025.54 193.72,-1025.06 194.58,-1024.58"/>
<polygon fill="none" stroke="#63b8ff" points="194.64,-1024.55 197.75,-1018.04 204.95,-1018.41 201.84,-1024.92 194.64,-1024.55"/>
</a>
</g>
<text xml:space="preserve" text-anchor="start" x="142.25" y="-1049.5" font-family="Helvetica,sans-Serif" font-size="10.00" fill="grey">&#45;arcUtenti</text>
</g>
<!-- Node6 -->
<g id="Node000006" class="node">
<title>Node6</title>
<g id="a_Node000006"><a xlink:href="classit_1_1unisa_1_1biblioteca_1_1gruppo21_1_1archive_1_1_archive_astratto.html" target="_top" xlink:title=" ">
<polygon fill="white" stroke="none" points="164,-1421 0,-1421 0,-1229 164,-1229 164,-1421"/>
<text xml:space="preserve" text-anchor="start" x="4" y="-1407.5" font-family="Helvetica,sans-Serif" font-size="10.00">it.unisa.biblioteca.gruppo21.archive.</text>
<text xml:space="preserve" text-anchor="start" x="24.62" y="-1395.5" font-family="Helvetica,sans-Serif" font-size="10.00">ArchiveAstratto&lt; Utente &gt;</text>
<text xml:space="preserve" text-anchor="start" x="22.5" y="-1379.5" font-family="Helvetica,sans-Serif" font-size="10.00">#</text>
<text xml:space="preserve" text-anchor="start" x="50.25" y="-1379.5" font-family="Helvetica,sans-Serif" font-size="10.00">cache</text>
<text xml:space="preserve" text-anchor="start" x="22.5" y="-1363.5" font-family="Helvetica,sans-Serif" font-size="10.00">#</text>
<text xml:space="preserve" text-anchor="start" x="50.25" y="-1363.5" font-family="Helvetica,sans-Serif" font-size="10.00">file</text>
<text xml:space="preserve" text-anchor="start" x="22.12" y="-1347.5" font-family="Helvetica,sans-Serif" font-size="10.00">+</text>
<text xml:space="preserve" text-anchor="start" x="50.25" y="-1347.5" font-family="Helvetica,sans-Serif" font-size="10.00">ArchiveAstratto()</text>
<text xml:space="preserve" text-anchor="start" x="22.12" y="-1331.5" font-family="Helvetica,sans-Serif" font-size="10.00">+</text>
<text xml:space="preserve" text-anchor="start" x="50.25" y="-1331.5" font-family="Helvetica,sans-Serif" font-size="10.00">cerca()</text>
<text xml:space="preserve" text-anchor="start" x="22.12" y="-1315.5" font-family="Helvetica,sans-Serif" font-size="10.00">+</text>
<text xml:space="preserve" text-anchor="start" x="50.25" y="-1315.5" font-family="Helvetica,sans-Serif" font-size="10.00">aggiungi()</text>
<text xml:space="preserve" text-anchor="start" x="22.12" y="-1299.5" font-family="Helvetica,sans-Serif" font-size="10.00">+</text>
<text xml:space="preserve" text-anchor="start" x="50.25" y="-1299.5" font-family="Helvetica,sans-Serif" font-size="10.00">cancella()</text>
<text xml:space="preserve" text-anchor="start" x="22.12" y="-1283.5" font-family="Helvetica,sans-Serif" font-size="10.00">+</text>
<text xml:space="preserve" text-anchor="start" x="50.25" y="-1283.5" font-family="Helvetica,sans-Serif" font-size="10.00">leggiTutti()</text>
<text xml:space="preserve" text-anchor="start" x="22.5" y="-1267.5" font-family="Helvetica,sans-Serif" font-size="10.00">#</text>
<text xml:space="preserve" text-anchor="start" x="50.25" y="-1267.5" font-family="Helvetica,sans-Serif" font-size="10.00">serializza()</text>
<text xml:space="preserve" text-anchor="start" x="22.5" y="-1251.5" font-family="Helvetica,sans-Serif" font-size="10.00">#</text>
<text xml:space="preserve" text-anchor="start" x="50.25" y="-1251.5" font-family="Helvetica,sans-Serif" font-size="10.00">deserializza()</text>
<text xml:space="preserve" text-anchor="start" x="22.5" y="-1235.5" font-family="Helvetica,sans-Serif" font-size="10.00">#</text>
<text xml:space="preserve" text-anchor="start" x="50.25" y="-1235.5" font-family="Helvetica,sans-Serif" font-size="10.00">salvaTutto()</text>
<polygon fill="#666666" stroke="#666666" points="0,-1391 0,-1391 164,-1391 164,-1391 0,-1391"/>
<polygon fill="#666666" stroke="#666666" points="0,-1359 0,-1359 48.25,-1359 48.25,-1359 0,-1359"/>
<polygon fill="#666666" stroke="#666666" points="48.25,-1359 48.25,-1359 164,-1359 164,-1359 48.25,-1359"/>
<polygon fill="none" stroke="#666666" points="0,-1229 0,-1421 164,-1421 164,-1229 0,-1229"/>
</a>
</g>
</g>
<!-- Node6&#45;&gt;Node5 -->
<g id="edge5_Node000005_Node000006" class="edge">
<title>Node6&#45;&gt;Node5</title>
<g id="a_edge5_Node000005_Node000006"><a xlink:title=" ">
<path fill="none" stroke="#63b8ff" d="M82,-1217.73C82,-1208.78 82,-1199.99 82,-1191.69"/>
<polygon fill="none" stroke="#63b8ff" points="78.5,-1217.62 82,-1227.62 85.5,-1217.62 78.5,-1217.62"/>
</a>
</g>
</g>
<!-- Node7 -->
<g id="Node000007" class="node">
<title>Node7</title>
<g id="a_Node000007"><a xlink:href="classit_1_1unisa_1_1biblioteca_1_1gruppo21_1_1archive_1_1_archive_prestiti.html" target="_top" xlink:title=" ">
<polygon fill="white" stroke="none" points="365,-1192 201,-1192 201,-1080 365,-1080 365,-1192"/>
<text xml:space="preserve" text-anchor="start" x="205" y="-1178.5" font-family="Helvetica,sans-Serif" font-size="10.00">it.unisa.biblioteca.gruppo21.archive.</text>
<text xml:space="preserve" text-anchor="start" x="251.12" y="-1166.5" font-family="Helvetica,sans-Serif" font-size="10.00">ArchivePrestiti</text>
<text xml:space="preserve" text-anchor="start" x="281.5" y="-1150.5" font-family="Helvetica,sans-Serif" font-size="10.00"> </text>
<text xml:space="preserve" text-anchor="start" x="224.06" y="-1134.5" font-family="Helvetica,sans-Serif" font-size="10.00">+</text>
<text xml:space="preserve" text-anchor="start" x="253.12" y="-1134.5" font-family="Helvetica,sans-Serif" font-size="10.00">ArchivePrestiti()</text>
<text xml:space="preserve" text-anchor="start" x="224.06" y="-1118.5" font-family="Helvetica,sans-Serif" font-size="10.00">+</text>
<text xml:space="preserve" text-anchor="start" x="253.12" y="-1118.5" font-family="Helvetica,sans-Serif" font-size="10.00">cerca()</text>
<text xml:space="preserve" text-anchor="start" x="224.44" y="-1102.5" font-family="Helvetica,sans-Serif" font-size="10.00">#</text>
<text xml:space="preserve" text-anchor="start" x="253.12" y="-1102.5" font-family="Helvetica,sans-Serif" font-size="10.00">serializza()</text>
<text xml:space="preserve" text-anchor="start" x="224.44" y="-1086.5" font-family="Helvetica,sans-Serif" font-size="10.00">#</text>
<text xml:space="preserve" text-anchor="start" x="253.12" y="-1086.5" font-family="Helvetica,sans-Serif" font-size="10.00">deserializza()</text>
<polygon fill="#666666" stroke="#666666" points="201,-1162 201,-1162 365,-1162 365,-1162 201,-1162"/>
<polygon fill="#666666" stroke="#666666" points="201,-1146 201,-1146 365,-1146 365,-1146 201,-1146"/>
<polygon fill="none" stroke="#666666" points="201,-1080 201,-1192 365,-1192 365,-1080 201,-1080"/>
</a>
</g>
</g>
<!-- Node7&#45;&gt;Node4 -->
<g id="edge6_Node000004_Node000007" class="edge">
<title>Node7&#45;&gt;Node4</title>
<g id="a_edge6_Node000004_Node000007"><a xlink:title=" ">
<path fill="none" stroke="#63b8ff" d="M227.41,-1080.02C212.99,-1065.76 197.16,-1050.11 181.74,-1034.85"/>
<polygon fill="none" stroke="#63b8ff" points="181.89,-1035 174.81,-1033.62 173.36,-1026.56 180.43,-1027.94 181.89,-1035"/>
</a>
</g>
<text xml:space="preserve" text-anchor="start" x="211.3" y="-1049.5" font-family="Helvetica,sans-Serif" font-size="10.00" fill="grey">&#45;arcPrestiti</text>
</g>
<!-- Node9 -->
<g id="Node000009" class="node">
<title>Node9</title>
<g id="a_Node000009"><a xlink:href="classit_1_1unisa_1_1biblioteca_1_1gruppo21_1_1service_1_1_service_libri.html" target="_top" xlink:title=" ">
<polygon fill="white" stroke="none" points="547,-1026 383,-1026 383,-882 547,-882 547,-1026"/>
<text xml:space="preserve" text-anchor="start" x="387" y="-1012.5" font-family="Helvetica,sans-Serif" font-size="10.00">it.unisa.biblioteca.gruppo21.service.</text>
<text xml:space="preserve" text-anchor="start" x="439.5" y="-1000.5" font-family="Helvetica,sans-Serif" font-size="10.00">ServiceLibri</text>
<text xml:space="preserve" text-anchor="start" x="463.5" y="-984.5" font-family="Helvetica,sans-Serif" font-size="10.00"> </text>
<text xml:space="preserve" text-anchor="start" x="406.44" y="-968.5" font-family="Helvetica,sans-Serif" font-size="10.00">+</text>
<text xml:space="preserve" text-anchor="start" x="435.88" y="-968.5" font-family="Helvetica,sans-Serif" font-size="10.00">ServiceLibri()</text>
<text xml:space="preserve" text-anchor="start" x="406.44" y="-952.5" font-family="Helvetica,sans-Serif" font-size="10.00">+</text>
<text xml:space="preserve" text-anchor="start" x="435.88" y="-952.5" font-family="Helvetica,sans-Serif" font-size="10.00">aggiungi()</text>
<text xml:space="preserve" text-anchor="start" x="406.44" y="-936.5" font-family="Helvetica,sans-Serif" font-size="10.00">+</text>
<text xml:space="preserve" text-anchor="start" x="435.88" y="-936.5" font-family="Helvetica,sans-Serif" font-size="10.00">aggiornaCopie()</text>
<text xml:space="preserve" text-anchor="start" x="406.44" y="-920.5" font-family="Helvetica,sans-Serif" font-size="10.00">+</text>
<text xml:space="preserve" text-anchor="start" x="435.88" y="-920.5" font-family="Helvetica,sans-Serif" font-size="10.00">rimuovi()</text>
<text xml:space="preserve" text-anchor="start" x="406.44" y="-904.5" font-family="Helvetica,sans-Serif" font-size="10.00">+</text>
<text xml:space="preserve" text-anchor="start" x="435.88" y="-904.5" font-family="Helvetica,sans-Serif" font-size="10.00">cerca()</text>
<text xml:space="preserve" text-anchor="start" x="406.44" y="-888.5" font-family="Helvetica,sans-Serif" font-size="10.00">+</text>
<text xml:space="preserve" text-anchor="start" x="435.88" y="-888.5" font-family="Helvetica,sans-Serif" font-size="10.00">getLista()</text>
<polygon fill="#bfbfbf" stroke="#bfbfbf" points="383,-996 383,-996 547,-996 547,-996 383,-996"/>
<polygon fill="#bfbfbf" stroke="#bfbfbf" points="383,-980 383,-980 547,-980 547,-980 383,-980"/>
<polygon fill="none" stroke="#bfbfbf" points="383,-882 383,-1026 547,-1026 547,-882 383,-882"/>
</a>
</g>
</g>
<!-- Node7&#45;&gt;Node9 -->
<g id="edge11_Node000009_Node000007" class="edge">
<title>Node7&#45;&gt;Node9</title>
<g id="a_edge11_Node000009_Node000007"><a xlink:title=" ">
<path fill="none" stroke="#63b8ff" d="M326.6,-1080.26C337.08,-1067.98 348.5,-1055.26 359.75,-1044 364.23,-1039.51 368.92,-1035 373.71,-1030.51"/>
<polygon fill="none" stroke="#63b8ff" points="373.54,-1030.67 375.25,-1023.66 382.38,-1022.55 380.66,-1029.55 373.54,-1030.67"/>
</a>
</g>
<text xml:space="preserve" text-anchor="start" x="362.75" y="-1049.5" font-family="Helvetica,sans-Serif" font-size="10.00" fill="grey">&#45;arcPrestiti</text>
</g>
<!-- Node7&#45;&gt;Node12 -->
<g id="edge13_Node000012_Node000007" class="edge">
<title>Node7&#45;&gt;Node12</title>
<g id="a_edge13_Node000012_Node000007"><a xlink:title=" ">
<path fill="none" stroke="#63b8ff" d="M283,-1080.02C283,-1064.52 283,-1047.37 283,-1030.88"/>
<polygon fill="none" stroke="#63b8ff" points="283,-1030.74 279,-1024.74 283,-1018.74 287,-1024.74 283,-1030.74"/>
</a>
</g>
<text xml:space="preserve" text-anchor="start" x="286" y="-1049.5" font-family="Helvetica,sans-Serif" font-size="10.00" fill="grey">&#45;arcPrestiti</text>
</g>
<!-- Node8 -->
<g id="Node000008" class="node">
<title>Node8</title>
<g id="a_Node000008"><a xlink:href="classit_1_1unisa_1_1biblioteca_1_1gruppo21_1_1archive_1_1_archive_astratto.html" target="_top" xlink:title=" ">
<polygon fill="white" stroke="none" points="365,-1421 201,-1421 201,-1229 365,-1229 365,-1421"/>
<text xml:space="preserve" text-anchor="start" x="205" y="-1407.5" font-family="Helvetica,sans-Serif" font-size="10.00">it.unisa.biblioteca.gruppo21.archive.</text>
<text xml:space="preserve" text-anchor="start" x="223.38" y="-1395.5" font-family="Helvetica,sans-Serif" font-size="10.00">ArchiveAstratto&lt; Prestito &gt;</text>
<text xml:space="preserve" text-anchor="start" x="223.5" y="-1379.5" font-family="Helvetica,sans-Serif" font-size="10.00">#</text>
<text xml:space="preserve" text-anchor="start" x="251.25" y="-1379.5" font-family="Helvetica,sans-Serif" font-size="10.00">cache</text>
<text xml:space="preserve" text-anchor="start" x="223.5" y="-1363.5" font-family="Helvetica,sans-Serif" font-size="10.00">#</text>
<text xml:space="preserve" text-anchor="start" x="251.25" y="-1363.5" font-family="Helvetica,sans-Serif" font-size="10.00">file</text>
<text xml:space="preserve" text-anchor="start" x="223.12" y="-1347.5" font-family="Helvetica,sans-Serif" font-size="10.00">+</text>
<text xml:space="preserve" text-anchor="start" x="251.25" y="-1347.5" font-family="Helvetica,sans-Serif" font-size="10.00">ArchiveAstratto()</text>
<text xml:space="preserve" text-anchor="start" x="223.12" y="-1331.5" font-family="Helvetica,sans-Serif" font-size="10.00">+</text>
<text xml:space="preserve" text-anchor="start" x="251.25" y="-1331.5" font-family="Helvetica,sans-Serif" font-size="10.00">cerca()</text>
<text xml:space="preserve" text-anchor="start" x="223.12" y="-1315.5" font-family="Helvetica,sans-Serif" font-size="10.00">+</text>
<text xml:space="preserve" text-anchor="start" x="251.25" y="-1315.5" font-family="Helvetica,sans-Serif" font-size="10.00">aggiungi()</text>
<text xml:space="preserve" text-anchor="start" x="223.12" y="-1299.5" font-family="Helvetica,sans-Serif" font-size="10.00">+</text>
<text xml:space="preserve" text-anchor="start" x="251.25" y="-1299.5" font-family="Helvetica,sans-Serif" font-size="10.00">cancella()</text>
<text xml:space="preserve" text-anchor="start" x="223.12" y="-1283.5" font-family="Helvetica,sans-Serif" font-size="10.00">+</text>
<text xml:space="preserve" text-anchor="start" x="251.25" y="-1283.5" font-family="Helvetica,sans-Serif" font-size="10.00">leggiTutti()</text>
<text xml:space="preserve" text-anchor="start" x="223.5" y="-1267.5" font-family="Helvetica,sans-Serif" font-size="10.00">#</text>
<text xml:space="preserve" text-anchor="start" x="251.25" y="-1267.5" font-family="Helvetica,sans-Serif" font-size="10.00">serializza()</text>
<text xml:space="preserve" text-anchor="start" x="223.5" y="-1251.5" font-family="Helvetica,sans-Serif" font-size="10.00">#</text>
<text xml:space="preserve" text-anchor="start" x="251.25" y="-1251.5" font-family="Helvetica,sans-Serif" font-size="10.00">deserializza()</text>
<text xml:space="preserve" text-anchor="start" x="223.5" y="-1235.5" font-family="Helvetica,sans-Serif" font-size="10.00">#</text>
<text xml:space="preserve" text-anchor="start" x="251.25" y="-1235.5" font-family="Helvetica,sans-Serif" font-size="10.00">salvaTutto()</text>
<polygon fill="#666666" stroke="#666666" points="201,-1391 201,-1391 365,-1391 365,-1391 201,-1391"/>
<polygon fill="#666666" stroke="#666666" points="201,-1359 201,-1359 249.25,-1359 249.25,-1359 201,-1359"/>
<polygon fill="#666666" stroke="#666666" points="249.25,-1359 249.25,-1359 365,-1359 365,-1359 249.25,-1359"/>
<polygon fill="none" stroke="#666666" points="201,-1229 201,-1421 365,-1421 365,-1229 201,-1229"/>
</a>
</g>
</g>
<!-- Node8&#45;&gt;Node7 -->
<g id="edge7_Node000007_Node000008" class="edge">
<title>Node8&#45;&gt;Node7</title>
<g id="a_edge7_Node000007_Node000008"><a xlink:title=" ">
<path fill="none" stroke="#63b8ff" d="M283,-1217.73C283,-1208.78 283,-1199.99 283,-1191.69"/>
<polygon fill="none" stroke="#63b8ff" points="279.5,-1217.62 283,-1227.62 286.5,-1217.62 279.5,-1217.62"/>
</a>
</g>
</g>
<!-- Node9&#45;&gt;Node3 -->
<g id="edge8_Node000003_Node000009" class="edge">
<title>Node9&#45;&gt;Node3</title>
<g id="a_edge8_Node000003_Node000009"><a xlink:title=" ">
<path fill="none" stroke="#63b8ff" d="M415.51,-882.3C402.03,-863.04 387.01,-841.58 372.05,-820.22"/>
<polygon fill="none" stroke="#63b8ff" points="372.12,-820.32 365.4,-817.69 365.24,-810.48 371.96,-813.11 372.12,-820.32"/>
</a>
</g>
<text xml:space="preserve" text-anchor="start" x="403.94" y="-851.5" font-family="Helvetica,sans-Serif" font-size="10.00" fill="grey">&#45;serviceLibri</text>
</g>
<!-- Node10 -->
<g id="Node000010" class="node">
<title>Node10</title>
<g id="a_Node000010"><a xlink:href="classit_1_1unisa_1_1biblioteca_1_1gruppo21_1_1archive_1_1_archive_libri.html" target="_top" xlink:title=" ">
<polygon fill="white" stroke="none" points="564,-1192 400,-1192 400,-1080 564,-1080 564,-1192"/>
<text xml:space="preserve" text-anchor="start" x="404" y="-1178.5" font-family="Helvetica,sans-Serif" font-size="10.00">it.unisa.biblioteca.gruppo21.archive.</text>
<text xml:space="preserve" text-anchor="start" x="456.5" y="-1166.5" font-family="Helvetica,sans-Serif" font-size="10.00">ArchiveLibri</text>
<text xml:space="preserve" text-anchor="start" x="480.5" y="-1150.5" font-family="Helvetica,sans-Serif" font-size="10.00"> </text>
<text xml:space="preserve" text-anchor="start" x="426.06" y="-1134.5" font-family="Helvetica,sans-Serif" font-size="10.00">+</text>
<text xml:space="preserve" text-anchor="start" x="458.12" y="-1134.5" font-family="Helvetica,sans-Serif" font-size="10.00">ArchiveLibri()</text>
<text xml:space="preserve" text-anchor="start" x="426.06" y="-1118.5" font-family="Helvetica,sans-Serif" font-size="10.00">+</text>
<text xml:space="preserve" text-anchor="start" x="458.12" y="-1118.5" font-family="Helvetica,sans-Serif" font-size="10.00">cerca()</text>
<text xml:space="preserve" text-anchor="start" x="426.44" y="-1102.5" font-family="Helvetica,sans-Serif" font-size="10.00">#</text>
<text xml:space="preserve" text-anchor="start" x="458.12" y="-1102.5" font-family="Helvetica,sans-Serif" font-size="10.00">serializza()</text>
<text xml:space="preserve" text-anchor="start" x="426.44" y="-1086.5" font-family="Helvetica,sans-Serif" font-size="10.00">#</text>
<text xml:space="preserve" text-anchor="start" x="458.12" y="-1086.5" font-family="Helvetica,sans-Serif" font-size="10.00">deserializza()</text>
<polygon fill="#666666" stroke="#666666" points="400,-1162 400,-1162 564,-1162 564,-1162 400,-1162"/>
<polygon fill="#666666" stroke="#666666" points="400,-1146 400,-1146 564,-1146 564,-1146 400,-1146"/>
<polygon fill="none" stroke="#666666" points="400,-1080 400,-1192 564,-1192 564,-1080 400,-1080"/>
</a>
</g>
</g>
<!-- Node10&#45;&gt;Node9 -->
<g id="edge9_Node000009_Node000010" class="edge">
<title>Node10&#45;&gt;Node9</title>
<g id="a_edge9_Node000009_Node000010"><a xlink:title=" ">
<path fill="none" stroke="#63b8ff" d="M479.69,-1080.09C478.99,-1068.18 478.1,-1055.66 477,-1044 476.83,-1042.25 476.66,-1040.48 476.48,-1038.7"/>
<polygon fill="none" stroke="#63b8ff" points="476.48,-1038.69 471.85,-1033.16 475.17,-1026.76 479.8,-1032.29 476.48,-1038.69"/>
</a>
</g>
<text xml:space="preserve" text-anchor="start" x="481.45" y="-1049.5" font-family="Helvetica,sans-Serif" font-size="10.00" fill="grey">&#45;arcLibri</text>
</g>
<!-- Node10&#45;&gt;Node12 -->
<g id="edge14_Node000012_Node000010" class="edge">
<title>Node10&#45;&gt;Node12</title>
<g id="a_edge14_Node000012_Node000010"><a xlink:title=" ">
<path fill="none" stroke="#63b8ff" d="M447.26,-1080.15C437.3,-1067.19 425.67,-1054.19 413,-1044 398.12,-1032.04 390.3,-1035.94 374,-1026 373.35,-1025.6 372.69,-1025.2 372.03,-1024.79"/>
<polygon fill="none" stroke="#63b8ff" points="372.21,-1024.91 365,-1025.01 362.13,-1018.39 369.34,-1018.29 372.21,-1024.91"/>
</a>
</g>
<text xml:space="preserve" text-anchor="start" x="434.13" y="-1049.5" font-family="Helvetica,sans-Serif" font-size="10.00" fill="grey">&#45;arcLibri</text>
</g>
<!-- Node11 -->
<g id="Node000011" class="node">
<title>Node11</title>
<g id="a_Node000011"><a xlink:href="classit_1_1unisa_1_1biblioteca_1_1gruppo21_1_1archive_1_1_archive_astratto.html" target="_top" xlink:title=" ">
<polygon fill="white" stroke="none" points="564,-1421 400,-1421 400,-1229 564,-1229 564,-1421"/>
<text xml:space="preserve" text-anchor="start" x="404" y="-1407.5" font-family="Helvetica,sans-Serif" font-size="10.00">it.unisa.biblioteca.gruppo21.archive.</text>
<text xml:space="preserve" text-anchor="start" x="428.75" y="-1395.5" font-family="Helvetica,sans-Serif" font-size="10.00">ArchiveAstratto&lt; Libro &gt;</text>
<text xml:space="preserve" text-anchor="start" x="422.5" y="-1379.5" font-family="Helvetica,sans-Serif" font-size="10.00">#</text>
<text xml:space="preserve" text-anchor="start" x="450.25" y="-1379.5" font-family="Helvetica,sans-Serif" font-size="10.00">cache</text>
<text xml:space="preserve" text-anchor="start" x="422.5" y="-1363.5" font-family="Helvetica,sans-Serif" font-size="10.00">#</text>
<text xml:space="preserve" text-anchor="start" x="450.25" y="-1363.5" font-family="Helvetica,sans-Serif" font-size="10.00">file</text>
<text xml:space="preserve" text-anchor="start" x="422.12" y="-1347.5" font-family="Helvetica,sans-Serif" font-size="10.00">+</text>
<text xml:space="preserve" text-anchor="start" x="450.25" y="-1347.5" font-family="Helvetica,sans-Serif" font-size="10.00">ArchiveAstratto()</text>
<text xml:space="preserve" text-anchor="start" x="422.12" y="-1331.5" font-family="Helvetica,sans-Serif" font-size="10.00">+</text>
<text xml:space="preserve" text-anchor="start" x="450.25" y="-1331.5" font-family="Helvetica,sans-Serif" font-size="10.00">cerca()</text>
<text xml:space="preserve" text-anchor="start" x="422.12" y="-1315.5" font-family="Helvetica,sans-Serif" font-size="10.00">+</text>
<text xml:space="preserve" text-anchor="start" x="450.25" y="-1315.5" font-family="Helvetica,sans-Serif" font-size="10.00">aggiungi()</text>
<text xml:space="preserve" text-anchor="start" x="422.12" y="-1299.5" font-family="Helvetica,sans-Serif" font-size="10.00">+</text>
<text xml:space="preserve" text-anchor="start" x="450.25" y="-1299.5" font-family="Helvetica,sans-Serif" font-size="10.00">cancella()</text>
<text xml:space="preserve" text-anchor="start" x="422.12" y="-1283.5" font-family="Helvetica,sans-Serif" font-size="10.00">+</text>
<text xml:space="preserve" text-anchor="start" x="450.25" y="-1283.5" font-family="Helvetica,sans-Serif" font-size="10.00">leggiTutti()</text>
<text xml:space="preserve" text-anchor="start" x="422.5" y="-1267.5" font-family="Helvetica,sans-Serif" font-size="10.00">#</text>
<text xml:space="preserve" text-anchor="start" x="450.25" y="-1267.5" font-family="Helvetica,sans-Serif" font-size="10.00">serializza()</text>
<text xml:space="preserve" text-anchor="start" x="422.5" y="-1251.5" font-family="Helvetica,sans-Serif" font-size="10.00">#</text>
<text xml:space="preserve" text-anchor="start" x="450.25" y="-1251.5" font-family="Helvetica,sans-Serif" font-size="10.00">deserializza()</text>
<text xml:space="preserve" text-anchor="start" x="422.5" y="-1235.5" font-family="Helvetica,sans-Serif" font-size="10.00">#</text>
<text xml:space="preserve" text-anchor="start" x="450.25" y="-1235.5" font-family="Helvetica,sans-Serif" font-size="10.00">salvaTutto()</text>
<polygon fill="#666666" stroke="#666666" points="400,-1391 400,-1391 564,-1391 564,-1391 400,-1391"/>
<polygon fill="#666666" stroke="#666666" points="400,-1359 400,-1359 448.25,-1359 448.25,-1359 400,-1359"/>
<polygon fill="#666666" stroke="#666666" points="448.25,-1359 448.25,-1359 564,-1359 564,-1359 448.25,-1359"/>
<polygon fill="none" stroke="#666666" points="400,-1229 400,-1421 564,-1421 564,-1229 400,-1229"/>
</a>
</g>
</g>
<!-- Node11&#45;&gt;Node10 -->
<g id="edge10_Node000010_Node000011" class="edge">
<title>Node11&#45;&gt;Node10</title>
<g id="a_edge10_Node000010_Node000011"><a xlink:title=" ">
<path fill="none" stroke="#63b8ff" d="M482,-1217.73C482,-1208.78 482,-1199.99 482,-1191.69"/>
<polygon fill="none" stroke="#63b8ff" points="478.5,-1217.62 482,-1227.62 485.5,-1217.62 478.5,-1217.62"/>
</a>
</g>
</g>
<!-- Node12&#45;&gt;Node3 -->
<g id="edge12_Node000003_Node000012" class="edge">
<title>Node12&#45;&gt;Node3</title>
<g id="a_edge12_Node000003_Node000012"><a xlink:title=" ">
<path fill="none" stroke="#63b8ff" d="M283,-890.06C283,-874.9 283,-858.06 283,-840.79"/>
<polygon fill="none" stroke="#63b8ff" points="283,-840.74 279,-834.74 283,-828.74 287,-834.74 283,-840.74"/>
</a>
</g>
<text xml:space="preserve" text-anchor="start" x="286" y="-851.5" font-family="Helvetica,sans-Serif" font-size="10.00" fill="grey">&#45;servicePrestiti</text>
</g>
</g>
</svg>
