<?xml version="1.0" encoding="UTF-8" standalone="no"?>
<!DOCTYPE svg PUBLIC "-//W3C//DTD SVG 1.1//EN"
 "http://www.w3.org/Graphics/SVG/1.1/DTD/svg11.dtd">
<!-- Generated by graphviz version 14.1.0 (20251206.1807)
 -->
<!-- Title: it.unisa.biblioteca.gruppo21.App Pages: 1 -->
<svg width="155pt" height="164pt"
 viewBox="0.00 0.00 155.00 164.00" xmlns="http://www.w3.org/2000/svg" xmlns:xlink="http://www.w3.org/1999/xlink">
<g id="graph0" class="graph" transform="scale(1 1) rotate(0) translate(4 160)">
<title>it.unisa.biblioteca.gruppo21.App</title>
<!-- Node1 -->
<g id="Node000001" class="node">
<title>Node1</title>
<g id="a_Node000001"><a xlink:title=" ">
<polygon fill="#999999" stroke="none" points="146.75,-68 0,-68 0,0 146.75,0 146.75,-68"/>
<text xml:space="preserve" text-anchor="start" x="4" y="-54.5" font-family="Helvetica,sans-Serif" font-size="10.00">it.unisa.biblioteca.gruppo21.App</text>
<text xml:space="preserve" text-anchor="start" x="71.88" y="-38.5" font-family="Helvetica,sans-Serif" font-size="10.00"> </text>
<text xml:space="preserve" text-anchor="start" x="29.44" y="-22.5" font-family="Helvetica,sans-Serif" font-size="10.00">+</text>
<text xml:space="preserve" text-anchor="start" x="64.88" y="-22.5" font-family="Helvetica,sans-Serif" font-size="10.00">start()</text>
<text xml:space="preserve" text-anchor="start" x="29.44" y="-6.5" font-family="Helvetica,sans-Serif" font-size="10.00">+</text>
<text xml:space="preserve" text-anchor="start" x="64.88" y="-6.5" font-family="Helvetica,sans-Serif" font-size="10.00">main()</text>
<polygon fill="#666666" stroke="#666666" points="0,-50 0,-50 146.75,-50 146.75,-50 0,-50"/>
<polygon fill="#666666" stroke="#666666" points="0,-34 0,-34 146.75,-34 146.75,-34 0,-34"/>
<polygon fill="none" stroke="#666666" points="0,0 0,-68 146.75,-68 146.75,0 0,0"/>
</a>
</g>
</g>
<!-- Node2 -->
<g id="Node000002" class="node">
<title>Node2</title>
<g id="a_Node000002"><a xlink:title=" ">
<polygon fill="white" stroke="none" points="101.38,-156 45.38,-156 45.38,-104 101.38,-104 101.38,-156"/>
<text xml:space="preserve" text-anchor="start" x="49.38" y="-142.5" font-family="Helvetica,sans-Serif" font-size="10.00">Application</text>
<text xml:space="preserve" text-anchor="start" x="71.88" y="-126.5" font-family="Helvetica,sans-Serif" font-size="10.00"> </text>
<text xml:space="preserve" text-anchor="start" x="71.88" y="-110.5" font-family="Helvetica,sans-Serif" font-size="10.00"> </text>
<polygon fill="#bfbfbf" stroke="#bfbfbf" points="45.38,-138 45.38,-138 101.38,-138 101.38,-138 45.38,-138"/>
<polygon fill="#bfbfbf" stroke="#bfbfbf" points="45.38,-122 45.38,-122 101.38,-122 101.38,-122 45.38,-122"/>
<polygon fill="none" stroke="#bfbfbf" points="45.38,-104 45.38,-156 101.38,-156 101.38,-104 45.38,-104"/>
</a>
</g>
</g>
<!-- Node2&#45;&gt;Node1 -->
<g id="edge1_Node000001_Node000002" class="edge">
<title>Node2&#45;&gt;Node1</title>
<g id="a_edge1_Node000001_Node000002"><a xlink:title=" ">
<path fill="none" stroke="#63b8ff" d="M73.38,-92.97C73.38,-84.65 73.38,-75.84 73.38,-67.67"/>
<polygon fill="none" stroke="#63b8ff" points="69.88,-92.79 73.38,-102.79 76.88,-92.79 69.88,-92.79"/>
</a>
</g>
</g>
</g>
</svg>
