<?xml version="1.0" encoding="UTF-8" standalone="no"?>
<!DOCTYPE svg PUBLIC "-//W3C//DTD SVG 1.1//EN"
 "http://www.w3.org/Graphics/SVG/1.1/DTD/svg11.dtd">
<!-- Generated by graphviz version 14.1.0 (20251206.1807)
 -->
<!-- Title: it.unisa.biblioteca.gruppo21.gui.Controller Pages: 1 -->
<svg width="583pt" height="1509pt"
 viewBox="0.00 0.00 583.00 1509.00" xmlns="http://www.w3.org/2000/svg" xmlns:xlink="http://www.w3.org/1999/xlink">
<g id="graph0" class="graph" transform="scale(1 1) rotate(0) translate(4 1505)">
<title>it.unisa.biblioteca.gruppo21.gui.Controller</title>
<!-- Node1 -->
<g id="Node000001" class="node">
<title>Node1</title>
<g id="a_Node000001"><a xlink:title=" ">
<polygon fill="#999999" stroke="none" points="338.25,-256 189.75,-256 189.75,0 338.25,0 338.25,-256"/>
<text xml:space="preserve" text-anchor="start" x="195.38" y="-242.5" font-family="Helvetica,sans-Serif" font-size="10.00">it.unisa.biblioteca.gruppo21.gui.</text>
<text xml:space="preserve" text-anchor="start" x="243" y="-230.5" font-family="Helvetica,sans-Serif" font-size="10.00">Controller</text>
<text xml:space="preserve" text-anchor="start" x="262.5" y="-214.5" font-family="Helvetica,sans-Serif" font-size="10.00"> </text>
<text xml:space="preserve" text-anchor="start" x="193.75" y="-198.5" font-family="Helvetica,sans-Serif" font-size="10.00">+</text>
<text xml:space="preserve" text-anchor="start" x="203.75" y="-198.5" font-family="Helvetica,sans-Serif" font-size="10.00">Controller()</text>
<text xml:space="preserve" text-anchor="start" x="193.75" y="-182.5" font-family="Helvetica,sans-Serif" font-size="10.00">+</text>
<text xml:space="preserve" text-anchor="start" x="203.75" y="-182.5" font-family="Helvetica,sans-Serif" font-size="10.00">gestisciIscrizione()</text>
<text xml:space="preserve" text-anchor="start" x="193.75" y="-166.5" font-family="Helvetica,sans-Serif" font-size="10.00">+</text>
<text xml:space="preserve" text-anchor="start" x="203.75" y="-166.5" font-family="Helvetica,sans-Serif" font-size="10.00">gestisciModificaUtente()</text>
<text xml:space="preserve" text-anchor="start" x="193.75" y="-150.5" font-family="Helvetica,sans-Serif" font-size="10.00">+</text>
<text xml:space="preserve" text-anchor="start" x="203.75" y="-150.5" font-family="Helvetica,sans-Serif" font-size="10.00">gestisciRimozioneUtente()</text>
<text xml:space="preserve" text-anchor="start" x="193.75" y="-134.5" font-family="Helvetica,sans-Serif" font-size="10.00">+</text>
<text xml:space="preserve" text-anchor="start" x="203.75" y="-134.5" font-family="Helvetica,sans-Serif" font-size="10.00">getListaUtenti()</text>
<text xml:space="preserve" text-anchor="start" x="193.75" y="-118.5" font-family="Helvetica,sans-Serif" font-size="10.00">+</text>
<text xml:space="preserve" text-anchor="start" x="203.75" y="-118.5" font-family="Helvetica,sans-Serif" font-size="10.00">gestisciAggiuntaLibro()</text>
<text xml:space="preserve" text-anchor="start" x="193.75" y="-102.5" font-family="Helvetica,sans-Serif" font-size="10.00">+</text>
<text xml:space="preserve" text-anchor="start" x="203.75" y="-102.5" font-family="Helvetica,sans-Serif" font-size="10.00">gestisciAggiornamentoCopie()</text>
<text xml:space="preserve" text-anchor="start" x="193.75" y="-86.5" font-family="Helvetica,sans-Serif" font-size="10.00">+</text>
<text xml:space="preserve" text-anchor="start" x="203.75" y="-86.5" font-family="Helvetica,sans-Serif" font-size="10.00">gestisciRimozioneLibro()</text>
<text xml:space="preserve" text-anchor="start" x="193.75" y="-70.5" font-family="Helvetica,sans-Serif" font-size="10.00">+</text>
<text xml:space="preserve" text-anchor="start" x="203.75" y="-70.5" font-family="Helvetica,sans-Serif" font-size="10.00">getListaLibri()</text>
<text xml:space="preserve" text-anchor="start" x="193.75" y="-54.5" font-family="Helvetica,sans-Serif" font-size="10.00">+</text>
<text xml:space="preserve" text-anchor="start" x="203.75" y="-54.5" font-family="Helvetica,sans-Serif" font-size="10.00">gestisciPrestito()</text>
<text xml:space="preserve" text-anchor="start" x="193.75" y="-38.5" font-family="Helvetica,sans-Serif" font-size="10.00">+</text>
<text xml:space="preserve" text-anchor="start" x="203.75" y="-38.5" font-family="Helvetica,sans-Serif" font-size="10.00">gestisciRestituzione()</text>
<text xml:space="preserve" text-anchor="start" x="193.75" y="-22.5" font-family="Helvetica,sans-Serif" font-size="10.00">+</text>
<text xml:space="preserve" text-anchor="start" x="203.75" y="-22.5" font-family="Helvetica,sans-Serif" font-size="10.00">getListaPrestiti()</text>
<text xml:space="preserve" text-anchor="start" x="195.25" y="-6.5" font-family="Helvetica,sans-Serif" font-size="10.00">&#45;</text>
<text xml:space="preserve" text-anchor="start" x="203.75" y="-6.5" font-family="Helvetica,sans-Serif" font-size="10.00">mostraMessaggio()</text>
<polygon fill="#666666" stroke="#666666" points="189.75,-226 189.75,-226 338.25,-226 338.25,-226 189.75,-226"/>
<polygon fill="#666666" stroke="#666666" points="189.75,-210 189.75,-210 338.25,-210 338.25,-210 189.75,-210"/>
<polygon fill="none" stroke="#666666" points="189.75,0 189.75,-256 338.25,-256 338.25,0 189.75,0"/>
</a>
</g>
</g>
<!-- Node2 -->
<g id="Node000002" class="node">
<title>Node2</title>
<g id="a_Node000002"><a xlink:href="classit_1_1unisa_1_1biblioteca_1_1gruppo21_1_1service_1_1_biblioteca.html" target="_top" xlink:title=" ">
<polygon fill="white" stroke="none" points="346,-598 182,-598 182,-310 346,-310 346,-598"/>
<text xml:space="preserve" text-anchor="start" x="186" y="-584.5" font-family="Helvetica,sans-Serif" font-size="10.00">it.unisa.biblioteca.gruppo21.service.</text>
<text xml:space="preserve" text-anchor="start" x="242.62" y="-572.5" font-family="Helvetica,sans-Serif" font-size="10.00">Biblioteca</text>
<text xml:space="preserve" text-anchor="start" x="262.5" y="-556.5" font-family="Helvetica,sans-Serif" font-size="10.00"> </text>
<text xml:space="preserve" text-anchor="start" x="200.19" y="-540.5" font-family="Helvetica,sans-Serif" font-size="10.00">+</text>
<text xml:space="preserve" text-anchor="start" x="224.38" y="-540.5" font-family="Helvetica,sans-Serif" font-size="10.00">Biblioteca()</text>
<text xml:space="preserve" text-anchor="start" x="200.19" y="-524.5" font-family="Helvetica,sans-Serif" font-size="10.00">+</text>
<text xml:space="preserve" text-anchor="start" x="224.38" y="-524.5" font-family="Helvetica,sans-Serif" font-size="10.00">iscriviUtente()</text>
<text xml:space="preserve" text-anchor="start" x="200.19" y="-508.5" font-family="Helvetica,sans-Serif" font-size="10.00">+</text>
<text xml:space="preserve" text-anchor="start" x="224.38" y="-508.5" font-family="Helvetica,sans-Serif" font-size="10.00">modificaUtente()</text>
<text xml:space="preserve" text-anchor="start" x="200.19" y="-492.5" font-family="Helvetica,sans-Serif" font-size="10.00">+</text>
<text xml:space="preserve" text-anchor="start" x="224.38" y="-492.5" font-family="Helvetica,sans-Serif" font-size="10.00">rimuoviUtente()</text>
<text xml:space="preserve" text-anchor="start" x="200.19" y="-476.5" font-family="Helvetica,sans-Serif" font-size="10.00">+</text>
<text xml:space="preserve" text-anchor="start" x="224.38" y="-476.5" font-family="Helvetica,sans-Serif" font-size="10.00">getElencoUtenti()</text>
<text xml:space="preserve" text-anchor="start" x="200.19" y="-460.5" font-family="Helvetica,sans-Serif" font-size="10.00">+</text>
<text xml:space="preserve" text-anchor="start" x="224.38" y="-460.5" font-family="Helvetica,sans-Serif" font-size="10.00">cercaUtente()</text>
<text xml:space="preserve" text-anchor="start" x="200.19" y="-444.5" font-family="Helvetica,sans-Serif" font-size="10.00">+</text>
<text xml:space="preserve" text-anchor="start" x="224.38" y="-444.5" font-family="Helvetica,sans-Serif" font-size="10.00">aggiungiLibro()</text>
<text xml:space="preserve" text-anchor="start" x="200.19" y="-428.5" font-family="Helvetica,sans-Serif" font-size="10.00">+</text>
<text xml:space="preserve" text-anchor="start" x="224.38" y="-428.5" font-family="Helvetica,sans-Serif" font-size="10.00">aggiornaCopieLibro()</text>
<text xml:space="preserve" text-anchor="start" x="200.19" y="-412.5" font-family="Helvetica,sans-Serif" font-size="10.00">+</text>
<text xml:space="preserve" text-anchor="start" x="224.38" y="-412.5" font-family="Helvetica,sans-Serif" font-size="10.00">rimuoviLibro()</text>
<text xml:space="preserve" text-anchor="start" x="200.19" y="-396.5" font-family="Helvetica,sans-Serif" font-size="10.00">+</text>
<text xml:space="preserve" text-anchor="start" x="224.38" y="-396.5" font-family="Helvetica,sans-Serif" font-size="10.00">getElencoLibri()</text>
<text xml:space="preserve" text-anchor="start" x="200.19" y="-380.5" font-family="Helvetica,sans-Serif" font-size="10.00">+</text>
<text xml:space="preserve" text-anchor="start" x="224.38" y="-380.5" font-family="Helvetica,sans-Serif" font-size="10.00">cercaLibro()</text>
<text xml:space="preserve" text-anchor="start" x="200.19" y="-364.5" font-family="Helvetica,sans-Serif" font-size="10.00">+</text>
<text xml:space="preserve" text-anchor="start" x="224.38" y="-364.5" font-family="Helvetica,sans-Serif" font-size="10.00">effettuaPrestito()</text>
<text xml:space="preserve" text-anchor="start" x="200.19" y="-348.5" font-family="Helvetica,sans-Serif" font-size="10.00">+</text>
<text xml:space="preserve" text-anchor="start" x="224.38" y="-348.5" font-family="Helvetica,sans-Serif" font-size="10.00">restituisciLibro()</text>
<text xml:space="preserve" text-anchor="start" x="200.19" y="-332.5" font-family="Helvetica,sans-Serif" font-size="10.00">+</text>
<text xml:space="preserve" text-anchor="start" x="224.38" y="-332.5" font-family="Helvetica,sans-Serif" font-size="10.00">getStoricoPrestiti()</text>
<text xml:space="preserve" text-anchor="start" x="200.19" y="-316.5" font-family="Helvetica,sans-Serif" font-size="10.00">+</text>
<text xml:space="preserve" text-anchor="start" x="224.38" y="-316.5" font-family="Helvetica,sans-Serif" font-size="10.00">controllaRitardi()</text>
<polygon fill="#666666" stroke="#666666" points="182,-568 182,-568 346,-568 346,-568 182,-568"/>
<polygon fill="#666666" stroke="#666666" points="182,-552 182,-552 346,-552 346,-552 182,-552"/>
<polygon fill="none" stroke="#666666" points="182,-310 182,-598 346,-598 346,-310 182,-310"/>
</a>
</g>
</g>
<!-- Node2&#45;&gt;Node1 -->
<g id="edge1_Node000001_Node000002" class="edge">
<title>Node2&#45;&gt;Node1</title>
<g id="a_edge1_Node000001_Node000002"><a xlink:title=" ">
<path fill="none" stroke="#63b8ff" d="M264,-310.42C264,-296.51 264,-282.41 264,-268.53"/>
<polygon fill="none" stroke="#63b8ff" points="264,-268.76 260,-262.76 264,-256.76 268,-262.76 264,-268.76"/>
</a>
</g>
<text xml:space="preserve" text-anchor="start" x="267" y="-279.5" font-family="Helvetica,sans-Serif" font-size="10.00" fill="grey">&#45;biblioteca</text>
</g>
<!-- Node3 -->
<g id="Node000003" class="node">
<title>Node3</title>
<g id="a_Node000003"><a xlink:href="classit_1_1unisa_1_1biblioteca_1_1gruppo21_1_1service_1_1_service_utenti.html" target="_top" xlink:title=" ">
<polygon fill="white" stroke="none" points="528,-796 364,-796 364,-652 528,-652 528,-796"/>
<text xml:space="preserve" text-anchor="start" x="368" y="-782.5" font-family="Helvetica,sans-Serif" font-size="10.00">it.unisa.biblioteca.gruppo21.service.</text>
<text xml:space="preserve" text-anchor="start" x="416.38" y="-770.5" font-family="Helvetica,sans-Serif" font-size="10.00">ServiceUtenti</text>
<text xml:space="preserve" text-anchor="start" x="444.5" y="-754.5" font-family="Helvetica,sans-Serif" font-size="10.00"> </text>
<text xml:space="preserve" text-anchor="start" x="382" y="-738.5" font-family="Helvetica,sans-Serif" font-size="10.00">+</text>
<text xml:space="preserve" text-anchor="start" x="406" y="-738.5" font-family="Helvetica,sans-Serif" font-size="10.00">ServiceUtenti()</text>
<text xml:space="preserve" text-anchor="start" x="382" y="-722.5" font-family="Helvetica,sans-Serif" font-size="10.00">+</text>
<text xml:space="preserve" text-anchor="start" x="406" y="-722.5" font-family="Helvetica,sans-Serif" font-size="10.00">iscrivi()</text>
<text xml:space="preserve" text-anchor="start" x="382" y="-706.5" font-family="Helvetica,sans-Serif" font-size="10.00">+</text>
<text xml:space="preserve" text-anchor="start" x="406" y="-706.5" font-family="Helvetica,sans-Serif" font-size="10.00">modificaDatiUtente()</text>
<text xml:space="preserve" text-anchor="start" x="382" y="-690.5" font-family="Helvetica,sans-Serif" font-size="10.00">+</text>
<text xml:space="preserve" text-anchor="start" x="406" y="-690.5" font-family="Helvetica,sans-Serif" font-size="10.00">rimuovi()</text>
<text xml:space="preserve" text-anchor="start" x="382" y="-674.5" font-family="Helvetica,sans-Serif" font-size="10.00">+</text>
<text xml:space="preserve" text-anchor="start" x="406" y="-674.5" font-family="Helvetica,sans-Serif" font-size="10.00">cerca()</text>
<text xml:space="preserve" text-anchor="start" x="382" y="-658.5" font-family="Helvetica,sans-Serif" font-size="10.00">+</text>
<text xml:space="preserve" text-anchor="start" x="406" y="-658.5" font-family="Helvetica,sans-Serif" font-size="10.00">getLista()</text>
<polygon fill="#666666" stroke="#666666" points="364,-766 364,-766 528,-766 528,-766 364,-766"/>
<polygon fill="#666666" stroke="#666666" points="364,-750 364,-750 528,-750 528,-750 364,-750"/>
<polygon fill="none" stroke="#666666" points="364,-652 364,-796 528,-796 528,-652 364,-652"/>
</a>
</g>
</g>
<!-- Node3&#45;&gt;Node2 -->
<g id="edge2_Node000002_Node000003" class="edge">
<title>Node3&#45;&gt;Node2</title>
<g id="a_edge2_Node000002_Node000003"><a xlink:title=" ">
<path fill="none" stroke="#63b8ff" d="M397.94,-652.24C384.17,-631.95 368.69,-609.16 353.28,-586.47"/>
<polygon fill="none" stroke="#63b8ff" points="353.22,-586.38 346.54,-583.66 346.48,-576.45 353.16,-579.17 353.22,-586.38"/>
</a>
</g>
<text xml:space="preserve" text-anchor="start" x="384.94" y="-621.5" font-family="Helvetica,sans-Serif" font-size="10.00" fill="grey">&#45;serviceUtenti</text>
</g>
<!-- Node4 -->
<g id="Node000004" class="node">
<title>Node4</title>
<g id="a_Node000004"><a xlink:href="classit_1_1unisa_1_1biblioteca_1_1gruppo21_1_1archive_1_1_archive_utenti.html" target="_top" xlink:title=" ">
<polygon fill="white" stroke="none" points="575,-1184 411,-1184 411,-1072 575,-1072 575,-1184"/>
<text xml:space="preserve" text-anchor="start" x="415" y="-1170.5" font-family="Helvetica,sans-Serif" font-size="10.00">it.unisa.biblioteca.gruppo21.archive.</text>
<text xml:space="preserve" text-anchor="start" x="463.38" y="-1158.5" font-family="Helvetica,sans-Serif" font-size="10.00">ArchiveUtenti</text>
<text xml:space="preserve" text-anchor="start" x="491.5" y="-1142.5" font-family="Helvetica,sans-Serif" font-size="10.00"> </text>
<text xml:space="preserve" text-anchor="start" x="435.19" y="-1126.5" font-family="Helvetica,sans-Serif" font-size="10.00">+</text>
<text xml:space="preserve" text-anchor="start" x="465.38" y="-1126.5" font-family="Helvetica,sans-Serif" font-size="10.00">ArchiveUtenti()</text>
<text xml:space="preserve" text-anchor="start" x="435.19" y="-1110.5" font-family="Helvetica,sans-Serif" font-size="10.00">+</text>
<text xml:space="preserve" text-anchor="start" x="465.38" y="-1110.5" font-family="Helvetica,sans-Serif" font-size="10.00">cerca()</text>
<text xml:space="preserve" text-anchor="start" x="435.56" y="-1094.5" font-family="Helvetica,sans-Serif" font-size="10.00">#</text>
<text xml:space="preserve" text-anchor="start" x="465.38" y="-1094.5" font-family="Helvetica,sans-Serif" font-size="10.00">serializza()</text>
<text xml:space="preserve" text-anchor="start" x="435.56" y="-1078.5" font-family="Helvetica,sans-Serif" font-size="10.00">#</text>
<text xml:space="preserve" text-anchor="start" x="465.38" y="-1078.5" font-family="Helvetica,sans-Serif" font-size="10.00">deserializza()</text>
<polygon fill="#666666" stroke="#666666" points="411,-1154 411,-1154 575,-1154 575,-1154 411,-1154"/>
<polygon fill="#666666" stroke="#666666" points="411,-1138 411,-1138 575,-1138 575,-1138 411,-1138"/>
<polygon fill="none" stroke="#666666" points="411,-1072 411,-1184 575,-1184 575,-1072 411,-1072"/>
</a>
</g>
</g>
<!-- Node4&#45;&gt;Node3 -->
<g id="edge3_Node000003_Node000004" class="edge">
<title>Node4&#45;&gt;Node3</title>
<g id="a_edge3_Node000003_Node000004"><a xlink:title=" ">
<path fill="none" stroke="#63b8ff" d="M502.49,-1072.17C510.46,-1015.78 518.19,-925.75 502,-850 499,-835.97 494.31,-821.61 488.88,-807.86"/>
<polygon fill="none" stroke="#63b8ff" points="488.88,-807.87 482.89,-803.86 484.29,-796.78 490.28,-800.8 488.88,-807.87"/>
</a>
</g>
<text xml:space="preserve" text-anchor="start" x="514.5" y="-902.5" font-family="Helvetica,sans-Serif" font-size="10.00" fill="grey">&#45;arcUtenti</text>
</g>
<!-- Node6 -->
<g id="Node000006" class="node">
<title>Node6</title>
<g id="a_Node000006"><a xlink:href="classit_1_1unisa_1_1biblioteca_1_1gruppo21_1_1archive_1_1_archive_prestiti.html" target="_top" xlink:title=" ">
<polygon fill="white" stroke="none" points="393,-962 229,-962 229,-850 393,-850 393,-962"/>
<text xml:space="preserve" text-anchor="start" x="233" y="-948.5" font-family="Helvetica,sans-Serif" font-size="10.00">it.unisa.biblioteca.gruppo21.archive.</text>
<text xml:space="preserve" text-anchor="start" x="279.12" y="-936.5" font-family="Helvetica,sans-Serif" font-size="10.00">ArchivePrestiti</text>
<text xml:space="preserve" text-anchor="start" x="309.5" y="-920.5" font-family="Helvetica,sans-Serif" font-size="10.00"> </text>
<text xml:space="preserve" text-anchor="start" x="252.06" y="-904.5" font-family="Helvetica,sans-Serif" font-size="10.00">+</text>
<text xml:space="preserve" text-anchor="start" x="281.12" y="-904.5" font-family="Helvetica,sans-Serif" font-size="10.00">ArchivePrestiti()</text>
<text xml:space="preserve" text-anchor="start" x="252.06" y="-888.5" font-family="Helvetica,sans-Serif" font-size="10.00">+</text>
<text xml:space="preserve" text-anchor="start" x="281.12" y="-888.5" font-family="Helvetica,sans-Serif" font-size="10.00">cerca()</text>
<text xml:space="preserve" text-anchor="start" x="252.44" y="-872.5" font-family="Helvetica,sans-Serif" font-size="10.00">#</text>
<text xml:space="preserve" text-anchor="start" x="281.12" y="-872.5" font-family="Helvetica,sans-Serif" font-size="10.00">serializza()</text>
<text xml:space="preserve" text-anchor="start" x="252.44" y="-856.5" font-family="Helvetica,sans-Serif" font-size="10.00">#</text>
<text xml:space="preserve" text-anchor="start" x="281.12" y="-856.5" font-family="Helvetica,sans-Serif" font-size="10.00">deserializza()</text>
<polygon fill="#666666" stroke="#666666" points="229,-932 229,-932 393,-932 393,-932 229,-932"/>
<polygon fill="#666666" stroke="#666666" points="229,-916 229,-916 393,-916 393,-916 229,-916"/>
<polygon fill="none" stroke="#666666" points="229,-850 229,-962 393,-962 393,-850 229,-850"/>
</a>
</g>
</g>
<!-- Node4&#45;&gt;Node6 -->
<g id="edge7_Node000006_Node000004" class="edge">
<title>Node4&#45;&gt;Node6</title>
<g id="a_edge7_Node000006_Node000004"><a xlink:title=" ">
<path fill="none" stroke="#63b8ff" d="M457.95,-1072.07C442.83,-1052.04 423.63,-1030.72 402,-1016 380.39,-1001.29 365,-1015.96 346,-998 338.74,-991.13 332.96,-982.59 328.37,-973.51"/>
<polygon fill="none" stroke="#63b8ff" points="328.41,-973.6 322.32,-969.74 323.54,-962.63 329.63,-966.49 328.41,-973.6"/>
</a>
</g>
<text xml:space="preserve" text-anchor="start" x="349" y="-985.5" font-family="Helvetica,sans-Serif" font-size="10.00" fill="grey">&#45;archivioUtenti</text>
</g>
<!-- Node11 -->
<g id="Node000011" class="node">
<title>Node11</title>
<g id="a_Node000011"><a xlink:href="classit_1_1unisa_1_1biblioteca_1_1gruppo21_1_1service_1_1_service_prestiti.html" target="_top" xlink:title=" ">
<polygon fill="white" stroke="none" points="346,-796 182,-796 182,-652 346,-652 346,-796"/>
<text xml:space="preserve" text-anchor="start" x="186" y="-782.5" font-family="Helvetica,sans-Serif" font-size="10.00">it.unisa.biblioteca.gruppo21.service.</text>
<text xml:space="preserve" text-anchor="start" x="232.12" y="-770.5" font-family="Helvetica,sans-Serif" font-size="10.00">ServicePrestiti</text>
<text xml:space="preserve" text-anchor="start" x="262.5" y="-754.5" font-family="Helvetica,sans-Serif" font-size="10.00"> </text>
<text xml:space="preserve" text-anchor="start" x="204.69" y="-738.5" font-family="Helvetica,sans-Serif" font-size="10.00">+</text>
<text xml:space="preserve" text-anchor="start" x="233.38" y="-738.5" font-family="Helvetica,sans-Serif" font-size="10.00">ServicePrestiti()</text>
<text xml:space="preserve" text-anchor="start" x="204.69" y="-722.5" font-family="Helvetica,sans-Serif" font-size="10.00">+</text>
<text xml:space="preserve" text-anchor="start" x="233.38" y="-722.5" font-family="Helvetica,sans-Serif" font-size="10.00">nuovoPrestito()</text>
<text xml:space="preserve" text-anchor="start" x="204.69" y="-706.5" font-family="Helvetica,sans-Serif" font-size="10.00">+</text>
<text xml:space="preserve" text-anchor="start" x="233.38" y="-706.5" font-family="Helvetica,sans-Serif" font-size="10.00">restituzione()</text>
<text xml:space="preserve" text-anchor="start" x="204.69" y="-690.5" font-family="Helvetica,sans-Serif" font-size="10.00">+</text>
<text xml:space="preserve" text-anchor="start" x="233.38" y="-690.5" font-family="Helvetica,sans-Serif" font-size="10.00">controllaRitardi()</text>
<text xml:space="preserve" text-anchor="start" x="204.69" y="-674.5" font-family="Helvetica,sans-Serif" font-size="10.00">+</text>
<text xml:space="preserve" text-anchor="start" x="233.38" y="-674.5" font-family="Helvetica,sans-Serif" font-size="10.00">getLista()</text>
<text xml:space="preserve" text-anchor="start" x="206.19" y="-658.5" font-family="Helvetica,sans-Serif" font-size="10.00">&#45;</text>
<text xml:space="preserve" text-anchor="start" x="233.38" y="-658.5" font-family="Helvetica,sans-Serif" font-size="10.00">trovaUtente()</text>
<polygon fill="#666666" stroke="#666666" points="182,-766 182,-766 346,-766 346,-766 182,-766"/>
<polygon fill="#666666" stroke="#666666" points="182,-750 182,-750 346,-750 346,-750 182,-750"/>
<polygon fill="none" stroke="#666666" points="182,-652 182,-796 346,-796 346,-652 182,-652"/>
</a>
</g>
</g>
<!-- Node4&#45;&gt;Node11 -->
<g id="edge16_Node000011_Node000004" class="edge">
<title>Node4&#45;&gt;Node11</title>
<g id="a_edge16_Node000011_Node000004"><a xlink:title=" ">
<path fill="none" stroke="#63b8ff" d="M467.3,-1072.09C453.67,-1040.56 437.94,-999.82 429,-962 421.4,-929.85 435.95,-839.55 415,-814 399.55,-795.16 384.14,-805.3 357.88,-796.22"/>
<polygon fill="none" stroke="#63b8ff" points="357.76,-796.17 350.66,-797.44 346.76,-791.37 353.86,-790.1 357.76,-796.17"/>
</a>
</g>
<text xml:space="preserve" text-anchor="start" x="432" y="-902.5" font-family="Helvetica,sans-Serif" font-size="10.00" fill="grey">&#45;archivioUtenti</text>
</g>
<!-- Node5 -->
<g id="Node000005" class="node">
<title>Node5</title>
<g id="a_Node000005"><a xlink:href="classit_1_1unisa_1_1biblioteca_1_1gruppo21_1_1archive_1_1_archive_astratto.html" target="_top" xlink:title=" ">
<polygon fill="white" stroke="none" points="575,-1501 411,-1501 411,-1277 575,-1277 575,-1501"/>
<text xml:space="preserve" text-anchor="start" x="415" y="-1487.5" font-family="Helvetica,sans-Serif" font-size="10.00">it.unisa.biblioteca.gruppo21.archive.</text>
<text xml:space="preserve" text-anchor="start" x="435.62" y="-1475.5" font-family="Helvetica,sans-Serif" font-size="10.00">ArchiveAstratto&lt; Utente &gt;</text>
<text xml:space="preserve" text-anchor="start" x="433.5" y="-1459.5" font-family="Helvetica,sans-Serif" font-size="10.00">#</text>
<text xml:space="preserve" text-anchor="start" x="461.25" y="-1459.5" font-family="Helvetica,sans-Serif" font-size="10.00">cache</text>
<text xml:space="preserve" text-anchor="start" x="433.5" y="-1443.5" font-family="Helvetica,sans-Serif" font-size="10.00">#</text>
<text xml:space="preserve" text-anchor="start" x="461.25" y="-1443.5" font-family="Helvetica,sans-Serif" font-size="10.00">file</text>
<text xml:space="preserve" text-anchor="start" x="433.12" y="-1427.5" font-family="Helvetica,sans-Serif" font-size="10.00">+</text>
<text xml:space="preserve" text-anchor="start" x="461.25" y="-1427.5" font-family="Helvetica,sans-Serif" font-size="10.00">ArchiveAstratto()</text>
<text xml:space="preserve" text-anchor="start" x="433.12" y="-1411.5" font-family="Helvetica,sans-Serif" font-size="10.00">+</text>
<text xml:space="preserve" text-anchor="start" x="461.25" y="-1411.5" font-family="Helvetica,sans-Serif" font-size="10.00">inizializzaDati()</text>
<text xml:space="preserve" text-anchor="start" x="433.12" y="-1395.5" font-family="Helvetica,sans-Serif" font-size="10.00">+</text>
<text xml:space="preserve" text-anchor="start" x="461.25" y="-1395.5" font-family="Helvetica,sans-Serif" font-size="10.00">cerca()</text>
<text xml:space="preserve" text-anchor="start" x="433.12" y="-1379.5" font-family="Helvetica,sans-Serif" font-size="10.00">+</text>
<text xml:space="preserve" text-anchor="start" x="461.25" y="-1379.5" font-family="Helvetica,sans-Serif" font-size="10.00">aggiungi()</text>
<text xml:space="preserve" text-anchor="start" x="433.12" y="-1363.5" font-family="Helvetica,sans-Serif" font-size="10.00">+</text>
<text xml:space="preserve" text-anchor="start" x="461.25" y="-1363.5" font-family="Helvetica,sans-Serif" font-size="10.00">cancella()</text>
<text xml:space="preserve" text-anchor="start" x="433.12" y="-1347.5" font-family="Helvetica,sans-Serif" font-size="10.00">+</text>
<text xml:space="preserve" text-anchor="start" x="461.25" y="-1347.5" font-family="Helvetica,sans-Serif" font-size="10.00">leggiTutti()</text>
<text xml:space="preserve" text-anchor="start" x="433.12" y="-1331.5" font-family="Helvetica,sans-Serif" font-size="10.00">+</text>
<text xml:space="preserve" text-anchor="start" x="461.25" y="-1331.5" font-family="Helvetica,sans-Serif" font-size="10.00">salvaTutto()</text>
<text xml:space="preserve" text-anchor="start" x="433.5" y="-1315.5" font-family="Helvetica,sans-Serif" font-size="10.00">#</text>
<text xml:space="preserve" text-anchor="start" x="461.25" y="-1315.5" font-family="Helvetica,sans-Serif" font-size="10.00">serializza()</text>
<text xml:space="preserve" text-anchor="start" x="433.5" y="-1299.5" font-family="Helvetica,sans-Serif" font-size="10.00">#</text>
<text xml:space="preserve" text-anchor="start" x="461.25" y="-1299.5" font-family="Helvetica,sans-Serif" font-size="10.00">deserializza()</text>
<text xml:space="preserve" text-anchor="start" x="434.62" y="-1283.5" font-family="Helvetica,sans-Serif" font-size="10.00">&#45;</text>
<text xml:space="preserve" text-anchor="start" x="461.25" y="-1283.5" font-family="Helvetica,sans-Serif" font-size="10.00">caricaDaFile()</text>
<polygon fill="#666666" stroke="#666666" points="411,-1471 411,-1471 575,-1471 575,-1471 411,-1471"/>
<polygon fill="#666666" stroke="#666666" points="411,-1439 411,-1439 459.25,-1439 459.25,-1439 411,-1439"/>
<polygon fill="#666666" stroke="#666666" points="459.25,-1439 459.25,-1439 575,-1439 575,-1439 459.25,-1439"/>
<polygon fill="none" stroke="#666666" points="411,-1277 411,-1501 575,-1501 575,-1277 411,-1277"/>
</a>
</g>
</g>
<!-- Node5&#45;&gt;Node4 -->
<g id="edge4_Node000004_Node000005" class="edge">
<title>Node5&#45;&gt;Node4</title>
<g id="a_edge4_Node000004_Node000005"><a xlink:title=" ">
<path fill="none" stroke="#63b8ff" d="M493,-1265.64C493,-1236.93 493,-1207.75 493,-1183.77"/>
<polygon fill="none" stroke="#63b8ff" points="489.5,-1265.52 493,-1275.52 496.5,-1265.52 489.5,-1265.52"/>
</a>
</g>
</g>
<!-- Node6&#45;&gt;Node3 -->
<g id="edge5_Node000003_Node000006" class="edge">
<title>Node6&#45;&gt;Node3</title>
<g id="a_edge5_Node000003_Node000006"><a xlink:title=" ">
<path fill="none" stroke="#63b8ff" d="M352.24,-850.02C362.63,-836.16 374.01,-820.98 385.15,-806.13"/>
<polygon fill="none" stroke="#63b8ff" points="385.06,-806.25 385.46,-799.05 392.26,-796.65 391.86,-803.85 385.06,-806.25"/>
</a>
</g>
<text xml:space="preserve" text-anchor="start" x="381.5" y="-819.5" font-family="Helvetica,sans-Serif" font-size="10.00" fill="grey">&#45;arcPrestiti</text>
</g>
<!-- Node10 -->
<g id="Node000010" class="node">
<title>Node10</title>
<g id="a_Node000010"><a xlink:href="classit_1_1unisa_1_1biblioteca_1_1gruppo21_1_1service_1_1_service_libri.html" target="_top" xlink:title=" ">
<polygon fill="white" stroke="none" points="164,-796 0,-796 0,-652 164,-652 164,-796"/>
<text xml:space="preserve" text-anchor="start" x="4" y="-782.5" font-family="Helvetica,sans-Serif" font-size="10.00">it.unisa.biblioteca.gruppo21.service.</text>
<text xml:space="preserve" text-anchor="start" x="56.5" y="-770.5" font-family="Helvetica,sans-Serif" font-size="10.00">ServiceLibri</text>
<text xml:space="preserve" text-anchor="start" x="80.5" y="-754.5" font-family="Helvetica,sans-Serif" font-size="10.00"> </text>
<text xml:space="preserve" text-anchor="start" x="23.44" y="-738.5" font-family="Helvetica,sans-Serif" font-size="10.00">+</text>
<text xml:space="preserve" text-anchor="start" x="52.88" y="-738.5" font-family="Helvetica,sans-Serif" font-size="10.00">ServiceLibri()</text>
<text xml:space="preserve" text-anchor="start" x="23.44" y="-722.5" font-family="Helvetica,sans-Serif" font-size="10.00">+</text>
<text xml:space="preserve" text-anchor="start" x="52.88" y="-722.5" font-family="Helvetica,sans-Serif" font-size="10.00">aggiungi()</text>
<text xml:space="preserve" text-anchor="start" x="23.44" y="-706.5" font-family="Helvetica,sans-Serif" font-size="10.00">+</text>
<text xml:space="preserve" text-anchor="start" x="52.88" y="-706.5" font-family="Helvetica,sans-Serif" font-size="10.00">aggiornaCopie()</text>
<text xml:space="preserve" text-anchor="start" x="23.44" y="-690.5" font-family="Helvetica,sans-Serif" font-size="10.00">+</text>
<text xml:space="preserve" text-anchor="start" x="52.88" y="-690.5" font-family="Helvetica,sans-Serif" font-size="10.00">rimuovi()</text>
<text xml:space="preserve" text-anchor="start" x="23.44" y="-674.5" font-family="Helvetica,sans-Serif" font-size="10.00">+</text>
<text xml:space="preserve" text-anchor="start" x="52.88" y="-674.5" font-family="Helvetica,sans-Serif" font-size="10.00">getLista()</text>
<text xml:space="preserve" text-anchor="start" x="23.44" y="-658.5" font-family="Helvetica,sans-Serif" font-size="10.00">+</text>
<text xml:space="preserve" text-anchor="start" x="52.88" y="-658.5" font-family="Helvetica,sans-Serif" font-size="10.00">cerca()</text>
<polygon fill="#bfbfbf" stroke="#bfbfbf" points="0,-766 0,-766 164,-766 164,-766 0,-766"/>
<polygon fill="#bfbfbf" stroke="#bfbfbf" points="0,-750 0,-750 164,-750 164,-750 0,-750"/>
<polygon fill="none" stroke="#bfbfbf" points="0,-652 0,-796 164,-796 164,-652 0,-652"/>
</a>
</g>
</g>
<!-- Node6&#45;&gt;Node10 -->
<g id="edge12_Node000010_Node000006" class="edge">
<title>Node6&#45;&gt;Node10</title>
<g id="a_edge12_Node000010_Node000006"><a xlink:title=" ">
<path fill="none" stroke="#63b8ff" d="M229.1,-850.14C220.78,-844.15 212.53,-838.03 204.75,-832 193.43,-823.22 181.79,-813.73 170.38,-804.15"/>
<polygon fill="none" stroke="#63b8ff" points="170.28,-804.07 163.12,-803.24 161.13,-796.31 168.29,-797.13 170.28,-804.07"/>
</a>
</g>
<text xml:space="preserve" text-anchor="start" x="207.75" y="-819.5" font-family="Helvetica,sans-Serif" font-size="10.00" fill="grey">&#45;arcPrestiti</text>
</g>
<!-- Node6&#45;&gt;Node11 -->
<g id="edge14_Node000011_Node000006" class="edge">
<title>Node6&#45;&gt;Node11</title>
<g id="a_edge14_Node000011_Node000006"><a xlink:title=" ">
<path fill="none" stroke="#63b8ff" d="M272.68,-850.28C269.8,-844.31 267.31,-838.16 265.5,-832 263.31,-824.54 261.8,-816.67 260.79,-808.71"/>
<polygon fill="none" stroke="#63b8ff" points="260.78,-808.59 256.25,-802.99 259.68,-796.64 264.21,-802.25 260.78,-808.59"/>
</a>
</g>
<text xml:space="preserve" text-anchor="start" x="268.5" y="-819.5" font-family="Helvetica,sans-Serif" font-size="10.00" fill="grey">&#45;archivioPrestiti</text>
</g>
<!-- Node7 -->
<g id="Node000007" class="node">
<title>Node7</title>
<g id="a_Node000007"><a xlink:href="classit_1_1unisa_1_1biblioteca_1_1gruppo21_1_1archive_1_1_archive_astratto.html" target="_top" xlink:title=" ">
<polygon fill="white" stroke="none" points="393,-1240 229,-1240 229,-1016 393,-1016 393,-1240"/>
<text xml:space="preserve" text-anchor="start" x="233" y="-1226.5" font-family="Helvetica,sans-Serif" font-size="10.00">it.unisa.biblioteca.gruppo21.archive.</text>
<text xml:space="preserve" text-anchor="start" x="251.38" y="-1214.5" font-family="Helvetica,sans-Serif" font-size="10.00">ArchiveAstratto&lt; Prestito &gt;</text>
<text xml:space="preserve" text-anchor="start" x="251.5" y="-1198.5" font-family="Helvetica,sans-Serif" font-size="10.00">#</text>
<text xml:space="preserve" text-anchor="start" x="279.25" y="-1198.5" font-family="Helvetica,sans-Serif" font-size="10.00">cache</text>
<text xml:space="preserve" text-anchor="start" x="251.5" y="-1182.5" font-family="Helvetica,sans-Serif" font-size="10.00">#</text>
<text xml:space="preserve" text-anchor="start" x="279.25" y="-1182.5" font-family="Helvetica,sans-Serif" font-size="10.00">file</text>
<text xml:space="preserve" text-anchor="start" x="251.12" y="-1166.5" font-family="Helvetica,sans-Serif" font-size="10.00">+</text>
<text xml:space="preserve" text-anchor="start" x="279.25" y="-1166.5" font-family="Helvetica,sans-Serif" font-size="10.00">ArchiveAstratto()</text>
<text xml:space="preserve" text-anchor="start" x="251.12" y="-1150.5" font-family="Helvetica,sans-Serif" font-size="10.00">+</text>
<text xml:space="preserve" text-anchor="start" x="279.25" y="-1150.5" font-family="Helvetica,sans-Serif" font-size="10.00">inizializzaDati()</text>
<text xml:space="preserve" text-anchor="start" x="251.12" y="-1134.5" font-family="Helvetica,sans-Serif" font-size="10.00">+</text>
<text xml:space="preserve" text-anchor="start" x="279.25" y="-1134.5" font-family="Helvetica,sans-Serif" font-size="10.00">cerca()</text>
<text xml:space="preserve" text-anchor="start" x="251.12" y="-1118.5" font-family="Helvetica,sans-Serif" font-size="10.00">+</text>
<text xml:space="preserve" text-anchor="start" x="279.25" y="-1118.5" font-family="Helvetica,sans-Serif" font-size="10.00">aggiungi()</text>
<text xml:space="preserve" text-anchor="start" x="251.12" y="-1102.5" font-family="Helvetica,sans-Serif" font-size="10.00">+</text>
<text xml:space="preserve" text-anchor="start" x="279.25" y="-1102.5" font-family="Helvetica,sans-Serif" font-size="10.00">cancella()</text>
<text xml:space="preserve" text-anchor="start" x="251.12" y="-1086.5" font-family="Helvetica,sans-Serif" font-size="10.00">+</text>
<text xml:space="preserve" text-anchor="start" x="279.25" y="-1086.5" font-family="Helvetica,sans-Serif" font-size="10.00">leggiTutti()</text>
<text xml:space="preserve" text-anchor="start" x="251.12" y="-1070.5" font-family="Helvetica,sans-Serif" font-size="10.00">+</text>
<text xml:space="preserve" text-anchor="start" x="279.25" y="-1070.5" font-family="Helvetica,sans-Serif" font-size="10.00">salvaTutto()</text>
<text xml:space="preserve" text-anchor="start" x="251.5" y="-1054.5" font-family="Helvetica,sans-Serif" font-size="10.00">#</text>
<text xml:space="preserve" text-anchor="start" x="279.25" y="-1054.5" font-family="Helvetica,sans-Serif" font-size="10.00">serializza()</text>
<text xml:space="preserve" text-anchor="start" x="251.5" y="-1038.5" font-family="Helvetica,sans-Serif" font-size="10.00">#</text>
<text xml:space="preserve" text-anchor="start" x="279.25" y="-1038.5" font-family="Helvetica,sans-Serif" font-size="10.00">deserializza()</text>
<text xml:space="preserve" text-anchor="start" x="252.62" y="-1022.5" font-family="Helvetica,sans-Serif" font-size="10.00">&#45;</text>
<text xml:space="preserve" text-anchor="start" x="279.25" y="-1022.5" font-family="Helvetica,sans-Serif" font-size="10.00">caricaDaFile()</text>
<polygon fill="#666666" stroke="#666666" points="229,-1210 229,-1210 393,-1210 393,-1210 229,-1210"/>
<polygon fill="#666666" stroke="#666666" points="229,-1178 229,-1178 277.25,-1178 277.25,-1178 229,-1178"/>
<polygon fill="#666666" stroke="#666666" points="277.25,-1178 277.25,-1178 393,-1178 393,-1178 277.25,-1178"/>
<polygon fill="none" stroke="#666666" points="229,-1016 229,-1240 393,-1240 393,-1016 229,-1016"/>
</a>
</g>
</g>
<!-- Node7&#45;&gt;Node6 -->
<g id="edge6_Node000006_Node000007" class="edge">
<title>Node7&#45;&gt;Node6</title>
<g id="a_edge6_Node000006_Node000007"><a xlink:title=" ">
<path fill="none" stroke="#63b8ff" d="M311,-1004.6C311,-989.71 311,-975.12 311,-961.96"/>
<polygon fill="none" stroke="#63b8ff" points="307.5,-1004.52 311,-1014.52 314.5,-1004.52 307.5,-1004.52"/>
</a>
</g>
</g>
<!-- Node8 -->
<g id="Node000008" class="node">
<title>Node8</title>
<g id="a_Node000008"><a xlink:href="classit_1_1unisa_1_1biblioteca_1_1gruppo21_1_1archive_1_1_archive_libri.html" target="_top" xlink:title=" ">
<polygon fill="white" stroke="none" points="211,-1184 47,-1184 47,-1072 211,-1072 211,-1184"/>
<text xml:space="preserve" text-anchor="start" x="51" y="-1170.5" font-family="Helvetica,sans-Serif" font-size="10.00">it.unisa.biblioteca.gruppo21.archive.</text>
<text xml:space="preserve" text-anchor="start" x="103.5" y="-1158.5" font-family="Helvetica,sans-Serif" font-size="10.00">ArchiveLibri</text>
<text xml:space="preserve" text-anchor="start" x="127.5" y="-1142.5" font-family="Helvetica,sans-Serif" font-size="10.00"> </text>
<text xml:space="preserve" text-anchor="start" x="73.06" y="-1126.5" font-family="Helvetica,sans-Serif" font-size="10.00">+</text>
<text xml:space="preserve" text-anchor="start" x="105.12" y="-1126.5" font-family="Helvetica,sans-Serif" font-size="10.00">ArchiveLibri()</text>
<text xml:space="preserve" text-anchor="start" x="73.06" y="-1110.5" font-family="Helvetica,sans-Serif" font-size="10.00">+</text>
<text xml:space="preserve" text-anchor="start" x="105.12" y="-1110.5" font-family="Helvetica,sans-Serif" font-size="10.00">cerca()</text>
<text xml:space="preserve" text-anchor="start" x="73.44" y="-1094.5" font-family="Helvetica,sans-Serif" font-size="10.00">#</text>
<text xml:space="preserve" text-anchor="start" x="105.12" y="-1094.5" font-family="Helvetica,sans-Serif" font-size="10.00">serializza()</text>
<text xml:space="preserve" text-anchor="start" x="73.44" y="-1078.5" font-family="Helvetica,sans-Serif" font-size="10.00">#</text>
<text xml:space="preserve" text-anchor="start" x="105.12" y="-1078.5" font-family="Helvetica,sans-Serif" font-size="10.00">deserializza()</text>
<polygon fill="#666666" stroke="#666666" points="47,-1154 47,-1154 211,-1154 211,-1154 47,-1154"/>
<polygon fill="#666666" stroke="#666666" points="47,-1138 47,-1138 211,-1138 211,-1138 47,-1138"/>
<polygon fill="none" stroke="#666666" points="47,-1072 47,-1184 211,-1184 211,-1072 47,-1072"/>
</a>
</g>
</g>
<!-- Node8&#45;&gt;Node6 -->
<g id="edge8_Node000006_Node000008" class="edge">
<title>Node8&#45;&gt;Node6</title>
<g id="a_edge8_Node000006_Node000008"><a xlink:title=" ">
<path fill="none" stroke="#63b8ff" d="M171.49,-1072.35C193.46,-1044.43 220.93,-1010.1 246.25,-980 248.6,-977.2 251.02,-974.36 253.47,-971.5"/>
<polygon fill="none" stroke="#63b8ff" points="253.47,-971.5 254.36,-964.35 261.31,-962.42 260.41,-969.58 253.47,-971.5"/>
</a>
</g>
<text xml:space="preserve" text-anchor="start" x="249.25" y="-985.5" font-family="Helvetica,sans-Serif" font-size="10.00" fill="grey">&#45;archivioLibri</text>
</g>
<!-- Node8&#45;&gt;Node10 -->
<g id="edge11_Node000010_Node000008" class="edge">
<title>Node8&#45;&gt;Node10</title>
<g id="a_edge11_Node000010_Node000008"><a xlink:title=" ">
<path fill="none" stroke="#63b8ff" d="M111.95,-1072.23C102.88,-1040.39 92.56,-999.32 87.5,-962 80.64,-911.41 79.14,-854.2 79.41,-808.66"/>
<polygon fill="none" stroke="#63b8ff" points="79.41,-808.74 75.47,-802.71 79.52,-796.74 83.47,-802.78 79.41,-808.74"/>
</a>
</g>
<text xml:space="preserve" text-anchor="start" x="90.5" y="-902.5" font-family="Helvetica,sans-Serif" font-size="10.00" fill="grey">&#45;arcLibri</text>
</g>
<!-- Node8&#45;&gt;Node11 -->
<g id="edge15_Node000011_Node000008" class="edge">
<title>Node8&#45;&gt;Node11</title>
<g id="a_edge15_Node000011_Node000008"><a xlink:title=" ">
<path fill="none" stroke="#63b8ff" d="M128.4,-1072.25C129.28,-1015.35 134.95,-924.38 159.25,-850 164.3,-834.56 172.34,-819.76 181.79,-806.09"/>
<polygon fill="none" stroke="#63b8ff" points="181.65,-806.28 181.96,-799.08 188.73,-796.59 188.42,-803.8 181.65,-806.28"/>
</a>
</g>
<text xml:space="preserve" text-anchor="start" x="162.25" y="-902.5" font-family="Helvetica,sans-Serif" font-size="10.00" fill="grey">&#45;archivioLibri</text>
</g>
<!-- Node9 -->
<g id="Node000009" class="node">
<title>Node9</title>
<g id="a_Node000009"><a xlink:href="classit_1_1unisa_1_1biblioteca_1_1gruppo21_1_1archive_1_1_archive_astratto.html" target="_top" xlink:title=" ">
<polygon fill="white" stroke="none" points="211,-1501 47,-1501 47,-1277 211,-1277 211,-1501"/>
<text xml:space="preserve" text-anchor="start" x="51" y="-1487.5" font-family="Helvetica,sans-Serif" font-size="10.00">it.unisa.biblioteca.gruppo21.archive.</text>
<text xml:space="preserve" text-anchor="start" x="75.75" y="-1475.5" font-family="Helvetica,sans-Serif" font-size="10.00">ArchiveAstratto&lt; Libro &gt;</text>
<text xml:space="preserve" text-anchor="start" x="69.5" y="-1459.5" font-family="Helvetica,sans-Serif" font-size="10.00">#</text>
<text xml:space="preserve" text-anchor="start" x="97.25" y="-1459.5" font-family="Helvetica,sans-Serif" font-size="10.00">cache</text>
<text xml:space="preserve" text-anchor="start" x="69.5" y="-1443.5" font-family="Helvetica,sans-Serif" font-size="10.00">#</text>
<text xml:space="preserve" text-anchor="start" x="97.25" y="-1443.5" font-family="Helvetica,sans-Serif" font-size="10.00">file</text>
<text xml:space="preserve" text-anchor="start" x="69.12" y="-1427.5" font-family="Helvetica,sans-Serif" font-size="10.00">+</text>
<text xml:space="preserve" text-anchor="start" x="97.25" y="-1427.5" font-family="Helvetica,sans-Serif" font-size="10.00">ArchiveAstratto()</text>
<text xml:space="preserve" text-anchor="start" x="69.12" y="-1411.5" font-family="Helvetica,sans-Serif" font-size="10.00">+</text>
<text xml:space="preserve" text-anchor="start" x="97.25" y="-1411.5" font-family="Helvetica,sans-Serif" font-size="10.00">inizializzaDati()</text>
<text xml:space="preserve" text-anchor="start" x="69.12" y="-1395.5" font-family="Helvetica,sans-Serif" font-size="10.00">+</text>
<text xml:space="preserve" text-anchor="start" x="97.25" y="-1395.5" font-family="Helvetica,sans-Serif" font-size="10.00">cerca()</text>
<text xml:space="preserve" text-anchor="start" x="69.12" y="-1379.5" font-family="Helvetica,sans-Serif" font-size="10.00">+</text>
<text xml:space="preserve" text-anchor="start" x="97.25" y="-1379.5" font-family="Helvetica,sans-Serif" font-size="10.00">aggiungi()</text>
<text xml:space="preserve" text-anchor="start" x="69.12" y="-1363.5" font-family="Helvetica,sans-Serif" font-size="10.00">+</text>
<text xml:space="preserve" text-anchor="start" x="97.25" y="-1363.5" font-family="Helvetica,sans-Serif" font-size="10.00">cancella()</text>
<text xml:space="preserve" text-anchor="start" x="69.12" y="-1347.5" font-family="Helvetica,sans-Serif" font-size="10.00">+</text>
<text xml:space="preserve" text-anchor="start" x="97.25" y="-1347.5" font-family="Helvetica,sans-Serif" font-size="10.00">leggiTutti()</text>
<text xml:space="preserve" text-anchor="start" x="69.12" y="-1331.5" font-family="Helvetica,sans-Serif" font-size="10.00">+</text>
<text xml:space="preserve" text-anchor="start" x="97.25" y="-1331.5" font-family="Helvetica,sans-Serif" font-size="10.00">salvaTutto()</text>
<text xml:space="preserve" text-anchor="start" x="69.5" y="-1315.5" font-family="Helvetica,sans-Serif" font-size="10.00">#</text>
<text xml:space="preserve" text-anchor="start" x="97.25" y="-1315.5" font-family="Helvetica,sans-Serif" font-size="10.00">serializza()</text>
<text xml:space="preserve" text-anchor="start" x="69.5" y="-1299.5" font-family="Helvetica,sans-Serif" font-size="10.00">#</text>
<text xml:space="preserve" text-anchor="start" x="97.25" y="-1299.5" font-family="Helvetica,sans-Serif" font-size="10.00">deserializza()</text>
<text xml:space="preserve" text-anchor="start" x="70.62" y="-1283.5" font-family="Helvetica,sans-Serif" font-size="10.00">&#45;</text>
<text xml:space="preserve" text-anchor="start" x="97.25" y="-1283.5" font-family="Helvetica,sans-Serif" font-size="10.00">caricaDaFile()</text>
<polygon fill="#666666" stroke="#666666" points="47,-1471 47,-1471 211,-1471 211,-1471 47,-1471"/>
<polygon fill="#666666" stroke="#666666" points="47,-1439 47,-1439 95.25,-1439 95.25,-1439 47,-1439"/>
<polygon fill="#666666" stroke="#666666" points="95.25,-1439 95.25,-1439 211,-1439 211,-1439 95.25,-1439"/>
<polygon fill="none" stroke="#666666" points="47,-1277 47,-1501 211,-1501 211,-1277 47,-1277"/>
</a>
</g>
</g>
<!-- Node9&#45;&gt;Node8 -->
<g id="edge9_Node000008_Node000009" class="edge">
<title>Node9&#45;&gt;Node8</title>
<g id="a_edge9_Node000008_Node000009"><a xlink:title=" ">
<path fill="none" stroke="#63b8ff" d="M129,-1265.64C129,-1236.93 129,-1207.75 129,-1183.77"/>
<polygon fill="none" stroke="#63b8ff" points="125.5,-1265.52 129,-1275.52 132.5,-1265.52 125.5,-1265.52"/>
</a>
</g>
</g>
<!-- Node10&#45;&gt;Node2 -->
<g id="edge10_Node000002_Node000010" class="edge">
<title>Node10&#45;&gt;Node2</title>
<g id="a_edge10_Node000002_Node000010"><a xlink:title=" ">
<path fill="none" stroke="#63b8ff" d="M130.06,-652.24C143.83,-631.95 159.31,-609.16 174.72,-586.47"/>
<polygon fill="none" stroke="#63b8ff" points="174.78,-586.38 174.84,-579.17 181.52,-576.45 181.46,-583.66 174.78,-586.38"/>
</a>
</g>
<text xml:space="preserve" text-anchor="start" x="154.35" y="-621.5" font-family="Helvetica,sans-Serif" font-size="10.00" fill="grey">&#45;serviceLibri</text>
</g>
<!-- Node11&#45;&gt;Node2 -->
<g id="edge13_Node000002_Node000011" class="edge">
<title>Node11&#45;&gt;Node2</title>
<g id="a_edge13_Node000002_Node000011"><a xlink:title=" ">
<path fill="none" stroke="#63b8ff" d="M264,-652.24C264,-639.16 264,-625.05 264,-610.59"/>
<polygon fill="none" stroke="#63b8ff" points="264,-610.71 260,-604.71 264,-598.71 268,-604.71 264,-610.71"/>
</a>
</g>
<text xml:space="preserve" text-anchor="start" x="267" y="-621.5" font-family="Helvetica,sans-Serif" font-size="10.00" fill="grey">&#45;servicePrestiti</text>
</g>
</g>
</svg>
