<?xml version="1.0" encoding="UTF-8" standalone="no"?>
<!DOCTYPE svg PUBLIC "-//W3C//DTD SVG 1.1//EN"
 "http://www.w3.org/Graphics/SVG/1.1/DTD/svg11.dtd">
<!-- Generated by graphviz version 14.1.0 (20251206.1807)
 -->
<!-- Title: it.unisa.biblioteca.gruppo21.entity.Prestito.StatoPrestito Pages: 1 -->
<svg width="164pt" height="104pt"
 viewBox="0.00 0.00 164.00 104.00" xmlns="http://www.w3.org/2000/svg" xmlns:xlink="http://www.w3.org/1999/xlink">
<g id="graph0" class="graph" transform="scale(1 1) rotate(0) translate(4 100)">
<title>it.unisa.biblioteca.gruppo21.entity.Prestito.StatoPrestito</title>
<!-- Node1 -->
<g id="Node000001" class="node">
<title>Node1</title>
<g id="a_Node000001"><a xlink:title="Enumerazione che definisce gli stati possibili del ciclo di vita di un prestito.">
<polygon fill="#999999" stroke="none" points="155.75,-96 0,-96 0,0 155.75,0 155.75,-96"/>
<text xml:space="preserve" text-anchor="start" x="4" y="-82.5" font-family="Helvetica,sans-Serif" font-size="10.00">it.unisa.biblioteca.gruppo21.entity.</text>
<text xml:space="preserve" text-anchor="start" x="31" y="-70.5" font-family="Helvetica,sans-Serif" font-size="10.00">Prestito.StatoPrestito</text>
<text xml:space="preserve" text-anchor="start" x="23.25" y="-54.5" font-family="Helvetica,sans-Serif" font-size="10.00">+</text>
<text xml:space="preserve" text-anchor="start" x="52.5" y="-54.5" font-family="Helvetica,sans-Serif" font-size="10.00">ATTIVO</text>
<text xml:space="preserve" text-anchor="start" x="23.25" y="-38.5" font-family="Helvetica,sans-Serif" font-size="10.00">+</text>
<text xml:space="preserve" text-anchor="start" x="52.5" y="-38.5" font-family="Helvetica,sans-Serif" font-size="10.00">RESTITUITO</text>
<text xml:space="preserve" text-anchor="start" x="23.25" y="-22.5" font-family="Helvetica,sans-Serif" font-size="10.00">+</text>
<text xml:space="preserve" text-anchor="start" x="52.5" y="-22.5" font-family="Helvetica,sans-Serif" font-size="10.00">IN_RITARDO</text>
<text xml:space="preserve" text-anchor="start" x="76.38" y="-6.5" font-family="Helvetica,sans-Serif" font-size="10.00"> </text>
<polygon fill="#666666" stroke="#666666" points="0,-66 0,-66 155.75,-66 155.75,-66 0,-66"/>
<polygon fill="#666666" stroke="#666666" points="0,-18 0,-18 50.5,-18 50.5,-18 0,-18"/>
<polygon fill="#666666" stroke="#666666" points="50.5,-18 50.5,-18 155.75,-18 155.75,-18 50.5,-18"/>
<polygon fill="none" stroke="#666666" points="0,0 0,-96 155.75,-96 155.75,0 0,0"/>
</a>
</g>
</g>
</g>
</svg>
