<?xml version="1.0" encoding="UTF-8" standalone="no"?>
<!DOCTYPE svg PUBLIC "-//W3C//DTD SVG 1.1//EN"
 "http://www.w3.org/Graphics/SVG/1.1/DTD/svg11.dtd">
<!-- Generated by graphviz version 14.1.0 (20251206.1807)
 -->
<!-- Title: Graphical Class Hierarchy Pages: 1 -->
<svg width="276pt" height="140pt"
 viewBox="0.00 0.00 276.00 140.00" xmlns="http://www.w3.org/2000/svg" xmlns:xlink="http://www.w3.org/1999/xlink">
<g id="graph0" class="graph" transform="scale(1 1) rotate(0) translate(4 136)">
<title>Graphical Class Hierarchy</title>
<!-- Node0 -->
<g id="Node000000" class="node">
<title>Node0</title>
<g id="a_Node000000"><a xlink:title=" ">
<polygon fill="#e0e0e0" stroke="#999999" points="68.5,-76 0,-76 0,-56 68.5,-56 68.5,-76"/>
<text xml:space="preserve" text-anchor="middle" x="34.25" y="-62.5" font-family="Helvetica,sans-Serif" font-size="10.00">Comparable</text>
</a>
</g>
</g>
<!-- Node1 -->
<g id="Node000001" class="node">
<title>Node1</title>
<g id="a_Node000001"><a xlink:href="classit_1_1unisa_1_1biblioteca_1_1gruppo21_1_1entity_1_1_libro.html" target="_top" xlink:title=" ">
<polygon fill="white" stroke="#666666" points="268.25,-132 104.5,-132 104.5,-100 268.25,-100 268.25,-132"/>
<text xml:space="preserve" text-anchor="start" x="112.5" y="-118.5" font-family="Helvetica,sans-Serif" font-size="10.00">it.unisa.biblioteca.gruppo21.entity.</text>
<text xml:space="preserve" text-anchor="middle" x="186.38" y="-106.5" font-family="Helvetica,sans-Serif" font-size="10.00">Libro</text>
</a>
</g>
</g>
<!-- Node0&#45;&gt;Node1 -->
<g id="edge2_Node000000_Node000001" class="edge">
<title>Node0&#45;&gt;Node1</title>
<g id="a_edge2_Node000000_Node000001"><a xlink:title=" ">
<path fill="none" stroke="#63b8ff" d="M73.93,-80.32C83.86,-83.9 94.55,-87.67 104.5,-91 113,-93.85 122.04,-96.76 130.88,-99.54"/>
<polygon fill="#63b8ff" stroke="#63b8ff" points="75.13,-77.04 64.54,-76.91 72.74,-83.62 75.13,-77.04"/>
</a>
</g>
</g>
<!-- Node2 -->
<g id="Node000002" class="node">
<title>Node2</title>
<g id="a_Node000002"><a xlink:href="classit_1_1unisa_1_1biblioteca_1_1gruppo21_1_1entity_1_1_prestito.html" target="_top" xlink:title=" ">
<polygon fill="white" stroke="#666666" points="268.25,-82 104.5,-82 104.5,-50 268.25,-50 268.25,-82"/>
<text xml:space="preserve" text-anchor="start" x="112.5" y="-68.5" font-family="Helvetica,sans-Serif" font-size="10.00">it.unisa.biblioteca.gruppo21.entity.</text>
<text xml:space="preserve" text-anchor="middle" x="186.38" y="-56.5" font-family="Helvetica,sans-Serif" font-size="10.00">Prestito</text>
</a>
</g>
</g>
<!-- Node0&#45;&gt;Node2 -->
<g id="edge3_Node000000_Node000002" class="edge">
<title>Node0&#45;&gt;Node2</title>
<g id="a_edge3_Node000000_Node000002"><a xlink:title=" ">
<path fill="none" stroke="#63b8ff" d="M80.42,-66C88.02,-66 96.1,-66 104.29,-66"/>
<polygon fill="#63b8ff" stroke="#63b8ff" points="80.45,-62.5 70.45,-66 80.45,-69.5 80.45,-62.5"/>
</a>
</g>
</g>
<!-- Node3 -->
<g id="Node000003" class="node">
<title>Node3</title>
<g id="a_Node000003"><a xlink:href="classit_1_1unisa_1_1biblioteca_1_1gruppo21_1_1entity_1_1_utente.html" target="_top" xlink:title=" ">
<polygon fill="white" stroke="#666666" points="268.25,-32 104.5,-32 104.5,0 268.25,0 268.25,-32"/>
<text xml:space="preserve" text-anchor="start" x="112.5" y="-18.5" font-family="Helvetica,sans-Serif" font-size="10.00">it.unisa.biblioteca.gruppo21.entity.</text>
<text xml:space="preserve" text-anchor="middle" x="186.38" y="-6.5" font-family="Helvetica,sans-Serif" font-size="10.00">Utente</text>
</a>
</g>
</g>
<!-- Node0&#45;&gt;Node3 -->
<g id="edge4_Node000000_Node000003" class="edge">
<title>Node0&#45;&gt;Node3</title>
<g id="a_edge4_Node000000_Node000003"><a xlink:title=" ">
<path fill="none" stroke="#63b8ff" d="M73.93,-51.68C83.86,-48.1 94.55,-44.33 104.5,-41 113,-38.15 122.04,-35.24 130.88,-32.46"/>
<polygon fill="#63b8ff" stroke="#63b8ff" points="72.74,-48.38 64.54,-55.09 75.13,-54.96 72.74,-48.38"/>
</a>
</g>
</g>
</g>
</svg>
