<?xml version="1.0" encoding="UTF-8" standalone="no"?>
<!DOCTYPE svg PUBLIC "-//W3C//DTD SVG 1.1//EN"
 "http://www.w3.org/Graphics/SVG/1.1/DTD/svg11.dtd">
<!-- Generated by graphviz version 14.1.0 (20251206.1807)
 -->
<!-- Title: Graphical Class Hierarchy Pages: 1 -->
<svg width="351pt" height="140pt"
 viewBox="0.00 0.00 351.00 140.00" xmlns="http://www.w3.org/2000/svg" xmlns:xlink="http://www.w3.org/1999/xlink">
<g id="graph0" class="graph" transform="scale(1 1) rotate(0) translate(4 136)">
<title>Graphical Class Hierarchy</title>
<!-- Node0 -->
<g id="Node000000" class="node">
<title>Node0</title>
<g id="a_Node000000"><a xlink:href="classit_1_1unisa_1_1biblioteca_1_1gruppo21_1_1gui_1_1_abstract_view_controller.html" target="_top" xlink:title=" ">
<polygon fill="white" stroke="#666666" points="153.25,-82 0,-82 0,-50 153.25,-50 153.25,-82"/>
<text xml:space="preserve" text-anchor="start" x="8" y="-68.5" font-family="Helvetica,sans-Serif" font-size="10.00">it.unisa.biblioteca.gruppo21.gui.</text>
<text xml:space="preserve" text-anchor="middle" x="76.62" y="-56.5" font-family="Helvetica,sans-Serif" font-size="10.00">AbstractViewController</text>
</a>
</g>
</g>
<!-- Node1 -->
<g id="Node000001" class="node">
<title>Node1</title>
<g id="a_Node000001"><a xlink:href="classit_1_1unisa_1_1biblioteca_1_1gruppo21_1_1gui_1_1_view_libri_controller.html" target="_top" xlink:title=" ">
<polygon fill="white" stroke="#666666" points="342.5,-132 189.25,-132 189.25,-100 342.5,-100 342.5,-132"/>
<text xml:space="preserve" text-anchor="start" x="197.25" y="-118.5" font-family="Helvetica,sans-Serif" font-size="10.00">it.unisa.biblioteca.gruppo21.gui.</text>
<text xml:space="preserve" text-anchor="middle" x="265.88" y="-106.5" font-family="Helvetica,sans-Serif" font-size="10.00">ViewLibriController</text>
</a>
</g>
</g>
<!-- Node0&#45;&gt;Node1 -->
<g id="edge9_Node000000_Node000001" class="edge">
<title>Node0&#45;&gt;Node1</title>
<g id="a_edge9_Node000000_Node000001"><a xlink:title=" ">
<path fill="none" stroke="#63b8ff" d="M149.99,-85.32C167.58,-90.02 186.23,-95 203.27,-99.55"/>
<polygon fill="#63b8ff" stroke="#63b8ff" points="151.22,-82.03 140.66,-82.83 149.42,-88.79 151.22,-82.03"/>
</a>
</g>
</g>
<!-- Node2 -->
<g id="Node000002" class="node">
<title>Node2</title>
<g id="a_Node000002"><a xlink:href="classit_1_1unisa_1_1biblioteca_1_1gruppo21_1_1gui_1_1_view_prestiti_controller.html" target="_top" xlink:title=" ">
<polygon fill="white" stroke="#666666" points="342.5,-82 189.25,-82 189.25,-50 342.5,-50 342.5,-82"/>
<text xml:space="preserve" text-anchor="start" x="197.25" y="-68.5" font-family="Helvetica,sans-Serif" font-size="10.00">it.unisa.biblioteca.gruppo21.gui.</text>
<text xml:space="preserve" text-anchor="middle" x="265.88" y="-56.5" font-family="Helvetica,sans-Serif" font-size="10.00">ViewPrestitiController</text>
</a>
</g>
</g>
<!-- Node0&#45;&gt;Node2 -->
<g id="edge10_Node000000_Node000002" class="edge">
<title>Node0&#45;&gt;Node2</title>
<g id="a_edge10_Node000000_Node000002"><a xlink:title=" ">
<path fill="none" stroke="#63b8ff" d="M164.81,-66C172.85,-66 180.95,-66 188.88,-66"/>
<polygon fill="#63b8ff" stroke="#63b8ff" points="165.03,-62.5 155.03,-66 165.03,-69.5 165.03,-62.5"/>
</a>
</g>
</g>
<!-- Node3 -->
<g id="Node000003" class="node">
<title>Node3</title>
<g id="a_Node000003"><a xlink:href="classit_1_1unisa_1_1biblioteca_1_1gruppo21_1_1gui_1_1_view_utenti_controller.html" target="_top" xlink:title=" ">
<polygon fill="white" stroke="#666666" points="342.5,-32 189.25,-32 189.25,0 342.5,0 342.5,-32"/>
<text xml:space="preserve" text-anchor="start" x="197.25" y="-18.5" font-family="Helvetica,sans-Serif" font-size="10.00">it.unisa.biblioteca.gruppo21.gui.</text>
<text xml:space="preserve" text-anchor="middle" x="265.88" y="-6.5" font-family="Helvetica,sans-Serif" font-size="10.00">ViewUtentiController</text>
</a>
</g>
</g>
<!-- Node0&#45;&gt;Node3 -->
<g id="edge11_Node000000_Node000003" class="edge">
<title>Node0&#45;&gt;Node3</title>
<g id="a_edge11_Node000000_Node000003"><a xlink:title=" ">
<path fill="none" stroke="#63b8ff" d="M149.99,-46.68C167.58,-41.98 186.23,-37 203.27,-32.45"/>
<polygon fill="#63b8ff" stroke="#63b8ff" points="149.42,-43.21 140.66,-49.17 151.22,-49.97 149.42,-43.21"/>
</a>
</g>
</g>
</g>
</svg>
