<?xml version="1.0" encoding="UTF-8" standalone="no"?>
<!DOCTYPE svg PUBLIC "-//W3C//DTD SVG 1.1//EN"
 "http://www.w3.org/Graphics/SVG/1.1/DTD/svg11.dtd">
<!-- Generated by graphviz version 14.1.0 (20251206.1807)
 -->
<!-- Title: it.unisa.biblioteca.gruppo21.archive.ArchiveInterfaccia&lt; T &gt; Pages: 1 -->
<svg width="172pt" height="120pt"
 viewBox="0.00 0.00 172.00 120.00" xmlns="http://www.w3.org/2000/svg" xmlns:xlink="http://www.w3.org/1999/xlink">
<g id="graph0" class="graph" transform="scale(1 1) rotate(0) translate(4 116)">
<title>it.unisa.biblioteca.gruppo21.archive.ArchiveInterfaccia&lt; T &gt;</title>
<!-- Node1 -->
<g id="Node000001" class="node">
<title>Node1</title>
<g id="a_Node000001"><a xlink:title=" ">
<polygon fill="#999999" stroke="none" points="164,-112 0,-112 0,0 164,0 164,-112"/>
<text xml:space="preserve" text-anchor="start" x="4" y="-98.5" font-family="Helvetica,sans-Serif" font-size="10.00">it.unisa.biblioteca.gruppo21.archive.</text>
<text xml:space="preserve" text-anchor="start" x="31" y="-86.5" font-family="Helvetica,sans-Serif" font-size="10.00">ArchiveInterfaccia&lt; T &gt;</text>
<text xml:space="preserve" text-anchor="start" x="80.5" y="-70.5" font-family="Helvetica,sans-Serif" font-size="10.00"> </text>
<text xml:space="preserve" text-anchor="start" x="29.06" y="-54.5" font-family="Helvetica,sans-Serif" font-size="10.00">+</text>
<text xml:space="preserve" text-anchor="start" x="64.12" y="-54.5" font-family="Helvetica,sans-Serif" font-size="10.00">aggiungi()</text>
<text xml:space="preserve" text-anchor="start" x="29.06" y="-38.5" font-family="Helvetica,sans-Serif" font-size="10.00">+</text>
<text xml:space="preserve" text-anchor="start" x="64.12" y="-38.5" font-family="Helvetica,sans-Serif" font-size="10.00">cancella()</text>
<text xml:space="preserve" text-anchor="start" x="29.06" y="-22.5" font-family="Helvetica,sans-Serif" font-size="10.00">+</text>
<text xml:space="preserve" text-anchor="start" x="64.12" y="-22.5" font-family="Helvetica,sans-Serif" font-size="10.00">cerca()</text>
<text xml:space="preserve" text-anchor="start" x="29.06" y="-6.5" font-family="Helvetica,sans-Serif" font-size="10.00">+</text>
<text xml:space="preserve" text-anchor="start" x="64.12" y="-6.5" font-family="Helvetica,sans-Serif" font-size="10.00">leggiTutti()</text>
<polygon fill="#666666" stroke="#666666" points="0,-82 0,-82 164,-82 164,-82 0,-82"/>
<polygon fill="#666666" stroke="#666666" points="0,-66 0,-66 164,-66 164,-66 0,-66"/>
<polygon fill="none" stroke="#666666" points="0,0 0,-112 164,-112 164,0 0,0"/>
</a>
</g>
</g>
</g>
</svg>
